<svg width="409" height="325" viewBox="0 0 409 325" fill="none" xmlns="http://www.w3.org/2000/svg">
<path d="M263.78 323.57L57.7802 204.63C56.3402 203.8 56.3402 202.46 57.7802 201.63L178.46 131.92C179.266 131.513 180.157 131.301 181.06 131.301C181.963 131.301 182.854 131.513 183.66 131.92L389.66 250.92C391.1 251.74 391.1 253.09 389.66 253.92L268.94 323.62C268.136 324.015 267.25 324.216 266.354 324.208C265.458 324.199 264.577 323.981 263.78 323.57Z" fill="#E6E6E6"/>
<path d="M55.15 291.25C85.1722 291.25 109.51 279.65 109.51 265.34C109.51 251.03 85.1722 239.43 55.15 239.43C25.1278 239.43 0.790039 251.03 0.790039 265.34C0.790039 279.65 25.1278 291.25 55.15 291.25Z" fill="#EBEBEB"/>
<path d="M220.94 152.1C223.48 152.15 227.68 148.86 228.32 144.78C228.96 140.7 230.17 137.48 235.98 135.28C241.79 133.08 245.06 132.08 246.92 127.02C248.78 121.96 245.92 116.26 245.11 111.95C244.3 107.64 248.29 102.62 254.11 97.88C259.93 93.14 263.29 88.14 258.11 85.14C252.93 82.14 246.47 83.4 240.82 87.03C235.17 90.66 230.74 95.42 223.82 94.79C216.9 94.16 212.99 97.12 211.63 102.57C210.27 108.02 212.24 114.93 207.08 116.64V139.79L220.94 152.1Z" fill="#30B11B"/>
<path d="M210.461 141.66H210.351C210.222 141.631 210.111 141.553 210.04 141.443C209.969 141.332 209.944 141.199 209.971 141.07C215.261 118.17 239.14 92.82 252.04 87.56C252.102 87.5274 252.17 87.5079 252.239 87.503C252.309 87.498 252.379 87.5077 252.444 87.5313C252.51 87.5549 252.57 87.592 252.62 87.6401C252.671 87.6883 252.71 87.7464 252.737 87.8108C252.764 87.8753 252.776 87.9445 252.775 88.0142C252.773 88.0839 252.757 88.1524 252.727 88.2155C252.697 88.2785 252.654 88.3346 252.602 88.3801C252.549 88.4257 252.487 88.4597 252.421 88.48C239.711 93.67 216.171 118.68 210.951 141.29C210.92 141.397 210.856 141.49 210.767 141.557C210.679 141.624 210.571 141.66 210.461 141.66V141.66Z" fill="white"/>
<path d="M223.76 114.29C223.642 114.289 223.528 114.247 223.439 114.17C223.349 114.093 223.289 113.987 223.27 113.87C222.573 109.992 221.195 106.268 219.2 102.87C219.133 102.757 219.111 102.621 219.141 102.493C219.171 102.364 219.25 102.252 219.36 102.18C219.416 102.145 219.478 102.122 219.543 102.111C219.608 102.1 219.675 102.102 219.739 102.117C219.803 102.132 219.863 102.159 219.917 102.197C219.97 102.236 220.016 102.284 220.05 102.34C222.129 105.858 223.552 109.724 224.25 113.75C224.263 113.815 224.263 113.881 224.249 113.945C224.235 114.01 224.208 114.071 224.169 114.124C224.131 114.178 224.082 114.223 224.025 114.256C223.969 114.29 223.906 114.312 223.84 114.32L223.76 114.29Z" fill="white"/>
<path d="M219.63 121.25C219.519 121.25 219.412 121.214 219.323 121.147C219.235 121.08 219.17 120.987 219.14 120.88C219.124 120.816 219.12 120.75 219.129 120.685C219.138 120.62 219.16 120.557 219.193 120.5C219.227 120.444 219.271 120.394 219.324 120.355C219.376 120.315 219.436 120.286 219.5 120.27C227.36 118.19 237.29 120.18 237.71 120.27C237.776 120.283 237.838 120.309 237.894 120.346C237.949 120.384 237.997 120.431 238.034 120.487C238.071 120.543 238.097 120.605 238.11 120.671C238.123 120.737 238.123 120.804 238.11 120.87C238.097 120.936 238.071 120.998 238.034 121.054C237.996 121.109 237.949 121.157 237.893 121.194C237.837 121.231 237.775 121.257 237.709 121.27C237.643 121.283 237.576 121.283 237.51 121.27C237.41 121.27 227.38 119.27 219.75 121.27C219.709 121.273 219.668 121.266 219.63 121.25Z" fill="white"/>
<path d="M209.59 23.41L246.06 2.35001L254.19 7.04001L246.06 21.11L209.59 42.17V23.41Z" fill="#455A64"/>
<path d="M246.059 2.35L241.999 0L205.439 21.11L209.589 23.41L246.059 2.35Z" fill="#37474F"/>
<path d="M214.88 32.84C214.563 32.9701 214.222 33.0314 213.88 33.02C213.79 33.02 213.76 33.02 213.76 32.95C213.751 32.9038 213.751 32.8562 213.76 32.81L214.07 32.15C214.092 32.0933 214.126 32.0422 214.17 32H214.3C214.571 31.9947 214.841 31.951 215.1 31.87C215.425 31.7716 215.738 31.6339 216.03 31.46C216.403 31.2642 216.741 31.0073 217.03 30.7C217.232 30.4547 217.345 30.1479 217.35 29.83C217.358 29.7618 217.352 29.6925 217.331 29.627C217.311 29.5614 217.276 29.501 217.23 29.45C217.123 29.3819 216.996 29.3536 216.87 29.37C216.615 29.3901 216.361 29.4268 216.11 29.48H215.9C215.57 29.5434 215.236 29.5802 214.9 29.59C214.662 29.6008 214.428 29.5264 214.24 29.38C214.145 29.2834 214.072 29.167 214.027 29.0391C213.982 28.9112 213.966 28.7749 213.98 28.64C214.003 28.0201 214.231 27.4254 214.63 26.95C215.099 26.3586 215.68 25.8658 216.34 25.5C216.695 25.2902 217.07 25.116 217.46 24.98C217.723 24.8869 218.003 24.8528 218.28 24.88C218.35 24.88 218.39 24.88 218.39 24.98C218.4 25.0193 218.4 25.0606 218.39 25.1L218.09 25.76C218.067 25.811 218.037 25.8582 218 25.9C217.961 25.9106 217.919 25.9106 217.88 25.9C217.348 25.914 216.83 26.0806 216.39 26.38C216.048 26.5621 215.745 26.8102 215.5 27.11C215.306 27.351 215.2 27.6508 215.2 27.96C215.185 28.0275 215.188 28.0977 215.209 28.1637C215.229 28.2297 215.266 28.2893 215.317 28.3366C215.367 28.384 215.429 28.4174 215.496 28.4338C215.563 28.4502 215.634 28.4489 215.7 28.43C215.962 28.4049 216.222 28.3648 216.48 28.31H216.72C217.069 28.2361 217.424 28.1959 217.78 28.19C217.89 28.186 218 28.2043 218.103 28.2438C218.207 28.2833 218.301 28.3432 218.38 28.42C218.541 28.6352 218.616 28.9026 218.59 29.17C218.572 29.7627 218.358 30.3327 217.98 30.79C217.515 31.3846 216.933 31.878 216.27 32.24C215.828 32.4856 215.362 32.6866 214.88 32.84V32.84Z" fill="white"/>
<path d="M220.069 29.12C219.509 28.86 219.239 28.2 219.239 27.12C219.231 26.0842 219.519 25.0677 220.069 24.19C220.665 23.2623 221.488 22.5017 222.459 21.98C223.459 21.39 224.269 21.22 224.819 21.48C225.369 21.74 225.659 22.4 225.659 23.48C225.665 24.52 225.374 25.54 224.819 26.42C224.23 27.3397 223.418 28.0963 222.459 28.62C221.459 29.22 220.619 29.38 220.069 29.12ZM223.929 26.26C224.286 25.6112 224.465 24.88 224.449 24.14C224.449 23.34 224.279 22.84 223.929 22.62C223.579 22.4 223.089 22.49 222.439 22.87C221.812 23.219 221.291 23.7302 220.929 24.35C220.596 25.0021 220.435 25.7282 220.459 26.46C220.459 27.26 220.629 27.76 220.969 27.98C221.309 28.2 221.819 28.11 222.479 27.73C223.088 27.3812 223.589 26.8729 223.929 26.26V26.26Z" fill="white"/>
<path d="M227.86 25.2C227.686 25.2388 227.505 25.2374 227.332 25.1958C227.159 25.1542 226.997 25.0735 226.86 24.96C226.732 24.8149 226.634 24.6452 226.574 24.4612C226.514 24.2772 226.492 24.0828 226.51 23.89V20.12C226.506 20.0123 226.53 19.9055 226.58 19.81C226.65 19.7105 226.743 19.6284 226.85 19.57L227.35 19.29C227.386 19.2576 227.429 19.2336 227.476 19.2198C227.523 19.2059 227.572 19.2026 227.62 19.21C227.62 19.21 227.7 19.31 227.7 19.43V23.22C227.7 23.71 227.84 24 228.13 24.08C228.345 24.1079 228.563 24.0931 228.773 24.0364C228.982 23.9798 229.178 23.8825 229.35 23.75C229.828 23.4885 230.242 23.1228 230.56 22.68C230.842 22.2865 230.992 21.814 230.99 21.33V17.53C230.989 17.4214 231.016 17.3145 231.07 17.22C231.14 17.1205 231.233 17.0384 231.34 16.98L231.83 16.7C232.07 16.56 232.19 16.6 232.19 16.83V20.6C232.187 21.1136 232.068 21.6198 231.84 22.08C231.582 22.5993 231.245 23.075 230.84 23.49C230.402 23.9372 229.904 24.321 229.36 24.63C228.904 24.9209 228.394 25.1149 227.86 25.2Z" fill="white"/>
<path d="M234.93 21.19C234.87 21.19 234.84 21.1 234.84 20.98V15.88L233.2 16.82C233.08 16.89 233 16.92 232.95 16.89C232.9 16.86 232.88 16.8 232.88 16.68V16.46C232.874 16.3554 232.899 16.2515 232.95 16.16C233.016 16.0665 233.101 15.9881 233.2 15.93L237.68 13.35C237.716 13.3212 237.758 13.3002 237.802 13.2882C237.847 13.2761 237.894 13.2733 237.94 13.28C237.94 13.28 238.01 13.38 238.01 13.49V13.75C238.015 13.8514 237.991 13.9522 237.94 14.04C237.872 14.1359 237.783 14.2147 237.68 14.27L236.04 15.21V20.32C236.039 20.4252 236.012 20.5286 235.96 20.62C235.893 20.7266 235.795 20.8103 235.68 20.86L235.2 21.15C235.07 21.19 234.98 21.21 234.93 21.19Z" fill="white"/>
<path d="M238.819 18.94C238.769 18.94 238.749 18.84 238.749 18.73V13.05C238.745 12.9423 238.77 12.8355 238.819 12.74C238.893 12.6462 238.985 12.568 239.089 12.51L239.589 12.22C239.709 12.15 239.799 12.12 239.859 12.15C239.919 12.18 239.939 12.24 239.939 12.36V14.72L243.009 12.95V10.59C243.008 10.4814 243.036 10.3745 243.089 10.28C243.161 10.1779 243.258 10.0955 243.369 10.04L243.849 9.76001C243.979 9.68001 244.069 9.66 244.119 9.68C244.169 9.7 244.209 9.78001 244.209 9.90001V15.58C244.21 15.6822 244.183 15.7827 244.129 15.87C244.058 15.9749 243.962 16.0607 243.849 16.12L243.369 16.4C243.239 16.47 243.149 16.5 243.089 16.47C243.029 16.44 243.009 16.38 243.009 16.27V13.85L239.939 15.63V18.04C239.944 18.1458 239.916 18.2505 239.859 18.34C239.791 18.4416 239.698 18.5243 239.589 18.58L239.089 18.87C239.051 18.899 239.008 18.9202 238.961 18.9322C238.915 18.9442 238.867 18.9469 238.819 18.94Z" fill="white"/>
<path d="M205.37 44.49L168.89 23.43L160.76 28.12L168.89 42.19L205.37 63.25V44.49Z" fill="#455A64"/>
<path d="M168.89 23.43L172.95 21.08L209.51 42.19L205.37 44.49L168.89 23.43Z" fill="#37474F"/>
<path d="M172.339 38.46C172.28 38.3876 172.238 38.3018 172.219 38.21L170.519 31.32C170.513 31.2903 170.513 31.2597 170.519 31.23C170.519 31.14 170.579 31.13 170.719 31.23L171.589 31.74C171.676 31.7824 171.753 31.84 171.819 31.91C171.863 31.9695 171.894 32.0377 171.909 32.11L172.989 36.85L174.289 33.97C174.294 33.946 174.306 33.9242 174.324 33.9079C174.342 33.8916 174.365 33.8818 174.389 33.88C174.389 33.88 174.489 33.88 174.589 33.95L175.089 34.24C175.167 34.2772 175.236 34.3319 175.289 34.4C175.334 34.4638 175.368 34.5348 175.389 34.61L176.699 38.99L177.759 35.49C177.759 35.43 177.809 35.4 177.859 35.4C177.939 35.4035 178.016 35.4314 178.079 35.48L178.959 35.99C179.099 36.07 179.169 36.16 179.169 36.25C179.176 36.2763 179.176 36.3037 179.169 36.33L177.459 41.17C177.459 41.24 177.389 41.28 177.339 41.28C177.254 41.2753 177.171 41.2476 177.099 41.2L176.519 40.86C176.434 40.8126 176.356 40.7519 176.289 40.68C176.23 40.6021 176.186 40.514 176.159 40.42L174.859 35.92L173.559 38.92C173.559 38.99 173.489 39.03 173.439 39.03C173.355 39.0207 173.273 38.9934 173.199 38.95L172.609 38.6C172.51 38.574 172.418 38.5262 172.339 38.46V38.46Z" fill="white"/>
<path d="M180.32 42.99C180.26 42.8977 180.228 42.7899 180.23 42.68V37C180.23 36.88 180.26 36.81 180.32 36.79C180.38 36.79 180.48 36.79 180.63 36.89L185.12 39.48C185.237 39.5401 185.339 39.6255 185.42 39.73C185.474 39.8205 185.502 39.9245 185.5 40.03V40.28C185.5 40.4 185.5 40.47 185.42 40.49C185.34 40.51 185.27 40.49 185.12 40.4L181.61 38.4V40.22L184.16 41.69C184.277 41.7498 184.38 41.8353 184.46 41.94C184.522 42.0275 184.553 42.1329 184.55 42.24V42.46C184.55 42.57 184.55 42.64 184.46 42.66C184.352 42.6669 184.246 42.635 184.16 42.57L181.61 41.1V42.92L185.11 44.92C185.233 44.9798 185.339 45.0691 185.42 45.18C185.474 45.2705 185.502 45.3745 185.5 45.48V45.73C185.5 45.85 185.5 45.91 185.42 45.93C185.309 45.927 185.201 45.8923 185.11 45.83L180.63 43.24C180.507 43.1831 180.401 43.0973 180.32 42.99V42.99Z" fill="white"/>
<path d="M187.57 47.25C187.139 46.9297 186.743 46.5643 186.39 46.16C186.29 46.05 186.25 45.98 186.25 45.93C186.243 45.916 186.239 45.9006 186.239 45.885C186.239 45.8694 186.243 45.854 186.25 45.84L186.61 45.56C186.626 45.5478 186.645 45.5412 186.665 45.5412C186.685 45.5412 186.704 45.5478 186.72 45.56C186.778 45.5933 186.829 45.6374 186.87 45.69C187.153 46.0013 187.46 46.289 187.79 46.55C188.127 46.8265 188.485 47.0772 188.86 47.3C189.195 47.5218 189.573 47.6685 189.97 47.73C190.22 47.73 190.34 47.58 190.34 47.26C190.344 47.0737 190.295 46.8902 190.2 46.73C190.087 46.5392 189.949 46.3644 189.79 46.21C189.61 46.0233 189.32 45.7433 188.92 45.37L188.67 45.15C188.2 44.71 187.81 44.33 187.51 44.01C187.217 43.7089 186.962 43.3731 186.75 43.01C186.554 42.6905 186.447 42.3246 186.44 41.95C186.44 41.38 186.69 41.08 187.19 41.06C187.906 41.1034 188.596 41.3382 189.19 41.74C189.638 42.0018 190.069 42.2924 190.48 42.61C190.827 42.8805 191.142 43.1891 191.42 43.53C191.487 43.5907 191.532 43.6713 191.55 43.76C191.557 43.7722 191.561 43.786 191.561 43.8C191.561 43.814 191.557 43.8278 191.55 43.84L191.2 44.13C191.185 44.1388 191.168 44.1434 191.15 44.1434C191.132 44.1434 191.115 44.1388 191.1 44.13C191.044 44.09 190.994 44.043 190.95 43.99C190.456 43.4428 189.879 42.9771 189.24 42.61C188.942 42.4065 188.599 42.2795 188.24 42.24C188.01 42.24 187.9 42.41 187.9 42.72C187.896 42.9126 187.945 43.1026 188.04 43.27C188.16 43.4674 188.304 43.6488 188.47 43.81C188.65 44 188.96 44.28 189.38 44.66L189.64 44.91C190.17 45.39 190.58 45.8 190.88 46.12C191.149 46.4223 191.378 46.7585 191.56 47.12C191.72 47.4295 191.805 47.7718 191.81 48.12C191.81 48.66 191.57 48.95 191.11 48.99C190.392 48.9569 189.699 48.7211 189.11 48.31C188.574 47.9906 188.06 47.6365 187.57 47.25V47.25Z" fill="white"/>
<path d="M194.46 51.16C194.392 51.0715 194.356 50.9618 194.36 50.85V45.74L192.46 44.65C192.346 44.5901 192.244 44.5086 192.16 44.41C192.106 44.3195 192.078 44.2155 192.08 44.11V43.86C192.08 43.74 192.08 43.67 192.16 43.64C192.24 43.61 192.32 43.64 192.46 43.74L197.63 46.74C197.746 46.8028 197.848 46.8878 197.93 46.99C197.988 47.0826 198.016 47.1909 198.01 47.3V47.55C198.01 47.67 198.01 47.74 197.93 47.75C197.85 47.76 197.77 47.75 197.63 47.65L195.73 46.56V51.67C195.73 51.78 195.73 51.85 195.64 51.87C195.525 51.8781 195.41 51.8424 195.32 51.77L194.76 51.45C194.64 51.377 194.537 51.2779 194.46 51.16V51.16Z" fill="white"/>
<path d="M209.58 3.95C209.536 3.59431 209.402 3.25574 209.19 2.9668C208.978 2.67785 208.696 2.44823 208.37 2.3C207.463 1.84128 206.461 1.60228 205.445 1.60228C204.428 1.60228 203.426 1.84128 202.52 2.3C202.193 2.44823 201.911 2.67785 201.699 2.9668C201.487 3.25574 201.353 3.59431 201.31 3.95V224.11H209.6V3.95H209.58Z" fill="#455A64"/>
<path d="M282.63 170.28L233.88 156.21L183.37 113.59C182.68 113.061 181.854 112.739 180.988 112.661C180.123 112.583 179.253 112.753 178.48 113.15L57.7396 182.86C57.4255 183.009 57.1557 183.238 56.9569 183.523C56.7581 183.808 56.6371 184.14 56.6058 184.487C56.5745 184.833 56.634 185.181 56.7785 185.498C56.9229 185.814 57.1473 186.087 57.4296 186.29L107.95 228.91L156.7 242.98L209.46 287.54L263.46 305.37C265.284 305.855 267.222 305.656 268.91 304.81L274.44 301.61L389.65 235.1C391.08 234.28 390.97 233.18 389.4 232.66L335.4 214.84L282.63 170.28Z" fill="#455A64"/>
<path d="M233.879 156.21L107.949 228.91L156.699 242.98L282.629 170.28L233.879 156.21Z" fill="#455A64"/>
<path d="M209.46 287.54L263.46 305.37C265.285 305.857 267.225 305.654 268.91 304.8L389.65 235.1C391.08 234.28 390.97 233.18 389.4 232.66L335.4 214.84L209.46 287.54Z" fill="#455A64"/>
<path d="M225.749 160.9L179.549 121.91L69.8691 185.23L116.079 224.22L225.749 160.9Z" fill="#E0E0E0"/>
<path d="M274.499 174.97L164.829 238.29L116.079 224.22L225.749 160.9L274.499 174.97Z" fill="#E0E0E0"/>
<g style="mix-blend-mode:multiply" opacity="0.5">
<g style="mix-blend-mode:multiply" opacity="0.5">
<path d="M274.499 174.97L164.829 238.29L116.079 224.22L225.749 160.9L274.499 174.97Z" fill="#E0E0E0"/>
</g>
</g>
<path d="M327.299 219.53L217.629 282.85L164.829 238.29L274.499 174.97L327.299 219.53Z" fill="#E0E0E0"/>
<path d="M373.84 234.88L264.16 298.2L217.63 282.85L327.3 219.53L373.84 234.88Z" fill="#E0E0E0"/>
<g style="mix-blend-mode:multiply" opacity="0.5">
<g style="mix-blend-mode:multiply" opacity="0.5">
<path d="M373.84 234.88L264.16 298.2L217.63 282.85L327.3 219.53L373.84 234.88Z" fill="#E0E0E0"/>
</g>
</g>
<path d="M96.6191 207.8L112.019 198.42L87.6491 174.97L69.8691 185.23L96.6191 207.8Z" fill="#F0F0F0"/>
<path d="M116.08 196.08L91.71 172.63L128.27 151.44L152.64 174.97L116.08 196.08Z" fill="#F0F0F0"/>
<path d="M132.329 149.17L156.699 172.63L168.889 165.59L164.819 130.41L132.329 149.17Z" fill="#F0F0F0"/>
<path d="M172.95 163.25L168.89 128.07L179.55 121.91L219.15 155.33L172.95 163.25Z" fill="#F0F0F0"/>
<path d="M130.3 216.01L118.11 204.29L102.88 213.08L116.08 224.22L130.3 216.01Z" fill="#F0F0F0"/>
<path d="M122.17 201.94L134.36 213.67L170.88 192.58L158.72 180.84L122.17 201.94Z" fill="#F0F0F0"/>
<path d="M174.979 190.22L162.789 178.49L173.949 172.05L197.319 167.94V177.32L174.979 190.22Z" fill="#F0F0F0"/>
<path d="M201.38 174.97V167.22L220.69 163.82L201.38 174.97Z" fill="#F0F0F0"/>
<path d="M221.7 182.01C217.21 180.71 210.84 181.24 207.48 183.18C204.12 185.12 205.02 187.75 209.48 189.04C213.94 190.33 220.33 189.82 223.7 187.87C227.07 185.92 226.18 183.3 221.7 182.01Z" fill="#E6E6E6"/>
<path d="M208.459 179.46C207.584 179.744 206.74 180.116 205.939 180.57C202.399 182.57 202.309 185.27 202.439 186.32C202.516 186.938 202.709 187.535 203.009 188.08L193.219 193.72L174.939 190.21L197.279 177.31L208.459 179.46Z" fill="#E6E6E6"/>
<path d="M201.38 174.97L213.91 177.14L220.33 178.03L242 165.59L225.75 160.9L201.38 174.97Z" fill="#E6E6E6"/>
<path d="M274.459 174.97L243.959 192.58L225.789 190.09C228.739 188.09 228.789 185.71 228.689 184.72C228.611 184.107 228.421 183.514 228.129 182.97L252.799 168.72L274.459 174.97Z" fill="#E6E6E6"/>
<path d="M240.329 194.7L225.759 203.11L201.319 198.46L211.459 192.58L211.539 192.53C212.68 192.684 213.829 192.761 214.979 192.76C217.33 192.779 219.67 192.459 221.929 191.81V191.81L240.329 194.7Z" fill="#E6E6E6"/>
<path d="M170.879 192.58L134.359 213.67L152.639 217.19L189.169 196.09L170.879 192.58Z" fill="#E6E6E6"/>
<path d="M225.76 203.11L201.34 198.43L164.81 219.53L189.2 224.22L225.76 203.11Z" fill="#E6E6E6"/>
<path d="M130.299 216.01L116.079 224.22L132.329 228.91L148.569 219.53L130.299 216.01Z" fill="#E6E6E6"/>
<path d="M185.129 226.57L160.749 221.88L143.159 232.04L164.829 238.29L185.129 226.57Z" fill="#E6E6E6"/>
<path d="M250.13 203.11L263.7 228.11L298.87 207.81L266.38 193.73L250.13 203.11Z" fill="#F0F0F0"/>
<path d="M185.129 226.57L189.199 233.6L187.929 257.79L164.829 238.29L185.129 226.57Z" fill="#F0F0F0"/>
<path d="M189.199 224.22L193.259 231.26L244.199 201.85L240.329 194.7L189.199 224.22Z" fill="#F0F0F0"/>
<path d="M244 192.58L248.1 199.6L281.1 180.54L274.5 174.97L244 192.58Z" fill="#F0F0F0"/>
<path d="M246.07 205.46L195.289 234.78L193.979 262.89L197.829 266.14L259.679 230.44L246.07 205.46Z" fill="#F0F0F0"/>
<path d="M270.439 191.39L284.399 183.33L307.499 202.82L302.939 205.46L270.439 191.39Z" fill="#F0F0F0"/>
<path d="M204.43 271.71L221.69 261.75L229.82 275.82L217.63 282.85L204.43 271.71Z" fill="#F0F0F0"/>
<path d="M241.998 250.023L225.751 259.403L233.876 273.476L250.123 264.096L241.998 250.023Z" fill="#F0F0F0"/>
<path d="M246.069 247.67L263.559 237.57L271.339 251.84L254.189 261.75L246.069 247.67Z" fill="#F0F0F0"/>
<path d="M275.339 249.54L267.579 235.25L302.939 214.84L320.699 213.96L327.299 219.53L275.339 249.54Z" fill="#F0F0F0"/>
<path d="M310.799 205.61L302.939 210.15L315.609 209.66L310.799 205.61Z" fill="#F0F0F0"/>
<path d="M295.059 257.2C290.579 255.91 284.209 256.43 280.849 258.37C277.489 260.31 278.389 262.94 282.849 264.24C287.309 265.54 293.699 265.01 297.069 263.07C300.439 261.13 299.549 258.46 295.059 257.2Z" fill="#E6E6E6"/>
<path d="M229.82 275.82L246.07 280.51L233.14 287.97L217.63 282.85L229.82 275.82Z" fill="#E6E6E6"/>
<path d="M233.88 273.47L250.13 278.16L266.38 268.78L250.13 264.09L233.88 273.47Z" fill="#E6E6E6"/>
<path d="M254.189 261.75L270.459 266.46L275.869 263.33C275.869 263.33 273.299 257.59 280.869 255.19L271.319 251.87L254.189 261.75Z" fill="#E6E6E6"/>
<path d="M275.34 249.54L285.34 253.14C288.037 252.814 290.763 252.814 293.46 253.14L323.25 235.95L307 231.26L275.34 249.54Z" fill="#E6E6E6"/>
<path d="M311.06 228.91L327.31 233.6L342.82 224.65L327.3 219.53L311.06 228.91Z" fill="#E6E6E6"/>
<path d="M353.16 228.06L327.31 242.98L347.62 250.02L373.84 234.88L353.16 228.06Z" fill="#E6E6E6"/>
<path d="M323.249 245.33L301.889 257.66C301.889 257.66 304.509 261.73 301.159 264.95L315.159 268.78L343.599 252.37L323.779 245.61" fill="#E6E6E6"/>
<path d="M311.06 271.13L296.63 267.46C296.63 267.46 289.68 270.18 283.83 268.06L262.31 280.48L258.25 296.23L264.16 298.17L311.06 271.13Z" fill="#E6E6E6"/>
<path d="M258.249 282.85L254.849 295.13L243.479 291.38L258.249 282.85Z" fill="#E6E6E6"/>
<path d="M240.329 245.36C240.156 245.36 239.985 245.315 239.834 245.229C239.683 245.143 239.558 245.019 239.469 244.87C239.334 244.642 239.295 244.369 239.36 244.113C239.426 243.856 239.591 243.635 239.819 243.5L261.209 230.89L241.359 194.64L222.679 191.7C222.477 191.669 222.289 191.576 222.142 191.434C221.994 191.293 221.893 191.11 221.852 190.909C221.812 190.708 221.834 190.5 221.916 190.313C221.998 190.125 222.135 189.967 222.309 189.86C225.079 188.17 226.469 186.57 226.309 185.22C226.149 183.87 224.589 182.58 222.009 181.58C218.169 180.1 210.229 180.58 206.799 183.25C205.962 183.802 205.376 184.661 205.168 185.642C204.96 186.623 205.147 187.646 205.689 188.49C205.764 188.603 205.815 188.729 205.839 188.862C205.863 188.995 205.86 189.132 205.831 189.263C205.801 189.395 205.744 189.52 205.665 189.629C205.586 189.738 205.485 189.831 205.369 189.9L195.069 196.13C194.861 196.251 194.617 196.297 194.379 196.26L172.729 192.38C172.53 192.338 172.346 192.241 172.199 192.1L150.359 170.1C150.173 169.913 150.068 169.659 150.068 169.395C150.068 169.131 150.173 168.877 150.359 168.69C150.452 168.596 150.563 168.522 150.685 168.471C150.806 168.42 150.937 168.394 151.069 168.394C151.201 168.394 151.332 168.42 151.454 168.471C151.576 168.522 151.686 168.596 151.779 168.69L173.459 190.46L194.459 194.22L203.639 188.67C203.11 187.452 203.02 186.088 203.385 184.812C203.749 183.535 204.546 182.424 205.639 181.67C209.639 178.59 218.399 178.02 222.799 179.67C224.799 180.43 228.119 182.13 228.369 184.99C228.529 186.69 227.559 188.39 225.479 190.06L242.179 192.69C242.332 192.713 242.477 192.771 242.604 192.859C242.731 192.948 242.835 193.064 242.909 193.2L263.459 230.78C263.583 231.008 263.614 231.275 263.545 231.525C263.476 231.775 263.313 231.988 263.089 232.12L240.869 245.22C240.706 245.317 240.519 245.365 240.329 245.36Z" fill="#30B11B"/>
<path d="M157.68 138.9L154.26 136.9C152.62 135.81 150.36 135.9 147.85 137.3C142.85 140.17 138.85 147.47 138.85 153.59V154.99C138.85 161.11 147.08 167.77 147.08 167.77L150.45 169.68C150.45 169.68 148.45 167.37 148.66 166.9C150.86 162.37 156.87 149.58 156.87 144.58V143.19C156.88 142.177 156.749 141.167 156.48 140.19L156.87 140.41L157.68 138.9ZM147.85 152.95C145.36 154.38 143.34 153.22 143.34 150.35C144.68 150.14 148.05 144.35 147.85 142.54C150.34 141.11 152.35 142.27 152.35 145.14C152.263 146.703 151.811 148.224 151.029 149.581C150.248 150.937 149.159 152.091 147.85 152.95Z" fill="#30B11B"/>
<path d="M157.68 138.9L154.26 136.9C152.62 135.81 150.36 135.9 147.85 137.3C142.85 140.17 138.85 147.47 138.85 153.59V154.99C138.85 161.11 147.08 167.77 147.08 167.77L150.45 169.68C150.45 169.68 148.45 167.37 148.66 166.9C150.86 162.37 156.87 149.58 156.87 144.58V143.19C156.88 142.177 156.749 141.167 156.48 140.19L156.87 140.41L157.68 138.9ZM147.85 152.95C145.36 154.38 143.34 153.22 143.34 150.35C144.68 150.14 148.05 144.35 147.85 142.54C150.34 141.11 152.35 142.27 152.35 145.14C152.263 146.703 151.811 148.224 151.029 149.581C150.248 150.937 149.159 152.091 147.85 152.95Z" fill="#30B11B"/>
<g opacity="0.2">
<path opacity="0.2" d="M157.68 138.9L154.26 136.9C152.62 135.81 150.36 135.9 147.85 137.3C142.85 140.17 138.85 147.47 138.85 153.59V154.99C138.85 161.11 147.08 167.77 147.08 167.77L150.45 169.68C150.45 169.68 148.45 167.37 148.66 166.9C150.86 162.37 156.87 149.58 156.87 144.58V143.19C156.88 142.177 156.749 141.167 156.48 140.19L156.87 140.41L157.68 138.9ZM147.85 152.95C145.36 154.38 143.34 153.22 143.34 150.35C144.68 150.14 148.05 144.35 147.85 142.54C150.34 141.11 152.35 142.27 152.35 145.14C152.263 146.703 151.811 148.224 151.029 149.581C150.248 150.937 149.159 152.091 147.85 152.95Z" fill="black"/>
</g>
<path d="M160.46 145.31C160.46 139.19 156.46 136.55 151.46 139.42C146.46 142.29 142.46 149.59 142.46 155.72V157.11C142.46 161.83 147.8 167.3 150.26 169.57C150.4 169.698 150.567 169.792 150.749 169.844C150.932 169.897 151.124 169.906 151.31 169.871C151.496 169.836 151.672 169.758 151.823 169.643C151.974 169.528 152.096 169.38 152.18 169.21C154.3 164.87 160.48 151.78 160.48 146.71L160.46 145.31ZM151.46 155.03C148.97 156.47 146.96 155.3 146.96 152.43C147.046 150.867 147.499 149.346 148.28 147.989C149.062 146.633 150.151 145.479 151.46 144.62C153.95 143.19 155.97 144.35 155.97 147.23C155.881 148.792 155.427 150.312 154.643 151.667C153.86 153.021 152.77 154.173 151.46 155.03V155.03Z" fill="#30B11B"/>
<path d="M246.68 214.9L243.26 212.9C241.62 211.81 239.36 211.85 236.85 213.3C231.85 216.17 227.85 223.47 227.85 229.59V230.99C227.85 237.11 236.08 243.77 236.08 243.77L239.45 245.68C239.45 245.68 237.45 243.37 237.66 242.9C239.86 238.37 245.87 225.58 245.87 220.58V219.19C245.88 218.177 245.749 217.167 245.48 216.19L245.87 216.41L246.68 214.9ZM236.85 228.95C234.36 230.38 232.34 229.22 232.34 226.35C233.68 226.14 237.05 220.35 236.85 218.54C239.34 217.11 241.35 218.27 241.35 221.14C241.263 222.703 240.811 224.224 240.029 225.581C239.248 226.937 238.159 228.091 236.85 228.95V228.95Z" fill="#30B11B"/>
<path d="M246.68 214.9L243.26 212.9C241.62 211.81 239.36 211.85 236.85 213.3C231.85 216.17 227.85 223.47 227.85 229.59V230.99C227.85 237.11 236.08 243.77 236.08 243.77L239.45 245.68C239.45 245.68 237.45 243.37 237.66 242.9C239.86 238.37 245.87 225.58 245.87 220.58V219.19C245.88 218.177 245.749 217.167 245.48 216.19L245.87 216.41L246.68 214.9ZM236.85 228.95C234.36 230.38 232.34 229.22 232.34 226.35C233.68 226.14 237.05 220.35 236.85 218.54C239.34 217.11 241.35 218.27 241.35 221.14C241.263 222.703 240.811 224.224 240.029 225.581C239.248 226.937 238.159 228.091 236.85 228.95V228.95Z" fill="#30B11B"/>
<g opacity="0.2">
<path opacity="0.2" d="M246.68 214.9L243.26 212.9C241.62 211.81 239.36 211.85 236.85 213.3C231.85 216.17 227.85 223.47 227.85 229.59V230.99C227.85 237.11 236.08 243.77 236.08 243.77L239.45 245.68C239.45 245.68 237.45 243.37 237.66 242.9C239.86 238.37 245.87 225.58 245.87 220.58V219.19C245.88 218.177 245.749 217.167 245.48 216.19L245.87 216.41L246.68 214.9ZM236.85 228.95C234.36 230.38 232.34 229.22 232.34 226.35C233.68 226.14 237.05 220.35 236.85 218.54C239.34 217.11 241.35 218.27 241.35 221.14C241.263 222.703 240.811 224.224 240.029 225.581C239.248 226.937 238.159 228.091 236.85 228.95V228.95Z" fill="black"/>
</g>
<path d="M249.46 221.31C249.46 215.19 245.46 212.55 240.46 215.42C235.46 218.29 231.46 225.59 231.46 231.72V233.11C231.46 237.83 236.8 243.3 239.26 245.57C239.4 245.698 239.567 245.792 239.75 245.844C239.932 245.897 240.124 245.906 240.31 245.871C240.496 245.836 240.672 245.758 240.823 245.643C240.974 245.528 241.096 245.38 241.18 245.21C243.3 240.87 249.48 227.78 249.48 222.71L249.46 221.31ZM240.46 231.03C237.97 232.47 235.96 231.3 235.96 228.43C236.046 226.867 236.499 225.346 237.28 223.989C238.062 222.633 239.151 221.479 240.46 220.62C242.95 219.19 244.97 220.35 244.97 223.23C244.881 224.792 244.426 226.312 243.643 227.667C242.86 229.021 241.77 230.173 240.46 231.03V231.03Z" fill="#30B11B"/>
<path d="M315.76 97.83L315.54 97.7L308.68 93.76C307.092 92.7108 305.224 92.1638 303.32 92.19C300.521 92.2881 297.797 93.1191 295.42 94.6C285.12 100.54 276.78 115.6 276.78 128.3V131.18C276.78 143.85 293.78 157.62 293.78 157.62L300.71 161.54C300.48 161.27 296.54 156.75 297.01 155.8C301.57 146.44 314.01 119.99 314.01 109.65V106.77C314.032 104.68 313.766 102.597 313.22 100.58L314.02 101.04L315.76 97.83ZM302.87 131.18C298.3 133.82 294.51 132.23 293.71 127.68C289.38 129.26 286.1 126.77 286.1 121.5C288.87 121.06 295.83 109.17 295.42 105.36C299.98 102.72 303.77 104.31 304.57 108.86C308.91 107.28 312.19 109.77 312.19 115.04C312.19 120.98 308.02 128.21 302.87 131.18Z" fill="#263238"/>
<path d="M315.76 97.83L315.54 97.7C312.21 95.83 307.76 96.08 302.87 98.9C295.5 103.16 289.12 112.11 286.1 121.5C284.907 125.081 284.276 128.826 284.23 132.6V135.46C284.23 145.22 295.28 156.54 300.37 161.23C300.484 161.335 300.608 161.429 300.74 161.51V161.51C301.036 161.694 301.366 161.815 301.711 161.865C302.055 161.914 302.406 161.891 302.741 161.797C303.077 161.703 303.388 161.54 303.657 161.318C303.925 161.096 304.145 160.821 304.3 160.51C308.69 151.51 321.48 124.45 321.48 113.96V111.07C321.51 104.57 319.31 99.96 315.76 97.83ZM293.71 127.68C293.599 127.06 293.545 126.43 293.55 125.8C293.55 119.86 297.72 112.63 302.87 109.66C303.414 109.346 303.982 109.079 304.57 108.86C308.91 107.28 312.19 109.77 312.19 115.04C312.19 120.98 308.02 128.21 302.87 131.18C298.3 133.82 294.51 132.23 293.71 127.68Z" fill="#455A64"/>
<path d="M305.92 106.46C305.227 106.737 304.558 107.072 303.92 107.46C297.69 111.05 292.65 119.78 292.65 126.96C292.642 127.725 292.709 128.488 292.85 129.24C293.85 134.74 298.4 136.66 303.92 133.47C310.14 129.88 315.19 121.14 315.19 113.96C315.14 107.55 311.17 104.54 305.92 106.46Z" fill="#263238"/>
<path d="M304.65 109.27L306.53 113.27C306.552 113.329 306.586 113.383 306.63 113.429C306.674 113.474 306.727 113.509 306.786 113.532C306.844 113.554 306.907 113.564 306.97 113.56C307.033 113.557 307.095 113.54 307.15 113.51L311.38 111.89C312.05 111.64 312.31 112.58 311.83 113.49L308.77 119.23C308.583 119.565 308.503 119.948 308.54 120.33L309.26 125.52C309.37 126.35 308.67 127.43 308.07 127.36L304.29 126.89C304.138 126.896 303.988 126.939 303.856 127.016C303.723 127.092 303.612 127.2 303.53 127.33L299.75 132.16C299.15 132.93 298.45 132.65 298.57 131.7L299.29 125.7C299.323 125.553 299.318 125.399 299.277 125.254C299.235 125.109 299.157 124.977 299.05 124.87L296.05 122.66C295.56 122.31 295.83 121.06 296.5 120.54L300.72 117.28C301.027 117.02 301.244 116.67 301.34 116.28L303.23 110.09C303.46 109.13 304.35 108.63 304.65 109.27Z" fill="#30B11B"/>
<path d="M359.28 122.9L359.06 122.77L352.2 118.83C350.611 117.781 348.744 117.234 346.84 117.26C344.041 117.358 341.317 118.189 338.94 119.67C328.64 125.61 320.3 140.67 320.3 153.37V156.25C320.3 168.92 337.3 182.69 337.3 182.69L344.23 186.61C344 186.34 340.06 181.82 340.53 180.87C345.09 171.51 357.53 145.06 357.53 134.72V131.84C357.551 129.75 357.286 127.667 356.74 125.65L357.54 126.11L359.28 122.9ZM346.39 156.25C341.82 158.89 338.03 157.3 337.23 152.75C332.9 154.33 329.62 151.84 329.62 146.57C332.39 146.13 339.35 134.24 338.94 130.43C343.5 127.79 347.29 129.38 348.09 133.93C352.43 132.35 355.71 134.84 355.71 140.11C355.71 146.05 351.54 153.28 346.39 156.25Z" fill="#263238"/>
<path d="M359.28 122.9L359.06 122.77C355.73 120.9 351.28 121.15 346.39 123.97C339.02 128.23 332.64 137.18 329.62 146.57C328.427 150.151 327.796 153.896 327.75 157.67V160.56C327.75 170.32 338.75 181.64 343.89 186.33C344.004 186.435 344.128 186.529 344.26 186.61V186.61C344.555 186.794 344.886 186.915 345.23 186.965C345.575 187.014 345.926 186.991 346.261 186.897C346.596 186.803 346.908 186.64 347.176 186.418C347.445 186.196 347.664 185.921 347.82 185.61C352.21 176.61 365 149.55 365 139.06V136.17C365.03 129.64 362.83 125.03 359.28 122.9ZM337.23 152.75C337.118 152.13 337.065 151.5 337.07 150.87C337.07 144.93 341.24 137.7 346.39 134.73C346.933 134.416 347.502 134.149 348.09 133.93C352.43 132.35 355.71 134.84 355.71 140.11C355.71 146.05 351.54 153.28 346.39 156.25C341.82 158.89 338.03 157.3 337.23 152.75Z" fill="#455A64"/>
<path d="M349.46 131.52C348.75 131.795 348.064 132.129 347.41 132.52C341.18 136.11 336.14 144.85 336.14 152.03C336.132 152.791 336.199 153.552 336.34 154.3C337.34 159.8 341.89 161.72 347.41 158.53C353.63 154.94 358.68 146.2 358.68 139.02C358.66 132.62 354.69 129.61 349.46 131.52Z" fill="#263238"/>
<path d="M356.761 138.85L347.871 136.48L338.971 149.13L341.321 147.76V155.2L346.491 152.22V148.07L349.241 146.48V150.63L354.411 147.64V140.21L356.761 138.85Z" fill="#30B11B"/>
<path d="M402.8 147.79L402.58 147.66L395.72 143.72C394.132 142.671 392.264 142.124 390.36 142.15C387.561 142.248 384.837 143.079 382.46 144.56C372.16 150.5 363.82 165.56 363.82 178.26V181.14C363.82 193.81 380.82 207.58 380.82 207.58L387.75 211.5C387.52 211.23 383.58 206.71 384.05 205.76C388.61 196.4 401.05 169.95 401.05 159.61V156.73C401.072 154.64 400.806 152.557 400.26 150.54L401.06 151L402.8 147.79ZM389.91 181.14C385.34 183.78 381.55 182.14 380.75 177.64C376.42 179.22 373.14 176.73 373.14 171.46C375.91 171.02 382.87 159.13 382.46 155.32C387.02 152.68 390.81 154.27 391.61 158.82C395.95 157.24 399.23 159.73 399.23 165C399.23 170.94 395.06 178.17 389.91 181.14Z" fill="#263238"/>
<path d="M402.801 147.79L402.581 147.66C399.251 145.79 394.801 146.04 389.911 148.86C382.541 153.12 376.161 162.07 373.141 171.46C371.947 175.041 371.316 178.786 371.271 182.56V185.46C371.271 195.22 382.321 206.54 387.411 211.23C387.525 211.335 387.648 211.429 387.781 211.51V211.51C388.076 211.694 388.406 211.815 388.751 211.865C389.095 211.914 389.446 211.891 389.782 211.797C390.117 211.703 390.428 211.54 390.697 211.318C390.965 211.096 391.185 210.821 391.341 210.51C395.731 201.51 408.521 174.45 408.521 163.96V161.07C408.551 154.53 406.351 149.92 402.801 147.79ZM380.801 177.64C380.689 177.02 380.635 176.39 380.641 175.76C380.641 169.82 384.811 162.59 389.961 159.62C390.504 159.306 391.073 159.039 391.661 158.82C396.001 157.24 399.281 159.73 399.281 165C399.281 170.94 395.111 178.17 389.961 181.14C385.341 183.78 381.551 182.19 380.751 177.64H380.801Z" fill="#455A64"/>
<path d="M392.96 156.46C392.25 156.734 391.564 157.069 390.91 157.46C384.68 161.05 379.64 169.79 379.64 176.97C379.633 177.735 379.7 178.498 379.84 179.25C380.84 184.75 385.38 186.67 390.91 183.48C397.13 179.89 402.17 171.15 402.17 163.97C402.17 157.51 398.21 154.46 392.96 156.46Z" fill="#263238"/>
<path d="M390.82 162.08C392.95 160.85 394.68 161.85 394.68 164.31C394.607 165.648 394.219 166.951 393.548 168.111C392.878 169.272 391.943 170.258 390.82 170.99C388.69 172.22 386.96 171.22 386.96 168.76C387.033 167.422 387.421 166.119 388.092 164.959C388.762 163.798 389.697 162.812 390.82 162.08Z" fill="#30B11B"/>
<path d="M383.46 184.46C385.46 185.33 388.04 185.05 390.89 183.46C393.93 181.572 396.477 178.988 398.32 175.92V175.27C398.32 171.27 395.48 169.59 391.98 171.61L389.79 172.87C387.943 174.075 386.407 175.7 385.307 177.612C384.207 179.523 383.574 181.667 383.46 183.87V184.46Z" fill="#30B11B"/>
<path d="M50.0201 88.58C43.0201 88.92 38.1701 90.58 33.1901 95.58C29.5301 99.26 21.6401 120.63 25.0801 137.9C25.6639 140.962 26.9553 143.845 28.8511 146.319C30.747 148.793 33.1949 150.79 35.9995 152.15C38.8041 153.51 41.8877 154.195 45.0044 154.152C48.121 154.109 51.1844 153.338 53.9501 151.9C63.4401 147.06 65.2801 132.07 65.0101 123.33C64.7401 114.59 50.0201 88.58 50.0201 88.58Z" fill="#263238"/>
<path d="M41.4003 95C41.4003 95 39.5203 92.54 35.1603 93.91C35.1603 93.91 30.5603 99.45 27.0103 109.91C27.0103 109.91 25.8803 109.91 26.6003 106.91C27.3203 103.91 30.2003 96.91 32.0503 94.42C33.9003 91.93 36.5103 89.89 49.0503 85.29C60.0503 81.29 56.5303 91.29 56.5303 91.29L41.4003 95Z" fill="#37474F"/>
<path d="M20.0305 237.26C18.5605 236.5 17.6305 238.37 16.3005 239.86C15.3605 240.91 13.9105 242.57 13.6905 243.77C13.3705 245.54 14.9705 248.32 16.6905 249.85C18.4105 251.38 20.5105 252.49 21.1505 255.85C21.7905 259.21 23.1505 261.22 26.5805 262.72C30.4105 264.37 35.5805 263.84 37.2605 262.72C39.3205 261.39 37.4405 259.94 34.5605 255.81C30.8005 250.43 27.8705 246.58 27.8705 241.56L20.0305 237.26Z" fill="#263238"/>
<path d="M23.0301 232.85L19.9501 237.38C19.2972 238.312 19.0361 239.462 19.2231 240.585C19.4102 241.707 20.0303 242.711 20.9501 243.38L21.0501 243.44C21.9867 244.004 23.0918 244.222 24.1722 244.053C25.2526 243.885 26.2395 243.342 26.9601 242.52L31.7801 237.26L23.0301 232.85Z" fill="#FFA8A7"/>
<path d="M80.56 145.88C80.76 151.65 79.78 173.72 75.56 184.76C73.2273 191.028 70.2936 197.056 66.8 202.76C65.54 204.9 29.4 240.09 29.4 240.09C29.4 240.09 23.27 239.64 22.29 233.69C22.29 233.69 37.1 208.52 40.29 203.35C43.48 198.18 54.85 190.27 54.85 190.27L53.85 141.87L80.56 145.88Z" fill="#37474F"/>
<path d="M71.7936 267.438L79.4385 265.7L76.9087 254.574L69.2638 256.312L71.7936 267.438Z" fill="#FFA8A7"/>
<path d="M65.8304 164.53C68.4498 162.128 70.7973 159.445 72.8304 156.53C78.6704 148.46 77.7704 141.3 77.7704 141.3H75.3804L40.2004 145.93C39.2157 151.666 39.3584 157.539 40.6204 163.22C43.7104 178.81 56.2504 205.45 56.2504 205.45C56.0704 207.6 55.1604 216.65 57.2504 224.67C60.4904 237.33 69.3204 258.75 69.3204 258.75C69.3204 258.75 74.8604 259.54 77.6004 256.34C77.6004 256.34 72.7104 212.85 71.4004 201.71C69.9204 189.6 65.8304 164.53 65.8304 164.53Z" fill="#37474F"/>
<path d="M78.5905 261.93L78.3405 260.84C79.1405 260.99 82.5705 266.68 85.9705 269.16C89.7005 271.87 92.9705 273.47 94.6005 274.69C96.8305 276.33 93.6005 279.69 88.1205 279.97C85.5493 280.154 82.9714 279.722 80.6005 278.71C78.2105 277.57 76.7605 275.44 74.9405 273.61C73.6105 272.27 71.6005 271.29 70.5905 269.67C70.1305 268.93 70.0605 267.12 70.1105 265.56C70.1605 264 70.2105 262.56 70.7005 262.56L70.8905 263.4C72.329 264.116 73.9245 264.46 75.5305 264.4C76.8205 264.37 79.2205 264.07 78.5905 261.93Z" fill="#263238"/>
<path d="M70.3801 194.28C70.3801 194.28 66.7001 168.11 65.8301 164.53C65.8301 164.53 72.3201 162.06 74.3201 159.79C74.3201 159.79 72.8901 162.96 68.2501 165.79L70.3801 194.28Z" fill="#263238"/>
<path d="M56.2407 205.4C54.6707 203.24 50.7607 193.51 50.7607 193.51L54.7607 206.1C53.7607 209.87 53.8407 216.1 53.8407 216.1L55.8407 214.31C55.8507 212.81 56.2407 205.4 56.2407 205.4Z" fill="#263238"/>
<path d="M76.6201 134.96C71.5401 117.82 72.6201 103.32 71.6201 98.87L84.7301 117.33C85.3004 123.42 86.2118 129.472 87.4601 135.46C88.9601 142.01 91.0101 150.18 93.4601 155.26C93.9013 156.169 94.6638 156.881 95.6001 157.26C98.0801 158.26 99.2301 159.57 101.22 161.05C102.78 162.22 103.97 162.37 103.87 162.84C103.695 163.369 103.327 163.813 102.84 164.083C102.353 164.354 101.782 164.431 101.24 164.3C100.041 164.044 98.8767 163.648 97.7701 163.12C98.8969 165.001 100.318 166.689 101.98 168.12C105.78 171.44 106.32 173.79 99.9801 174.92C95.9801 175.64 92.4101 173.72 87.9201 165.45C86.2074 162.434 84.7136 159.3 83.4501 156.07C80.4601 147.62 78.1601 140.15 76.6201 134.96Z" fill="#FFA8A7"/>
<path d="M67.2002 91.22C73.3702 91.28 79.4502 92.67 81.5402 99.22C83.5402 105.64 86.2202 124.22 86.2202 124.22C86.2202 124.22 83.6202 127.66 74.9602 127.1L67.2002 91.22Z" fill="#30B11B"/>
<path d="M67.2002 91.22C73.3702 91.28 79.4502 92.67 81.5402 99.22C83.5402 105.64 86.2202 124.22 86.2202 124.22C86.2202 124.22 83.6202 127.66 74.9602 127.1L67.2002 91.22Z" fill="#30B11B"/>
<g opacity="0.1">
<path opacity="0.1" d="M67.2002 91.22C73.3702 91.28 79.4502 92.67 81.5402 99.22C83.5402 105.64 86.2202 124.22 86.2202 124.22C86.2202 124.22 83.6202 127.66 74.9602 127.1L67.2002 91.22Z" fill="black"/>
</g>
<path d="M54.5209 91.59C50.1809 92.59 45.1709 93.49 40.9709 95.59C38.0509 97.02 42.2409 121.22 42.2409 121.22L40.2409 145.92C46.0009 152.19 68.0409 155.11 80.6109 145.92V105.92C80.6109 99.52 77.0609 91.84 67.2509 91.27L54.5209 91.59Z" fill="#30B11B"/>
<path d="M42.2201 120.7L46.0201 110.2L41.5801 129.07L42.2201 120.7Z" fill="#30B11B"/>
<path opacity="0.2" d="M42.2201 120.7L46.0201 110.2L41.5801 129.07L42.2201 120.7Z" fill="black"/>
<path d="M47.6807 69.34L50.4007 80.08C50.6824 81.194 51.3265 82.1827 52.2316 82.8905C53.1368 83.5984 54.2516 83.9851 55.4007 83.99H58.5807V68.99L47.6807 69.34Z" fill="#263238"/>
<path d="M70.9419 76.8131C77.2507 76.034 81.7335 70.2881 80.9544 63.9792C80.1753 57.6703 74.4294 53.1876 68.1205 53.9667C61.8116 54.7458 57.3289 60.4917 58.108 66.8006C58.8871 73.1094 64.633 77.5922 70.9419 76.8131Z" fill="#263238"/>
<path d="M51.7607 58.86C51.0996 58.7821 50.4294 58.8571 49.8018 59.079C49.1742 59.3009 48.6059 59.6639 48.1407 60.14C46.5807 61.72 46.9107 64.67 48.1407 71.43L52.9507 71.98L51.7607 58.86Z" fill="#263238"/>
<path d="M54.0109 71.99C53.3009 72.41 52.2809 71.04 51.4009 70.12C50.5209 69.2 47.6509 67.94 46.2209 70.96C44.7909 73.98 47.0409 78.1 49.2209 78.96C49.9978 79.3465 50.8946 79.4154 51.7215 79.1522C52.5483 78.8891 53.2403 78.3144 53.6509 77.55L54.5109 91.55C55.3723 93.4348 56.6871 95.0769 58.3378 96.3298C59.9886 97.5827 61.9238 98.4073 63.9709 98.73C70.8809 99.66 69.4609 93.97 67.1909 91.18V86.9C68.9231 87.2056 70.6865 87.2963 72.4409 87.17C74.9609 86.7 76.2009 84.36 77.4409 81.37C79.2109 76.9 80.3009 70.58 78.7709 62.56C76.7709 51.94 64.9809 51.71 58.2409 55.96C51.5009 60.21 54.0109 71.99 54.0109 71.99Z" fill="#FFA8A7"/>
<path d="M54.0103 73.19C53.6503 73.19 52.2903 70.93 51.4003 70.12C50.1703 69 51.7603 58.86 51.7603 58.86C52.3803 50.55 64.6403 49.92 68.0303 49.68C75.7903 49.12 81.0303 53.42 78.9603 58.83C77.5603 61.29 74.6903 61.97 71.9603 62.29C67.3903 62.85 59.6203 60.4 58.6403 60.29C57.3203 60.1 57.0403 61.39 56.3203 64.89C55.7403 67.95 55.2203 73.16 54.0103 73.19Z" fill="#263238"/>
<path d="M51.7709 59.65L47.4609 57.34C47.5989 57.0492 47.7945 56.7893 48.0358 56.5762C48.2771 56.3631 48.5591 56.2012 48.8648 56.1002C49.1705 55.9993 49.4935 55.9614 49.8143 55.9888C50.135 56.0163 50.4469 56.1086 50.7309 56.26C51.3065 56.5833 51.7356 57.1158 51.9292 57.7469C52.1229 58.3781 52.0662 59.0595 51.7709 59.65V59.65Z" fill="#263238"/>
<path d="M67.1909 86.94C67.1909 86.94 60.7909 85.65 58.5609 84.46C57.2526 83.7901 56.1734 82.7457 55.4609 81.46C55.8005 82.7658 56.399 83.99 57.2209 85.06C58.8609 87.15 67.2209 88.69 67.2209 88.69L67.1909 86.94Z" fill="#F28F8F"/>
<path d="M67.3901 71.75C67.3803 72.0008 67.297 72.2432 67.1505 72.447C67.004 72.6508 66.8008 72.8071 66.5663 72.8963C66.3317 72.9856 66.076 73.0039 65.8311 72.949C65.5862 72.8941 65.3628 72.7684 65.1888 72.5876C65.0147 72.4068 64.8977 72.1787 64.8522 71.9319C64.8068 71.6851 64.8349 71.4303 64.933 71.1993C65.0312 70.9683 65.1951 70.7713 65.4044 70.6327C65.6137 70.4942 65.8591 70.4202 66.1101 70.42C66.2817 70.4226 66.451 70.4591 66.6084 70.5275C66.7658 70.5959 66.9081 70.6947 67.0271 70.8184C67.1461 70.942 67.2394 71.088 67.3017 71.2479C67.364 71.4078 67.3941 71.5784 67.3901 71.75Z" fill="#263238"/>
<path d="M66.0303 66.91L63.2903 68.46C63.0943 68.0828 63.0515 67.6445 63.1707 67.2365C63.29 66.8286 63.562 66.4823 63.9303 66.27C64.1098 66.1725 64.307 66.1116 64.5102 66.0911C64.7135 66.0705 64.9189 66.0905 65.1143 66.1501C65.3098 66.2097 65.4914 66.3075 65.6487 66.438C65.8059 66.5685 65.9356 66.7289 66.0303 66.91V66.91Z" fill="#263238"/>
<path d="M66.6106 80.32L69.5306 81.42C69.4711 81.6211 69.3709 81.8078 69.2363 81.9685C69.1016 82.1292 68.9353 82.2605 68.7478 82.3543C68.5602 82.4481 68.3554 82.5023 68.146 82.5136C67.9366 82.5249 67.7272 82.493 67.5306 82.42C67.1333 82.2595 66.8146 81.9499 66.6427 81.5575C66.4708 81.165 66.4593 80.7209 66.6106 80.32V80.32Z" fill="#F28F8F"/>
<path d="M78.1504 67.98L75.6504 66.05C75.7693 65.882 75.921 65.7397 76.0962 65.6317C76.2714 65.5236 76.4666 65.452 76.6702 65.4212C76.8737 65.3904 77.0814 65.401 77.2807 65.4523C77.4801 65.5037 77.6671 65.5947 77.8304 65.72C78.1626 65.9843 78.3809 66.3659 78.4405 66.7863C78.5 67.2067 78.3962 67.6338 78.1504 67.98V67.98Z" fill="#263238"/>
<path d="M77.3901 71.01C77.3803 71.2608 77.297 71.5032 77.1505 71.707C77.004 71.9108 76.8008 72.0671 76.5663 72.1563C76.3317 72.2456 76.076 72.2639 75.8311 72.209C75.5862 72.1541 75.3628 72.0284 75.1888 71.8476C75.0147 71.6667 74.8977 71.4387 74.8522 71.1919C74.8068 70.945 74.8349 70.6903 74.933 70.4593C75.0312 70.2283 75.1951 70.0313 75.4044 69.8927C75.6137 69.7542 75.8591 69.6802 76.1101 69.68C76.2817 69.6826 76.451 69.7191 76.6084 69.7875C76.7658 69.8559 76.9081 69.9547 77.0271 70.0784C77.1461 70.202 77.2394 70.348 77.3017 70.5079C77.364 70.6678 77.3941 70.8384 77.3901 71.01Z" fill="#263238"/>
<path d="M72.0106 71.23L70.8105 78.86L75.0305 78.36L72.0106 71.23Z" fill="#F28F8F"/>
<path d="M50.3001 91.33C50.3001 91.33 60.0001 95.64 61.0401 110.54C63.2301 141.7 39.7701 148.87 39.7701 148.87C37.7701 144.94 39.3801 139.63 41.0201 135.87C44.8275 133.386 47.9117 129.941 49.9609 125.883C52.01 121.825 52.9515 117.298 52.6901 112.76C52.1501 101.4 46.5101 95.04 43.6901 94.18C45.6917 92.8175 47.9353 91.8501 50.3001 91.33V91.33Z" fill="#37474F"/>
<path d="M32.0701 149.76C36.2701 148.29 37.3201 147.76 42.6101 143.49C47.9001 139.22 52.3801 133.55 56.6101 127.93C57.1205 127.273 57.6858 126.661 58.3001 126.1C59.386 125.145 60.347 124.056 61.1601 122.86C63.0101 120.05 63.0401 118.22 63.2201 114.86C63.361 111.47 62.8901 108.083 61.8301 104.86C61.7429 104.498 61.583 104.158 61.3601 103.86C61.2429 103.714 61.087 103.604 60.9102 103.542C60.7334 103.48 60.5428 103.469 60.3601 103.51C60.064 103.639 59.8206 103.864 59.6701 104.15C58.4901 105.95 57.6701 107.96 56.5001 109.79C55.9701 110.62 55.6001 110.95 55.1201 111.79C55.0601 111.89 54.1201 112.85 53.9401 112.43C53.7601 112.01 54.3401 110.7 54.1301 108.58C53.9201 106.46 53.3401 105.7 52.6901 105.53C51.6901 105.27 51.6901 106.39 51.2401 108.08C50.7301 110.08 49.9501 111.74 50.0401 114.71C50.0826 116.745 49.7852 118.773 49.1601 120.71C48.5901 123 45.9801 128.16 39.5201 132.14C38.1101 133.01 37.6601 133.14 38.5201 129.77C39.9349 123.412 41.9644 117.206 44.5801 111.24C47.1601 105.37 48.9401 100.88 46.5801 98.49C42.4501 94.39 36.6601 96.73 33.4301 103.71C29.7001 111.77 27.6601 117.89 26.1601 132.71C25.4601 139.15 24.8401 152.29 32.0701 149.76Z" fill="#FFA8A7"/>
<path d="M44.1305 94.34C39.2505 94.56 36.0005 96.53 32.7705 102.9C29.5405 109.27 27.0605 120.46 27.0605 120.46C27.0605 120.46 31.6505 125.35 40.5605 125.1C40.5605 125.1 46.1605 110.42 47.2305 106.47C48.4005 102.16 47.3805 95.82 44.1305 94.34Z" fill="#30B11B"/>
</svg>
