<svg width="500" height="373" viewBox="0 0 500 373" fill="none" xmlns="http://www.w3.org/2000/svg">
<g clip-path="url(#clip0_98_1360)">
<path d="M500 327.45H0V327.7H500V327.45Z" fill="#EBEBEB"/>
<path d="M449.9 343.54H416.78V343.79H449.9V343.54Z" fill="#EBEBEB"/>
<path d="M331.22 346.26H322.53V346.51H331.22V346.26Z" fill="#EBEBEB"/>
<path d="M415.78 334.26H396.59V334.51H415.78V334.26Z" fill="#EBEBEB"/>
<path d="M95.65 335.94H52.46V336.19H95.65V335.94Z" fill="#EBEBEB"/>
<path d="M110.89 335.94H104.56V336.19H110.89V335.94Z" fill="#EBEBEB"/>
<path d="M225.15 340.16H131.47V340.41H225.15V340.16Z" fill="#EBEBEB"/>
<path d="M237 282.85H43.91C42.3973 282.847 40.9475 282.245 39.8788 281.174C38.8102 280.103 38.21 278.653 38.21 277.14V5.70999C38.2231 4.20601 38.8292 2.76797 39.8964 1.70821C40.9637 0.648446 42.4059 0.0525642 43.91 0.0499878H237C238.514 0.0499878 239.967 0.651576 241.038 1.72241C242.108 2.79324 242.71 4.2456 242.71 5.75999V277.14C242.71 278.654 242.108 280.107 241.038 281.178C239.967 282.248 238.514 282.85 237 282.85ZM43.91 0.249989C42.4636 0.252638 41.0774 0.829053 40.0556 1.85271C39.0338 2.87638 38.46 4.26364 38.46 5.70999V277.14C38.46 278.586 39.0338 279.974 40.0556 280.997C41.0774 282.021 42.4636 282.597 43.91 282.6H237C238.447 282.597 239.834 282.021 240.858 280.998C241.881 279.974 242.457 278.587 242.46 277.14V5.70999C242.457 4.26272 241.881 2.87548 240.858 1.8521C239.834 0.828728 238.447 0.252632 237 0.249989H43.91Z" fill="#EBEBEB"/>
<path d="M453.31 282.85H260.21C258.696 282.847 257.246 282.245 256.175 281.175C255.105 280.104 254.503 278.654 254.5 277.14V5.70999C254.516 4.2051 255.124 2.76706 256.193 1.70758C257.262 0.648096 258.705 0.0525361 260.21 0.0499878H453.31C454.812 0.0551923 456.252 0.652237 457.317 1.71172C458.382 2.77119 458.987 4.20774 459 5.70999V277.14C459 278.651 458.401 280.1 457.335 281.171C456.268 282.241 454.821 282.845 453.31 282.85ZM260.21 0.249989C258.763 0.252632 257.375 0.828728 256.352 1.8521C255.329 2.87548 254.753 4.26272 254.75 5.70999V277.14C254.753 278.587 255.329 279.974 256.352 280.998C257.375 282.021 258.763 282.597 260.21 282.6H453.31C454.757 282.597 456.145 282.021 457.168 280.998C458.191 279.974 458.767 278.587 458.77 277.14V5.70999C458.767 4.26272 458.191 2.87548 457.168 1.8521C456.145 0.828728 454.757 0.252632 453.31 0.249989H260.21Z" fill="#EBEBEB"/>
<path d="M111.39 327.45L111.39 185.96H66.0201V327.45H111.39Z" fill="#F0F0F0"/>
<path d="M108.9 231.16V189.51H68.5099V231.16H108.9Z" fill="#E6E6E6"/>
<path d="M108.9 276.54V234.89H68.5099V276.54H108.9Z" fill="#E6E6E6"/>
<path d="M108.89 321.93V280.28H68.5001V321.93H108.89Z" fill="#E6E6E6"/>
<path d="M108.9 231.16V189.51H93.0099V231.16H108.9Z" fill="#E0E0E0"/>
<path d="M108.9 276.54V234.89H93.0099V276.54H108.9Z" fill="#E0E0E0"/>
<path d="M102.84 214.52H91.8398V231.16H102.84V214.52Z" fill="#F0F0F0"/>
<path d="M87.1801 231.16H91.8301V214.52H87.1801V231.16Z" fill="#E0E0E0"/>
<path d="M89.5099 218.84H75.3799V231.15H89.5099V218.84Z" fill="#F0F0F0"/>
<path d="M69.4099 231.15H75.3799V218.84H69.4099V231.15Z" fill="#E0E0E0"/>
<path d="M108.89 321.93V280.28H93.0001V321.93H108.89Z" fill="#E0E0E0"/>
<path d="M66.02 327.45L66.02 185.96H53.7L53.7 327.45H66.02Z" fill="#F5F5F5"/>
<path d="M104.38 297.51H74.3799V321.93H104.38V297.51Z" fill="#F0F0F0"/>
<path d="M68.5099 321.92H74.3799V297.5H68.5099V321.92Z" fill="#E0E0E0"/>
<path d="M99.1102 257.17H72.4502V276.55H99.1102V257.17Z" fill="#FAFAFA"/>
<path d="M68.52 276.54H72.46V257.16H68.52V276.54Z" fill="#F0F0F0"/>
<path d="M446.41 327.45V185.96H401.04V327.45H446.41Z" fill="#F0F0F0"/>
<path d="M443.91 231.16V189.51H403.52V231.16H443.91Z" fill="#E6E6E6"/>
<path d="M443.91 276.55V234.9H403.52V276.55H443.91Z" fill="#E6E6E6"/>
<path d="M443.91 321.94V280.29H403.52V321.94H443.91Z" fill="#E6E6E6"/>
<path d="M443.91 231.16V189.51H428.02V231.16H443.91Z" fill="#E0E0E0"/>
<path d="M443.91 276.55V234.9H428.02V276.55H443.91Z" fill="#E0E0E0"/>
<path d="M420.91 264.45H409.91V276.54H420.91V264.45Z" fill="#F0F0F0"/>
<path d="M405.26 276.55H409.91V264.46H405.26V276.55Z" fill="#E0E0E0"/>
<path d="M430.87 252.36H419.87V264.45H430.87V252.36Z" fill="#F0F0F0"/>
<path d="M415.22 264.46H419.87V252.37H415.22V264.46Z" fill="#E0E0E0"/>
<path d="M438.69 264.45H427.69V276.54H438.69V264.45Z" fill="#F0F0F0"/>
<path d="M423.04 276.55H427.69V264.46H423.04V276.55Z" fill="#E0E0E0"/>
<path d="M443.91 321.93V280.28H428.02V321.93H443.91Z" fill="#E0E0E0"/>
<path d="M401.04 327.44V185.95H388.72V327.44H401.04Z" fill="#F5F5F5"/>
<path d="M433.19 288.87H408.38V321.94H433.19V288.87Z" fill="#F0F0F0"/>
<path d="M403.53 321.93H408.38V288.86H403.53V321.93Z" fill="#E0E0E0"/>
<path d="M441.17 204.91H408.38V231.16H441.17V204.91Z" fill="#FAFAFA"/>
<path d="M403.53 231.16H408.38V204.91H403.53V231.16Z" fill="#F0F0F0"/>
<path d="M362.28 26.62H130.73V178.71H362.28V26.62Z" fill="#E6E6E6"/>
<path d="M365.41 26.62H133.86V178.71H365.41V26.62Z" fill="#F5F5F5"/>
<path d="M359.8 172.41V32.92L139.46 32.92V172.41H359.8Z" fill="white"/>
<path d="M359.8 172.42V32.93H357.44V172.42H359.8Z" fill="#E6E6E6"/>
<path d="M363.09 128.71H136.18V137.17H363.09V128.71Z" fill="#F5F5F5"/>
<path d="M371.53 16.2H124.62C124.506 16.1987 124.393 16.22 124.288 16.2626C124.182 16.3052 124.086 16.3683 124.005 16.4483C123.924 16.5283 123.86 16.6236 123.816 16.7286C123.773 16.8336 123.75 16.9462 123.75 17.06C123.753 17.289 123.845 17.5077 124.008 17.6687C124.171 17.8297 124.391 17.92 124.62 17.92H371.53C371.757 17.9174 371.975 17.826 372.135 17.6652C372.296 17.5045 372.387 17.2873 372.39 17.06C372.39 16.8319 372.299 16.6132 372.138 16.4519C371.977 16.2906 371.758 16.2 371.53 16.2Z" fill="#E6E6E6"/>
<path d="M374.55 17.05C374.55 17.4772 374.423 17.8948 374.186 18.2501C373.949 18.6053 373.611 18.8821 373.217 19.0456C372.822 19.2091 372.388 19.2519 371.969 19.1685C371.55 19.0852 371.165 18.8795 370.863 18.5774C370.561 18.2753 370.355 17.8904 370.271 17.4714C370.188 17.0524 370.231 16.6181 370.394 16.2234C370.558 15.8287 370.835 15.4914 371.19 15.254C371.545 15.0167 371.963 14.89 372.39 14.89C372.674 14.89 372.954 14.9459 373.217 15.0544C373.479 15.163 373.717 15.3221 373.917 15.5227C374.118 15.7232 374.277 15.9614 374.386 16.2234C374.494 16.4855 374.55 16.7664 374.55 17.05Z" fill="#E6E6E6"/>
<path d="M131.9 21.9C131.59 21.8974 131.294 21.7733 131.076 21.5544C130.857 21.3356 130.733 21.0395 130.73 20.73V18.22C130.73 17.9097 130.853 17.6121 131.073 17.3927C131.292 17.1733 131.59 17.05 131.9 17.05C132.208 17.05 132.503 17.1722 132.72 17.3897C132.938 17.6073 133.06 17.9023 133.06 18.21V20.72C133.061 20.8736 133.032 21.026 132.975 21.1685C132.917 21.311 132.832 21.4407 132.724 21.5502C132.617 21.6598 132.488 21.7471 132.347 21.8071C132.206 21.8671 132.054 21.8987 131.9 21.9Z" fill="#E6E6E6"/>
<path d="M358.5 21.9C358.191 21.8973 357.896 21.7729 357.679 21.5538C357.462 21.3347 357.34 21.0386 357.34 20.73V18.22C357.339 18.0668 357.368 17.9149 357.425 17.773C357.483 17.6311 357.568 17.502 357.676 17.3933C357.784 17.2845 357.912 17.1982 358.054 17.1392C358.195 17.0803 358.347 17.05 358.5 17.05C358.808 17.05 359.105 17.1719 359.324 17.3891C359.543 17.6064 359.667 17.9014 359.67 18.21V20.72C359.67 21.0312 359.547 21.3298 359.328 21.5509C359.109 21.7719 358.811 21.8973 358.5 21.9Z" fill="#E6E6E6"/>
<path opacity="0.4" d="M371.25 17.06H136.18V166.5H371.25V17.06Z" fill="#E0E0E0"/>
<path d="M147.94 17.05C147.94 17.4776 147.813 17.8956 147.575 18.251C147.338 18.6065 147 18.8833 146.604 19.0465C146.209 19.2097 145.774 19.2519 145.355 19.1677C144.936 19.0836 144.551 18.8768 144.249 18.5738C143.948 18.2707 143.743 17.8849 143.66 17.4652C143.578 17.0456 143.622 16.6109 143.787 16.2164C143.952 15.8219 144.231 15.4853 144.587 15.2491C144.944 15.013 145.362 14.888 145.79 14.89C146.361 14.8926 146.908 15.1214 147.311 15.5262C147.714 15.9309 147.94 16.4788 147.94 17.05Z" fill="#E6E6E6"/>
<path d="M162.97 246.55L375.28 246.55V237.83L162.97 237.83V246.55Z" fill="#F0F0F0"/>
<path d="M162.97 237.83H137.83V246.55H162.97V237.83Z" fill="#E6E6E6"/>
<path d="M371.79 246.55H141.71V251.61H371.79V246.55Z" fill="#E0E0E0"/>
<path d="M369.32 250.49V327.44H371.79V250.49H369.32Z" fill="#E0E0E0"/>
<path d="M162.97 250.5V327.45H165.44V250.5H162.97Z" fill="#E0E0E0"/>
<path d="M141.71 250.5V327.45H144.17V250.5H141.71Z" fill="#E0E0E0"/>
<path d="M348.07 250.5V327.45H350.54V250.5H348.07Z" fill="#E0E0E0"/>
<path d="M299.85 157.83L308.38 173.05C308.12 205.91 311.04 207.81 311.07 213.46H302.07C301.22 185.94 295.9 188.28 299.85 157.83Z" fill="#E0E0E0"/>
<path d="M306.43 197.68C303.43 165.99 253.51 171.06 248.77 185.95C244.03 200.84 308.17 215.91 306.43 197.68Z" fill="#E0E0E0"/>
<path d="M302.66 184.82C309.25 161.44 279.22 157.03 265.81 163.82C257.91 171.73 298.87 198.27 302.66 184.82Z" fill="#E0E0E0"/>
<path d="M294.39 170.05C309.85 165.05 299.84 148.81 290.61 144.65C283 143.63 285.5 172.98 294.39 170.05Z" fill="#E0E0E0"/>
<path d="M311.38 185.47C293.89 172.23 315.1 159.52 329.17 159.58C339.55 162.23 321.44 193.05 311.38 185.47Z" fill="#E0E0E0"/>
<path d="M308.24 172.15C284.93 166.27 298.87 149.66 312.36 145.66C323.58 144.85 321.64 175.54 308.24 172.15Z" fill="#E0E0E0"/>
<path d="M304 199.6C299.65 171.01 346.57 172.38 350.37 183.72C354.17 195.06 306.45 216.05 304 199.6Z" fill="#E0E0E0"/>
<path d="M301.5 237.83C284.5 237.83 270.19 237.08 266.71 220.97C265.867 216.696 264.652 212.503 263.08 208.44L262.81 207.79H340.18L339.91 208.44C338.337 212.502 337.126 216.695 336.29 220.97C332.8 237.05 318.48 237.83 301.5 237.83Z" fill="#FAFAFA"/>
<path d="M345.19 209.26H257.8L255.3 201.96H347.69L345.19 209.26Z" fill="#F0F0F0"/>
<path d="M250 372.61C357.082 372.61 443.89 367.542 443.89 361.29C443.89 355.038 357.082 349.97 250 349.97C142.917 349.97 56.1099 355.038 56.1099 361.29C56.1099 367.542 142.917 372.61 250 372.61Z" fill="#F5F5F5"/>
<path d="M380.5 353.06L372.48 352.93L372.45 334.31L380.46 334.44L380.5 353.06Z" fill="#FFB573"/>
<path d="M421.22 353.09H413.19L410.81 334.5H418.84L421.22 353.09Z" fill="#FFB573"/>
<path d="M412.35 352.16H422.14C422.297 352.16 422.449 352.215 422.569 352.315C422.69 352.416 422.772 352.556 422.8 352.71L424.08 359.85C424.107 360.027 424.096 360.207 424.047 360.379C423.998 360.551 423.911 360.71 423.794 360.845C423.677 360.981 423.532 361.089 423.369 361.162C423.206 361.235 423.029 361.272 422.85 361.27C419.7 361.22 417.41 361.03 413.44 361.03C411 361.03 403.64 361.29 400.27 361.29C396.9 361.29 396.6 357.96 397.99 357.65C404.23 356.3 408.99 354.44 410.99 352.65C411.366 352.323 411.851 352.148 412.35 352.16Z" fill="#263238"/>
<path d="M372.09 352.05L380.85 352.19C381.007 352.189 381.158 352.245 381.276 352.348C381.394 352.451 381.47 352.594 381.49 352.75L382.59 359.9C382.614 360.077 382.6 360.258 382.548 360.429C382.497 360.601 382.408 360.759 382.289 360.893C382.171 361.027 382.024 361.133 381.86 361.205C381.696 361.277 381.519 361.313 381.34 361.31C378.18 361.21 373.63 360.95 369.66 360.89C365.02 360.82 364.5 361.01 359.06 360.89C355.77 360.84 355.06 357.5 356.48 357.22C362.85 355.94 364.48 355.87 370.12 352.61C370.715 352.251 371.395 352.058 372.09 352.05Z" fill="#263238"/>
<path d="M375.65 114.18C373.495 119.97 371.042 125.644 368.3 131.18C366.93 133.94 365.49 136.69 363.91 139.39C362.343 142.148 360.627 144.818 358.77 147.39L357.26 149.39C356.331 150.574 355.171 151.557 353.85 152.28C352.472 153.025 350.936 153.429 349.37 153.46C348.088 153.5 346.808 153.331 345.58 152.96C343.667 152.38 341.855 151.506 340.21 150.37C338.806 149.401 337.47 148.339 336.21 147.19C331.582 142.857 327.547 137.931 324.21 132.54L328.97 128.83C331.02 130.83 333.18 132.83 335.36 134.71C337.464 136.574 339.678 138.31 341.99 139.91C343.045 140.654 344.151 141.322 345.3 141.91C346.192 142.381 347.149 142.718 348.14 142.91C348.352 142.971 348.578 142.971 348.79 142.91C348.86 142.86 348.72 142.85 348.6 142.91C348.48 142.97 348.45 142.91 348.52 142.83L349.57 141.16C352.486 136.254 355.108 131.178 357.42 125.96C359.83 120.69 362.15 115.2 364.3 109.9L375.65 114.18Z" fill="#FFB573"/>
<path d="M378.65 108.94C381.3 116.14 367.4 137.17 367.4 137.17L351.4 128.31C353.865 121.752 357.03 115.479 360.84 109.6C366.63 101.19 375.76 101.05 378.65 108.94Z" fill="#FFA5AF"/>
<path opacity="0.5" d="M378.65 108.94C381.3 116.14 367.4 137.17 367.4 137.17L351.4 128.31C353.865 121.752 357.03 115.479 360.84 109.6C366.63 101.19 375.76 101.05 378.65 108.94Z" fill="white"/>
<path opacity="0.2" d="M369.78 116.83C366.72 118.38 359.78 126 357.69 131.78L367.4 137.17C370.717 132.06 373.651 126.712 376.18 121.17C374 119.05 371.4 116.05 369.78 116.83Z" fill="#FFA5AF"/>
<path d="M329.49 128.96L324.61 124.54L320 132.43C320 132.43 324.69 137.93 329.88 135.26L330.58 133.26C330.843 132.516 330.88 131.71 330.686 130.945C330.492 130.18 330.076 129.489 329.49 128.96Z" fill="#FFB573"/>
<path d="M316.73 121.22L315.38 128.88L320 132.43L324.61 124.54L316.73 121.22Z" fill="#FFB573"/>
<path opacity="0.2" d="M372.45 334.32L372.47 343.92L380.48 344.04L380.47 334.45L372.45 334.32Z" fill="black"/>
<path opacity="0.2" d="M418.84 334.51H410.81L412.05 344.09H420.07L418.84 334.51Z" fill="black"/>
<path d="M414.15 103.35C407.51 134.35 411.36 166.52 411.01 173.11L368.08 172.73C359.49 127.51 369.18 103.35 369.18 103.35C369.18 103.35 371.89 102.64 375.6 102.01C376.76 101.81 378.02 101.62 379.33 101.47C380.05 101.38 380.79 101.31 381.54 101.24C387.622 100.949 393.715 101.006 399.79 101.41C400.94 101.47 402.11 101.57 403.24 101.68C404.37 101.79 405.33 101.91 406.3 102.04C410.72 102.62 414.15 103.35 414.15 103.35Z" fill="#FFA5AF"/>
<path opacity="0.5" d="M414.15 103.35C407.51 134.35 411.36 166.52 411.01 173.11L368.08 172.73C359.49 127.51 369.18 103.35 369.18 103.35C369.18 103.35 371.89 102.64 375.6 102.01C376.76 101.81 378.02 101.62 379.33 101.47C380.05 101.38 380.79 101.31 381.54 101.24C387.622 100.949 393.715 101.006 399.79 101.41C400.94 101.47 402.11 101.57 403.24 101.68C404.37 101.79 405.33 101.91 406.3 102.04C410.72 102.62 414.15 103.35 414.15 103.35Z" fill="white"/>
<path opacity="0.2" d="M405.89 117.05C405.31 120.05 407.07 133.42 410.36 136.53C410.49 132.2 410.76 127.68 411.2 123.04L405.89 117.05Z" fill="black"/>
<path d="M398.16 80.84C396.96 86.7 395.71 97.45 399.79 101.41C396.57 104.55 392.36 108.18 385.39 108.36C378.42 108.54 379.67 103.76 381.54 101.24C388.1 99.74 387.98 94.88 386.88 90.31L398.16 80.84Z" fill="#FFB573"/>
<path d="M398.6 99.16C398.6 99.16 396.48 104.72 385.11 108.36C386.945 109.221 388.435 110.676 389.34 112.49C389.34 112.49 402.63 109.11 401.62 100.7C400.687 100.053 399.671 99.5355 398.6 99.16Z" fill="white"/>
<path d="M380.77 112.05C381.769 110.382 383.297 109.094 385.11 108.39C383.83 107.22 381.76 103.57 382.67 100.73C381.769 100.706 380.869 100.814 380 101.05C380 101.05 375.25 105.59 380.77 112.05Z" fill="white"/>
<path d="M384.79 114.83C384.7 115.63 384.29 116.23 383.86 116.18C383.43 116.13 383.16 115.46 383.24 114.66C383.32 113.86 383.75 113.27 384.17 113.31C384.59 113.35 384.88 114.05 384.79 114.83Z" fill="white"/>
<path d="M384 123.05C384 123.85 383.62 124.49 383.19 124.48C382.76 124.47 382.42 123.82 382.44 123.02C382.46 122.22 382.82 121.58 383.25 121.59C383.68 121.6 384 122.26 384 123.05Z" fill="white"/>
<path opacity="0.2" d="M393.56 84.7L386.88 90.3C387.153 91.3654 387.33 92.453 387.41 93.55C389.92 93.21 393.41 90.49 393.67 87.87C393.825 86.8153 393.788 85.7413 393.56 84.7Z" fill="black"/>
<path d="M386.3 67.47C384.977 68.8365 383.996 70.4963 383.436 72.3141C382.877 74.1318 382.755 76.0561 383.08 77.93C381.23 79.53 377.88 79.24 377.88 79.24L376.82 78.18C376.315 77.6693 375.925 77.0557 375.679 76.3809C375.432 75.7062 375.333 74.9862 375.39 74.27C375.58 71.93 376.11 68.38 377.59 66.13C380 62.54 386.3 67.47 386.3 67.47Z" fill="#263238"/>
<path d="M398.94 72.0499C398.38 80.0499 398.46 84.6799 394.41 88.7199C388.31 94.8099 378.53 91.08 376.7 83.12C375.06 75.96 376.25 64.1199 384.06 61.1199C385.775 60.4298 387.638 60.189 389.473 60.4204C391.307 60.6519 393.052 61.3479 394.543 62.4425C396.033 63.5371 397.219 64.9941 397.988 66.6754C398.758 68.3567 399.085 70.2067 398.94 72.0499Z" fill="#FFB573"/>
<path d="M392.3 67.19C393.628 70.1626 393.76 73.5323 392.67 76.6C392.552 76.9099 392.498 77.2406 392.512 77.572C392.526 77.9033 392.606 78.2284 392.749 78.5276C392.893 78.8268 393.095 79.0939 393.344 79.3126C393.593 79.5313 393.885 79.6971 394.2 79.8C394.891 80.0057 395.609 80.1035 396.33 80.09L400.16 79.36C400.16 79.36 401.77 73.66 400.72 69.49C399.67 65.32 392.3 67.19 392.3 67.19Z" fill="#263238"/>
<path d="M392.27 68.24C386.396 68.7715 380.477 68.4651 374.69 67.33C374.69 67.33 376.57 61.33 380.79 59.33C385.01 57.33 393.93 57.46 396.68 58.62C399.43 59.78 403.02 63.32 401.68 71.96C398.83 75.05 392.27 68.24 392.27 68.24Z" fill="#263238"/>
<path d="M402.87 70.68C402.87 70.68 380.48 67.43 371.2 65.8C371.059 65.7742 370.932 65.7001 370.841 65.5905C370.75 65.4808 370.7 65.3427 370.7 65.2C370.7 65.0573 370.75 64.9191 370.841 64.8095C370.932 64.6998 371.059 64.6257 371.2 64.6C375.082 64.2302 378.996 64.4053 382.83 65.12L402.87 70.68Z" fill="#FFA5AF"/>
<path d="M374.85 64.6099C375.25 62.6099 378.71 52.28 393.23 55.42C406.68 58.32 402.87 70.6799 402.87 70.6799L374.85 64.6099Z" fill="#FFA5AF"/>
<path d="M383.95 55.73L388.81 54.29L394.67 54.77V55.78L390.95 56.64L383.95 55.73Z" fill="#FFA5AF"/>
<path opacity="0.2" d="M384.68 65.65C384.63 65.6513 384.581 65.6428 384.535 65.6248C384.489 65.6068 384.447 65.5797 384.412 65.5452C384.376 65.5107 384.348 65.4695 384.329 65.4239C384.31 65.3784 384.3 65.3294 384.3 65.28C384.3 65.2 384.41 57.16 393.93 55.02C393.98 55.0044 394.033 54.9995 394.086 55.0055C394.138 55.0115 394.188 55.0283 394.234 55.0549C394.279 55.0815 394.319 55.1172 394.35 55.1599C394.381 55.2025 394.403 55.2512 394.414 55.3027C394.425 55.3542 394.425 55.4074 394.415 55.4591C394.404 55.5107 394.383 55.5596 394.352 55.6026C394.322 55.6456 394.283 55.6818 394.238 55.7089C394.192 55.736 394.142 55.7534 394.09 55.76C385.18 57.76 385.09 64.97 385.09 65.28C385.09 65.3321 385.079 65.3838 385.058 65.4315C385.037 65.4792 385.006 65.5219 384.968 65.5569C384.929 65.5918 384.883 65.6182 384.834 65.6342C384.784 65.6503 384.732 65.6556 384.68 65.65Z" fill="black"/>
<path d="M402.34 80.11C401.319 81.8359 399.659 83.0898 397.72 83.6C395.15 84.25 393.93 81.93 394.72 79.54C395.41 77.38 397.59 74.44 400.15 74.86C402.71 75.28 403.56 77.98 402.34 80.11Z" fill="#FFB573"/>
<path d="M370 342.05L383.59 342.26C383.59 342.26 387.27 288.49 386.86 263.48C386.74 255.87 387.57 245.16 388.86 233.66C390.45 219.17 391.29 213.38 393.38 195.06C394.87 182 396.38 173.06 396.38 173.06L368.16 172.81C368.16 172.81 364.55 238.31 365.29 262.81C366 288.18 370 342.05 370 342.05Z" fill="#263238"/>
<path opacity="0.2" d="M387.54 190.74C383.32 203.64 385.14 233.1 388.01 241.24C388.25 238.76 388.52 236.24 388.8 233.64C390.39 219.14 391.24 213.35 393.33 195.04C393.33 194.67 393.41 194.32 393.45 193.97C391.685 192.555 389.684 191.461 387.54 190.74Z" fill="black"/>
<path d="M383.31 172.87C383.31 172.87 392.89 240.28 396.31 263.55C400.05 289.03 408.31 342.23 408.31 342.23H423C423 342.23 420.24 292.09 417.07 267.18C413.47 238.8 410.98 173.12 410.98 173.12L383.31 172.87Z" fill="#263238"/>
<path d="M406.57 342.55H423.88V337.38L404.53 337.04L406.57 342.55Z" fill="#FFA5AF"/>
<path d="M367.93 342.31L384.09 342.56L384.83 337.33L366.8 336.77L367.93 342.31Z" fill="#FFA5AF"/>
<path d="M386.86 74.12C386.86 74.77 386.51 75.29 386.08 75.29C385.65 75.29 385.32 74.76 385.33 74.11C385.34 73.46 385.68 72.94 386.11 72.95C386.54 72.96 386.87 73.48 386.86 74.12Z" fill="#263238"/>
<path d="M379.54 74.05C379.54 74.7 379.19 75.22 378.77 75.21C378.35 75.2 378.01 74.68 378.01 74.04C378.01 73.4 378.36 72.87 378.79 72.87C379.22 72.87 379.55 73.41 379.54 74.05Z" fill="#263238"/>
<path d="M381.65 74.74C380.859 76.7099 379.799 78.5608 378.5 80.24C378.94 80.5603 379.444 80.7808 379.978 80.8861C380.511 80.9915 381.062 80.9792 381.59 80.85L381.65 74.74Z" fill="#ED893E"/>
<path d="M384.53 82.78C385.252 82.7006 385.95 82.4742 386.581 82.1148C387.212 81.7553 387.763 81.2704 388.2 80.69C388.218 80.6492 388.222 80.6032 388.21 80.5601C388.197 80.517 388.17 80.4796 388.133 80.4545C388.096 80.4294 388.052 80.4182 388.007 80.4228C387.963 80.4275 387.921 80.4477 387.89 80.48C387.394 81.1177 386.756 81.6307 386.027 81.978C385.298 82.3252 384.498 82.4971 383.69 82.48C383.64 82.48 383.591 82.5 383.556 82.5356C383.52 82.5713 383.5 82.6196 383.5 82.67C383.5 82.7204 383.52 82.7687 383.556 82.8043C383.591 82.84 383.64 82.86 383.69 82.86C383.971 82.8488 384.252 82.8221 384.53 82.78Z" fill="#263238"/>
<path d="M389.14 71.78C389.204 71.7699 389.266 71.746 389.32 71.71C389.4 71.6501 389.454 71.5608 389.469 71.4615C389.484 71.3621 389.459 71.2609 389.4 71.18C389.049 70.6865 388.586 70.2838 388.049 70.0055C387.511 69.7272 386.915 69.5813 386.31 69.58C386.26 69.5825 386.212 69.5949 386.167 69.6165C386.123 69.6382 386.083 69.6685 386.05 69.7058C386.017 69.7431 385.993 69.7866 385.977 69.8337C385.962 69.8808 385.956 69.9305 385.96 69.98C385.962 70.0299 385.975 70.0788 385.996 70.1239C386.018 70.1691 386.048 70.2095 386.085 70.243C386.122 70.2764 386.166 70.3022 386.213 70.3188C386.26 70.3355 386.31 70.3427 386.36 70.34C386.838 70.3456 387.309 70.4656 387.731 70.69C388.154 70.9144 388.517 71.2367 388.79 71.63C388.827 71.6861 388.88 71.7301 388.943 71.7567C389.005 71.7833 389.073 71.7914 389.14 71.78Z" fill="#263238"/>
<path d="M376.41 71.51C376.473 71.5033 376.532 71.4816 376.585 71.4468C376.637 71.4119 376.68 71.365 376.71 71.31C376.909 70.875 377.208 70.4938 377.584 70.1981C377.96 69.9024 378.401 69.7007 378.87 69.61C378.971 69.5981 379.063 69.5466 379.126 69.4669C379.188 69.3872 379.217 69.2858 379.205 69.185C379.193 69.0842 379.142 68.9923 379.062 68.9295C378.982 68.8667 378.881 68.8381 378.78 68.85C378.185 68.9555 377.624 69.2034 377.145 69.5725C376.666 69.9417 376.284 70.4211 376.03 70.97C376.006 71.0144 375.992 71.0631 375.988 71.1132C375.983 71.1634 375.989 71.2139 376.005 71.2616C376.021 71.3093 376.047 71.3533 376.08 71.3909C376.114 71.4284 376.155 71.4588 376.2 71.48C376.266 71.5092 376.339 71.5196 376.41 71.51Z" fill="#263238"/>
<path d="M409.64 353.57C410.351 353.55 411.059 353.452 411.75 353.28C411.787 353.269 411.82 353.248 411.846 353.22C411.872 353.192 411.891 353.157 411.9 353.12C411.905 353.084 411.9 353.047 411.886 353.014C411.872 352.98 411.849 352.951 411.82 352.93C411.54 352.75 409.01 351.16 408.11 351.61C408.01 351.662 407.925 351.739 407.863 351.834C407.802 351.928 407.766 352.037 407.76 352.15C407.729 352.333 407.745 352.52 407.806 352.695C407.868 352.87 407.972 353.026 408.11 353.15C408.557 353.46 409.097 353.608 409.64 353.57ZM411.21 353.01C409.83 353.28 408.79 353.23 408.36 352.86C408.266 352.774 408.197 352.665 408.158 352.544C408.12 352.423 408.113 352.294 408.14 352.17C408.137 352.124 408.148 352.079 408.171 352.04C408.194 352.001 408.229 351.97 408.27 351.95C408.74 351.71 410.18 352.4 411.21 353.05V353.01Z" fill="#FFA5AF"/>
<path d="M411.7 353.28C411.736 353.29 411.774 353.29 411.81 353.28C411.838 353.262 411.861 353.236 411.877 353.207C411.893 353.177 411.901 353.144 411.9 353.11C411.9 353.01 411.8 350.69 410.9 349.93C410.792 349.835 410.664 349.764 410.526 349.722C410.388 349.681 410.243 349.67 410.1 349.69C409.957 349.692 409.819 349.741 409.707 349.83C409.595 349.919 409.515 350.042 409.48 350.18C409.27 351.08 410.8 352.84 411.61 353.29L411.7 353.28ZM410.22 350.05C410.299 350.048 410.378 350.063 410.452 350.092C410.526 350.121 410.593 350.165 410.65 350.22C411.187 350.948 411.481 351.826 411.49 352.73C410.69 352.1 409.73 350.73 409.85 350.25C409.85 350.2 409.85 350.08 410.14 350.05H410.22Z" fill="#FFA5AF"/>
<path d="M371.23 353.11C371.263 353.097 371.293 353.075 371.316 353.047C371.339 353.019 371.354 352.986 371.36 352.95C371.368 352.913 371.364 352.874 371.348 352.839C371.331 352.805 371.304 352.777 371.27 352.76C370.92 352.56 367.81 350.88 366.8 351.4C366.705 351.451 366.624 351.524 366.563 351.613C366.503 351.701 366.464 351.803 366.45 351.91C366.42 352.077 366.431 352.248 366.482 352.41C366.532 352.572 366.621 352.719 366.74 352.84C367.57 353.63 369.89 353.35 371.2 353.11H371.23ZM367.03 351.71C367.65 351.51 369.35 352.2 370.59 352.83C368.79 353.1 367.48 353 367.02 352.56C366.937 352.482 366.875 352.384 366.842 352.275C366.809 352.166 366.804 352.051 366.83 351.94C366.83 351.898 366.842 351.856 366.865 351.821C366.888 351.785 366.921 351.757 366.96 351.74L367.03 351.71Z" fill="#FFA5AF"/>
<path d="M371.23 353.11C371.257 353.09 371.279 353.065 371.294 353.035C371.31 353.006 371.319 352.973 371.32 352.94C371.32 352.85 371.25 350.68 370.32 349.83C370.186 349.706 370.028 349.612 369.856 349.554C369.684 349.495 369.501 349.473 369.32 349.49C368.8 349.49 368.63 349.79 368.58 350.01C368.37 350.91 370.17 352.68 371.11 353.13C371.151 353.135 371.193 353.128 371.23 353.11ZM369.12 349.87H369.31C369.448 349.858 369.586 349.876 369.717 349.92C369.848 349.965 369.968 350.036 370.07 350.13C370.623 350.845 370.935 351.717 370.96 352.62C370.01 352.01 368.8 350.62 368.96 350.08C368.94 350.05 369 349.92 369.12 349.87Z" fill="#FFA5AF"/>
<path d="M402.79 99.34C402.285 99.2743 401.771 99.3309 401.293 99.5049C400.814 99.6789 400.385 99.9653 400.04 100.34C397.28 103.34 390.7 112.51 389.34 133.91C388.255 150.072 389.743 166.305 393.75 182L410.85 177.14C411.398 176.987 411.874 176.642 412.191 176.169C412.508 175.696 412.646 175.126 412.58 174.56C412.12 170.56 411.12 160.93 410.85 150.16C410.66 142.58 411.23 135.75 411.2 132.65C409.32 128.97 405.94 122.96 407.2 116.41C408.56 109.1 412.58 108.1 415.32 106.76C415.675 106.575 415.971 106.294 416.176 105.95C416.381 105.606 416.486 105.212 416.48 104.811C416.474 104.411 416.356 104.02 416.141 103.683C415.925 103.345 415.62 103.074 415.26 102.9C411.301 101.107 407.099 99.9074 402.79 99.34Z" fill="#FFA5AF"/>
<path d="M378.72 181.97L367 178.29C366.56 178.151 366.17 177.889 365.876 177.534C365.581 177.179 365.395 176.748 365.34 176.29C364.34 168.55 360.16 133.02 365.56 106.64C365.739 105.749 366.147 104.921 366.743 104.235C367.339 103.55 368.103 103.031 368.96 102.73C372.334 101.585 375.826 100.823 379.37 100.46C379.473 100.449 379.578 100.464 379.675 100.503C379.771 100.542 379.856 100.605 379.923 100.685C379.989 100.765 380.034 100.861 380.055 100.963C380.075 101.065 380.07 101.17 380.04 101.27C377.82 109.42 374.12 154.05 378.72 181.97Z" fill="#FFA5AF"/>
<path d="M363.35 154.77C363.56 158.51 363.83 161.96 364.1 164.99C368.35 165.47 372.7 165.8 377.02 165.99C376.82 162.68 376.68 159.29 376.61 155.88C372.13 155.66 367.67 155.3 363.35 154.77Z" fill="white"/>
<path d="M376.72 137.13C371.97 136.93 367.3 136.56 362.86 135.99C362.86 139.45 362.86 142.85 362.97 146.12C367.38 146.66 371.97 147.01 376.54 147.2C376.55 143.79 376.62 140.41 376.72 137.13Z" fill="white"/>
<path d="M411 155.23C404.75 155.84 397.32 156.23 389.5 156.23C389.78 159.9 390.16 163.28 390.59 166.29C398.24 166.29 405.47 165.84 411.67 165.23C411.44 162.18 411.2 158.78 411 155.23Z" fill="white"/>
<path d="M411.11 136.05C404.46 136.74 396.9 137.21 389.16 137.31C389.02 140.8 389 144.17 389.07 147.38C396.72 147.28 404.16 146.83 410.82 146.16C410.83 142.26 411 138.73 411.11 136.05Z" fill="white"/>
<path d="M442.5 188.05L397.07 195.63C396.778 195.684 396.478 195.676 396.189 195.606C395.901 195.536 395.63 195.405 395.396 195.223C395.162 195.04 394.969 194.81 394.83 194.548C394.691 194.285 394.609 193.996 394.59 193.7L392.42 165.54C392.383 164.909 392.578 164.286 392.968 163.788C393.359 163.291 393.918 162.954 394.54 162.84L440 155.26C440.292 155.204 440.593 155.211 440.882 155.28C441.171 155.35 441.442 155.481 441.677 155.663C441.912 155.846 442.105 156.077 442.243 156.34C442.382 156.603 442.463 156.893 442.48 157.19L444.65 185.35C444.686 185.986 444.487 186.612 444.09 187.11C443.694 187.608 443.128 187.943 442.5 188.05Z" fill="#FFA5AF"/>
<path opacity="0.4" d="M442.5 188.05L398.12 195.45C397.828 195.506 397.527 195.499 397.238 195.429C396.948 195.36 396.677 195.229 396.443 195.047C396.208 194.864 396.015 194.633 395.876 194.37C395.738 194.107 395.657 193.817 395.64 193.52L393.47 165.36C393.433 164.729 393.628 164.106 394.018 163.608C394.409 163.111 394.968 162.774 395.59 162.66L439.97 155.26C440.262 155.204 440.563 155.211 440.852 155.28C441.141 155.35 441.412 155.481 441.647 155.663C441.882 155.846 442.075 156.077 442.213 156.34C442.352 156.603 442.432 156.893 442.45 157.19L444.62 185.35C444.657 185.981 444.462 186.604 444.071 187.102C443.681 187.599 443.122 187.936 442.5 188.05Z" fill="black"/>
<path d="M416 108.45C418.53 114.21 420.77 119.94 422.8 125.86C423.8 128.8 424.8 131.78 425.69 134.78C426.14 136.29 426.57 137.78 426.98 139.34L427.29 140.48L427.61 141.8C427.84 142.7 427.97 143.6 428.13 144.49C428.906 151.257 428.304 158.112 426.36 164.64C425.496 167.749 424.441 170.801 423.2 173.78C422.57 175.26 421.91 176.71 421.2 178.15C420.49 179.59 419.79 180.97 418.93 182.44L413.48 179.85C414.35 177.14 415.23 174.22 415.88 171.37C416.53 168.52 417.16 165.62 417.59 162.77C418.012 159.966 418.239 157.136 418.27 154.3C418.327 151.64 418.075 148.982 417.52 146.38C417.35 145.78 417.24 145.15 417.03 144.58L416.74 143.68L416.37 142.68C415.88 141.28 415.37 139.89 414.82 138.49C413.82 135.68 412.65 132.88 411.55 130.07L404.79 113.27L416 108.45Z" fill="#FFB573"/>
<path d="M414.14 103.35C421.35 106.05 426 126.74 426 126.74L410.05 137.74C410.05 137.74 405.15 125.49 402.45 115.94C399.54 105.55 405.42 100.15 414.14 103.35Z" fill="#FFA5AF"/>
<path opacity="0.5" d="M414.14 103.35C421.35 106.05 426 126.74 426 126.74L410.05 137.74C410.05 137.74 405.15 125.49 402.45 115.94C399.54 105.55 405.42 100.15 414.14 103.35Z" fill="white"/>
<path d="M412.83 181.11L411.44 187.26L421.05 186.98C421.05 186.98 421.82 179.55 418.05 178.38L415.05 178.95C414.511 179.056 414.014 179.317 413.62 179.701C413.225 180.084 412.951 180.574 412.83 181.11Z" fill="#FFB573"/>
<path d="M414.45 194.94L420.23 193.76C420.569 193.691 420.872 193.5 421.082 193.224C421.292 192.948 421.394 192.606 421.37 192.26L421.05 186.98L411.44 187.26L412.76 193.81C412.835 194.184 413.055 194.512 413.371 194.724C413.688 194.936 414.076 195.014 414.45 194.94Z" fill="#FFB573"/>
<path d="M330.48 60.05H157.85C157.363 60.0511 156.881 60.1497 156.433 60.34C155.984 60.5302 155.579 60.8083 155.239 61.1577C154.9 61.5072 154.634 61.921 154.458 62.3748C154.281 62.8286 154.197 63.3132 154.21 63.8L161.21 301.55C161.238 302.499 161.636 303.399 162.317 304.06C162.998 304.721 163.911 305.09 164.86 305.09H337.44C337.929 305.09 338.412 304.992 338.863 304.802C339.313 304.612 339.72 304.333 340.06 303.982C340.401 303.632 340.667 303.216 340.844 302.761C341.021 302.305 341.105 301.818 341.09 301.33L334.09 63.59C334.064 62.6472 333.673 61.7513 333 61.0909C332.326 60.4306 331.423 60.0574 330.48 60.05Z" fill="#FFA5AF"/>
<path opacity="0.2" d="M330.48 60.05H157.85C157.363 60.0511 156.881 60.1497 156.433 60.34C155.984 60.5302 155.579 60.8083 155.239 61.1577C154.9 61.5072 154.634 61.921 154.458 62.3748C154.281 62.8286 154.197 63.3132 154.21 63.8L161.21 301.55C161.238 302.499 161.636 303.399 162.317 304.06C162.998 304.721 163.911 305.09 164.86 305.09H337.44C337.929 305.09 338.412 304.992 338.863 304.802C339.313 304.612 339.72 304.333 340.06 303.982C340.401 303.632 340.667 303.216 340.844 302.761C341.021 302.305 341.105 301.818 341.09 301.33L334.09 63.59C334.064 62.6472 333.673 61.7513 333 61.0909C332.326 60.4306 331.423 60.0574 330.48 60.05Z" fill="black"/>
<path d="M195.76 56.58H179.56V57.58H195.76V56.58Z" fill="#FFA5AF"/>
<path d="M173.78 56.58H169.67V57.58H173.78V56.58Z" fill="#FFA5AF"/>
<path d="M332.14 60.05H159.52C159.032 60.0498 158.549 60.1474 158.1 60.3371C157.65 60.5267 157.243 60.8046 156.903 61.1542C156.563 61.5038 156.296 61.918 156.119 62.3725C155.941 62.8269 155.857 63.3123 155.87 63.8L162.87 301.55C162.901 302.498 163.299 303.397 163.98 304.057C164.661 304.718 165.572 305.088 166.52 305.09H339.11C339.598 305.089 340.081 304.99 340.53 304.799C340.979 304.608 341.385 304.329 341.724 303.979C342.063 303.628 342.329 303.213 342.505 302.758C342.682 302.303 342.765 301.818 342.75 301.33L335.75 63.59C335.722 62.648 335.33 61.7535 334.657 61.0937C333.984 60.4339 333.082 60.0599 332.14 60.05Z" fill="#FFA5AF"/>
<path opacity="0.2" d="M163.27 72.96L169.75 294.39C169.784 295.343 170.184 296.247 170.868 296.912C171.552 297.577 172.466 297.953 173.42 297.96H329.74C330.204 297.962 330.663 297.87 331.09 297.689C331.518 297.509 331.904 297.244 332.226 296.911C332.548 296.577 332.8 296.182 332.966 295.749C333.131 295.316 333.208 294.853 333.19 294.39L326.71 72.96C326.676 72.0075 326.276 71.1049 325.592 70.4413C324.907 69.7777 323.993 69.4046 323.04 69.4H166.72C166.257 69.3969 165.798 69.4878 165.37 69.667C164.943 69.8463 164.557 70.1102 164.234 70.4429C163.912 70.7756 163.66 71.1701 163.495 71.6027C163.329 72.0353 163.252 72.497 163.27 72.96Z" fill="black"/>
<path d="M164.35 71.88L170.83 293.31C170.863 294.263 171.264 295.165 171.948 295.829C172.632 296.492 173.547 296.865 174.5 296.87H330.82C331.283 296.873 331.742 296.782 332.169 296.603C332.596 296.424 332.983 296.16 333.305 295.827C333.628 295.494 333.879 295.1 334.045 294.667C334.211 294.235 334.287 293.773 334.27 293.31L327.79 71.88C327.756 70.9275 327.355 70.025 326.671 69.3614C325.987 68.6978 325.073 68.3246 324.12 68.32H167.8C167.336 68.317 166.877 68.4078 166.45 68.5871C166.023 68.7663 165.636 69.0302 165.314 69.3629C164.992 69.6956 164.74 70.0902 164.574 70.5228C164.408 70.9554 164.332 71.4171 164.35 71.88Z" fill="white"/>
<path d="M212.41 143.19H182.37L181.49 113.15H211.53L212.41 143.19Z" fill="#F5F5F5"/>
<path d="M310.21 125.08H225.27L225.11 119.48H310.05L310.21 125.08Z" fill="#E0E0E0"/>
<path d="M292.08 136.87H225.62L225.45 131.26H291.92L292.08 136.87Z" fill="#E0E0E0"/>
<path d="M213.99 197.09H183.95L183.07 167.05H213.11L213.99 197.09Z" fill="#F5F5F5"/>
<path d="M258.06 178.98H226.85L226.69 173.37H257.89L258.06 178.98Z" fill="#E0E0E0"/>
<path d="M287.61 178.98H264.66L264.49 173.37H287.45L287.61 178.98Z" fill="#E0E0E0"/>
<path d="M301.52 190.76H227.19L227.03 185.16H301.36L301.52 190.76Z" fill="#E0E0E0"/>
<path d="M215.57 250.98H185.53L184.65 220.94H214.69L215.57 250.98Z" fill="#F5F5F5"/>
<path d="M313.55 239.05H228.61L228.77 244.66H313.71L313.55 239.05Z" fill="#E0E0E0"/>
<path d="M294.73 227.26H228.26L228.43 232.87H294.89L294.73 227.26Z" fill="#E0E0E0"/>
<path d="M198.88 135.39C198.753 135.569 198.583 135.712 198.386 135.809C198.189 135.905 197.971 135.95 197.752 135.94C197.533 135.93 197.321 135.865 197.133 135.752C196.946 135.638 196.79 135.479 196.68 135.29C194.68 132.09 191 129.17 188.86 127.72C188.581 127.536 188.383 127.253 188.303 126.929C188.223 126.605 188.269 126.262 188.43 125.97C188.519 125.816 188.64 125.682 188.784 125.577C188.928 125.473 189.092 125.399 189.266 125.361C189.44 125.324 189.62 125.323 189.795 125.359C189.969 125.395 190.135 125.467 190.28 125.57C192.649 127.16 194.821 129.027 196.75 131.13C196.871 131.278 197.023 131.398 197.196 131.48C197.369 131.562 197.558 131.605 197.75 131.605C197.941 131.605 198.13 131.562 198.303 131.48C198.476 131.398 198.629 131.278 198.75 131.13C203.238 125.804 208.359 121.046 214 116.96C214.281 116.754 214.633 116.668 214.977 116.721C215.322 116.773 215.632 116.96 215.84 117.24C215.945 117.375 216.023 117.53 216.069 117.695C216.114 117.86 216.127 118.033 216.105 118.203C216.084 118.373 216.029 118.537 215.944 118.686C215.859 118.835 215.745 118.965 215.61 119.07C207.93 124.88 202.47 130.23 198.93 135.39H198.88Z" fill="#FFA5AF"/>
<path d="M200.46 189.29C200.331 189.466 200.16 189.607 199.963 189.701C199.766 189.794 199.548 189.838 199.33 189.827C199.112 189.816 198.901 189.751 198.714 189.638C198.527 189.525 198.371 189.368 198.26 189.18C196.31 185.98 192.58 183.06 190.43 181.62C190.153 181.434 189.957 181.151 189.879 180.827C189.801 180.503 189.848 180.161 190.01 179.87C190.102 179.718 190.225 179.586 190.37 179.483C190.516 179.38 190.681 179.308 190.855 179.271C191.03 179.234 191.21 179.234 191.384 179.27C191.559 179.306 191.724 179.377 191.87 179.48C194.238 181.064 196.407 182.928 198.33 185.03C198.452 185.177 198.605 185.295 198.778 185.376C198.95 185.457 199.139 185.499 199.33 185.499C199.521 185.499 199.709 185.457 199.882 185.376C200.055 185.295 200.208 185.177 200.33 185.03C204.806 179.71 209.914 174.955 215.54 170.87C215.679 170.767 215.837 170.692 216.005 170.65C216.173 170.608 216.347 170.6 216.518 170.626C216.689 170.652 216.854 170.712 217.002 170.802C217.149 170.892 217.278 171.01 217.38 171.15C217.59 171.422 217.684 171.766 217.641 172.107C217.598 172.449 217.421 172.759 217.15 172.97C209.47 178.79 204.01 184.14 200.47 189.3L200.46 189.29Z" fill="#FFA5AF"/>
<path d="M202 243.3C201.871 243.476 201.7 243.617 201.503 243.711C201.306 243.804 201.088 243.848 200.87 243.837C200.652 243.826 200.441 243.761 200.254 243.648C200.067 243.535 199.911 243.378 199.8 243.19C197.8 239.99 194.12 237.07 191.98 235.63C191.704 235.444 191.506 235.162 191.427 234.838C191.347 234.515 191.391 234.173 191.55 233.88C191.639 233.726 191.76 233.592 191.904 233.487C192.048 233.383 192.212 233.309 192.387 233.271C192.561 233.234 192.741 233.233 192.915 233.269C193.09 233.305 193.255 233.377 193.4 233.48C195.767 235.069 197.939 236.932 199.87 239.03C199.992 239.177 200.145 239.295 200.318 239.376C200.491 239.457 200.679 239.499 200.87 239.499C201.061 239.499 201.249 239.457 201.422 239.376C201.595 239.295 201.748 239.177 201.87 239.03C206.34 233.708 211.445 228.952 217.07 224.87C217.209 224.767 217.367 224.692 217.535 224.65C217.703 224.609 217.877 224.6 218.048 224.626C218.219 224.652 218.384 224.712 218.532 224.802C218.679 224.892 218.808 225.01 218.91 225.15C219.017 225.284 219.095 225.437 219.142 225.602C219.188 225.767 219.201 225.939 219.179 226.109C219.158 226.278 219.102 226.442 219.017 226.59C218.931 226.738 218.817 226.867 218.68 226.97C211.01 232.79 205.54 238.14 202 243.3Z" fill="#FFA5AF"/>
<path d="M271.41 283.42C268.056 283.451 264.795 282.32 262.18 280.22C260.1 278.78 258.18 277.43 254.25 277.43C251.406 277.378 248.641 278.37 246.48 280.22C243.959 282.329 240.766 283.464 237.48 283.42C234.123 283.452 230.858 282.321 228.24 280.22C226.16 278.78 224.24 277.43 220.31 277.43C217.468 277.375 214.706 278.369 212.55 280.22C210.028 282.326 206.836 283.461 203.55 283.42C200.196 283.451 196.935 282.32 194.32 280.22C192.24 278.78 190.32 277.43 186.39 277.43L186.32 275.18C189.677 275.148 192.942 276.279 195.56 278.38C197.79 280.218 200.6 281.206 203.49 281.17C206.331 281.225 209.094 280.232 211.25 278.38C213.784 276.261 216.997 275.125 220.3 275.18C223.654 275.149 226.915 276.28 229.53 278.38C231.61 279.82 233.53 281.17 237.46 281.17C240.301 281.225 243.064 280.232 245.22 278.38C247.756 276.264 250.967 275.128 254.27 275.18C257.627 275.148 260.892 276.279 263.51 278.38C265.59 279.82 267.51 281.17 271.44 281.17L271.41 283.42Z" fill="#EBEBEB"/>
<path d="M286.29 66.93H286.1C283.79 59.6 278.25 54.74 272.2 54.74H259.88C258.926 54.7042 258.007 54.3734 257.249 53.793C256.491 53.2127 255.933 52.4115 255.65 51.5C254 46.83 249.95 43.5 245.3 43.5C240.65 43.5 236.78 46.83 235.37 51.5C235.134 52.4065 234.611 53.2122 233.879 53.7964C233.147 54.3806 232.246 54.7117 231.31 54.74H219C212.95 54.74 207.66 59.6 205.74 66.93H205.56C205.208 66.9538 204.865 67.0478 204.55 67.2064C204.235 67.365 203.956 67.5849 203.727 67.8534C203.499 68.1218 203.327 68.4332 203.221 68.7692C203.115 69.1053 203.077 69.4591 203.11 69.81C203.092 70.5306 203.352 71.2302 203.836 71.7644C204.32 72.2986 204.991 72.6263 205.71 72.68H286.46C286.811 72.6574 287.155 72.5647 287.47 72.4073C287.785 72.2499 288.065 72.031 288.295 71.7635C288.524 71.4961 288.697 71.1855 288.805 70.85C288.912 70.5145 288.951 70.1609 288.92 69.81C288.939 69.0829 288.676 68.3765 288.186 67.8394C287.695 67.3023 287.016 66.9763 286.29 66.93Z" fill="#263238"/>
<path d="M125.75 172.28C125.75 172.28 122.91 234.51 122.37 259.71C121.8 285.93 121.55 347.15 121.55 347.15H114.94C114.94 347.15 104.38 296.27 107.51 259.71C102.78 231.64 99.5898 172.28 99.5898 172.28H125.75Z" fill="#FF8B7B"/>
<path d="M117 172.28C117 172.28 101.24 237.45 94.8001 261.82C88.0001 287.41 78.8601 345.25 78.8001 347.15H73.0801C73.0801 347.15 71.2801 280.33 80.3401 257.61C80.3401 229.14 92.1801 172.28 92.1801 172.28H117Z" fill="#FF8B7B"/>
<path d="M72.9399 343.67C71.8499 344.92 70.9399 351.34 72.6199 354.2C74.2999 357.06 72.6199 361.29 78.1199 361.29C83.6199 361.29 84.1199 360.09 82.7699 357.53C81.4199 354.97 79.7699 350.16 79.8299 347.15C79.8899 343.27 81.3799 341.27 72.9399 343.67Z" fill="#263238"/>
<path d="M72.2598 350.37C72.1398 353.67 72.2097 359.06 72.2097 359.06H73.0798C73.0798 359.06 73.7297 353.16 74.2797 350.97L72.2598 350.37Z" fill="#263238"/>
<path d="M131.38 132.47C132.09 137.55 132.72 142.63 133.3 147.72C133.88 152.81 134.45 157.91 135 163.05C135.13 164.32 135.23 165.66 135.45 166.72C135.54 167.27 135.65 167.84 135.78 168.45C135.91 169.06 136.01 169.64 136.16 170.23C136.7 172.61 137.39 175 138.16 177.39C138.93 179.78 139.67 182.17 140.55 184.54C141.43 186.91 142.31 189.31 143.23 191.62L139.54 193.62C136.656 189.163 134.135 184.481 132 179.62C130.924 177.171 129.976 174.668 129.16 172.12C128.94 171.49 128.76 170.82 128.57 170.17C128.38 169.52 128.19 168.86 128.03 168.17C127.716 166.867 127.469 165.548 127.29 164.22C126.49 159.12 125.736 154.013 125.03 148.9C124.29 143.79 123.61 138.68 123.03 133.55L131.38 132.47Z" fill="#FF8B7B"/>
<path d="M129.93 125.05C132.03 128.98 133.12 144.49 134.88 155.14C134.937 155.516 134.861 155.9 134.666 156.227C134.471 156.554 134.168 156.802 133.81 156.93C131.463 157.864 129.292 159.189 127.39 160.85C127.176 161.033 126.917 161.157 126.64 161.21C126.363 161.262 126.077 161.242 125.81 161.15C125.543 161.058 125.305 160.898 125.119 160.686C124.933 160.474 124.806 160.216 124.75 159.94L119.75 136.83L121.92 132.45C122.456 130.606 123.483 128.943 124.893 127.64C126.302 126.336 128.04 125.441 129.92 125.05H129.93Z" fill="#263238"/>
<path d="M143.07 190.78L150.35 194.87L142.48 197.87C142.48 197.87 138.48 194.42 139.19 191.06L143.07 190.78Z" fill="#FF8B7B"/>
<path d="M153.02 201.28L146.3 203.4L142.48 197.82L150.35 194.87L153.02 201.28Z" fill="#FF8B7B"/>
<path d="M139.86 199.5L216.92 190.41L217.01 191.15L140.08 201.26L139.86 199.5Z" fill="#263238"/>
<path d="M130.67 127.93C130.8 133.93 130.43 150.85 126.22 176.75H91.1299C91.6999 163.05 93.4099 150.05 86.8799 122.05C91.3643 121.137 95.91 120.555 100.48 120.31C105.557 119.95 110.653 119.95 115.73 120.31C119.01 120.61 122.51 121.14 125.19 121.6C126.694 121.859 128.063 122.631 129.062 123.785C130.061 124.939 130.629 126.404 130.67 127.93Z" fill="#263238"/>
<path opacity="0.2" d="M112.67 176.87C112.638 176.863 112.61 176.845 112.59 176.82C112.57 176.794 112.559 176.762 112.56 176.73C115.76 146.96 112.95 135.09 112.92 134.97C112.914 134.938 112.919 134.905 112.936 134.878C112.953 134.85 112.979 134.829 113.01 134.82C113.026 134.814 113.043 134.811 113.06 134.813C113.077 134.814 113.093 134.819 113.107 134.828C113.122 134.837 113.134 134.849 113.143 134.863C113.152 134.877 113.158 134.893 113.16 134.91C113.16 135.03 116.01 146.91 112.81 176.76C112.809 176.777 112.804 176.793 112.796 176.808C112.789 176.823 112.778 176.836 112.765 176.846C112.751 176.856 112.736 176.864 112.72 176.868C112.704 176.872 112.687 176.873 112.67 176.87Z" fill="white"/>
<path d="M115.73 120.28H100.48C100.48 120.28 105.72 129.08 112.67 133.72C115.258 129.747 116.343 124.981 115.73 120.28Z" fill="#E0E0E0"/>
<path d="M107.08 98.61C110.51 104.4 109.14 111.55 104.02 114.61C98.8999 117.67 92.0199 115.39 88.5499 109.61C85.0799 103.83 86.4899 96.61 91.6099 93.61C96.7299 90.61 103.65 92.81 107.08 98.61Z" fill="#263238"/>
<path d="M85.54 104.94C85.3529 101.737 86.3414 98.5758 88.32 96.05C89.2157 94.8613 90.3619 93.884 91.6773 93.1876C92.9928 92.4912 94.4453 92.0926 95.932 92.0201C97.4186 91.9475 98.9031 92.2029 100.28 92.768C101.657 93.3331 102.893 94.1941 103.9 95.29C106.122 97.6205 107.417 100.682 107.54 103.9H107.04C106.922 100.803 105.678 97.8546 103.54 95.61C102.583 94.5638 101.407 93.7415 100.095 93.202C98.784 92.6624 97.3697 92.4188 95.9534 92.4886C94.5371 92.5583 93.1536 92.9396 91.9016 93.6053C90.6495 94.2711 89.5598 95.2048 88.71 96.34C86.7905 98.7699 85.8266 101.818 86 104.91L85.54 104.94Z" fill="#263238"/>
<path d="M124.858 107.805C127.578 102.188 125.456 95.5388 120.117 92.9535C114.779 90.3682 108.246 92.8257 105.526 98.4425C102.806 104.059 104.928 110.708 110.267 113.294C115.605 115.879 122.138 113.422 124.858 107.805Z" fill="#263238"/>
<path d="M102 103.12C103 108.02 103.92 117.01 100.49 120.28C100.49 120.28 103.14 125.47 110.98 127.28C115.85 124.28 115.74 120.28 115.74 120.28C110.27 118.97 110.41 114.92 111.36 111.11L102 103.12Z" fill="#FF8B7B"/>
<path d="M107.77 126.27L100.94 118.21L98.5799 119.46L98.1899 131.1L103.25 124.46L107.77 126.27Z" fill="white"/>
<path d="M112.4 126.26L114.62 119.03L117.41 120.28L120.47 130.07L115.91 124.46L112.4 126.26Z" fill="white"/>
<path opacity="0.2" d="M105.81 106.38L111.35 111.1C111.112 111.987 110.954 112.894 110.88 113.81C108.79 113.51 105.88 111.21 105.7 109.02C105.569 108.141 105.606 107.245 105.81 106.38Z" fill="black"/>
<path d="M96.8199 94.12C98.7399 102.12 99.3899 105.51 104.19 108.93C111.42 114.07 120.79 109.93 121.29 101.57C121.74 94.02 118.52 82.25 110.06 80.44C108.197 80.0321 106.26 80.1073 104.434 80.6584C102.608 81.2096 100.953 82.2184 99.6263 83.589C98.2997 84.9596 97.3456 86.6466 96.8544 88.4898C96.3632 90.3329 96.3514 92.271 96.8199 94.12Z" fill="#FF8B7B"/>
<path d="M98.64 97.8C103.64 94.8 102.98 85.8 102.98 85.8C111.63 85.69 114.98 85.8 117.61 86.17C120.24 86.54 118.61 83.02 114.76 80.17C110.91 77.32 100.47 78.17 97.22 83.62C93.22 85.22 89.4 94.3 98.64 97.8Z" fill="#263238"/>
<path d="M91.8501 90.05C91.8501 90.05 120 84.05 125.92 82.34C125.92 78.81 111.44 83.18 111.44 83.18L91.8501 90.05Z" fill="#FFA5AF"/>
<path d="M119.4 82.13C118.86 80.13 114.71 70.08 100.4 74.2C87.2199 78.05 91.8499 90.05 91.8499 90.05L119.4 82.13Z" fill="#FFA5AF"/>
<path d="M109.72 73.88L104.71 72.63L98.96 73.65L99.03 74.66L102.8 75.27L109.72 73.88Z" fill="#FFA5AF"/>
<path opacity="0.4" d="M109.64 83.96C109.514 83.9604 109.392 83.9132 109.3 83.828C109.207 83.7427 109.15 83.6256 109.14 83.5C109.14 83.19 108.51 76.09 99.5797 74.72C99.4495 74.6978 99.333 74.6261 99.2547 74.5198C99.1764 74.4134 99.1423 74.2809 99.1597 74.15C99.1841 74.021 99.2565 73.9059 99.3622 73.828C99.4679 73.7501 99.5992 73.7151 99.7297 73.73C109.47 75.23 110.13 83.35 110.14 83.43C110.144 83.4957 110.135 83.5615 110.113 83.6237C110.092 83.686 110.058 83.7433 110.015 83.7926C109.971 83.8418 109.918 83.882 109.859 83.9107C109.8 83.9394 109.735 83.9562 109.67 83.96H109.64Z" fill="black"/>
<path opacity="0.2" d="M122.56 252.19L105.84 248.11C105.38 244.56 104.96 240.78 104.55 236.89L122.95 240.11C122.8 244.43 122.67 248.52 122.56 252.19Z" fill="black"/>
<path opacity="0.2" d="M82.1202 232.98L101.26 236.32C100.39 239.81 99.5401 243.18 98.7402 246.38L81.1602 242.05C81.4302 239.14 81.7502 236.05 82.1202 232.98Z" fill="black"/>
<path d="M110.93 94.21C111.04 94.87 111.49 95.34 111.93 95.26C112.37 95.18 112.62 94.59 112.5 93.93C112.38 93.27 111.94 92.81 111.5 92.93C111.06 93.05 110.81 93.55 110.93 94.21Z" fill="#263238"/>
<path d="M118.35 92.9C118.46 93.55 118.91 94.02 119.35 93.95C119.79 93.88 120.04 93.28 119.92 92.62C119.8 91.96 119.36 91.49 118.92 91.62C118.48 91.75 118.23 92.24 118.35 92.9Z" fill="#263238"/>
<path d="M118.73 91.64L120.23 90.91C120.23 90.91 119.64 92.28 118.73 91.64Z" fill="#263238"/>
<path d="M116.59 94.37C117.438 95.7655 118.474 97.0375 119.67 98.15C119.378 98.4474 119.024 98.6774 118.634 98.8242C118.243 98.971 117.826 99.031 117.41 99L116.59 94.37Z" fill="#FF5652"/>
<path d="M113.48 102.05C113.855 102.05 114.23 102.017 114.6 101.95C114.625 101.946 114.649 101.938 114.671 101.925C114.692 101.912 114.711 101.894 114.726 101.874C114.741 101.853 114.752 101.83 114.757 101.805C114.763 101.781 114.764 101.755 114.76 101.73C114.75 101.679 114.72 101.633 114.677 101.603C114.634 101.573 114.581 101.561 114.53 101.57C113.716 101.731 112.876 101.698 112.078 101.476C111.279 101.254 110.543 100.848 109.93 100.29C109.895 100.253 109.847 100.231 109.797 100.229C109.746 100.227 109.697 100.246 109.66 100.28C109.623 100.314 109.601 100.362 109.599 100.413C109.597 100.464 109.615 100.513 109.65 100.55C110.68 101.533 112.056 102.072 113.48 102.05Z" fill="#263238"/>
<path d="M95.7102 98.67C96.0185 99.3988 96.4679 100.059 97.0325 100.614C97.5972 101.168 98.2659 101.605 99.0002 101.9C101 102.68 102.16 100.99 101.81 99.03C101.49 97.27 100.1 94.73 98.0502 94.78C97.5977 94.7913 97.1553 94.9166 96.7641 95.1443C96.3729 95.372 96.0455 95.6947 95.8122 96.0826C95.5788 96.4705 95.4472 96.9109 95.4293 97.3632C95.4115 97.8155 95.5081 98.265 95.7102 98.67Z" fill="#FF8B7B"/>
<path d="M107.66 91.22C107.713 91.2147 107.764 91.1987 107.811 91.1729C107.857 91.1471 107.898 91.1121 107.93 91.07C108.227 90.6785 108.611 90.3616 109.052 90.1447C109.493 89.9277 109.979 89.8165 110.47 89.82C110.521 89.8255 110.573 89.8208 110.623 89.8062C110.672 89.7916 110.718 89.7673 110.758 89.7347C110.798 89.7022 110.831 89.662 110.856 89.6166C110.88 89.5711 110.895 89.5213 110.9 89.47C110.908 89.3654 110.875 89.2618 110.808 89.1814C110.741 89.1009 110.644 89.0502 110.54 89.04C109.919 89.0247 109.303 89.1572 108.743 89.4267C108.183 89.6962 107.696 90.0949 107.32 90.59C107.257 90.6717 107.228 90.7746 107.24 90.877C107.251 90.9795 107.301 91.0737 107.38 91.14C107.461 91.1992 107.56 91.2276 107.66 91.22Z" fill="#263238"/>
<path d="M119.73 88.79C119.825 88.7584 119.905 88.69 119.95 88.6C119.974 88.5536 119.988 88.5028 119.992 88.4507C119.995 88.3987 119.989 88.3464 119.972 88.297C119.955 88.2475 119.929 88.202 119.894 88.163C119.859 88.124 119.817 88.0924 119.77 88.07C119.218 87.785 118.606 87.6363 117.985 87.6363C117.364 87.6363 116.752 87.785 116.2 88.07C116.111 88.1241 116.046 88.2107 116.02 88.3116C115.994 88.4124 116.008 88.5195 116.06 88.61C116.086 88.6551 116.12 88.6946 116.162 88.7261C116.203 88.7577 116.25 88.7806 116.3 88.7937C116.351 88.8067 116.403 88.8096 116.454 88.8021C116.506 88.7946 116.555 88.7769 116.6 88.75C117.037 88.5238 117.522 88.4057 118.015 88.4057C118.507 88.4057 118.992 88.5238 119.43 88.75C119.474 88.7787 119.523 88.7972 119.575 88.8041C119.627 88.811 119.68 88.8062 119.73 88.79Z" fill="#263238"/>
<path d="M111.31 92.95L112.81 92.22C112.81 92.22 112.22 93.59 111.31 92.95Z" fill="#263238"/>
<path d="M126.22 176.75L124.78 246.38L79.89 239.98C78.09 203.57 84.39 184.46 91.13 176.75H126.22Z" fill="#263238"/>
<path opacity="0.2" d="M114.44 217.49L103.75 204.63V194.48L114.44 217.49Z" fill="black"/>
<path d="M91.2801 131.05C89.9401 135.05 88.6501 139.23 87.4301 143.32C86.2101 147.41 85.1301 151.58 84.2601 155.69C83.8501 157.69 83.4501 159.79 83.2601 161.78V162.16V162.34C83.2601 162.4 83.2601 162.34 83.2601 162.34C83.2379 162.481 83.2625 162.625 83.3301 162.75C83.6236 163.373 84.0305 163.936 84.5301 164.41C85.8827 165.757 87.3821 166.947 89.0001 167.96C90.7201 169.06 92.6101 170.12 94.4301 171.07L93.1501 175.07C90.8635 174.633 88.6186 174.001 86.4401 173.18C84.112 172.334 81.914 171.166 79.9101 169.71C78.6998 168.808 77.6602 167.697 76.8401 166.43C76.3273 165.612 75.9586 164.712 75.7501 163.77C75.6376 163.247 75.5806 162.715 75.5801 162.18V161.58V161.13C75.6501 159.95 75.7501 158.77 75.8901 157.63C76.0301 156.49 76.2001 155.35 76.3701 154.22C77.1254 149.783 78.1067 145.387 79.3101 141.05C79.8767 138.89 80.5001 136.747 81.1801 134.62C81.8501 132.49 82.5201 130.4 83.3101 128.24L91.2801 131.05Z" fill="#FF8B7B"/>
<path d="M117.26 158.72L111.86 154.72L99.4899 173.23L85.3999 190.48L90.8099 194.47L103.17 175.96L117.26 158.72Z" fill="#FAFAFA"/>
<path d="M111.85 154.73C113.068 156.713 115.007 158.146 117.26 158.73C116.042 156.747 114.103 155.314 111.85 154.73Z" fill="#E6E6E6"/>
<path d="M85.3999 190.48C86.6183 192.463 88.5573 193.896 90.8099 194.48C89.5915 192.497 87.6525 191.064 85.3999 190.48Z" fill="#E6E6E6"/>
<path d="M93.5099 170.77L102.42 171.36L96.5899 177.41C96.5899 177.41 91.4699 176.03 90.6899 172.69L93.5099 170.77Z" fill="#FF8B7B"/>
<path d="M105.31 176.05L102.8 179.59C102.58 179.897 102.254 180.113 101.886 180.196C101.517 180.279 101.13 180.224 100.8 180.04L95.3398 176.98L102.44 171.37L105.15 174.05C105.409 174.31 105.568 174.654 105.597 175.021C105.626 175.387 105.525 175.752 105.31 176.05Z" fill="#FF8B7B"/>
<path d="M94.1098 129.43C93.4798 125.56 90.5898 123.28 86.8798 122.02C81.4198 125.97 78.7498 139.02 75.7298 154.24C75.6512 154.681 75.7228 155.135 75.9331 155.53C76.1434 155.926 76.4803 156.239 76.8898 156.42C79.2798 157.42 81.3198 158.42 82.6898 159.06C82.9282 159.18 83.189 159.25 83.4557 159.265C83.7224 159.279 83.9893 159.238 84.2393 159.144C84.4893 159.05 84.7171 158.905 84.9083 158.719C85.0994 158.532 85.2497 158.308 85.3498 158.06L95.1098 133.84L94.1098 129.43Z" fill="#263238"/>
<path d="M134.12 359.66C133.106 358.922 131.977 358.354 130.78 357.98C130.78 357.98 124.86 354.63 121.78 344.58L114.94 342.87C114.77 342.828 114.592 342.822 114.42 342.853C114.247 342.884 114.083 342.952 113.939 343.051C113.794 343.15 113.672 343.279 113.581 343.429C113.49 343.579 113.432 343.746 113.41 343.92C113.34 344.46 113.3 345.08 113.23 345.58C113.165 346.669 113.165 347.761 113.23 348.85C113.29 352.24 113.67 359.85 113.67 359.85H114.47C114.47 357.534 114.61 355.219 114.89 352.92C115.28 350.68 116.89 353.33 117.75 355.86C118.61 358.39 122.2 361.1 127.37 361.22C133.42 361.4 135.88 361.13 134.12 359.66Z" fill="#263238"/>
</g>
<defs>
<clipPath id="clip0_98_1360">
<rect width="500" height="372.61" fill="white"/>
</clipPath>
</defs>
</svg>
