<svg width="510" height="303" viewBox="0 0 510 303" fill="none" xmlns="http://www.w3.org/2000/svg">
<g clip-path="url(#clip0_336_13580)">
<path d="M144.444 0.0150757H98.7783V62.4456H144.444V0.0150757Z" fill="#F5F5F5"/>
<path d="M132.871 7.87646H87.2051V70.307H132.871V7.87646Z" fill="#E0E0E0"/>
<path d="M348.124 93.2494H347.829H346.945H343.505L330.602 93.2947L286.084 93.4457H285.964V93.3249C285.475 91.6533 285.388 89.89 285.711 88.1786C286.033 86.4672 286.756 84.8562 287.82 83.4767C288.884 82.0973 290.259 80.9884 291.834 80.2405C293.408 79.4926 295.137 79.1268 296.879 79.1728L296.721 79.3918C296.439 78.4109 296.321 77.3903 296.373 76.3711C296.425 74.6633 296.922 72.9986 297.816 71.5417C298.71 70.0848 299.968 68.8862 301.468 68.0642C302.927 67.3039 304.55 66.9113 306.195 66.9205C307.841 66.9297 309.459 67.3405 310.909 68.117L310.675 68.2001C311.481 66.3359 312.665 64.6588 314.152 63.2746C315.639 61.8903 317.397 60.829 319.315 60.1575C321.081 59.4908 322.964 59.1924 324.849 59.2807C326.734 59.369 328.581 59.8422 330.277 60.671C333.333 62.2809 335.737 64.8987 337.08 68.0793C338.307 70.8703 338.599 73.9826 337.911 76.9526L337.791 76.8091C339.545 76.6277 341.317 76.8873 342.946 77.5643C344.395 78.1488 345.7 79.0403 346.771 80.1772C347.258 80.689 347.663 81.2722 347.973 81.9066C348.248 82.4926 348.463 83.1049 348.616 83.7341C348.875 84.834 349.022 85.9575 349.054 87.0871C349.107 88.6382 348.972 90.1899 348.653 91.7088C348.568 92.105 348.46 92.4959 348.328 92.8793L348.192 93.2569" fill="#EBEBEB"/>
<path d="M466.859 63.5784C464.752 63.9296 462.786 64.8664 461.187 66.2814C459.588 67.6965 458.421 69.5327 457.817 71.5799C457.214 73.6271 457.2 75.8025 457.777 77.8573C458.354 79.912 459.498 81.7631 461.078 83.1986C462.659 84.6341 464.612 85.596 466.715 85.9743C468.817 86.3526 470.983 86.1319 472.966 85.3376C474.949 84.5433 476.667 83.2073 477.926 81.4827C479.184 79.7581 479.93 77.7145 480.08 75.5857V75.5857L483.202 75.0647L484.895 71.5455L487.33 74.3699L491.238 73.7205L492.908 70.2164L495.343 73.0408L498.699 72.482L499.719 70.3448L501.231 72.0666L503.189 71.7419L505.336 68.9024L501.655 64.8547L478.41 68.7136C477.208 66.8124 475.47 65.3097 473.414 64.3956C471.358 63.4815 469.077 63.1971 466.859 63.5784V63.5784ZM460.524 76.1597C460.419 75.5242 460.504 74.8717 460.769 74.2845C461.034 73.6973 461.468 73.2016 462.014 72.8601C462.561 72.5185 463.197 72.3463 463.841 72.3652C464.486 72.3841 465.111 72.5931 465.636 72.9661C466.162 73.339 466.566 73.8591 466.796 74.4608C467.026 75.0625 467.073 75.7189 466.931 76.3472C466.788 76.9754 466.463 77.5475 465.995 77.9912C465.528 78.435 464.939 78.7305 464.304 78.8406C463.879 78.9141 463.444 78.903 463.024 78.8079C462.604 78.7127 462.207 78.5354 461.855 78.2862C461.504 78.037 461.205 77.7208 460.977 77.3559C460.748 76.9909 460.595 76.5843 460.524 76.1597Z" fill="#EBEBEB"/>
<path d="M455.316 150.454L456.722 176.206C456.745 176.648 456.936 177.064 457.257 177.37C457.577 177.676 458.002 177.849 458.445 177.852L504.822 178.184C505.05 178.186 505.277 178.143 505.489 178.058C505.7 177.972 505.893 177.846 506.056 177.686C506.219 177.526 506.349 177.336 506.438 177.126C506.527 176.916 506.574 176.69 506.576 176.462L506.72 156.42C506.722 156.191 506.678 155.963 506.592 155.751C506.505 155.538 506.377 155.345 506.216 155.182C506.054 155.019 505.862 154.89 505.65 154.802C505.438 154.713 505.21 154.668 504.981 154.668H476.459C476.231 154.669 476.005 154.624 475.795 154.536C475.584 154.447 475.394 154.318 475.235 154.154L470.314 149.246C469.99 148.923 469.554 148.739 469.097 148.732L457.07 148.649C456.834 148.647 456.601 148.693 456.383 148.783C456.166 148.874 455.97 149.007 455.806 149.176C455.642 149.345 455.514 149.545 455.429 149.765C455.345 149.985 455.307 150.219 455.316 150.454V150.454Z" fill="#EBEBEB"/>
<path d="M506.76 151.647L456.083 151.276L455.861 181.527L506.538 181.898L506.76 151.647Z" fill="#F5F5F5"/>
<path d="M452.035 153.958L455.671 185.524C455.7 185.797 455.829 186.049 456.033 186.233C456.236 186.417 456.5 186.519 456.774 186.521L506.16 186.876C506.441 186.879 506.712 186.776 506.92 186.586C507.127 186.397 507.256 186.137 507.279 185.857L510 154.328C510.014 154.174 509.995 154.019 509.945 153.873C509.896 153.727 509.816 153.593 509.711 153.479C509.607 153.365 509.48 153.274 509.338 153.213C509.196 153.151 509.043 153.119 508.889 153.12L453.146 152.712C452.988 152.711 452.831 152.743 452.687 152.807C452.542 152.872 452.413 152.966 452.308 153.084C452.203 153.202 452.124 153.341 452.077 153.491C452.03 153.642 452.015 153.801 452.035 153.958V153.958Z" fill="#EBEBEB"/>
<path d="M449.465 292.624C437.71 284.423 435.042 269.213 435.51 255.499C435.586 253.234 435.336 250.802 436.425 248.801C437.513 246.8 440.046 245.425 442.094 246.384C443.795 247.185 444.536 249.163 445.489 250.795C446.755 252.973 448.613 254.748 450.848 255.915C452.307 256.67 454.114 257.13 455.55 256.338C457.523 255.25 457.757 252.524 457.742 250.251C457.712 246.012 457.684 241.778 457.659 237.549C457.522 235.276 457.754 232.996 458.347 230.797C459.058 228.638 460.615 226.636 462.784 226.025C464.954 225.413 467.622 226.667 468.076 228.894C468.161 229.836 468.181 230.782 468.136 231.726C468.205 232.67 468.643 233.712 469.535 233.992C470.427 234.271 471.357 233.614 472.037 232.942C474.388 230.677 475.976 227.694 477.465 224.756C478.954 221.818 480.405 218.805 482.537 216.298C484.669 213.791 487.609 211.812 490.852 211.631C494.095 211.45 497.588 213.459 498.412 216.653C499.236 219.847 497.361 223.11 495.328 225.715C492.304 229.562 488.739 232.953 484.744 235.782C483.978 236.217 483.37 236.883 483.006 237.685C482.514 239.195 483.951 240.705 485.447 241.204C487.141 241.77 488.985 241.589 490.739 241.8C492.493 242.012 494.436 242.79 495.108 244.466C496.038 246.785 494.095 249.224 492.183 250.817C488.357 254.009 484.01 256.52 479.332 258.241C477.654 258.852 475.892 259.388 474.547 260.567C473.201 261.745 472.377 263.784 473.194 265.385C474.01 266.986 476.104 267.499 477.858 267.174C479.612 266.85 481.176 265.898 482.847 265.271C485.977 264.093 490.013 264.305 492.016 267.008C492.627 267.937 493.014 268.995 493.145 270.098C493.276 271.202 493.149 272.321 492.772 273.367C492.01 275.451 490.838 277.361 489.325 278.985C484.366 284.917 477.921 289.428 470.646 292.057C463.397 294.572 456.676 295.252 449.48 292.616" fill="#EBEBEB"/>
<path d="M449.283 302.773C449.924 296.427 451.169 290.155 453.002 284.045C455.28 276.597 457.983 269.284 461.098 262.145L463.51 256.511C464.311 254.661 465.097 252.826 465.982 251.081C467.686 247.731 469.576 244.479 471.644 241.34C473.594 238.319 475.552 235.54 477.404 232.95C479.256 230.359 481.04 227.981 482.748 225.881C485.433 222.538 488.381 219.415 491.563 216.54C492.682 215.528 493.581 214.773 494.193 214.274L494.896 213.7C494.971 213.629 495.055 213.568 495.146 213.519L494.927 213.738C494.753 213.881 494.534 214.085 494.246 214.335C493.649 214.863 492.734 215.641 491.669 216.668C488.543 219.573 485.637 222.705 482.975 226.04C481.282 228.147 479.528 230.533 477.684 233.123C475.839 235.714 473.904 238.515 471.961 241.521C469.915 244.669 468.042 247.926 466.352 251.278C465.475 253.015 464.689 254.827 463.895 256.685L461.476 262.319C458.371 269.463 455.666 276.774 453.373 284.219C451.535 290.303 450.269 296.545 449.593 302.864" fill="#E0E0E0"/>
<path d="M466.103 251.036C465.998 250.719 465.924 250.393 465.883 250.062C465.763 249.435 465.619 248.552 465.46 247.389C465.135 245.123 464.803 241.989 464.44 238.523C464.077 235.057 463.684 231.93 463.344 229.68C463.17 228.555 463.019 227.641 462.913 227.014C462.83 226.691 462.787 226.358 462.784 226.025C462.915 226.333 463.011 226.654 463.071 226.984C463.23 227.595 463.427 228.494 463.638 229.627C464.069 231.892 464.5 235.011 464.855 238.478C465.211 241.944 465.513 244.987 465.755 247.351C465.868 248.416 465.967 249.322 466.042 250.039C466.101 250.368 466.121 250.703 466.103 251.036V251.036Z" fill="#E0E0E0"/>
<path d="M495.358 245.569C494.974 245.656 494.581 245.704 494.187 245.712C493.431 245.78 492.35 245.871 491.012 246.022C488.336 246.316 484.647 246.845 480.61 247.6C476.573 248.355 472.937 249.224 470.329 249.911C469.021 250.251 467.971 250.553 467.245 250.757C466.873 250.882 466.491 250.975 466.104 251.036C466.455 250.857 466.822 250.71 467.2 250.598C467.91 250.341 468.953 250.002 470.223 249.624C472.816 248.869 476.445 247.955 480.497 247.185C483.957 246.52 487.449 246.034 490.959 245.727C492.304 245.606 493.393 245.561 494.149 245.546C494.552 245.523 494.956 245.531 495.358 245.569Z" fill="#E0E0E0"/>
<path d="M453.366 283.509C453.283 283.397 453.215 283.275 453.162 283.146C453.026 282.867 452.859 282.512 452.663 282.089C452.232 281.175 451.642 279.824 450.939 278.147C449.526 274.802 447.727 270.12 445.807 264.924C443.887 259.728 442.125 255.024 440.787 251.655C440.13 250.017 439.593 248.635 439.185 247.661L438.761 246.573C438.703 246.448 438.66 246.316 438.633 246.18C438.715 246.292 438.784 246.414 438.837 246.543L439.336 247.6C439.767 248.514 440.356 249.866 441.059 251.542C442.473 254.888 444.272 259.57 446.192 264.773C448.112 269.976 449.874 274.666 451.212 278.034L452.814 282.029L453.237 283.116C453.296 283.241 453.339 283.373 453.366 283.509V283.509Z" fill="#E0E0E0"/>
<path d="M492.236 270.988C492.115 271.057 491.985 271.111 491.85 271.147L490.716 271.524L486.558 272.876C483.043 274.016 478.205 275.64 472.868 277.407C467.532 279.174 462.663 280.805 459.125 281.87C457.357 282.406 455.92 282.822 454.922 283.086L453.773 283.388C453.641 283.429 453.504 283.457 453.365 283.471C453.486 283.399 453.615 283.343 453.751 283.305L454.877 282.935L459.042 281.583C462.557 280.443 467.358 278.819 472.732 277.007C478.107 275.194 482.93 273.616 486.468 272.551C488.237 272.015 489.673 271.6 490.671 271.335L491.827 271.033C491.961 271.004 492.098 270.989 492.236 270.988V270.988Z" fill="#E0E0E0"/>
<path d="M497.292 302.804C497.292 302.917 388.611 303 254.576 303C120.541 303 11.8301 302.917 11.8301 302.804C11.8301 302.69 120.488 302.63 254.576 302.63C388.664 302.63 497.292 302.698 497.292 302.804Z" fill="#263238"/>
<path d="M441.301 276.44C442.616 278.139 444.982 277.437 446.041 276.304C447.099 275.172 447.484 273.601 447.84 272.091C448.641 268.654 449.45 265.052 448.55 261.639C448.319 260.601 447.809 259.646 447.076 258.875C446.704 258.498 446.239 258.226 445.728 258.086C445.217 257.945 444.679 257.941 444.166 258.074C442.971 258.452 442.284 259.668 441.8 260.823C440.369 264.221 439.715 267.895 439.887 271.577C439.855 273.304 440.348 274.999 441.301 276.44" fill="#2684FF"/>
<g opacity="0.2">
<path opacity="0.2" d="M441.301 276.44C442.616 278.139 444.982 277.437 446.041 276.304C447.099 275.172 447.484 273.601 447.84 272.091C448.641 268.654 449.45 265.052 448.55 261.639C448.319 260.601 447.809 259.646 447.076 258.875C446.704 258.498 446.239 258.226 445.728 258.086C445.217 257.945 444.679 257.941 444.166 258.074C442.971 258.452 442.284 259.668 441.8 260.823C440.369 264.221 439.715 267.895 439.887 271.577C439.855 273.304 440.348 274.999 441.301 276.44" fill="black"/>
</g>
<path d="M446.343 285.11C448.359 284.036 450.667 283.636 452.927 283.969C454.154 284.02 455.33 284.477 456.268 285.268C457.138 286.129 457.372 287.708 456.472 288.531C455.884 288.967 455.163 289.188 454.431 289.158C452.678 289.225 450.72 289.014 449.374 290.139C448.618 290.774 448.127 291.801 447.189 292.148C446.717 292.281 446.214 292.257 445.755 292.08C445.297 291.903 444.909 291.583 444.649 291.166C444.152 290.314 444 289.303 444.226 288.342C444.305 287.677 444.538 287.039 444.905 286.478C445.272 285.917 445.764 285.449 446.343 285.11Z" fill="#2684FF"/>
<path d="M438.027 279.136C438.617 278.278 438.989 277.289 439.11 276.254C439.231 275.22 439.098 274.172 438.723 273.201C437.938 271.255 436.63 269.564 434.943 268.315C433.035 266.785 430.848 265.641 428.503 264.947C427.595 264.634 426.631 264.521 425.675 264.614C425.204 264.665 424.751 264.829 424.356 265.092C423.961 265.355 423.636 265.709 423.407 266.125C422.81 267.416 423.521 268.904 424.269 270.104C425.579 272.231 427.055 274.251 428.684 276.146C429.999 277.656 431.488 279.167 433.393 279.778C435.298 280.39 437.249 280.216 438.179 278.872" fill="#2684FF"/>
<path d="M442.563 302.962C442.613 302.699 442.636 302.43 442.631 302.162C442.631 301.573 442.699 300.84 442.736 299.964C442.774 299.088 442.872 297.948 443.061 296.747C443.284 295.445 443.61 294.162 444.037 292.911C444.453 291.664 445.044 290.482 445.79 289.399C446.401 288.518 447.202 287.785 448.134 287.255C448.762 286.896 449.443 286.641 450.152 286.499C450.409 286.476 450.662 286.425 450.908 286.348C450.639 286.317 450.368 286.317 450.099 286.348C449.362 286.44 448.647 286.665 447.99 287.013C447.008 287.532 446.161 288.275 445.518 289.18C444.737 290.28 444.123 291.488 443.696 292.767C443.264 294.036 442.942 295.34 442.736 296.664C442.581 297.742 442.492 298.829 442.472 299.919C442.472 300.848 442.472 301.603 442.472 302.116C442.469 302.401 442.499 302.685 442.563 302.962V302.962Z" fill="#263238"/>
<path d="M442.624 301.278C442.634 301.155 442.634 301.031 442.624 300.908C442.624 300.629 442.624 300.274 442.571 299.843C442.518 298.93 442.45 297.578 442.419 295.947C442.336 292.654 442.419 288.108 442.684 283.109C442.949 278.109 443.485 273.563 443.984 270.308C444.105 269.493 444.226 268.76 444.34 268.118C444.453 267.476 444.544 266.918 444.642 266.464C444.74 266.011 444.786 265.709 444.838 265.422C444.864 265.3 444.879 265.177 444.884 265.052C444.829 265.164 444.791 265.284 444.77 265.407L444.513 266.442C444.4 266.887 444.287 267.439 444.158 268.081C444.03 268.722 443.886 269.455 443.758 270.271C443.059 274.522 442.59 278.807 442.351 283.109C442.057 288.131 442.042 292.699 442.185 295.992C442.246 297.646 442.351 298.975 442.442 299.896L442.556 300.953C442.564 301.064 442.587 301.173 442.624 301.278V301.278Z" fill="#263238"/>
<path d="M442.2 292.495C442.208 292.127 442.185 291.758 442.132 291.393C442.018 290.391 441.854 289.395 441.64 288.41C441.328 286.948 440.929 285.505 440.446 284.09C439.869 282.349 439.169 280.65 438.352 279.008C436.928 275.982 434.966 273.239 432.561 270.912C432.144 270.516 431.702 270.145 431.239 269.802C431.034 269.651 430.853 269.5 430.672 269.379L430.165 269.062C429.856 268.86 429.536 268.676 429.205 268.511C430.32 269.306 431.388 270.166 432.403 271.086C434.724 273.437 436.626 276.167 438.027 279.159C438.841 280.786 439.543 282.466 440.128 284.188C440.618 285.591 441.037 287.018 441.383 288.463C441.678 289.694 441.859 290.728 441.98 291.408C442.023 291.776 442.096 292.14 442.2 292.495V292.495Z" fill="#263238"/>
<path d="M85.6625 133.281H0.196289V190.463H85.6625V133.281Z" fill="#FAFAFA"/>
<path d="M62.4474 167.967H60.1796V154.275C60.1246 152.731 59.4717 151.268 58.3585 150.195C57.2453 149.121 55.7586 148.522 54.2115 148.522C52.6644 148.522 51.1778 149.121 50.0645 150.195C48.9513 151.268 48.2984 152.731 48.2434 154.275V167.967H45.9756V154.275C46.0405 152.134 46.9375 150.103 48.4763 148.611C50.0152 147.12 52.075 146.286 54.2191 146.286C56.3632 146.286 58.423 147.12 59.9618 148.611C61.5007 150.103 62.3977 152.134 62.4626 154.275L62.4474 167.967Z" fill="#263238"/>
<path d="M62.9166 161.872H45.4923C44.077 161.872 42.9297 163.019 42.9297 164.432V173.766C42.9297 175.18 44.077 176.326 45.4923 176.326H62.9166C64.3319 176.326 65.4793 175.18 65.4793 173.766V164.432C65.4793 163.019 64.3319 161.872 62.9166 161.872Z" fill="#263238"/>
<path d="M54.2085 169.099C53.8362 169.099 53.4723 168.989 53.1627 168.783C52.8532 168.576 52.6119 168.282 52.4695 167.939C52.327 167.595 52.2897 167.217 52.3623 166.852C52.435 166.487 52.6142 166.152 52.8775 165.889C53.1407 165.626 53.4761 165.447 53.8412 165.375C54.2064 165.302 54.5848 165.339 54.9288 165.482C55.2727 165.624 55.5667 165.865 55.7735 166.174C55.9803 166.484 56.0907 166.847 56.0907 167.219C56.0907 167.718 55.8924 168.196 55.5394 168.549C55.1864 168.901 54.7077 169.099 54.2085 169.099" fill="#455A64"/>
<path d="M54.7146 167.967H53.6865V171.841H54.7146V167.967Z" fill="#455A64"/>
<path d="M42.3702 167.801C44.0028 167.082 45.3881 165.9 46.3544 164.402C47.3206 162.904 47.8251 161.155 47.8054 159.373C47.8054 154.336 44.0257 150.235 39.286 150.212C34.5463 150.19 30.7137 154.253 30.691 159.275C30.6517 161.074 31.1498 162.845 32.1219 164.361C33.0939 165.877 34.4959 167.069 36.1489 167.785C23.0183 169.787 23.5777 184.067 23.5777 184.067L54.7147 184.211C54.7147 184.211 55.4253 169.772 42.3702 167.801Z" fill="#2684FF"/>
<path d="M85.6626 190.471C85.6626 190.471 85.6626 190.108 85.6626 189.421C85.6626 188.734 85.6626 187.722 85.6626 186.401C85.6626 183.75 85.6626 179.868 85.6172 174.899C85.6172 164.961 85.5719 150.688 85.5417 133.281L85.6928 133.44H0.272027L0.468569 133.244C0.468569 153.633 0.468569 172.989 0.468569 190.433L0.294704 190.252L61.8506 190.335L79.4488 190.388H84.1281H85.3376H85.7533H84.1734H79.5244L61.9716 190.441L0.294704 190.524H0.113281V190.35C0.113281 172.906 0.113281 153.535 0.113281 133.161V132.964H0.317384L85.776 133.009H85.9347V133.161C85.9347 150.605 85.8743 164.916 85.8516 174.877C85.8516 179.83 85.8516 183.705 85.8138 186.348C85.8138 187.654 85.8138 188.651 85.8138 189.368C85.8138 190.086 85.6626 190.471 85.6626 190.471Z" fill="#263238"/>
<path d="M85.6479 140.153C85.6479 140.259 66.5227 140.35 42.945 140.35C19.3674 140.35 0.242188 140.259 0.242188 140.153C0.242188 140.048 19.3598 139.957 42.945 139.957C66.5302 139.957 85.6479 140.048 85.6479 140.153Z" fill="#263238"/>
<path d="M5.82846 136.725C5.82846 136.9 5.77659 137.071 5.67941 137.216C5.58222 137.361 5.44409 137.474 5.28248 137.541C5.12087 137.608 4.94303 137.626 4.77147 137.592C4.5999 137.557 4.44231 137.473 4.31862 137.35C4.19493 137.226 4.11069 137.069 4.07657 136.897C4.04244 136.726 4.05995 136.548 4.12689 136.387C4.19384 136.225 4.3072 136.087 4.45264 135.99C4.59809 135.893 4.76909 135.841 4.94402 135.841C5.17859 135.841 5.40355 135.934 5.56942 136.1C5.73528 136.266 5.82846 136.491 5.82846 136.725Z" fill="#263238"/>
<path d="M8.72299 136.725C8.72299 136.959 8.62981 137.184 8.46394 137.35C8.29808 137.515 8.07312 137.608 7.83855 137.608C7.60398 137.608 7.37902 137.515 7.21315 137.35C7.04728 137.184 6.9541 136.959 6.9541 136.725C6.9541 136.491 7.04728 136.266 7.21315 136.1C7.37902 135.934 7.60398 135.841 7.83855 135.841C8.07312 135.841 8.29808 135.934 8.46394 136.1C8.62981 136.266 8.72299 136.491 8.72299 136.725V136.725Z" fill="#263238"/>
<path d="M11.8304 136.725C11.8304 136.899 11.779 137.069 11.6828 137.213C11.5866 137.358 11.4498 137.471 11.2895 137.539C11.1292 137.606 10.9525 137.625 10.7816 137.593C10.6107 137.561 10.4531 137.479 10.3285 137.357C10.204 137.236 10.118 137.081 10.0814 136.911C10.0447 136.741 10.059 136.564 10.1225 136.402C10.186 136.24 10.2958 136.101 10.4383 136.001C10.5807 135.901 10.7494 135.846 10.9233 135.841C11.0413 135.838 11.1588 135.859 11.2687 135.902C11.3787 135.945 11.4789 136.01 11.5634 136.092C11.6479 136.174 11.7151 136.273 11.761 136.381C11.8068 136.49 11.8305 136.607 11.8304 136.725V136.725Z" fill="#263238"/>
<path d="M85.6626 190.471C85.6626 190.471 85.6626 190.108 85.6626 189.421C85.6626 188.734 85.6626 187.722 85.6626 186.401C85.6626 183.75 85.6626 179.868 85.6172 174.899C85.6172 164.961 85.5719 150.688 85.5417 133.281L85.6928 133.44H0.272027L0.468569 133.244C0.468569 153.633 0.468569 172.989 0.468569 190.433L0.294704 190.252L61.8506 190.335L79.4488 190.388H84.1281H85.3376H85.7533H84.1734H79.5244L61.9716 190.441L0.294704 190.524H0.113281V190.35C0.113281 172.906 0.113281 153.535 0.113281 133.161V132.964H0.317384L85.776 133.009H85.9347V133.161C85.9347 150.605 85.8743 164.916 85.8516 174.877C85.8516 179.83 85.8516 183.705 85.8138 186.348C85.8138 187.654 85.8138 188.651 85.8138 189.368C85.8138 190.086 85.6626 190.471 85.6626 190.471Z" fill="#263238"/>
<path d="M42.3772 192.374C42.2714 192.374 42.1807 191.951 42.1807 191.43C42.1807 190.909 42.2714 190.486 42.3772 190.486C42.483 190.486 42.5813 190.909 42.5813 191.43C42.5813 191.951 42.4906 192.374 42.3772 192.374Z" fill="#263238"/>
<path d="M42.3774 200.621C42.1856 199.949 42.1189 199.247 42.1809 198.551C42.1185 197.858 42.1851 197.159 42.3774 196.49C42.5788 197.157 42.6481 197.857 42.5815 198.551C42.6477 199.248 42.5784 199.95 42.3774 200.621Z" fill="#263238"/>
<path d="M42.3774 208.882C42.1856 208.21 42.1189 207.509 42.1809 206.813C42.1185 206.12 42.1851 205.421 42.3774 204.751C42.5788 205.419 42.6481 206.119 42.5815 206.813C42.6477 207.509 42.5784 208.212 42.3774 208.882Z" fill="#263238"/>
<path d="M42.3774 217.144C42.1856 216.472 42.1189 215.771 42.1809 215.075C42.1185 214.381 42.1851 213.682 42.3774 213.013C42.5788 213.68 42.6481 214.381 42.5815 215.075C42.6477 215.771 42.5784 216.474 42.3774 217.144V217.144Z" fill="#263238"/>
<path d="M42.3774 225.405C42.1856 224.734 42.1189 224.032 42.1809 223.336C42.1185 222.643 42.1851 221.944 42.3774 221.275C42.5788 221.942 42.6481 222.642 42.5815 223.336C42.6477 224.033 42.5784 224.735 42.3774 225.405V225.405Z" fill="#263238"/>
<path d="M44.2671 231.424C43.6568 231.616 43.014 231.683 42.3772 231.621L42.1807 231.424V230.714C42.1807 230.488 42.1807 230.284 42.226 230.11C42.226 229.77 42.3092 229.559 42.3621 229.559C42.415 229.559 42.4679 229.77 42.5057 230.11C42.5057 230.284 42.5057 230.488 42.5057 230.714V231.069V231.424C42.415 231.334 42.6947 231.621 42.3016 231.228C42.9633 231.155 43.633 231.222 44.2671 231.424V231.424Z" fill="#263238"/>
<path d="M51.698 231.424C51.098 231.616 50.4652 231.683 49.8384 231.621C49.2141 231.682 48.5838 231.615 47.9863 231.424C48.5838 231.233 49.2141 231.166 49.8384 231.228C50.4652 231.166 51.098 231.233 51.698 231.424V231.424Z" fill="#263238"/>
<path d="M59.1294 231.424C58.5294 231.616 57.8965 231.683 57.2698 231.621C56.643 231.683 56.0101 231.616 55.4102 231.424C56.0101 231.233 56.643 231.166 57.2698 231.228C57.8965 231.166 58.5294 231.233 59.1294 231.424V231.424Z" fill="#263238"/>
<path d="M66.56 231.424C65.96 231.616 65.3272 231.683 64.7004 231.621C64.0736 231.683 63.4408 231.616 62.8408 231.424C63.4408 231.233 64.0736 231.166 64.7004 231.228C65.3272 231.166 65.96 231.233 66.56 231.424V231.424Z" fill="#263238"/>
<path d="M73.9831 231.424C72.7598 231.686 71.4948 231.686 70.2715 231.424C71.4948 231.162 72.7598 231.162 73.9831 231.424Z" fill="#263238"/>
<path d="M81.4138 231.424C80.1905 231.686 78.9255 231.686 77.7021 231.424C78.9255 231.162 80.1905 231.162 81.4138 231.424V231.424Z" fill="#263238"/>
<path d="M88.8452 231.424C87.6193 231.686 86.3519 231.686 85.126 231.424C86.3519 231.162 87.6193 231.162 88.8452 231.424V231.424Z" fill="#263238"/>
<path d="M96.2683 231.424C95.0449 231.686 93.78 231.686 92.5566 231.424C93.78 231.162 95.0449 231.162 96.2683 231.424V231.424Z" fill="#263238"/>
<path d="M103.699 231.424C102.476 231.686 101.211 231.686 99.9873 231.424C101.211 231.162 102.476 231.162 103.699 231.424Z" fill="#263238"/>
<path d="M111.13 231.424C109.904 231.686 108.637 231.686 107.411 231.424C108.637 231.162 109.904 231.162 111.13 231.424V231.424Z" fill="#263238"/>
<path d="M118.553 231.424C117.33 231.686 116.065 231.686 114.842 231.424C116.065 231.162 117.33 231.162 118.553 231.424V231.424Z" fill="#263238"/>
<path d="M124.162 231.424C124.162 231.53 123.739 231.621 123.217 231.621C122.696 231.621 122.272 231.53 122.272 231.424C122.272 231.319 122.696 231.228 123.217 231.228C123.739 231.228 124.162 231.319 124.162 231.424Z" fill="#263238"/>
<path d="M125.039 17.4673H79.373V79.8978H125.039V17.4673Z" fill="white"/>
<path d="M125.07 79.8525C125.07 79.8525 125.07 79.7468 125.07 79.5429C125.07 79.339 125.07 79.0369 125.07 78.6593C125.07 77.9041 125.07 76.7261 125.07 75.2459C125.07 72.263 125.07 67.9131 125.009 62.4079C125.009 51.4201 124.926 35.8407 124.873 17.4069L125.077 17.6108L79.4187 17.6636L79.6455 17.4371V79.8676L79.464 79.6864L112.627 79.7543L121.857 79.7996H124.284H125.13C125.13 79.7996 124.866 79.7996 124.329 79.7996H121.933L112.74 79.8525L79.4792 79.9733H79.2902V79.7845C79.2902 62.2644 79.2373 40.6739 79.207 17.354V17.1274H79.4414H125.1H125.312V17.3389C125.312 35.8256 125.259 51.4578 125.236 62.4759C125.236 67.9509 125.236 72.2932 125.191 75.2535C125.191 76.7185 125.191 77.8437 125.191 78.6216C125.191 78.9916 125.191 79.2786 125.191 79.4825C125.163 79.6095 125.122 79.7334 125.07 79.8525V79.8525Z" fill="#263238"/>
<path d="M107.298 30.0108C107.298 30.1391 102.331 30.2373 96.2007 30.2449C90.07 30.2524 85.1035 30.1542 85.1035 30.0259C85.1035 29.8975 90.07 29.7917 96.2007 29.7917C102.331 29.7917 107.298 29.8824 107.298 30.0108Z" fill="#263238"/>
<path d="M119.302 35.4254C119.302 35.5538 111.644 35.6595 102.203 35.667C92.7611 35.6746 85.1035 35.5764 85.1035 35.448C85.1035 35.3197 92.7611 35.2139 102.203 35.2139C111.644 35.2139 119.302 35.297 119.302 35.4254Z" fill="#263238"/>
<path d="M119.31 41.0892C119.31 41.21 111.652 41.3158 102.211 41.3233C92.769 41.3309 85.1113 41.2327 85.1113 41.1119C85.1113 40.991 92.769 40.8778 102.211 40.8702C111.652 40.8627 119.31 40.9608 119.31 41.0892Z" fill="#263238"/>
<path d="M119.309 46.7455C119.309 46.8739 111.659 46.9796 102.217 46.9872C92.7758 46.9947 85.1182 46.8965 85.1182 46.7682C85.1182 46.6398 92.7682 46.5341 102.217 46.5265C111.667 46.519 119.309 46.6247 119.309 46.7455Z" fill="#263238"/>
<path d="M119.317 52.4018C119.317 52.5302 111.659 52.6359 102.217 52.6435C92.7758 52.651 85.1182 52.5528 85.1182 52.432C85.1182 52.3112 92.7758 52.1979 102.217 52.1903C111.659 52.1828 119.317 52.281 119.317 52.4018Z" fill="#263238"/>
<path d="M119.317 58.0656C119.317 58.194 111.667 58.2997 102.225 58.3073C92.7836 58.3148 85.126 58.2166 85.126 58.0883C85.126 57.9599 92.7761 57.8542 102.225 57.8466C111.674 57.8391 119.317 57.9523 119.317 58.0656Z" fill="#263238"/>
<path d="M119.325 63.7219C119.325 63.8503 111.667 63.956 102.225 63.9636C92.7836 63.9711 85.126 63.873 85.126 63.7521C85.126 63.6313 92.7836 63.518 102.225 63.5105C111.667 63.5029 119.325 63.6011 119.325 63.7219Z" fill="#263238"/>
<path d="M103.511 69.3933C103.511 69.5217 99.3983 69.6274 94.326 69.6274C89.2536 69.6274 85.1338 69.5368 85.1338 69.4084C85.1338 69.28 89.2461 69.1743 94.326 69.1743C99.4059 69.1743 103.511 69.28 103.511 69.3933Z" fill="#263238"/>
<path d="M121.071 84.4213C126.194 84.4213 130.347 80.2728 130.347 75.1553C130.347 70.0378 126.194 65.8893 121.071 65.8893C115.949 65.8893 111.796 70.0378 111.796 75.1553C111.796 80.2728 115.949 84.4213 121.071 84.4213Z" fill="#2684FF"/>
<path d="M126.4 71.5833C126.793 71.9533 124.971 74.5436 122.333 77.3755C121.902 77.8286 121.486 78.2591 121.086 78.6593L120.443 79.2936L119.801 78.7575C117.495 76.8242 115.983 75.1628 116.263 74.8003C116.542 74.4379 118.531 75.5027 120.972 77.2622L119.695 77.3604C120.065 76.9375 120.451 76.4844 120.889 76.0313C123.558 73.1994 125.999 71.2132 126.4 71.5833Z" fill="#E0E0E0"/>
<path d="M98.7551 83.3037C98.4931 82.0586 98.4931 80.7728 98.7551 79.5278C99.0172 80.7728 99.0172 82.0586 98.7551 83.3037Z" fill="#263238"/>
<path d="M98.7551 90.8555C98.4931 89.6105 98.4931 88.3246 98.7551 87.0796C99.0172 88.3246 99.0172 89.6105 98.7551 90.8555Z" fill="#263238"/>
<path d="M98.7551 98.4072C98.4931 97.1622 98.4931 95.8764 98.7551 94.6313C99.0172 95.8764 99.0172 97.1622 98.7551 98.4072V98.4072Z" fill="#263238"/>
<path d="M98.7551 105.959C98.4931 104.714 98.4931 103.428 98.7551 102.183C99.0172 103.428 99.0172 104.714 98.7551 105.959Z" fill="#263238"/>
<path d="M98.7551 113.511C98.4931 112.266 98.4931 110.98 98.7551 109.735C99.0172 110.98 99.0172 112.266 98.7551 113.511Z" fill="#263238"/>
<path d="M98.7551 121.063C98.4931 119.818 98.4931 118.532 98.7551 117.287C99.0172 118.532 99.0172 119.818 98.7551 121.063V121.063Z" fill="#263238"/>
<path d="M98.7551 128.614C98.4931 127.369 98.4931 126.083 98.7551 124.838C99.0172 126.083 99.0172 127.369 98.7551 128.614Z" fill="#263238"/>
<path d="M98.7551 136.166C98.4931 134.921 98.4931 133.635 98.7551 132.39C99.0172 133.635 99.0172 134.921 98.7551 136.166Z" fill="#263238"/>
<path d="M102.392 140.07C101.781 140.262 101.138 140.329 100.502 140.267C99.9121 140.281 99.3225 140.241 98.7404 140.146H98.6572V140.093C98.6572 140.01 98.7026 139.965 98.7253 139.965C98.7479 139.965 98.7782 140.01 98.8009 140.093L98.7253 140.025C99.3065 139.923 99.8966 139.88 100.487 139.897C101.127 139.825 101.775 139.885 102.392 140.07V140.07Z" fill="#263238"/>
<path d="M109.951 140.07C108.704 140.332 107.417 140.332 106.171 140.07C107.417 139.809 108.704 139.809 109.951 140.07Z" fill="#263238"/>
<path d="M117.51 140.07C116.264 140.332 114.977 140.332 113.73 140.07C114.977 139.809 116.264 139.809 117.51 140.07Z" fill="#263238"/>
<path d="M125.07 140.07C123.823 140.332 122.536 140.332 121.29 140.07C122.536 139.809 123.823 139.809 125.07 140.07Z" fill="#263238"/>
<path d="M132.629 140.07C131.383 140.332 130.096 140.332 128.85 140.07C130.096 139.809 131.383 139.809 132.629 140.07V140.07Z" fill="#263238"/>
<path d="M258.545 71.757C258.283 70.512 258.283 69.2262 258.545 67.9811C258.807 69.2262 258.807 70.512 258.545 71.757Z" fill="#263238"/>
<path d="M258.545 79.3088C258.283 78.0638 258.283 76.7779 258.545 75.5329C258.807 76.7779 258.807 78.0638 258.545 79.3088V79.3088Z" fill="#263238"/>
<path d="M258.545 86.8606C258.283 85.6156 258.283 84.3297 258.545 83.0847C258.807 84.3297 258.807 85.6156 258.545 86.8606Z" fill="#263238"/>
<path d="M258.545 94.4048C258.283 93.1598 258.283 91.8739 258.545 90.6289C258.807 91.8739 258.807 93.1598 258.545 94.4048Z" fill="#263238"/>
<path d="M258.545 101.964C258.284 100.719 258.284 99.4334 258.545 98.1882C258.806 99.4334 258.806 100.719 258.545 101.964Z" fill="#263238"/>
<path d="M258.545 109.516C258.283 108.271 258.283 106.985 258.545 105.74C258.807 106.985 258.807 108.271 258.545 109.516V109.516Z" fill="#263238"/>
<path d="M258.545 117.068C258.283 115.823 258.283 114.537 258.545 113.292C258.807 114.537 258.807 115.823 258.545 117.068V117.068Z" fill="#263238"/>
<path d="M258.545 124.619C258.283 123.374 258.283 122.089 258.545 120.844C258.807 122.089 258.807 123.374 258.545 124.619Z" fill="#263238"/>
<path d="M309.881 76.6053H309.435H308.096H302.888L283.355 76.6732L215.933 76.8318H215.782L215.729 76.6581C214.988 74.1269 214.857 71.4566 215.345 68.865C215.834 66.2734 216.928 63.8338 218.54 61.7452C220.152 59.6566 222.235 57.9781 224.619 56.8465C227.004 55.7149 229.622 55.1623 232.261 55.2337L232.012 55.5585C231.597 54.0855 231.421 52.5559 231.49 51.0274C231.694 45.8167 234.657 40.7872 239.208 38.4612C241.415 37.3084 243.871 36.7126 246.361 36.7257C248.851 36.7389 251.301 37.3606 253.495 38.5367L253.148 38.6651C254.363 35.8474 256.151 33.3125 258.398 31.2209C260.646 29.1293 263.303 27.5266 266.203 26.5143C271.766 24.4904 277.935 24.7547 282.788 27.2695C287.403 29.7076 291.031 33.6677 293.053 38.4763C294.912 42.7016 295.357 47.4128 294.323 51.9109L294.134 51.6995C296.797 51.4176 299.487 51.8097 301.958 52.8398C304.153 53.7274 306.128 55.0801 307.749 56.8045C308.489 57.5747 309.104 58.4564 309.571 59.4174C309.987 60.3067 310.313 61.2351 310.546 62.1889C310.938 63.8513 311.161 65.549 311.211 67.2562C311.293 69.6084 311.088 71.9619 310.599 74.2642C310.47 74.8592 310.308 75.4466 310.115 76.0238C309.979 76.4165 309.903 76.6053 309.903 76.6053" fill="#2684FF"/>
<path d="M301.331 50.7404H298.421V33.2505C298.421 31.2296 297.617 29.2915 296.187 27.8625C294.757 26.4336 292.817 25.6308 290.794 25.6308C288.771 25.6308 286.831 26.4336 285.4 27.8625C283.97 29.2915 283.166 31.2296 283.166 33.2505V50.7404H280.256V33.2505C280.256 30.4585 281.366 27.7809 283.342 25.8067C285.318 23.8324 287.999 22.7233 290.794 22.7233C293.588 22.7233 296.269 23.8324 298.245 25.8067C300.221 27.7809 301.331 30.4585 301.331 33.2505V50.7404Z" fill="#E0E0E0"/>
<path d="M302.631 42.9545H278.94C277.524 42.9545 276.377 44.1007 276.377 45.5146V58.8661C276.377 60.28 277.524 61.4262 278.94 61.4262H302.631C304.046 61.4262 305.193 60.28 305.193 58.8661V45.5146C305.193 44.1007 304.046 42.9545 302.631 42.9545Z" fill="#E0E0E0"/>
<path d="M290.793 52.1903C290.315 52.1918 289.848 52.0516 289.45 51.7875C289.053 51.5234 288.742 51.1472 288.559 50.7067C288.376 50.2662 288.327 49.7812 288.42 49.3132C288.513 48.8452 288.743 48.4153 289.08 48.0779C289.418 47.7405 289.848 47.5109 290.317 47.4182C290.785 47.3255 291.271 47.3739 291.712 47.5571C292.153 47.7404 292.529 48.0503 292.794 48.4477C293.058 48.845 293.198 49.3118 293.197 49.7889C293.197 50.4258 292.944 51.0366 292.493 51.487C292.042 51.9373 291.431 52.1903 290.793 52.1903" fill="#455A64"/>
<path d="M291.443 50.7404H290.128V55.6868H291.443V50.7404Z" fill="#455A64"/>
<path d="M467.971 44.9331C470.138 42.9189 471.693 40.3358 472.459 37.4794C473.225 34.6231 473.17 31.609 472.301 28.7823C471.432 25.9555 469.784 23.4304 467.545 21.496C465.306 19.5617 462.567 18.2962 459.642 17.8445C456.717 17.3928 453.723 17.7732 451.004 18.9421C448.285 20.111 445.951 22.0211 444.268 24.4538C442.585 26.8865 441.622 29.7435 441.489 32.6975C441.356 35.6516 442.059 38.5834 443.516 41.1572L440.303 44.1779L441.059 49.4642L436.093 48.1351L432.079 51.9109L432.835 57.1972L427.853 55.8001L424.421 58.9945L424.89 62.2342L421.866 61.3884L419.885 63.2386L419.583 68.1699L426.938 70.0201L450.803 47.7726C453.628 49.0351 456.762 49.439 459.815 48.9341C462.867 48.4292 465.704 47.0377 467.971 44.9331V44.9331ZM465.642 25.5703C466.257 26.2246 466.663 27.0463 466.809 27.9313C466.956 28.8164 466.836 29.725 466.465 30.542C466.094 31.359 465.489 32.0476 464.726 32.5206C463.963 32.9936 463.077 33.2297 462.179 33.199C461.282 33.1682 460.414 32.8721 459.685 32.348C458.956 31.8239 458.399 31.0955 458.085 30.255C457.771 29.4146 457.714 28.4999 457.921 27.627C458.128 26.754 458.589 25.962 459.247 25.3513C460.125 24.5359 461.291 24.1011 462.49 24.1422C463.688 24.1832 464.822 24.6967 465.642 25.5703Z" fill="#263238"/>
<path d="M465.642 25.5703C465.642 25.5703 465.347 25.2909 464.742 24.9209C463.89 24.4045 462.89 24.1866 461.9 24.3016C461.096 24.3872 460.331 24.6948 459.692 25.19C459.053 25.6853 458.564 26.3486 458.282 27.1055C457.999 27.8625 457.932 28.6832 458.09 29.4757C458.248 30.2682 458.624 31.0011 459.175 31.5923C459.726 32.1835 460.432 32.6095 461.212 32.8227C461.992 33.0359 462.816 33.0278 463.592 32.7993C464.368 32.5708 465.065 32.1309 465.604 31.529C466.144 30.9271 466.505 30.187 466.647 29.3915C466.828 28.4096 466.679 27.3955 466.224 26.5067C465.899 25.8799 465.611 25.593 465.642 25.5703C465.672 25.5477 465.725 25.6232 465.861 25.7667C466.054 25.9699 466.221 26.1956 466.36 26.4388C466.895 27.3489 467.096 28.4173 466.927 29.4595C466.825 30.0714 466.602 30.6568 466.27 31.1814C465.939 31.7059 465.506 32.1591 464.997 32.5143C464.488 32.8696 463.913 33.1196 463.306 33.2499C462.699 33.3802 462.072 33.3881 461.461 33.2731C460.477 33.0907 459.578 32.5962 458.897 31.863C458.216 31.1298 457.79 30.1969 457.682 29.2027C457.608 28.5848 457.66 27.9585 457.833 27.3609C458.007 26.7633 458.298 26.2065 458.691 25.7235C459.084 25.2404 459.569 24.841 460.119 24.5488C460.669 24.2565 461.272 24.0775 461.892 24.0222C462.936 23.921 463.981 24.1882 464.848 24.7774C465.081 24.9321 465.294 25.1147 465.483 25.3211C465.549 25.3952 465.602 25.4793 465.642 25.5703V25.5703Z" fill="#263238"/>
<path d="M467.97 44.9331C467.901 45.012 467.825 45.0852 467.743 45.1521L467.048 45.7714C466.114 46.526 465.1 47.1768 464.024 47.7122C461.954 48.7012 459.695 49.2302 457.4 49.2628C455.106 49.2954 452.832 48.8308 450.735 47.901H450.863L427.044 70.1863L426.968 70.2467H426.878L419.522 68.404L419.371 68.3663V68.2153C419.462 66.7049 419.56 64.9982 419.666 63.2915V63.216L419.726 63.1631L421.73 61.2903L421.805 61.2223H421.911L424.935 62.0757L424.693 62.2871C424.549 61.2752 424.391 60.1651 424.224 59.0474V58.9417L424.292 58.8737L427.747 55.6566L427.822 55.5811H427.928L432.91 56.9782L432.66 57.1897C432.419 55.5056 432.154 53.6932 431.905 51.9034V51.8052L431.973 51.7297L433.038 50.7404L435.987 47.9916L436.07 47.9161H436.176L441.157 49.3131L440.908 49.5246C440.651 47.7373 440.399 45.9753 440.152 44.2384V44.1402L440.227 44.0722L443.433 41.0515L443.395 41.2856C442.163 39.0887 441.461 36.6346 441.346 34.119C441.29 32.897 441.378 31.6725 441.611 30.4715C441.825 29.2914 442.178 28.1406 442.662 27.043C443.865 24.2546 445.844 21.87 448.364 20.1724C450.884 18.4748 453.839 17.5356 456.878 17.4664C459.916 17.3972 462.911 18.2009 465.506 19.7821C468.101 21.3632 470.186 23.6553 471.516 26.3859C472.765 28.9665 473.288 31.8382 473.027 34.6929C472.855 36.806 472.254 38.8617 471.259 40.7343L470.964 41.2932L470.646 41.7916C470.427 42.1088 470.253 42.4259 470.042 42.6827C469.618 43.1962 469.286 43.6569 468.968 43.9816L468.212 44.7368L467.955 44.9709L468.189 44.7066L468.893 43.9514C469.202 43.6267 469.52 43.1962 469.928 42.6525C470.132 42.3882 470.306 42.071 470.51 41.7538L470.828 41.2554L471.107 40.6966C472.229 38.5085 472.824 36.0892 472.845 33.6311C472.866 31.1729 472.312 28.7438 471.228 26.537C469.567 23.1983 466.764 20.564 463.326 19.111C459.889 17.6579 456.045 17.4821 452.489 18.6152C450.379 19.2878 448.436 20.4013 446.79 21.8817C445.144 23.3622 443.832 25.1756 442.941 27.2015C442.471 28.2729 442.128 29.3957 441.921 30.547C441.693 31.7181 441.61 32.9125 441.671 34.1039C441.781 36.5629 442.47 38.9615 443.682 41.1044L443.75 41.2327L443.644 41.3385L440.439 44.3592L440.5 44.193C440.752 45.9451 441.003 47.7071 441.255 49.4793L441.301 49.7738L441.014 49.6983L436.032 48.3012L436.221 48.2559L433.273 51.0048L432.207 51.994L432.267 51.8279C432.532 53.6479 432.789 55.4603 433.023 57.1141L433.069 57.4087L432.781 57.3331L427.8 55.9361L427.989 55.8907L424.534 59.1078L424.595 58.9341C424.753 60.0518 424.912 61.1619 425.063 62.1738V62.4683L424.784 62.3928L421.76 61.5395L421.941 61.4942L419.938 63.367L419.999 63.2386C419.893 64.9453 419.787 66.6294 419.689 68.1624L419.553 67.9736L426.908 69.8313H426.741L450.644 47.6367L450.697 47.5838H450.773C452.841 48.5103 455.085 48.9817 457.352 48.966C459.618 48.9504 461.855 48.4481 463.911 47.4932C464.995 46.9789 466.021 46.3511 466.972 45.6203C467.282 45.3711 467.517 45.1748 467.683 45.0313L467.97 44.9331Z" fill="#263238"/>
<path d="M467.441 43.1509C469.609 41.1367 471.164 38.5535 471.93 35.6972C472.696 32.8408 472.641 29.8268 471.772 27C470.903 24.1733 469.255 21.6482 467.016 19.7138C464.777 17.7794 462.038 16.514 459.113 16.0623C456.188 15.6106 453.194 15.991 450.475 17.1599C447.756 18.3287 445.422 20.2389 443.739 22.6716C442.056 25.1043 441.093 27.9612 440.96 30.9153C440.827 33.8694 441.53 36.8011 442.987 39.375L439.782 42.3957L440.538 47.6819L435.556 46.2849L431.542 50.0608L432.298 55.347L427.316 53.9499L423.892 57.1972L424.361 60.4369L421.337 59.5911L419.334 61.4639L419.031 66.3877L426.386 68.2379L450.251 45.9979C453.08 47.2643 456.219 47.6696 459.276 47.1633C462.334 46.6569 465.174 45.2612 467.441 43.1509V43.1509ZM465.113 23.7806C465.729 24.4344 466.136 25.2562 466.283 26.1415C466.43 27.0269 466.311 27.9361 465.941 28.7537C465.57 29.5713 464.965 30.2605 464.201 30.734C463.438 31.2074 462.551 31.4437 461.653 31.4129C460.755 31.3821 459.887 31.0856 459.158 30.561C458.429 30.0365 457.872 29.3074 457.559 28.4663C457.245 27.6252 457.188 26.7101 457.396 25.8369C457.604 24.9636 458.067 24.1717 458.725 23.5616C459.604 22.7484 460.768 22.3151 461.964 22.3561C463.161 22.3971 464.293 22.9092 465.113 23.7806V23.7806Z" fill="#E0E0E0"/>
<path d="M465.112 23.7806C465.112 23.7806 464.818 23.5087 464.213 23.1387C463.362 22.6192 462.361 22.3985 461.37 22.5119C460.567 22.5988 459.803 22.9075 459.165 23.4035C458.527 23.8995 458.04 24.5632 457.758 25.3202C457.476 26.0772 457.411 26.8976 457.569 27.6896C457.728 28.4815 458.104 29.2138 458.656 29.8042C459.207 30.3947 459.913 30.8201 460.693 31.0327C461.472 31.2454 462.296 31.237 463.072 31.0083C463.847 30.7797 464.543 30.3399 465.083 29.7383C465.622 29.1366 465.983 28.3968 466.125 27.6018C466.307 26.6215 466.156 25.6086 465.694 24.7245C465.369 24.0977 465.082 23.8108 465.112 23.7806C465.143 23.7504 465.195 23.841 465.332 23.9769C465.524 24.1801 465.692 24.4058 465.831 24.649C466.366 25.5592 466.567 26.6276 466.397 27.6697C466.298 28.2841 466.077 28.8724 465.747 29.4003C465.417 29.9281 464.984 30.3848 464.475 30.7435C463.966 31.1022 463.391 31.3558 462.782 31.4893C462.174 31.6229 461.545 31.6337 460.932 31.5211C459.948 31.3349 459.05 30.8383 458.37 30.1042C457.689 29.3702 457.263 28.4375 457.152 27.4432C457.041 26.5205 457.212 25.5856 457.644 24.7623C458.002 24.0663 458.532 23.4721 459.182 23.0351C459.832 22.5981 460.582 22.3324 461.363 22.2627C462.406 22.1659 463.45 22.4327 464.319 23.0178C464.553 23.1702 464.767 23.3531 464.954 23.5616C465.07 23.7025 465.122 23.7755 465.112 23.7806Z" fill="#263238"/>
<path d="M467.441 43.1509C467.37 43.2256 467.294 43.2962 467.214 43.3623L466.526 43.9816C465.592 44.7364 464.578 45.3871 463.503 45.9224C461.433 46.9114 459.173 47.4404 456.879 47.473C454.585 47.5056 452.311 47.041 450.213 46.1112H450.342L426.492 68.3738L426.424 68.4418H426.326L418.97 66.5991H418.819V66.4481C418.91 64.9377 419.008 63.2235 419.114 61.5168V61.4413L419.167 61.396C419.787 60.8145 420.475 60.165 421.17 59.5231L421.253 59.4476H421.352L424.375 60.2934L424.134 60.5049C423.982 59.4929 423.824 58.3828 423.665 57.2651V57.167L423.733 57.0915L427.188 53.8819L427.263 53.8064H427.369L432.351 55.196L432.101 55.415C431.859 53.7234 431.595 51.9185 431.345 50.1287V50.0305L431.421 49.9626L432.479 48.9657L435.427 46.2169L435.51 46.1414H435.616L440.598 47.5385L440.348 47.7575C440.091 45.9601 439.834 44.193 439.592 42.4712V42.373L439.668 42.3051L442.873 39.2844V39.5185C441.635 37.3235 440.931 34.8686 440.817 32.3518C440.716 29.9267 441.166 27.5102 442.132 25.2834C443.336 22.495 445.315 20.1104 447.835 18.4128C450.355 16.7152 453.31 15.776 456.348 15.7068C459.387 15.6376 462.382 16.4413 464.977 18.0225C467.571 19.6036 469.657 21.8957 470.986 24.6264C472.242 27.1892 472.778 30.0447 472.536 32.888C472.365 35.0013 471.763 37.0572 470.767 38.9294L470.48 39.4883L470.155 39.9867C469.936 40.3114 469.762 40.621 469.558 40.8853C469.127 41.3989 468.802 41.852 468.484 42.1767L467.728 42.9319C467.562 43.098 467.471 43.1735 467.471 43.1735C467.471 43.1735 467.547 43.0754 467.706 42.9092L468.409 42.154C468.719 41.8293 469.036 41.3989 469.452 40.8476C469.648 40.5833 469.822 40.2661 470.026 39.9489L470.344 39.4505L470.631 38.8917C471.517 37.0406 472.029 35.0334 472.139 32.9845C472.248 30.9357 471.953 28.8854 471.269 26.9506C470.586 25.0159 469.527 23.2346 468.154 21.7085C466.781 20.1824 465.121 18.9414 463.268 18.0563C461.415 17.1712 459.406 16.6594 457.355 16.55C455.304 16.4406 453.252 16.7359 451.315 17.4189C449.379 18.1019 447.596 19.1593 446.068 20.5307C444.54 21.9021 443.298 23.5607 442.412 25.4117C441.471 27.5894 441.037 29.952 441.142 32.3216C441.252 34.7783 441.941 37.1744 443.153 39.3146L443.228 39.4505L443.115 39.5487L439.91 42.5694L439.97 42.4032C440.217 44.1553 440.469 45.9173 440.726 47.6895L440.772 47.9916L440.484 47.9085L435.503 46.5114L435.692 46.4661L432.744 49.2149L431.678 50.2118L431.738 50.0381C432.003 51.8581 432.26 53.6705 432.494 55.3243L432.54 55.6264L432.252 55.5433L427.286 54.1765L427.475 54.1312L424.02 57.3482L424.081 57.1821C424.239 58.2997 424.406 59.4476 424.549 60.4218L424.587 60.7087L424.307 60.6332L421.284 59.7799L421.465 59.7346L419.454 61.6074L419.515 61.479C419.409 63.1857 419.303 64.8698 419.205 66.4028L419.069 66.214L426.424 68.0717L426.258 68.1171L450.123 45.9148L450.183 45.862H450.251C452.623 46.9217 455.218 47.3858 457.81 47.2137C459.736 47.071 461.62 46.585 463.374 45.7789C464.442 45.2567 465.455 44.6293 466.398 43.906L467.108 43.3095L467.441 43.1509Z" fill="#263238"/>
<path d="M465.998 41.9199C466.774 41.0896 467.481 40.1981 468.114 39.2541C468.834 38.1347 469.38 36.9125 469.732 35.6293C470.217 33.9351 470.371 32.1634 470.185 30.411C469.97 28.2895 469.258 26.2484 468.107 24.4526C466.785 22.3905 464.938 20.7171 462.755 19.6044C461.584 18.9988 460.327 18.576 459.028 18.3508C458.358 18.2306 457.681 18.1524 457.002 18.1167C456.307 18.1069 455.613 18.1422 454.923 18.2224C452.03 18.5554 449.32 19.8069 447.192 21.7929C445.064 23.779 443.63 26.3947 443.1 29.2556C442.973 29.9367 442.89 30.6254 442.851 31.3172C442.839 31.9981 442.869 32.679 442.941 33.3562C443.085 34.6572 443.421 35.9297 443.939 37.1321C444.896 39.3864 446.439 41.3443 448.407 42.8035C449.975 43.9579 451.769 44.768 453.673 45.1806C455.576 45.5932 457.545 45.5989 459.451 45.1974C460.758 44.9361 462.017 44.4777 463.185 43.8381C464.171 43.2696 465.111 42.6258 465.998 41.9124C465.998 41.9124 465.945 41.9728 465.839 42.0709L465.347 42.509C465.085 42.7566 464.802 42.9815 464.501 43.1811C464.104 43.4595 463.69 43.7117 463.261 43.9362C462.082 44.6073 460.808 45.0937 459.481 45.3786C457.54 45.8087 455.529 45.8217 453.582 45.4168C451.635 45.0119 449.796 44.1983 448.188 43.03C446.166 41.5411 444.577 39.5421 443.584 37.2378C443.05 36.0107 442.706 34.7095 442.563 33.3789C442.481 32.6873 442.448 31.9908 442.465 31.2946C442.496 30.582 442.579 29.8727 442.715 29.1725C443.261 26.2321 444.737 23.5445 446.927 21.5052C449.116 19.466 451.903 18.1829 454.878 17.8448C455.585 17.7632 456.297 17.7304 457.009 17.7467C457.707 17.7811 458.401 17.8619 459.088 17.9883C460.422 18.2268 461.712 18.6673 462.913 19.2948C465.146 20.4423 467.03 22.1659 468.371 24.2865C469.542 26.1261 470.257 28.2178 470.458 30.3883C470.625 32.1675 470.448 33.9623 469.936 35.6746C469.56 36.9703 468.986 38.2005 468.235 39.3221C467.973 39.7363 467.68 40.1301 467.358 40.5002C467.129 40.7737 466.876 41.0264 466.602 41.2554L466.126 41.716C466.058 41.8746 465.998 41.9275 465.998 41.9199Z" fill="#263238"/>
<path d="M465.355 30.766C465.355 30.766 465.687 30.4261 466.111 29.7238C466.63 28.8849 466.901 27.9167 466.893 26.9307C466.884 25.9447 466.598 24.981 466.065 24.1506C465.568 23.3783 464.87 22.7547 464.047 22.3457C463.149 21.8838 462.131 21.7047 461.129 21.8322C460.048 21.9558 459.036 22.4222 458.24 23.1629C457.444 23.9037 456.907 24.8797 456.707 25.9479C456.513 26.941 456.621 27.9694 457.017 28.9007C457.3 29.5623 457.718 30.1581 458.243 30.6505C458.768 31.1429 459.39 31.5213 460.069 31.7619C460.748 32.0024 461.469 32.0998 462.188 32.0479C462.906 31.9961 463.606 31.7962 464.244 31.4607C465 31.068 465.309 30.7056 465.34 30.766C465.37 30.8264 465.272 30.8641 465.105 31.0152C464.877 31.2382 464.624 31.4334 464.349 31.5967C463.452 32.1132 462.424 32.3589 461.389 32.3039C460.355 32.249 459.359 31.8958 458.521 31.287C457.685 30.6814 457.038 29.8511 456.655 28.8926C456.272 27.9341 456.17 26.8868 456.359 25.8724C456.572 24.7231 457.149 23.6725 458.005 22.8757C458.862 22.0789 459.951 21.5781 461.114 21.4471C461.835 21.3603 462.567 21.4192 463.265 21.6203C463.963 21.8215 464.613 22.1607 465.177 22.6179C465.741 23.0751 466.208 23.6409 466.548 24.2817C466.889 24.9225 467.098 25.6253 467.162 26.3482C467.275 27.5696 466.96 28.7923 466.27 29.8069C466.086 30.081 465.873 30.3342 465.635 30.5621C465.552 30.6435 465.458 30.7122 465.355 30.766V30.766Z" fill="#263238"/>
<path d="M424.421 67.3694C424.345 67.2939 429.712 62.1662 436.417 55.9209C443.123 49.6756 448.618 44.6687 448.694 44.7518C448.769 44.8349 443.402 49.955 436.69 56.2079C429.977 62.4607 424.519 67.4525 424.421 67.3694Z" fill="#263238"/>
<path d="M401.221 135.592C399.975 135.854 398.688 135.854 397.441 135.592C398.688 135.33 399.975 135.33 401.221 135.592V135.592Z" fill="#263238"/>
<path d="M408.781 135.592C407.534 135.854 406.247 135.854 405.001 135.592C406.247 135.33 407.534 135.33 408.781 135.592V135.592Z" fill="#263238"/>
<path d="M416.34 135.592C415.094 135.854 413.807 135.854 412.561 135.592C413.807 135.33 415.094 135.33 416.34 135.592V135.592Z" fill="#263238"/>
<path d="M423.899 135.592C422.653 135.854 421.365 135.854 420.119 135.592C421.365 135.33 422.653 135.33 423.899 135.592V135.592Z" fill="#263238"/>
<path d="M431.458 135.592C430.212 135.854 428.925 135.854 427.679 135.592C428.925 135.33 430.212 135.33 431.458 135.592V135.592Z" fill="#263238"/>
<path d="M439.018 135.592C437.772 135.854 436.485 135.854 435.238 135.592C436.485 135.33 437.772 135.33 439.018 135.592V135.592Z" fill="#263238"/>
<path d="M445.436 134.452C445.511 134.452 445.587 134.92 445.617 135.592V135.736H445.428H444.672C444.035 135.798 443.393 135.731 442.782 135.539C443.393 135.348 444.035 135.281 444.672 135.343H445.428L445.247 135.524C445.284 134.92 445.352 134.452 445.436 134.452Z" fill="#263238"/>
<path d="M445.436 126.9C445.698 128.145 445.698 129.431 445.436 130.676C445.174 129.431 445.174 128.145 445.436 126.9Z" fill="#263238"/>
<path d="M445.436 119.348C445.698 120.593 445.698 121.879 445.436 123.124C445.174 121.879 445.174 120.593 445.436 119.348Z" fill="#263238"/>
<path d="M445.436 111.797C445.698 113.042 445.698 114.327 445.436 115.572C445.174 114.327 445.174 113.042 445.436 111.797V111.797Z" fill="#263238"/>
<path d="M445.436 104.245C445.698 105.49 445.698 106.776 445.436 108.021C445.174 106.776 445.174 105.49 445.436 104.245Z" fill="#263238"/>
<path d="M445.436 96.693C445.698 97.938 445.698 99.2239 445.436 100.469C445.174 99.2239 445.174 97.938 445.436 96.693Z" fill="#263238"/>
<path d="M445.436 89.1412C445.698 90.3862 445.698 91.672 445.436 92.9171C445.174 91.672 445.174 90.3862 445.436 89.1412Z" fill="#263238"/>
<path d="M445.436 81.5894C445.698 82.8344 445.698 84.1203 445.436 85.3653C445.174 84.1203 445.174 82.8344 445.436 81.5894V81.5894Z" fill="#263238"/>
<path d="M445.436 74.0377C445.698 75.2827 445.698 76.5685 445.436 77.8136C445.174 76.5685 445.174 75.2827 445.436 74.0377Z" fill="#263238"/>
<path d="M445.436 66.4858C445.698 67.7309 445.698 69.0167 445.436 70.2617C445.174 69.0167 445.174 67.7309 445.436 66.4858Z" fill="#263238"/>
<path d="M445.436 58.9341C445.698 60.1791 445.698 61.4649 445.436 62.71C445.174 61.4649 445.174 60.1791 445.436 58.9341Z" fill="#263238"/>
<path d="M388.755 210.861C387.509 211.123 386.222 211.123 384.976 210.861C386.222 210.599 387.509 210.599 388.755 210.861V210.861Z" fill="#263238"/>
<path d="M396.315 210.861C395.069 211.123 393.781 211.123 392.535 210.861C393.781 210.599 395.069 210.599 396.315 210.861Z" fill="#263238"/>
<path d="M403.874 210.861C402.628 211.123 401.341 211.123 400.095 210.861C401.341 210.599 402.628 210.599 403.874 210.861V210.861Z" fill="#263238"/>
<path d="M411.433 210.861C410.187 211.123 408.9 211.123 407.653 210.861C408.9 210.599 410.187 210.599 411.433 210.861Z" fill="#263238"/>
<path d="M418.993 210.861C417.746 211.123 416.459 211.123 415.213 210.861C416.459 210.599 417.746 210.599 418.993 210.861Z" fill="#263238"/>
<path d="M426.552 210.861C425.306 211.123 424.019 211.123 422.772 210.861C424.019 210.599 425.306 210.599 426.552 210.861Z" fill="#263238"/>
<path d="M434.112 210.861C432.865 211.123 431.578 211.123 430.332 210.861C431.578 210.599 432.865 210.599 434.112 210.861Z" fill="#263238"/>
<path d="M441.671 210.861C440.425 211.123 439.138 211.123 437.892 210.861C439.138 210.599 440.425 210.599 441.671 210.861V210.861Z" fill="#263238"/>
<path d="M449.23 210.861C447.984 211.123 446.696 211.123 445.45 210.861C446.696 210.599 447.984 210.599 449.23 210.861Z" fill="#263238"/>
<path d="M456.789 210.861C455.543 211.123 454.256 211.123 453.01 210.861C454.256 210.599 455.543 210.599 456.789 210.861Z" fill="#263238"/>
<path d="M463.646 210.158C463.714 210.158 463.759 210.43 463.797 210.868V211.004H463.631C463.313 211.004 462.875 211.042 462.451 211.042C461.815 211.108 461.171 211.041 460.562 210.846C461.172 210.654 461.815 210.588 462.451 210.649C462.905 210.649 463.313 210.649 463.631 210.695L463.479 210.846C463.525 210.43 463.585 210.158 463.646 210.158Z" fill="#263238"/>
<path d="M463.729 202.607C463.92 203.217 463.982 203.86 463.911 204.495C463.967 205.132 463.893 205.775 463.691 206.383C463.505 205.772 463.446 205.129 463.518 204.495C463.461 203.857 463.533 203.215 463.729 202.607Z" fill="#263238"/>
<path d="M463.797 195.055C463.983 195.666 464.045 196.308 463.978 196.943C464.035 197.58 463.96 198.223 463.759 198.831C463.573 198.22 463.514 197.577 463.585 196.943C463.528 196.306 463.6 195.664 463.797 195.055Z" fill="#263238"/>
<path d="M463.873 187.503C464.059 188.114 464.121 188.756 464.055 189.391C464.107 190.029 464.032 190.67 463.835 191.279C463.649 190.668 463.587 190.026 463.654 189.391C463.602 188.753 463.676 188.112 463.873 187.503V187.503Z" fill="#263238"/>
<path d="M438.859 163.836L440.25 189.353C440.271 189.792 440.46 190.206 440.778 190.51C441.096 190.813 441.518 190.983 441.958 190.984L487.927 191.324C488.384 191.326 488.824 191.147 489.15 190.826C489.476 190.505 489.661 190.067 489.665 189.61L489.809 169.749C489.811 169.522 489.768 169.296 489.682 169.085C489.596 168.875 489.47 168.683 489.309 168.522C489.149 168.36 488.959 168.232 488.748 168.144C488.538 168.057 488.313 168.012 488.085 168.012H459.813C459.357 168.011 458.919 167.829 458.596 167.506L453.72 162.635C453.562 162.475 453.374 162.348 453.166 162.262C452.959 162.175 452.736 162.13 452.511 162.129L440.59 162.039C440.357 162.038 440.126 162.085 439.911 162.176C439.697 162.267 439.503 162.401 439.341 162.569C439.179 162.737 439.053 162.935 438.971 163.153C438.888 163.371 438.85 163.603 438.859 163.836Z" fill="#2684FF"/>
<path d="M489.834 165.01L439.604 164.642L439.384 194.622L489.614 194.99L489.834 165.01Z" fill="#F5F5F5"/>
<path d="M435.6 167.302L439.206 198.597C439.234 198.867 439.362 199.117 439.565 199.299C439.767 199.48 440.03 199.58 440.302 199.578L489.249 199.941C489.529 199.944 489.8 199.84 490.006 199.65C490.213 199.461 490.339 199.201 490.36 198.921L493.059 167.672C493.072 167.52 493.052 167.366 493.003 167.221C492.953 167.076 492.874 166.943 492.77 166.831C492.666 166.718 492.541 166.628 492.4 166.566C492.26 166.504 492.109 166.472 491.955 166.471L436.712 166.071C436.555 166.07 436.4 166.102 436.256 166.166C436.113 166.229 435.985 166.322 435.88 166.438C435.775 166.554 435.696 166.691 435.648 166.84C435.599 166.989 435.583 167.147 435.6 167.302V167.302Z" fill="#2684FF"/>
<path d="M394.576 118.646H141.572C135.489 118.646 130.558 123.572 130.558 129.649V289.339C130.558 295.416 135.489 300.342 141.572 300.342H394.576C400.659 300.342 405.59 295.416 405.59 289.339V129.649C405.59 123.572 400.659 118.646 394.576 118.646Z" fill="#263238"/>
<path d="M119.053 286.907H417.035V289.361C417.035 292.927 415.618 296.346 413.094 298.867C410.571 301.387 407.148 302.804 403.58 302.804H132.508C130.741 302.804 128.992 302.456 127.359 301.78C125.727 301.105 124.243 300.115 122.994 298.867C121.744 297.618 120.753 296.136 120.077 294.506C119.401 292.875 119.053 291.127 119.053 289.361V286.907V286.907Z" fill="#263238"/>
<path d="M397.433 125.865H137.936V279.302H397.433V125.865Z" fill="#455A64"/>
<path d="M240.963 286.907L244.659 292.783H296.691L300.122 286.907H240.963Z" fill="#455A64"/>
<path d="M390.154 131.061H145.752C144.387 131.061 143.28 132.167 143.28 133.531V276.342C143.28 277.706 144.387 278.812 145.752 278.812H390.154C391.519 278.812 392.626 277.706 392.626 276.342V133.531C392.626 132.167 391.519 131.061 390.154 131.061Z" fill="#EBEBEB"/>
<path d="M392.626 141.89H143.28V278.819H392.626V141.89Z" fill="#FAFAFA"/>
<path d="M163.736 136.77C163.736 137.165 163.619 137.551 163.4 137.879C163.18 138.207 162.868 138.462 162.503 138.613C162.138 138.764 161.736 138.803 161.349 138.725C160.961 138.648 160.606 138.457 160.327 138.177C160.048 137.898 159.859 137.542 159.783 137.155C159.706 136.767 159.747 136.366 159.899 136.002C160.051 135.638 160.308 135.327 160.638 135.109C160.967 134.891 161.353 134.775 161.748 134.777C162.01 134.777 162.269 134.828 162.511 134.929C162.753 135.029 162.972 135.176 163.157 135.361C163.342 135.546 163.488 135.766 163.587 136.008C163.687 136.25 163.737 136.509 163.736 136.77V136.77Z" fill="#263238"/>
<path d="M151.671 136.77C151.671 137.165 151.554 137.55 151.335 137.878C151.115 138.206 150.804 138.461 150.439 138.612C150.074 138.763 149.673 138.803 149.286 138.726C148.899 138.649 148.543 138.459 148.264 138.18C147.985 137.901 147.795 137.546 147.718 137.159C147.641 136.773 147.681 136.372 147.832 136.007C147.983 135.643 148.238 135.332 148.567 135.113C148.895 134.894 149.281 134.777 149.675 134.777C150.205 134.777 150.712 134.987 151.087 135.361C151.461 135.734 151.671 136.242 151.671 136.77V136.77Z" fill="#263238"/>
<path d="M157.462 136.77C157.462 137.165 157.345 137.551 157.125 137.879C156.906 138.207 156.593 138.462 156.228 138.613C155.863 138.764 155.462 138.803 155.074 138.725C154.687 138.648 154.331 138.457 154.053 138.177C153.774 137.898 153.584 137.542 153.508 137.155C153.432 136.767 153.473 136.366 153.625 136.002C153.777 135.638 154.034 135.327 154.363 135.109C154.692 134.891 155.079 134.775 155.474 134.777C155.736 134.777 155.995 134.828 156.237 134.929C156.478 135.029 156.698 135.176 156.882 135.361C157.067 135.546 157.213 135.766 157.313 136.008C157.412 136.25 157.463 136.509 157.462 136.77V136.77Z" fill="#263238"/>
<path d="M403.255 286.907C403.255 287.005 342.213 287.088 266.929 287.088C191.646 287.088 130.581 287.005 130.581 286.907C130.581 286.809 191.615 286.726 266.929 286.726C342.243 286.726 403.255 286.809 403.255 286.907Z" fill="#455A64"/>
<path d="M217.461 210.868H160.562V214.674H217.461V210.868Z" fill="#E0E0E0"/>
<path d="M290.96 158.074H234.061V161.88H290.96V158.074Z" fill="#E0E0E0"/>
<path d="M375.587 172.233C375.587 172.332 343.906 172.415 304.824 172.415C265.742 172.415 234.061 172.332 234.061 172.233C234.061 172.135 265.742 172.06 304.824 172.06C343.906 172.06 375.587 172.135 375.587 172.233Z" fill="#E0E0E0"/>
<path d="M375.587 180.54C375.587 180.639 343.906 180.714 304.824 180.714C265.742 180.714 234.061 180.639 234.061 180.54C234.061 180.442 265.742 180.359 304.824 180.359C343.906 180.359 375.587 180.442 375.587 180.54Z" fill="#E0E0E0"/>
<path d="M375.587 188.84C375.587 188.938 343.906 189.021 304.824 189.021C265.742 189.021 234.061 188.938 234.061 188.84C234.061 188.742 265.742 188.666 304.824 188.666C343.906 188.666 375.587 188.742 375.587 188.84Z" fill="#E0E0E0"/>
<path d="M375.587 197.147C375.587 197.245 343.906 197.32 304.824 197.32C265.742 197.32 234.061 197.245 234.061 197.147C234.061 197.049 265.742 196.965 304.824 196.965C343.906 196.965 375.587 197.049 375.587 197.147Z" fill="#E0E0E0"/>
<path d="M375.587 205.446C375.587 205.544 343.906 205.627 304.824 205.627C265.742 205.627 234.061 205.544 234.061 205.446C234.061 205.348 265.742 205.272 304.824 205.272C343.906 205.272 375.587 205.348 375.587 205.446Z" fill="#E0E0E0"/>
<path d="M289.304 213.753C289.304 213.851 276.937 213.927 261.682 213.927C246.428 213.927 234.061 213.851 234.061 213.753C234.061 213.655 246.428 213.572 261.682 213.572C276.937 213.572 289.304 213.655 289.304 213.753Z" fill="#E0E0E0"/>
<path d="M374.529 229.861C374.529 229.959 353.703 230.042 328.023 230.042C302.344 230.042 281.511 229.959 281.511 229.861C281.511 229.763 302.329 229.687 328.023 229.687C353.718 229.687 374.529 229.763 374.529 229.861Z" fill="#E0E0E0"/>
<path d="M374.529 238.682C374.529 238.78 353.703 238.855 328.023 238.855C302.344 238.855 281.511 238.78 281.511 238.682C281.511 238.583 302.329 238.5 328.023 238.5C353.718 238.5 374.529 238.583 374.529 238.682Z" fill="#E0E0E0"/>
<path d="M374.529 247.502C374.529 247.6 353.703 247.676 328.024 247.676C302.345 247.676 281.549 247.593 281.549 247.502C281.549 247.411 302.367 247.321 328.062 247.321C353.756 247.321 374.529 247.396 374.529 247.502Z" fill="#E0E0E0"/>
<path d="M374.529 256.307C374.529 256.406 353.703 256.481 328.023 256.481C302.344 256.481 281.511 256.406 281.511 256.307C281.511 256.209 302.329 256.126 328.023 256.126C353.718 256.126 374.529 256.209 374.529 256.307Z" fill="#E0E0E0"/>
<path d="M217.612 229.023C217.612 229.121 205.199 229.196 189.884 229.196C174.569 229.196 162.156 229.121 162.156 229.023C162.156 228.925 174.569 228.842 189.884 228.842C205.199 228.842 217.612 228.925 217.612 229.023Z" fill="#E0E0E0"/>
<path d="M217.612 235.94C217.612 236.038 205.199 236.121 189.884 236.121C174.569 236.121 162.156 236.038 162.156 235.94C162.156 235.842 174.569 235.766 189.884 235.766C205.199 235.766 217.612 235.842 217.612 235.94Z" fill="#E0E0E0"/>
<path d="M217.612 242.865C217.612 242.963 205.199 243.046 189.884 243.046C174.569 243.046 162.156 242.963 162.156 242.865C162.156 242.767 174.569 242.684 189.884 242.684C205.199 242.684 217.612 242.767 217.612 242.865Z" fill="#E0E0E0"/>
<path d="M217.612 249.768C217.612 249.866 205.199 249.941 189.884 249.941C174.569 249.941 162.156 249.866 162.156 249.768C162.156 249.669 174.569 249.586 189.884 249.586C205.199 249.586 217.612 249.692 217.612 249.768Z" fill="#E0E0E0"/>
<path d="M217.612 256.708C217.612 256.806 205.199 256.889 189.884 256.889C174.569 256.889 162.156 256.806 162.156 256.708C162.156 256.609 174.569 256.534 189.884 256.534C205.199 256.534 217.612 256.609 217.612 256.708Z" fill="#E0E0E0"/>
<path d="M274.39 225.655H234.023V264.675H274.39V225.655Z" fill="#F5F5F5"/>
<path d="M237.152 261.337L248.318 241.257L257.457 254.095L263.005 247.275L271.26 261.337H237.152Z" fill="#EBEBEB"/>
<path d="M261.35 237.352C261.351 237.928 261.182 238.491 260.863 238.971C260.543 239.45 260.089 239.824 259.557 240.045C259.025 240.266 258.439 240.324 257.874 240.212C257.308 240.1 256.789 239.823 256.382 239.416C255.974 239.009 255.697 238.49 255.585 237.925C255.473 237.361 255.531 236.775 255.752 236.244C255.974 235.712 256.348 235.258 256.827 234.939C257.307 234.62 257.871 234.451 258.447 234.453C259.217 234.453 259.955 234.758 260.5 235.302C261.044 235.846 261.35 236.583 261.35 237.352V237.352Z" fill="#EBEBEB"/>
<path d="M271.268 261.45C271.261 261.395 271.261 261.339 271.268 261.284C271.268 261.171 271.268 261.02 271.268 260.831C271.268 260.416 271.268 259.834 271.268 259.079C271.268 257.531 271.268 255.303 271.223 252.448C271.223 246.747 271.177 238.636 271.14 228.887L271.306 229.053H237.198L237.387 228.864V237.685C237.387 240.554 237.387 243.364 237.387 246.09C237.387 251.557 237.387 256.723 237.387 261.48L237.221 261.307L261.879 261.397L268.834 261.435H270.678H271.162H271.329H270.716H268.902L261.985 261.473L237.221 261.563H237.047V261.397C237.047 256.64 237.047 251.474 237.047 246.007C237.047 243.281 237.047 240.471 237.047 237.602V228.902L237.243 228.706H271.351H271.518V228.864C271.48 238.681 271.45 246.807 271.434 252.531C271.434 255.356 271.397 257.584 271.389 259.124C271.389 259.864 271.389 260.438 271.389 260.846C271.389 261.027 271.389 261.171 271.389 261.284C271.355 261.343 271.314 261.399 271.268 261.45V261.45Z" fill="#EBEBEB"/>
<path d="M216.387 151.579H161.635V204.502H216.387V151.579Z" fill="#F5F5F5"/>
<path d="M165.883 199.971L181.032 172.739L193.422 190.146L200.943 180.903L212.146 199.971H165.883Z" fill="#E0E0E0"/>
<path d="M198.698 167.453C198.698 168.231 198.467 168.992 198.034 169.639C197.602 170.286 196.987 170.79 196.267 171.088C195.547 171.386 194.755 171.464 193.991 171.312C193.227 171.16 192.526 170.785 191.975 170.235C191.424 169.685 191.049 168.984 190.897 168.221C190.745 167.457 190.823 166.666 191.121 165.947C191.419 165.229 191.924 164.614 192.572 164.182C193.219 163.749 193.981 163.519 194.76 163.519C195.804 163.519 196.806 163.933 197.545 164.671C198.283 165.409 198.698 166.41 198.698 167.453Z" fill="#E0E0E0"/>
<path d="M212.146 200.122C212.146 200.122 212.146 200.047 212.146 199.903C212.146 199.76 212.146 199.541 212.146 199.284C212.146 198.725 212.146 197.932 212.146 196.905C212.146 194.806 212.108 191.77 212.085 187.918C212.085 180.185 212.017 169.183 211.972 155.967L212.191 156.186L165.935 156.224C165.875 156.277 166.427 155.733 166.192 155.974V167.846C166.192 171.738 166.192 175.539 166.192 179.249C166.192 186.657 166.192 193.665 166.192 200.115L165.966 199.888L199.416 200.001L208.85 200.062H211.36H212.002H212.229H212.032H211.405H208.948L199.567 200.122L165.966 200.235H165.739V200.009C165.739 193.56 165.739 186.552 165.739 179.143C165.739 175.438 165.739 171.637 165.739 167.74V155.982C165.505 156.209 166.056 155.65 166.003 155.71L212.259 155.748H212.486V155.974C212.441 169.25 212.403 180.306 212.373 188.07C212.373 191.898 212.327 194.919 212.312 197.003C212.312 198.008 212.312 198.793 212.312 199.344C212.312 199.594 212.312 199.782 212.312 199.933C212.272 200.009 212.215 200.073 212.146 200.122V200.122Z" fill="#E0E0E0"/>
<path d="M223.727 171.69L226.434 177.165L232.481 178.041L228.104 182.308L229.14 188.326L223.727 185.479L218.322 188.326L219.351 182.308L214.974 178.041L221.021 177.165L223.727 171.69Z" fill="#2684FF"/>
<path d="M242.784 152.659L245.483 158.134L251.53 159.01L247.153 163.277L248.189 169.288L242.784 166.449L237.372 169.288L238.407 163.277L234.03 159.01L240.078 158.134L242.784 152.659Z" fill="#2684FF"/>
<path d="M268.244 145.19L270.943 150.666L276.998 151.542L272.613 155.801L273.649 161.819L268.244 158.98L262.831 161.819L263.867 155.801L259.49 151.542L265.538 150.666L268.244 145.19Z" fill="#2684FF"/>
<path d="M294.589 152.833L297.295 158.308L303.343 159.191L298.966 163.451L300.001 169.469L294.589 166.63L289.184 169.469L290.22 163.451L285.843 159.191L291.89 158.308L294.589 152.833Z" fill="#2684FF"/>
<path d="M312.754 170.98L315.46 176.455L321.508 177.331L317.131 181.598L318.159 187.609L312.754 184.769L307.341 187.609L308.377 181.598L304 177.331L310.047 176.455L312.754 170.98Z" fill="#2684FF"/>
<path d="M319.338 197.305L322.044 202.78L328.091 203.656L323.715 207.916L324.75 213.934L319.338 211.095L313.933 213.934L314.961 207.916L310.584 203.656L316.639 202.78L319.338 197.305Z" fill="#2684FF"/>
<path d="M312.928 223.45L315.634 228.925L321.681 229.801L317.304 234.067L318.34 240.086L312.928 237.239L307.523 240.086L308.551 234.067L304.174 229.801L310.229 228.925L312.928 223.45Z" fill="#2684FF"/>
<path d="M293.643 241.589L296.35 247.064L302.397 247.948L298.02 252.207L299.056 258.226L293.643 255.386L288.231 258.226L289.267 252.207L284.89 247.948L290.937 247.064L293.643 241.589Z" fill="#2684FF"/>
<path d="M267.73 249.073L270.437 254.548L276.484 255.424L272.107 259.683L273.135 265.702L267.73 262.862L262.318 265.702L263.353 259.683L258.977 255.424L265.024 254.548L267.73 249.073Z" fill="#2684FF"/>
<path d="M242.981 241.604L245.688 247.079L251.735 247.955L247.358 252.214L248.386 258.233L242.981 255.394L237.569 258.233L238.604 252.214L234.228 247.955L240.275 247.079L242.981 241.604Z" fill="#2684FF"/>
<path d="M223.394 222.974L226.101 228.449L232.148 229.332L227.771 233.592L228.807 239.61L223.394 236.771L217.989 239.61L219.017 233.592L214.641 229.332L220.688 228.449L223.394 222.974Z" fill="#2684FF"/>
<path d="M216.81 197.336L219.509 202.811L225.557 203.687L221.187 207.946L222.215 213.965L216.81 211.125L211.398 213.965L212.433 207.946L208.057 203.687L214.104 202.811L216.81 197.336Z" fill="#2684FF"/>
<path d="M286.908 216.117H281.617V187.345C281.617 184.088 280.322 180.965 278.017 178.662C275.712 176.359 272.585 175.065 269.325 175.065C266.065 175.065 262.939 176.359 260.634 178.662C258.329 180.965 257.034 184.088 257.034 187.345V216.117H251.742V187.345C251.742 185.038 252.197 182.754 253.081 180.623C253.964 178.491 255.259 176.555 256.892 174.924C258.525 173.293 260.463 171.999 262.597 171.116C264.73 170.233 267.016 169.779 269.325 169.779C271.634 169.779 273.921 170.233 276.054 171.116C278.187 171.999 280.126 173.293 281.758 174.924C283.391 176.555 284.686 178.491 285.57 180.623C286.454 182.754 286.908 185.038 286.908 187.345V216.117Z" fill="#263238"/>
<path d="M288.624 203.317H250.011C247.586 203.317 245.619 205.281 245.619 207.704V229.31C245.619 231.733 247.586 233.697 250.011 233.697H288.624C291.05 233.697 293.016 231.733 293.016 229.31V207.704C293.016 205.281 291.05 203.317 288.624 203.317Z" fill="#2684FF"/>
<path d="M273.286 214.546C273.286 215.329 273.054 216.094 272.619 216.744C272.184 217.395 271.565 217.902 270.841 218.202C270.117 218.501 269.321 218.58 268.553 218.427C267.784 218.274 267.078 217.898 266.524 217.344C265.97 216.791 265.593 216.086 265.44 215.318C265.288 214.55 265.366 213.755 265.666 213.032C265.966 212.309 266.473 211.691 267.125 211.256C267.776 210.821 268.542 210.589 269.325 210.589C270.376 210.589 271.383 211.006 272.126 211.748C272.869 212.49 273.286 213.496 273.286 214.546V214.546Z" fill="#263238"/>
<path d="M270.406 216.117H268.244V224.258H270.406V216.117Z" fill="#263238"/>
<path d="M248.152 230.813C248.046 230.813 247.955 225.745 247.955 219.485C247.955 213.224 248.046 208.157 248.152 208.157C248.257 208.157 248.348 213.224 248.348 219.485C248.348 225.745 248.288 230.813 248.152 230.813Z" fill="#FAFAFA"/>
<path d="M266.226 219.621C266.226 219.621 266.037 219.56 265.757 219.356C265.365 219.063 265.021 218.712 264.736 218.314C264.246 217.663 263.906 216.912 263.739 216.114C263.573 215.316 263.584 214.491 263.772 213.698C263.96 212.906 264.321 212.164 264.829 211.526C265.337 210.888 265.979 210.37 266.709 210.007C267.144 209.781 267.61 209.624 268.093 209.539C268.267 209.503 268.447 209.503 268.622 209.539C268.012 209.747 267.418 209.999 266.845 210.294C266.174 210.664 265.587 211.17 265.122 211.78C264.658 212.389 264.326 213.089 264.149 213.835C263.972 214.58 263.952 215.355 264.093 216.108C264.233 216.861 264.529 217.577 264.963 218.209C265.345 218.712 265.768 219.185 266.226 219.621V219.621Z" fill="#FAFAFA"/>
<path d="M102.596 189.829C102.062 191.558 102.105 193.413 102.717 195.115C103.337 196.803 104.138 198.418 105.105 199.933C106.353 196.916 107.425 193.83 108.318 190.69C108.461 190.36 108.521 190 108.49 189.641C108.46 189.283 108.341 188.937 108.144 188.636C107.936 188.463 107.694 188.337 107.433 188.266C107.172 188.194 106.899 188.179 106.632 188.221C105.022 188.318 103.494 188.969 102.308 190.063" fill="#263238"/>
<path d="M35.9374 274.53L23.5703 302.773H40.594L52.7117 274.311L35.9374 274.53Z" fill="#263238"/>
<path d="M109.475 302.441C126.158 296.921 114.721 274.877 114.721 274.877L41.796 281.727C38.9957 281.727 36.3096 282.835 34.3259 284.81C32.3423 286.784 31.2229 289.464 31.2129 292.261V292.261C31.2129 295.065 32.3279 297.755 34.3126 299.737C36.2973 301.72 38.9892 302.834 41.796 302.834L109.543 302.471" fill="#455A64"/>
<path d="M126.061 302.804C142.321 297.321 131.602 274.862 131.602 274.862L60.5436 281.553C53.6041 281.644 50.21 284.989 50.21 292.073C50.21 297.887 52.3719 302.796 60.5209 302.645L126.091 302.811" fill="#455A64"/>
<path d="M110.042 278.593H109.845H109.248L106.98 278.683L98.6197 279.099L71.0356 280.609C69.6825 280.677 68.3521 280.79 67.0443 280.813C65.7365 280.836 64.4287 280.888 63.1588 280.964C61.8888 281.039 60.6415 281.138 59.3791 281.266C58.1658 281.354 56.9704 281.609 55.8262 282.021C54.7189 282.436 53.7117 283.079 52.8705 283.909C52.0708 284.728 51.4571 285.709 51.0714 286.786C50.7076 287.791 50.4542 288.831 50.3154 289.89C50.181 290.863 50.1153 291.845 50.1189 292.828C50.091 294.523 50.4099 296.206 51.0562 297.774C51.5476 298.94 52.3063 299.975 53.2711 300.795C53.8611 301.302 54.544 301.689 55.2819 301.935C55.7808 302.094 55.796 302.041 55.2819 301.86C54.5672 301.585 53.9068 301.186 53.3316 300.682C52.4089 299.862 51.6873 298.841 51.2225 297.699C50.608 296.155 50.3123 294.503 50.3532 292.843C50.3576 291.875 50.4308 290.908 50.5724 289.951C50.7111 288.919 50.9646 287.905 51.3284 286.93C51.6958 285.9 52.287 284.963 53.0595 284.188C53.871 283.392 54.8423 282.777 55.9093 282.384C57.0318 281.995 58.2013 281.759 59.3867 281.681C60.5961 281.56 61.8434 281.462 63.1134 281.394C64.3834 281.326 65.6685 281.266 66.9838 281.243C68.2991 281.221 69.6296 281.115 70.9752 281.047L98.6122 279.378L106.973 278.842L109.241 278.676L109.83 278.623C109.902 278.627 109.974 278.617 110.042 278.593V278.593Z" fill="#263238"/>
<path d="M126.098 285.548C125.926 285.678 125.731 285.775 125.524 285.835C124.967 286.036 124.384 286.156 123.793 286.19C122.808 286.264 121.819 286.122 120.896 285.774C119.972 285.425 119.136 284.878 118.447 284.172C117.758 283.466 117.233 282.617 116.908 281.685C116.582 280.754 116.466 279.763 116.566 278.781C116.611 278.193 116.746 277.615 116.967 277.067C117.027 276.861 117.127 276.668 117.262 276.501C117.053 277.254 116.914 278.025 116.846 278.804C116.785 279.738 116.921 280.675 117.245 281.553C117.57 282.431 118.076 283.232 118.731 283.902C119.385 284.572 120.173 285.097 121.044 285.443C121.915 285.789 122.849 285.948 123.785 285.91C124.566 285.866 125.341 285.745 126.098 285.548Z" fill="#263238"/>
<path d="M89.9264 240.894L83.1834 263.95L58.2148 266.631V271.056L94.9004 271.562L99.8972 241.536L89.9264 240.894Z" fill="#FFBE9D"/>
<path d="M122.492 216.804C126.922 216.804 138.918 219.07 139.969 227.15C140.922 234.445 142.343 242.722 142.343 242.722L126.559 243.145L131.934 244.572L134.201 278.623L93.3354 277.203L95.505 259.698L97.3192 242.216L88.3916 241.461C88.3916 241.461 91.4154 226.229 96.7749 221.524C100.136 218.81 104.232 217.162 108.537 216.789C113.185 216.526 117.844 216.526 122.492 216.789" fill="#2684FF"/>
<path d="M98.7862 230.888C98.8845 230.888 98.257 237.05 97.3953 244.632C96.5335 252.214 95.7549 258.354 95.6566 258.339C95.5583 258.324 96.1858 252.177 97.0551 244.595C97.9244 237.013 98.6955 230.888 98.7862 230.888Z" fill="#263238"/>
<path d="M123.709 216.857C123.709 216.857 123.709 216.955 123.754 217.144C123.8 217.333 123.792 217.612 123.8 217.967C123.821 218.992 123.67 220.013 123.354 220.988C122.94 222.477 122.143 223.831 121.04 224.915C120.361 225.561 119.556 226.059 118.674 226.38C117.716 226.694 116.713 226.852 115.704 226.848C114.692 226.874 113.679 226.805 112.68 226.644C111.746 226.497 110.859 226.138 110.087 225.594C108.852 224.638 107.985 223.286 107.63 221.766C107.362 220.782 107.247 219.763 107.29 218.745C107.29 218.39 107.328 218.11 107.35 217.922C107.356 217.824 107.373 217.728 107.403 217.635C107.424 218.004 107.424 218.375 107.403 218.745C107.409 219.752 107.554 220.753 107.834 221.72C108.208 223.173 109.06 224.457 110.253 225.368C110.992 225.878 111.837 226.214 112.725 226.349C113.695 226.504 114.677 226.569 115.658 226.546C116.631 226.546 117.598 226.393 118.523 226.093C119.369 225.798 120.142 225.327 120.791 224.711C121.869 223.669 122.663 222.369 123.097 220.935C123.42 219.982 123.601 218.987 123.633 217.982C123.694 217.295 123.686 216.857 123.709 216.857Z" fill="#263238"/>
<g opacity="0.2">
<path opacity="0.2" d="M125.902 230.888C124.39 238.115 122.417 245.539 120.905 252.788C120.691 254.346 120.144 255.84 119.302 257.168C118.679 257.929 117.951 258.598 117.14 259.154C114.223 261.485 110.978 263.373 107.51 264.758C112.573 264.326 117.588 263.454 122.5 262.152C122.91 262.129 123.312 262.025 123.682 261.846C124.051 261.667 124.382 261.416 124.654 261.109C124.926 260.801 125.134 260.443 125.267 260.054C125.399 259.665 125.453 259.254 125.425 258.845C126.514 249.579 126.181 240.237 125.902 230.903" fill="black"/>
</g>
<path d="M142.6 242.842C142.209 242.91 141.811 242.941 141.414 242.933L138.171 243.054C135.442 243.145 131.662 243.235 127.482 243.318H126.144H125.977V243.152C125.826 239.278 125.894 235.834 125.977 233.335C125.977 232.104 126.061 231.107 126.106 230.42C126.107 230.063 126.14 229.706 126.204 229.355C126.233 229.709 126.233 230.066 126.204 230.42C126.204 231.175 126.204 232.149 126.204 233.342C126.204 235.819 126.159 239.263 126.318 243.114L126.144 242.948H127.489C131.662 242.865 135.442 242.812 138.178 242.79H141.421C141.815 242.777 142.209 242.795 142.6 242.842V242.842Z" fill="#263238"/>
<path d="M26.9421 244.481L40.8891 271.894H84.8695L83.0855 268.322L70.348 267.937L59.9614 244.844C59.6458 244.141 59.133 243.544 58.485 243.126C57.837 242.707 57.0816 242.486 56.3102 242.488H28.1818C27.9475 242.49 27.7174 242.551 27.5131 242.666C27.3088 242.781 27.1368 242.945 27.0131 243.144C26.8894 243.343 26.8181 243.57 26.8057 243.803C26.7932 244.037 26.8402 244.27 26.9421 244.481Z" fill="#E0E0E0"/>
<path d="M47.2766 258.452C48.2076 258.452 48.9623 257.698 48.9623 256.768C48.9623 255.838 48.2076 255.084 47.2766 255.084C46.3456 255.084 45.5908 255.838 45.5908 256.768C45.5908 257.698 46.3456 258.452 47.2766 258.452Z" fill="#263238"/>
<path d="M123.928 196.15L122.356 218.443C122.23 220.196 121.444 221.836 120.157 223.034C118.869 224.232 117.176 224.898 115.416 224.9V224.9C114.465 224.899 113.523 224.704 112.65 224.326C111.776 223.948 110.99 223.396 110.339 222.702C109.688 222.008 109.186 221.189 108.864 220.294C108.543 219.399 108.408 218.448 108.469 217.499C108.613 215.377 108.734 213.632 108.734 213.632C108.734 213.632 103.344 212.794 103.269 207.402C103.269 204.857 103.571 199.85 103.949 195.1C104.163 192.441 105.37 189.959 107.331 188.148C109.291 186.336 111.862 185.327 114.532 185.321V185.321C115.867 185.397 117.174 185.739 118.375 186.329C119.575 186.918 120.645 187.742 121.521 188.752C122.397 189.761 123.062 190.936 123.475 192.207C123.889 193.478 124.043 194.819 123.928 196.15V196.15Z" fill="#FFBE9D"/>
<path d="M108.704 213.912C111.199 213.96 113.652 213.263 115.749 211.91C115.749 211.91 114.078 215.792 108.688 215.309L108.704 213.912Z" fill="#EB996E"/>
<path d="M105.643 198.619C105.643 198.82 105.722 199.012 105.864 199.153C106.006 199.295 106.198 199.374 106.399 199.374C106.595 199.385 106.789 199.318 106.937 199.188C107.085 199.059 107.177 198.876 107.192 198.68C107.192 198.479 107.113 198.287 106.971 198.146C106.829 198.004 106.637 197.925 106.436 197.925C106.239 197.914 106.046 197.981 105.898 198.111C105.75 198.24 105.658 198.423 105.643 198.619Z" fill="#263238"/>
<path d="M105.158 197.562C105.257 197.66 105.839 197.23 106.67 197.23C107.502 197.23 108.106 197.645 108.182 197.547C108.258 197.449 108.129 197.32 107.865 197.124C107.504 196.877 107.077 196.746 106.64 196.746C106.208 196.748 105.787 196.885 105.438 197.139C105.196 197.335 105.113 197.517 105.158 197.562Z" fill="#263238"/>
<path d="M113.459 198.846C113.459 199.046 113.539 199.238 113.68 199.38C113.822 199.522 114.014 199.601 114.215 199.601C114.405 199.602 114.589 199.53 114.729 199.402C114.869 199.273 114.956 199.096 114.971 198.906C114.971 198.706 114.891 198.514 114.749 198.372C114.608 198.231 114.415 198.151 114.215 198.151C114.024 198.151 113.841 198.222 113.701 198.351C113.561 198.479 113.474 198.656 113.459 198.846Z" fill="#263238"/>
<path d="M113.315 197.713C113.413 197.811 114.003 197.381 114.827 197.388C115.651 197.396 116.263 197.804 116.339 197.698C116.414 197.592 116.286 197.471 116.021 197.283C115.663 197.032 115.234 196.899 114.797 196.905C114.365 196.902 113.944 197.037 113.595 197.29C113.36 197.487 113.27 197.66 113.315 197.713Z" fill="#263238"/>
<path d="M110.307 203.86C109.87 203.726 109.418 203.645 108.961 203.619C108.749 203.619 108.545 203.558 108.508 203.415C108.491 203.194 108.541 202.973 108.651 202.78L109.279 201.172C109.857 199.806 110.327 198.397 110.685 196.958C109.997 198.275 109.413 199.643 108.938 201.051C108.734 201.617 108.53 202.154 108.341 202.667C108.205 202.924 108.167 203.222 108.235 203.505C108.267 203.579 108.314 203.646 108.374 203.699C108.435 203.753 108.506 203.792 108.583 203.815C108.7 203.843 108.819 203.858 108.938 203.86C109.392 203.923 109.853 203.923 110.307 203.86Z" fill="#263238"/>
<path d="M112.748 204.457C112.612 204.457 112.612 205.348 111.841 205.967C111.07 206.586 110.11 206.511 110.103 206.632C110.095 206.753 110.322 206.805 110.723 206.821C111.251 206.83 111.766 206.65 112.174 206.315C112.566 205.994 112.818 205.533 112.877 205.031C112.915 204.653 112.809 204.457 112.748 204.457Z" fill="#263238"/>
<path d="M113.104 194.466C113.187 194.692 114.018 194.587 114.986 194.7C115.953 194.813 116.747 195.085 116.876 194.881C117.004 194.677 116.8 194.572 116.483 194.353C116.06 194.085 115.581 193.917 115.083 193.862C114.585 193.807 114.081 193.866 113.61 194.035C113.247 194.179 113.066 194.36 113.104 194.466Z" fill="#263238"/>
<path d="M105.468 195.161C105.612 195.349 106.224 195.161 106.874 195.161C107.524 195.161 108.137 195.289 108.273 195.085C108.409 194.881 108.273 194.806 107.985 194.624C107.644 194.408 107.245 194.299 106.841 194.312C106.437 194.324 106.046 194.456 105.718 194.692C105.483 194.874 105.415 195.07 105.468 195.161Z" fill="#263238"/>
<path d="M122.107 200.553C122.198 200.507 125.819 199.458 125.698 203.143C125.577 206.828 121.918 205.952 121.918 205.846C121.918 205.741 122.107 200.553 122.107 200.553Z" fill="#FFBE9D"/>
<path d="M123.067 204.457C123.067 204.457 123.135 204.502 123.241 204.555C123.316 204.586 123.397 204.603 123.479 204.603C123.561 204.603 123.642 204.586 123.717 204.555C123.956 204.41 124.151 204.204 124.284 203.958C124.417 203.713 124.482 203.437 124.473 203.158C124.488 202.841 124.437 202.525 124.322 202.229C124.29 202.114 124.23 202.008 124.149 201.92C124.067 201.832 123.966 201.764 123.853 201.723C123.781 201.7 123.702 201.703 123.632 201.732C123.561 201.761 123.503 201.814 123.468 201.882C123.415 201.987 123.468 202.063 123.415 202.063C123.362 202.063 123.339 202.002 123.415 201.851C123.435 201.76 123.489 201.679 123.566 201.625C123.617 201.588 123.674 201.562 123.735 201.547C123.796 201.533 123.859 201.531 123.921 201.542C124.072 201.575 124.212 201.647 124.327 201.75C124.443 201.853 124.529 201.984 124.579 202.131C124.723 202.458 124.788 202.816 124.768 203.173C124.773 203.502 124.681 203.824 124.506 204.102C124.33 204.379 124.077 204.6 123.778 204.736C123.676 204.758 123.572 204.758 123.47 204.737C123.369 204.716 123.273 204.675 123.188 204.615C123.075 204.578 123.06 204.495 123.067 204.457Z" fill="#EB996E"/>
<path d="M89.5486 271.94H35.7939V274.56H89.5486V271.94Z" fill="#263238"/>
<path d="M72.9932 273.246L89.3441 302.804H103.979L89.5482 274.56L72.9932 273.246Z" fill="#263238"/>
<path d="M89.5404 274.56C89.5404 274.666 77.4908 274.817 62.6291 274.892C47.7674 274.968 35.7178 274.938 35.7178 274.832C35.7178 274.726 47.7674 274.575 62.6291 274.5C77.4908 274.424 89.5404 274.454 89.5404 274.56Z" fill="#455A64"/>
<path d="M102.46 192.699C102.951 192.879 103.474 192.952 103.996 192.915C104.517 192.877 105.024 192.729 105.484 192.48C105.402 192.571 105.34 192.679 105.303 192.796C105.266 192.914 105.254 193.037 105.269 193.159C105.283 193.281 105.323 193.399 105.386 193.505C105.449 193.61 105.534 193.701 105.635 193.771C106.06 194.033 106.561 194.142 107.056 194.081C109.743 193.977 112.296 192.888 114.23 191.022C114.273 191.488 114.452 191.932 114.745 192.297C115.038 192.662 115.432 192.933 115.878 193.076C116.778 193.344 117.737 193.344 118.637 193.076C118.303 194.441 118.247 195.858 118.471 197.245C118.592 197.935 118.913 198.575 119.394 199.084C119.875 199.594 120.495 199.953 121.177 200.115C121.35 200.828 121.408 201.565 121.351 202.297C121.404 203.052 121.827 203.868 122.568 203.89C123.309 203.913 123.694 203.241 123.785 202.599C123.876 201.957 123.49 200.651 123.951 199.616C124.413 198.582 124.254 198.695 124.745 197.57C125.237 196.444 125.501 194.889 125.909 193.718C126.353 192.553 126.387 191.273 126.008 190.086C125.799 189.504 125.417 189.001 124.912 188.643C124.408 188.285 123.806 188.09 123.188 188.085C123.414 187.501 123.449 186.862 123.29 186.257C123.13 185.652 122.783 185.114 122.298 184.717C121.814 184.321 121.217 184.088 120.592 184.052C119.967 184.015 119.346 184.176 118.819 184.513C118.819 184.513 114.616 181.658 109.967 183.236C105.318 184.815 104.622 189.029 103.609 189.157C102.596 189.285 99.5271 187.647 100.056 188.674C100.585 189.701 101.462 190.735 101.901 190.781C102.339 190.826 98.3857 189.157 99.7464 190.652C100.504 191.51 101.427 192.206 102.46 192.699Z" fill="#263238"/>
<path d="M139.516 228.623C139.084 228.104 138.595 227.635 138.057 227.225C136.536 226.179 134.718 225.65 132.872 225.715C130.536 225.715 127.86 226.719 125.229 228.328C122.598 229.937 119.9 232.104 116.558 233.561C113.402 234.987 109.811 235.12 106.557 233.931C105.157 233.408 103.851 232.664 102.687 231.726C101.591 230.88 100.623 230.027 99.6633 229.34C98.232 228.173 96.4839 227.46 94.6439 227.293C93.9664 227.278 93.2907 227.367 92.6406 227.558C92.6406 227.558 92.6406 227.558 92.7616 227.497C92.882 227.442 93.0057 227.394 93.132 227.354C93.6223 227.207 94.1321 227.136 94.6439 227.142C96.5345 227.25 98.3457 227.938 99.8296 229.113C101.765 230.45 103.738 232.572 106.633 233.592C109.806 234.713 113.288 234.576 116.362 233.206C119.628 231.787 122.304 229.589 125.002 228.018C127.701 226.448 130.422 225.39 132.826 225.436C134.728 225.394 136.59 225.986 138.118 227.12C138.524 227.427 138.888 227.788 139.199 228.192C139.322 228.322 139.429 228.466 139.516 228.623V228.623Z" fill="#FAFAFA"/>
<path d="M126.067 248.499C126.067 248.499 125.697 248.257 125.024 247.872C124.071 247.324 123.038 246.927 121.963 246.694C120.376 246.342 118.729 246.37 117.155 246.777C115.371 247.223 113.549 248.159 111.523 248.907C110.532 249.272 109.502 249.525 108.454 249.662C107.476 249.784 106.488 249.802 105.506 249.715C103.846 249.567 102.225 249.125 100.721 248.408C99.7049 247.937 98.7607 247.324 97.9164 246.588C97.682 246.396 97.4622 246.186 97.2587 245.961C97.1151 245.818 97.0395 245.735 97.0546 245.72C97.0698 245.705 97.3948 245.992 98.0147 246.475C98.8826 247.151 99.8294 247.719 100.834 248.167C102.323 248.827 103.913 249.233 105.536 249.367C107.525 249.521 109.522 249.235 111.387 248.529C113.24 247.724 115.135 247.02 117.064 246.422C118.424 246.083 119.838 246.025 121.22 246.249C122.603 246.474 123.926 246.977 125.107 247.729C125.369 247.896 125.622 248.077 125.863 248.272C125.999 248.416 126.075 248.491 126.067 248.499Z" fill="#FAFAFA"/>
<path d="M132.017 261.193C131.541 261.006 131.054 260.849 130.558 260.725C129.18 260.502 127.768 260.63 126.453 261.095C125.539 261.394 124.654 261.774 123.807 262.228C122.885 262.711 121.925 263.285 120.889 263.844C119.805 264.458 118.657 264.952 117.465 265.317C116.161 265.699 114.782 265.756 113.451 265.483C110.707 264.886 108.537 263.3 106.542 262.115C104.841 260.932 102.891 260.157 100.842 259.849C99.4558 259.703 98.0594 260.004 96.858 260.71C96.4288 260.989 96.0331 261.315 95.6787 261.684C95.7397 261.564 95.816 261.453 95.9055 261.352C96.1578 261.06 96.4505 260.806 96.7748 260.597C97.9906 259.809 99.4364 259.452 100.88 259.585C102.709 259.675 104.727 260.574 106.746 261.79C108.764 263.006 110.918 264.516 113.549 265.083C114.82 265.344 116.135 265.292 117.382 264.931C118.547 264.577 119.672 264.101 120.738 263.512C121.774 262.968 122.741 262.402 123.679 261.918C124.551 261.471 125.462 261.102 126.4 260.816C127.755 260.354 129.21 260.268 130.611 260.567C130.988 260.657 131.353 260.791 131.699 260.967C131.911 261.095 132.024 261.178 132.017 261.193Z" fill="#FAFAFA"/>
<path d="M133.945 275.625C133.828 275.697 133.701 275.751 133.567 275.783C133.185 275.892 132.792 275.958 132.395 275.98C130.93 275.98 129.481 275.677 128.139 275.089C127.216 274.728 126.272 274.423 125.312 274.175C124.207 273.943 123.073 273.877 121.948 273.979C119.56 274.182 117.042 275.089 114.389 275.859C113.075 276.249 111.729 276.525 110.367 276.682C109.092 276.801 107.807 276.784 106.535 276.629C104.395 276.331 102.3 275.771 100.298 274.96C98.951 274.434 97.6314 273.839 96.3448 273.178C95.8837 272.951 95.5359 272.755 95.3016 272.627C95.1747 272.568 95.0554 272.495 94.9463 272.408C95.082 272.437 95.2122 272.488 95.3318 272.559L96.4053 273.042C97.3426 273.465 98.6731 274.077 100.397 274.711C102.386 275.475 104.459 275.999 106.573 276.274C107.829 276.413 109.096 276.413 110.352 276.274C111.692 276.119 113.014 275.846 114.306 275.459C116.974 274.703 119.522 273.79 121.979 273.601C123.14 273.5 124.311 273.579 125.448 273.835C126.419 274.096 127.371 274.422 128.298 274.809C129.605 275.404 131.014 275.742 132.448 275.806C132.951 275.788 133.452 275.727 133.945 275.625V275.625Z" fill="#FAFAFA"/>
<path d="M141.701 239.029C141.573 239.213 141.417 239.376 141.24 239.512C140.772 239.906 140.247 240.227 139.682 240.464C138.837 240.815 137.93 240.992 137.014 240.985C135.89 240.943 134.79 240.652 133.794 240.131C132.735 239.625 131.783 239.074 130.853 238.742C130.039 238.447 129.165 238.351 128.306 238.462C127.728 238.537 127.18 238.764 126.718 239.119C126.401 239.391 126.265 239.588 126.234 239.565C126.312 239.35 126.442 239.158 126.612 239.006C127.066 238.577 127.637 238.293 128.253 238.191C129.163 238.031 130.099 238.103 130.974 238.402C132.009 238.798 133.019 239.257 133.998 239.776C134.934 240.27 135.965 240.558 137.022 240.622C137.892 240.648 138.759 240.507 139.577 240.207C140.322 239.886 141.034 239.491 141.701 239.029Z" fill="#FAFAFA"/>
<path d="M97.7958 238.651C97.7958 238.651 97.7505 238.78 97.5539 238.916C97.2682 239.091 96.9367 239.178 96.6015 239.165C96.1096 239.147 95.6296 239.01 95.203 238.765C94.7267 238.5 94.2732 238.13 93.7818 237.813C92.9485 237.265 91.9349 237.062 90.9546 237.247C90.1987 237.383 89.7829 237.662 89.7451 237.602C90.0525 237.277 90.4546 237.058 90.8941 236.975C91.4174 236.833 91.965 236.806 92.4997 236.895C93.0345 236.983 93.5439 237.186 93.9935 237.488C94.5151 237.821 94.9535 238.191 95.3844 238.447C95.7575 238.683 96.1784 238.833 96.6166 238.885C97.0236 238.915 97.431 238.834 97.7958 238.651V238.651Z" fill="#FAFAFA"/>
<path d="M77.2642 263.036L88.263 261.714L96.0114 266.789L125.644 259.698L126.513 243.175L139.818 242.843L139.508 262.235C139.477 263.719 139.152 265.182 138.552 266.54C137.953 267.897 137.09 269.123 136.015 270.147C134.939 271.17 133.671 271.971 132.285 272.503C130.898 273.034 129.419 273.287 127.935 273.246L84.5287 272.045L82.6842 268.352L73.3711 268.081L77.2642 263.036Z" fill="#FFBE9D"/>
<path d="M125.274 259.698C125.091 259.765 124.904 259.821 124.714 259.864L123.104 260.287L117.155 261.798L97.5007 266.555L95.6789 266.986H95.6033L95.5428 266.94L87.7944 261.85H87.9003L76.9014 263.119H76.9694L74.0666 266.804C73.734 267.205 73.477 267.56 73.3107 267.771C73.225 267.888 73.1288 267.996 73.0234 268.096C73.0936 267.968 73.1745 267.847 73.2653 267.733L74.0213 266.729L76.8485 262.953H76.8938L87.8852 261.579H87.9456H87.9986L95.7545 266.638H95.6184L97.4478 266.2L117.102 261.541L123.082 260.166L124.707 259.811C124.892 259.756 125.082 259.718 125.274 259.698V259.698Z" fill="#EB996E"/>
<path d="M83.2745 266.185C81.8551 266.355 80.4245 266.413 78.9959 266.359H78.24H78.3534C77.4908 267.146 76.5627 267.859 75.5791 268.488C76.3573 267.621 77.2096 266.822 78.1266 266.102L78.1795 266.057H79.0186C80.4384 265.984 81.8617 266.027 83.2745 266.185Z" fill="#EB996E"/>
<path d="M130.732 263.006C130.207 262.09 129.465 261.318 128.571 260.756C127.678 260.194 126.66 259.859 125.606 259.781C125.912 259.673 126.24 259.647 126.559 259.706C127.34 259.785 128.093 260.044 128.759 260.461C129.423 260.877 129.98 261.443 130.384 262.115C130.578 262.375 130.698 262.683 130.732 263.006Z" fill="#EB996E"/>
</g>
<defs>
<clipPath id="clip0_336_13580">
<rect width="510" height="303" fill="white"/>
</clipPath>
</defs>
</svg>
