<svg width="169" height="148" viewBox="0 0 169 148" fill="none" xmlns="http://www.w3.org/2000/svg">
<g clip-path="url(#clip0_123_602)">
<path opacity="0.18" d="M87.933 0.0180523C108.695 -0.486981 127.647 8.00118 138.43 22.0231C160.056 50.2328 164.052 78.4172 149.542 93.2327C142.814 99.8446 134.324 104.411 125.072 106.396C104.433 110.682 95.4603 97.9115 78.4004 101.198C55.8259 105.548 53.4246 131.399 38.2539 132.174C23.777 132.914 7.92687 110.288 5.58731 88.9328C1.53669 51.9643 36.4665 4.98541 82.3312 0.367969C84.2312 0.162348 86.0984 0.0649482 87.933 0.0180523Z" fill="#1FB7FF"/>
<path d="M45.6543 32.2679L45.8287 33.3393L45.8032 33.3429L45.6543 32.2679Z" fill="#ABBAC2"/>
<path d="M45.9552 35.5508C45.9449 36.2926 45.8818 37.0328 45.7663 37.7657L45.6318 37.7441C45.7655 37.0197 45.8469 36.2867 45.8752 35.5508H45.9552Z" fill="#ABBAC2"/>
<path d="M45.2579 39.9337C45.0323 40.6428 44.7555 41.3348 44.4296 42.0043L44.2334 41.9069C44.5663 41.2519 44.8492 40.573 45.0799 39.876L45.2579 39.9337Z" fill="#ABBAC2"/>
<path d="M43.296 43.9307C42.8704 44.545 42.3954 45.1241 41.8756 45.6623L41.6758 45.4711C42.1919 44.9487 42.6657 44.3866 43.0926 43.79L43.296 43.9307Z" fill="#ABBAC2"/>
<path d="M40.1899 47.1448C39.5838 47.5896 38.9395 47.9807 38.2645 48.3136L38.1265 48.0323C38.7863 47.7107 39.416 47.3317 40.0083 46.8995L40.1899 47.1448Z" fill="#ABBAC2"/>
<path d="M36.1757 49.1217C35.4491 49.3227 34.7065 49.4614 33.956 49.5365L33.9233 49.2047C34.66 49.1347 35.3893 49.0019 36.103 48.8079L36.1757 49.1217Z" fill="#ABBAC2"/>
<path d="M31.6926 49.6123C30.9414 49.5866 30.1926 49.5119 29.4512 49.3887L29.5093 49.028C30.2302 49.1498 30.9583 49.2257 31.689 49.2552L31.6926 49.6123Z" fill="#ABBAC2"/>
<path d="M27.2573 48.88C26.5358 48.6609 25.8345 48.3809 25.1611 48.0431L25.3173 47.7365C25.9755 48.0593 26.6597 48.3272 27.3626 48.5373L27.2573 48.88Z" fill="#ABBAC2"/>
<path d="M23.2938 46.7444C23.0151 46.4689 22.7897 46.1449 22.629 45.7884C22.4766 45.4159 22.4338 45.0081 22.5055 44.6124L22.8288 44.6593C22.7684 44.9971 22.8062 45.345 22.9378 45.6622C23.0811 45.9803 23.2846 46.2681 23.5372 46.5099L23.2938 46.7444Z" fill="#ABBAC2"/>
<path d="M23.6025 42.596C23.7825 42.4641 24.0044 42.4013 24.2274 42.4193C24.4417 42.4418 24.6454 42.5229 24.8159 42.6537C25.1493 42.8896 25.4027 43.2204 25.5425 43.6025L25.2555 43.7071C25.136 43.3872 24.9252 43.1089 24.6488 42.9063C24.5153 42.8045 24.3551 42.7432 24.1874 42.7295C24.0361 42.7191 23.8863 42.764 23.766 42.8558L23.6025 42.596Z" fill="#ABBAC2"/>
<path d="M25.0374 45.821C24.6047 46.4452 24.0619 46.9865 23.4354 47.4191L23.29 47.2171C23.8864 46.7994 24.4 46.2759 24.8049 45.6731L25.0374 45.821Z" fill="#ABBAC2"/>
<path d="M21.3318 48.2487C20.5746 48.3184 19.8111 48.23 19.0903 47.989L19.1448 47.8123C19.8413 48.0376 20.5783 48.1126 21.3064 48.0323L21.3318 48.2487Z" fill="#ABBAC2"/>
<path d="M17.0745 47.0042C16.4506 46.5952 15.8657 46.1303 15.3271 45.6153L15.3853 45.5576C15.9306 46.0547 16.5203 46.5014 17.1472 46.8923L17.0745 47.0042Z" fill="#ABBAC2"/>
<path d="M13.8337 43.9741L13.187 43.1011L13.8555 43.956L13.8337 43.9741Z" fill="#ABBAC2"/>
<path d="M134.317 10.4253L135.335 10.8221L135.324 10.8474L134.317 10.4253Z" fill="#ABBAC2"/>
<path d="M137.314 11.843C137.95 12.2299 138.557 12.6615 139.131 13.1345L139.044 13.2355C138.484 12.7526 137.89 12.3102 137.267 11.9116L137.314 11.843Z" fill="#ABBAC2"/>
<path d="M140.754 14.6748C141.254 15.2283 141.712 15.8179 142.124 16.4388L141.942 16.5542C141.543 15.9378 141.1 15.3507 140.616 14.7975L140.754 14.6748Z" fill="#ABBAC2"/>
<path d="M143.214 18.3905C143.529 19.0673 143.789 19.7682 143.991 20.4864L143.723 20.5585C143.536 19.8516 143.293 19.1605 142.996 18.4915L143.214 18.3905Z" fill="#ABBAC2"/>
<path d="M144.435 22.6832C144.511 23.4264 144.521 24.1749 144.464 24.9198L144.148 24.8982C144.205 24.1703 144.199 23.4389 144.129 22.7121L144.435 22.6832Z" fill="#ABBAC2"/>
<path d="M144.071 27.1312C143.874 27.8534 143.616 28.5581 143.301 29.2379L142.992 29.0972C143.303 28.4363 143.558 27.751 143.755 27.0482L144.071 27.1312Z" fill="#ABBAC2"/>
<path d="M142.215 31.1857C141.808 31.8147 141.362 32.4171 140.878 32.9894L140.605 32.7622C141.081 32.2041 141.521 31.6174 141.924 31.0054L142.215 31.1857Z" fill="#ABBAC2"/>
<path d="M139.316 34.6093C138.758 35.114 138.159 35.5713 137.525 35.9765L137.336 35.6843C137.952 35.2868 138.534 34.8392 139.076 34.3459L139.316 34.6093Z" fill="#ABBAC2"/>
<path d="M135.447 36.9071C135.065 37.0042 134.669 37.0311 134.277 36.9865C133.874 36.9272 133.497 36.7558 133.188 36.4923L133.391 36.2397C133.652 36.4634 133.972 36.6086 134.314 36.6582C134.661 36.7036 135.013 36.6828 135.353 36.5969L135.447 36.9071Z" fill="#ABBAC2"/>
<path d="M132.01 34.5263C131.989 34.3051 132.048 34.0835 132.177 33.9022C132.306 33.7312 132.479 33.5989 132.679 33.5199C133.053 33.3617 133.467 33.3178 133.867 33.3936L133.809 33.693C133.471 33.6323 133.123 33.6699 132.806 33.8012C132.662 33.8625 132.537 33.9594 132.443 34.0826C132.359 34.208 132.321 34.3585 132.337 34.5083L132.01 34.5263Z" fill="#ABBAC2"/>
<path d="M135.534 34.9447C135.854 35.6322 136.045 36.3717 136.097 37.1272L135.847 37.1488C135.789 36.4266 135.598 35.7211 135.284 35.0674L135.534 34.9447Z" fill="#ABBAC2"/>
<path d="M135.748 39.3494C135.423 40.0325 134.957 40.6397 134.379 41.1315L134.255 40.9944C134.803 40.5131 135.244 39.9233 135.549 39.2628L135.748 39.3494Z" fill="#ABBAC2"/>
<path d="M132.497 42.3687C131.826 42.6931 131.125 42.9551 130.405 43.1515L130.379 43.0757C131.089 42.8631 131.777 42.5865 132.436 42.2496L132.497 42.3687Z" fill="#ABBAC2"/>
<path d="M128.218 43.5735L127.131 43.6782L128.214 43.5447L128.218 43.5735Z" fill="#ABBAC2"/>
<path d="M41.6945 19.3752C41.6945 19.3752 34.7448 45.0273 35.4496 46.2286C36.1544 47.4298 53.1924 53.5227 58.6998 49.147C58.6998 49.147 58.2821 45.1392 58.8488 41.9322C59.4155 38.7252 63.1246 23.1522 63.1246 23.1522L41.6945 19.3752Z" fill="white"/>
<path d="M55.0015 49.6916C55.5515 49.2466 56.0642 48.758 56.5345 48.2306C56.7683 47.9717 56.9866 47.6995 57.1884 47.4154C57.3991 47.134 57.5772 46.831 57.7842 46.528C57.7179 46.8897 57.5954 47.239 57.4209 47.5633C57.2535 47.8909 57.0434 48.1954 56.7961 48.4687C56.5526 48.7424 56.2755 48.9848 55.9714 49.1902C55.6782 49.4094 55.3504 49.5788 55.0015 49.6916Z" fill="#ABBAC2"/>
<path d="M43.5869 23.7438L45.5051 24.1262L47.4196 24.5266L51.2486 25.3202C52.5201 25.5871 53.7916 25.8288 55.0776 26.0669C56.3636 26.305 57.6424 26.5179 58.943 26.6297C58.6196 26.6297 58.289 26.6297 57.9621 26.6297L56.9849 26.5756C56.3346 26.5106 55.6807 26.4385 55.034 26.3483C53.7407 26.1751 52.4547 25.9407 51.1723 25.6809C49.8899 25.4212 48.6293 25.1326 47.3578 24.8043C46.0863 24.4761 44.833 24.137 43.5869 23.7438Z" fill="#ABBAC2"/>
<path d="M43.1362 26.7343L45.0544 27.1202L46.9689 27.5207L50.7943 28.2999C52.0694 28.5668 53.3373 28.8121 54.6269 29.0502C55.9166 29.2883 57.1917 29.4975 58.4923 29.6093C58.1653 29.6093 57.8384 29.6093 57.5114 29.6093L56.5305 29.5516C55.8803 29.4867 55.23 29.4181 54.5833 29.328C53.2864 29.1512 52.0004 28.9167 50.7216 28.657C49.4428 28.3973 48.1786 28.1087 46.9035 27.7804C45.6284 27.4521 44.3787 27.1275 43.1362 26.7343Z" fill="#ABBAC2"/>
<path d="M42.6826 29.7429L44.6008 30.1289L46.5153 30.5293L50.3407 31.323C51.6158 31.5899 52.8836 31.8316 54.1733 32.0697C55.463 32.3078 56.7381 32.5206 58.0387 32.6324C57.7117 32.6324 57.3847 32.6324 57.0578 32.6324L56.0806 32.5747C55.4266 32.5098 54.7764 32.4412 54.1297 32.3511C52.8364 32.1779 51.5468 31.9434 50.268 31.6837C48.9892 31.424 47.725 31.1318 46.4535 30.8071C45.182 30.4824 43.9287 30.1217 42.6826 29.7429Z" fill="#ABBAC2"/>
<path d="M42.2285 32.719L44.1503 33.105L46.0648 33.5054L49.8902 34.2954C51.1653 34.5624 52.4332 34.8041 53.7228 35.0458C55.0125 35.2874 56.2876 35.4931 57.5882 35.6049C57.2612 35.6049 56.9343 35.6049 56.6073 35.6049L55.6265 35.5508C54.9762 35.4859 54.3259 35.4173 53.6792 35.3235C52.3823 35.1504 51.0963 34.9159 49.8175 34.6562C48.5388 34.3964 47.2745 34.1078 45.9994 33.7796C44.7243 33.4513 43.4746 33.1122 42.2285 32.719Z" fill="#ABBAC2"/>
<path d="M41.7778 35.7095L43.696 36.0955L45.6105 36.4959L49.4359 37.2859C50.711 37.5565 51.9789 37.7982 53.2685 38.0362C54.5582 38.2743 55.8333 38.4836 57.1339 38.5954C56.8069 38.5954 56.48 38.5954 56.153 38.5954L55.1721 38.5377C54.5219 38.4727 53.8716 38.4042 53.2249 38.314C51.928 38.1372 50.642 37.9028 49.3632 37.643C48.0845 37.3833 46.8202 37.0947 45.5487 36.77C44.2772 36.4454 43.0239 36.1063 41.7778 35.7095Z" fill="#ABBAC2"/>
<path d="M41.3237 38.7035L43.2455 39.0859L45.1564 39.4863L48.9854 40.2799C50.2605 40.5469 51.5284 40.7886 52.8181 41.0266C54.1077 41.2647 55.3792 41.4776 56.6834 41.5894C56.3564 41.5894 56.0295 41.5894 55.7025 41.5894L54.7217 41.5353C54.0714 41.4703 53.4211 41.3982 52.7745 41.308C51.4775 41.1349 50.1915 40.9004 48.9127 40.6407C47.634 40.3809 46.3698 40.0923 45.0946 39.7641C43.8195 39.4358 42.5698 39.0967 41.3237 38.7035Z" fill="#ABBAC2"/>
<path d="M40.8735 41.6941L42.7917 42.0801L44.7062 42.4805L48.5279 43.2705C49.8031 43.5375 51.0709 43.7828 52.3606 44.0208C53.6503 44.2589 54.9254 44.4682 56.2259 44.58C55.899 44.58 55.572 44.58 55.2451 44.58L54.2642 44.5223C53.6139 44.4573 52.9636 44.3888 52.317 44.2986C51.0201 44.1219 49.7341 43.8874 48.4553 43.6276C47.1765 43.3679 45.9123 43.0793 44.6408 42.7511C43.3693 42.4228 42.1196 42.0873 40.8735 41.6941Z" fill="#ABBAC2"/>
<path d="M137.031 81.8082C137.031 81.8082 143.85 75.6395 142.931 72.5624C142.012 69.4853 143.585 66.0691 141.478 62.3644C139.371 58.6596 138.401 59.2801 133.427 58.3962C128.454 57.5124 127.684 54.8105 123.277 58.1762C118.958 61.477 119.891 63.5368 125.351 64.0238C128.621 64.3124 132.643 63.3744 133.017 69.2725C133.336 73.7079 134.712 78.0044 137.031 81.8082Z" fill="#25CD74"/>
<path d="M139.872 95.1374C138.219 93.9325 140.297 89.2321 143.476 86.9775C145.655 85.4227 147.523 87.1687 150.68 85.1738C152.91 83.7705 152.976 82.2879 154.628 82.1147C156.583 81.9272 157.088 83.9509 160.049 84.9105C162.9 85.8376 163.798 84.4054 165.498 85.3506C168.651 87.0893 170.166 94.4087 167.885 96.3278C166.49 97.5002 163.918 93.1677 160.463 94.1453C158.737 94.6287 158.646 95.8625 156.946 96.0825C154.578 96.3927 153.677 94.1237 151.294 93.4383C146.734 92.118 141.714 96.4793 139.872 95.1374Z" fill="#25CD74"/>
<path d="M124.113 126.569C125.409 122.204 126.896 117.901 128.574 113.661C129.399 111.537 130.307 109.448 131.255 107.374C132.203 105.299 133.231 103.261 134.357 101.274C135.463 99.2668 136.781 97.3827 138.288 95.6533L139.465 94.4015C139.865 93.9939 140.301 93.6187 140.719 93.2255C140.936 93.0343 141.136 92.8287 141.362 92.6519L142.037 92.118C142.48 91.7531 142.942 91.4123 143.421 91.0971C145.305 89.7808 147.367 88.7363 149.546 87.9948C151.715 87.2286 154.006 86.8619 156.307 86.9126C154.016 86.9183 151.745 87.3363 149.604 88.1463C147.458 88.9148 145.43 89.9785 143.581 91.3064C143.105 91.6166 142.669 91.9846 142.226 92.3381L141.561 92.872C141.34 93.0487 141.144 93.2544 140.929 93.4419C140.519 93.8315 140.09 94.2067 139.694 94.6107L138.535 95.8589C137.053 97.5781 135.758 99.4488 134.673 101.44C133.542 103.409 132.503 105.428 131.556 107.496C130.594 109.556 129.693 111.645 128.832 113.748C127.971 115.851 127.143 117.972 126.365 120.111C125.588 122.25 124.818 124.404 124.113 126.569Z" fill="#40635B"/>
<path d="M128.578 109.827C129.628 106.068 130.728 102.32 131.847 98.5753L135.211 87.3527C136.345 83.6155 137.474 79.8783 138.506 76.1158C139.043 74.2422 139.48 72.3421 139.818 70.4233C139.992 69.4717 140.055 68.5034 140.007 67.5374C139.966 67.0543 139.852 66.58 139.669 66.1305C139.476 65.6815 139.2 65.2727 138.855 64.9257C139.214 65.2635 139.508 65.6647 139.72 66.1089C139.913 66.5604 140.035 67.0384 140.083 67.5266C140.162 68.5049 140.127 69.4891 139.977 70.4594C139.673 72.3926 139.266 74.3084 138.757 76.1987C137.78 79.9829 136.646 83.7201 135.538 87.4646L132.101 98.6438C130.939 102.363 129.773 106.089 128.578 109.827Z" fill="#40635B"/>
<path d="M130.056 112.947C130.056 112.947 130.361 105.303 132.872 104.315C135.382 103.326 136.806 100.545 140.366 100.007C143.926 99.47 143.999 100.426 147.149 103.207C150.298 105.988 152.478 105.101 152.525 109.7C152.573 114.221 150.731 114.671 147.592 111.363C145.714 109.383 144.261 106.277 140.166 109.076C137.149 111.137 133.685 112.463 130.056 112.947Z" fill="#25CD74"/>
<path d="M125.101 126.807C125.585 124.642 126.18 122.513 126.885 120.418C127.586 118.315 128.413 116.257 129.362 114.253C130.315 112.246 131.463 110.337 132.792 108.553C133.115 108.102 133.493 107.691 133.856 107.269C134.223 106.851 134.611 106.451 135.019 106.071L135.32 105.783L135.647 105.519L136.298 104.996C136.737 104.657 137.224 104.383 137.685 104.08L137.013 104.571C136.785 104.725 136.565 104.893 136.356 105.072L135.738 105.624L135.429 105.898C135.331 105.996 135.237 106.097 135.142 106.198C134.779 106.602 134.365 106.977 134.031 107.417C133.696 107.857 133.322 108.261 133.017 108.719C131.734 110.511 130.62 112.417 129.689 114.412C128.733 116.397 127.884 118.432 127.146 120.508L126.594 122.07L126.078 123.643L125.577 125.219L125.101 126.807Z" fill="#40635B"/>
<path d="M89.4009 20.6956H77.8013V30.7349H89.4009V20.6956Z" fill="#1FB7FF"/>
<path d="M91.3337 26.3988H75.8687V16.0348C80.9248 14.6171 86.2775 14.6171 91.3337 16.0348V26.3988Z" fill="#4C649E"/>
<path d="M76.8423 16.6769C77.3874 16.8271 77.9404 16.9476 78.4989 17.0376C79.0547 17.1314 79.6105 17.2108 80.1736 17.2577C81.2917 17.3622 82.4146 17.4092 83.5376 17.3984C84.1007 17.3767 84.6602 17.3767 85.2233 17.3262L86.0624 17.2685C86.341 17.2348 86.6207 17.206 86.9016 17.1819C88.0242 17.0665 89.1358 16.8717 90.2547 16.6877C89.7098 16.8464 89.1649 16.9979 88.6127 17.135C88.0605 17.2721 87.5228 17.3803 86.9416 17.4561C85.8179 17.6363 84.6829 17.7376 83.5449 17.7591C82.4048 17.772 81.2654 17.696 80.1373 17.5318C79.0082 17.3802 77.9018 17.0931 76.8423 16.6769Z" fill="#1FB7FF"/>
<path d="M76.8639 18.5347C76.9511 19.689 76.9657 20.8362 77.0056 21.9833C77.0056 22.5569 77.0456 23.1269 77.0747 23.7004C77.0948 24.2739 77.1457 24.8459 77.2272 25.4139C77.0011 24.8764 76.8496 24.3109 76.7768 23.7329C76.6915 23.158 76.6406 22.5786 76.6242 21.9978C76.5892 20.8384 76.6695 19.6784 76.8639 18.5347Z" fill="#1FB7FF"/>
<path d="M78.9311 18.9208C79.0655 20.003 79.0982 21.0852 79.1309 22.1674L79.1564 23.7871V24.5988C79.1526 24.8683 79.1819 25.1372 79.2436 25.3996C79.0198 24.8954 78.8894 24.3553 78.8585 23.8052C78.7967 23.2641 78.7677 22.723 78.7531 22.1746C78.7256 21.087 78.7851 19.999 78.9311 18.9208Z" fill="#1FB7FF"/>
<path d="M81.2851 19.2815C81.3795 20.2519 81.4013 21.2114 81.4413 22.1674C81.4413 22.6472 81.4812 23.127 81.5103 23.6104C81.5322 24.0935 81.5795 24.5751 81.652 25.0533C81.4423 24.6086 81.2992 24.1358 81.2269 23.65C81.1451 23.1729 81.0953 22.6908 81.078 22.2071C81.0345 21.2272 81.104 20.2457 81.2851 19.2815Z" fill="#1FB7FF"/>
<path d="M90.0694 18.5347C90.2582 19.6777 90.3312 20.8367 90.2874 21.9941C90.274 22.575 90.2243 23.1545 90.1385 23.7293C90.066 24.3085 89.9144 24.8753 89.688 25.4139C89.776 24.8475 89.8318 24.2767 89.8551 23.704C89.8878 23.1305 89.9132 22.5605 89.9278 21.9869C89.9677 20.8362 89.9823 19.689 90.0694 18.5347Z" fill="#1FB7FF"/>
<path d="M87.9844 18.9208C88.1264 19.9969 88.1823 21.0825 88.1516 22.1674C88.1516 22.7121 88.108 23.2496 88.0462 23.798C88.0131 24.3478 87.8828 24.8875 87.6611 25.3924C87.7234 25.1301 87.7515 24.861 87.7447 24.5916L87.7629 23.7799L87.7883 22.1602C87.821 21.0852 87.8537 20.003 87.9844 18.9208Z" fill="#1FB7FF"/>
<path d="M85.6337 19.2815C85.8106 20.2328 85.8788 21.2009 85.8372 22.1674C85.8228 22.6512 85.7742 23.1333 85.6918 23.6104C85.6185 24.0963 85.4741 24.5691 85.2632 25.0136C85.3368 24.5355 85.3853 24.0538 85.4085 23.5707C85.4376 23.0945 85.463 22.6147 85.4739 22.1277C85.5175 21.2259 85.5393 20.2663 85.6337 19.2815Z" fill="#1FB7FF"/>
<path d="M83.4939 19.2815C83.6299 20.2373 83.6919 21.2021 83.6792 22.1674C83.6792 22.6508 83.6574 23.1306 83.6174 23.6104C83.5911 24.0981 83.5132 24.5817 83.3849 25.0533C83.3849 24.5699 83.3414 24.0901 83.3341 23.6104C83.3268 23.1306 83.3159 22.6544 83.3159 22.1674C83.3154 21.2027 83.3749 20.2389 83.4939 19.2815Z" fill="#1FB7FF"/>
<path opacity="0.11" d="M85.8192 134.27C110.857 134.27 131.153 133.862 131.153 133.358C131.153 132.854 110.857 132.445 85.8192 132.445C60.7817 132.445 40.4849 132.854 40.4849 133.358C40.4849 133.862 60.7817 134.27 85.8192 134.27Z" fill="#344C82"/>
<path d="M84.5003 127.33C110.226 127.33 131.081 106.621 131.081 81.0759C131.081 55.5306 110.226 34.822 84.5003 34.822C58.7747 34.822 37.9199 55.5306 37.9199 81.0759C37.9199 106.621 58.7747 127.33 84.5003 127.33Z" fill="#F3F8FA"/>
<path d="M94.7815 78.9006C104.49 78.9006 112.361 71.0852 112.361 61.4445C112.361 51.8038 104.49 43.9884 94.7815 43.9884C85.0727 43.9884 77.2021 51.8038 77.2021 61.4445C77.2021 71.0852 85.0727 78.9006 94.7815 78.9006Z" fill="white"/>
<path d="M43.2238 109.105C43.2238 109.105 34.9845 132.672 37.4875 133.347C39.9905 134.021 57.8605 119.101 57.8605 119.101L43.2238 109.105Z" fill="#4C649E"/>
<path d="M125.475 109.105C125.475 109.105 133.711 132.672 131.208 133.347C128.705 134.021 110.835 119.101 110.835 119.101L125.475 109.105Z" fill="#4C649E"/>
<path d="M84.4929 29.2666C74.174 29.268 64.0872 32.3078 55.508 38.0015C46.9289 43.6953 40.2426 51.7873 36.2947 61.2543C32.3468 70.7213 31.3146 81.1382 33.3286 91.1877C35.3426 101.237 40.3124 110.468 47.6095 117.713C54.9066 124.958 64.2033 129.892 74.324 131.89C84.4447 133.888 94.935 132.862 104.468 128.941C114.002 125.019 122.15 118.379 127.883 109.859C133.615 101.339 136.675 91.3224 136.675 81.0758C136.675 74.2715 135.325 67.5339 132.703 61.2476C130.08 54.9614 126.236 49.2496 121.391 44.4386C116.545 39.6276 110.793 35.8115 104.462 33.2083C98.1306 30.605 91.3452 29.2657 84.4929 29.2666ZM84.4929 127.33C75.2803 127.329 66.2748 124.616 58.6152 119.533C50.9556 114.45 44.9858 107.226 41.4608 98.7739C37.9358 90.322 37.0139 81.022 38.8116 72.0499C40.6094 63.0778 45.046 54.8365 51.5605 48.3681C58.075 41.8998 66.3749 37.4949 75.4105 35.7105C84.4461 33.926 93.8117 34.8422 102.323 38.3432C110.834 41.8441 118.109 47.7726 123.227 55.3789C128.345 62.9852 131.077 71.9278 131.077 81.0758C131.077 87.1502 129.872 93.1652 127.531 98.7772C125.19 104.389 121.758 109.488 117.433 113.783C113.107 118.079 107.971 121.486 102.32 123.81C96.6677 126.134 90.6102 127.33 84.4929 127.33Z" fill="#4C649E"/>
<g style="mix-blend-mode:multiply" opacity="0.23">
<path d="M82.6836 83.2547H85.7751L84.2312 56.0082L82.6836 83.2547Z" fill="#1FB7FF"/>
</g>
<path d="M82.2261 82.6306H85.3176L83.7737 55.384L82.2261 82.6306Z" fill="#1FB7FF"/>
<g style="mix-blend-mode:multiply" opacity="0.23">
<path d="M82.7783 82.4683L85.1179 84.4776L107.7 56.1777L82.7783 82.4683Z" fill="#1FB7FF"/>
</g>
<path d="M82.3203 81.8442L84.6599 83.8499L107.242 55.55L82.3203 81.8442Z" fill="#1FB7FF"/>
<g style="mix-blend-mode:multiply" opacity="0.23">
<path d="M83.7736 85.6464C85.9083 85.6464 87.6389 83.9279 87.6389 81.8081C87.6389 79.6883 85.9083 77.9698 83.7736 77.9698C81.6388 77.9698 79.9082 79.6883 79.9082 81.8081C79.9082 83.9279 81.6388 85.6464 83.7736 85.6464Z" fill="#1FB7FF"/>
</g>
<g style="mix-blend-mode:multiply" opacity="0.23">
<path d="M83.7736 87.1039C85.9083 87.1039 87.6389 85.3854 87.6389 83.2656C87.6389 81.1458 85.9083 79.4274 83.7736 79.4274C81.6388 79.4274 79.9082 81.1458 79.9082 83.2656C79.9082 85.3854 81.6388 87.1039 83.7736 87.1039Z" fill="#1FB7FF"/>
</g>
<path d="M83.7736 86.469C85.9083 86.469 87.6389 84.7505 87.6389 82.6307C87.6389 80.5109 85.9083 78.7925 83.7736 78.7925C81.6388 78.7925 79.9082 80.5109 79.9082 82.6307C79.9082 84.7505 81.6388 86.469 83.7736 86.469Z" fill="#1FB7FF"/>
<g style="mix-blend-mode:multiply" opacity="0.23">
<path d="M82.0481 83.7959C82.1927 84.2428 82.5025 84.6186 82.9151 84.8476C83.3277 85.0766 83.8124 85.1416 84.2714 85.0297C85.4267 84.705 85.9607 83.0456 85.2523 82.1077C84.9985 81.7998 84.6505 81.5825 84.261 81.4887C83.8716 81.395 83.462 81.4299 83.0944 81.5882C82.68 81.7676 82.3454 82.0904 82.153 82.4966C81.9605 82.9028 81.9232 83.3645 82.0481 83.7959Z" fill="#1FB7FF"/>
</g>
<path d="M84.493 37.2281C84.6988 37.5702 84.8438 37.9448 84.9217 38.3356C84.9999 38.6984 85.0388 39.0685 85.0379 39.4395C85.0406 39.8106 85.0016 40.1808 84.9217 40.5433C84.8428 40.9327 84.6978 41.306 84.493 41.6472C84.2908 41.3034 84.1461 40.9294 84.0643 40.5397C83.9069 39.8121 83.9069 39.0596 84.0643 38.332C84.144 37.9428 84.2889 37.5697 84.493 37.2281Z" fill="#1FB7FF"/>
<path d="M62.42 43.0902C62.7688 43.2843 63.082 43.5355 63.3464 43.8333C63.5962 44.1094 63.8165 44.4104 64.0039 44.7316C64.1938 45.0529 64.3473 45.394 64.4616 45.7489C64.5889 46.1254 64.6515 46.5205 64.6469 46.9176C64.2985 46.7215 63.9844 46.4705 63.7169 46.1745C63.4662 45.8987 63.2469 45.5963 63.063 45.2727C62.8747 44.9519 62.7212 44.6121 62.6053 44.259C62.48 43.882 62.4175 43.4872 62.42 43.0902Z" fill="#1FB7FF"/>
<path d="M46.2573 59.1539C46.6577 59.1442 47.0568 59.2016 47.438 59.3234C48.1524 59.5518 48.8099 59.928 49.367 60.4273C49.6669 60.6898 49.92 61.0008 50.1154 61.3472C49.7155 61.3515 49.3176 61.2893 48.9384 61.1632C48.5829 61.0493 48.2407 60.8981 47.9175 60.7123C47.5921 60.528 47.2886 60.3077 47.013 60.0557C46.7138 59.7975 46.4586 59.493 46.2573 59.1539Z" fill="#1FB7FF"/>
<path d="M40.3433 81.0759C40.6882 80.8752 41.0636 80.7314 41.4549 80.6502C42.1891 80.4963 42.9476 80.4963 43.6818 80.6502C44.0741 80.7282 44.4501 80.8722 44.7935 81.0759C44.4493 81.2781 44.0736 81.4219 43.6818 81.5015C42.9479 81.6579 42.1889 81.6579 41.4549 81.5015C41.0631 81.4221 40.6873 81.2783 40.3433 81.0759Z" fill="#1FB7FF"/>
<path d="M46.2573 102.998C46.4552 102.652 46.7093 102.341 47.0093 102.078C47.286 101.828 47.5893 101.609 47.9139 101.425C48.2371 101.239 48.5793 101.088 48.9347 100.974C49.3138 100.847 49.7116 100.783 50.1118 100.787C49.9173 101.135 49.6642 101.447 49.3634 101.71C48.8062 102.209 48.1487 102.586 47.4344 102.814C47.0552 102.94 46.6573 103.003 46.2573 102.998Z" fill="#1FB7FF"/>
<path d="M62.42 119.047C62.4175 118.65 62.48 118.255 62.6053 117.878C62.7212 117.525 62.8747 117.186 63.063 116.865C63.2469 116.541 63.4662 116.239 63.7169 115.963C63.9835 115.666 64.2978 115.415 64.6469 115.22C64.6515 115.617 64.5889 116.012 64.4616 116.389C64.3479 116.742 64.1944 117.082 64.0039 117.402C63.8175 117.725 63.5971 118.027 63.3464 118.304C63.0808 118.601 62.7678 118.852 62.42 119.047Z" fill="#1FB7FF"/>
<path d="M84.4927 124.924C84.2901 124.58 84.1464 124.206 84.0676 123.816C83.9901 123.453 83.9499 123.083 83.9478 122.712C83.9489 122.34 83.9878 121.969 84.064 121.605C84.1458 121.216 84.2906 120.843 84.4927 120.501C84.6978 120.842 84.8428 121.215 84.9214 121.605C85.0011 121.968 85.0401 122.34 85.0376 122.712C85.0385 123.083 84.9995 123.453 84.9214 123.816C84.8429 124.207 84.6979 124.581 84.4927 124.924Z" fill="#1FB7FF"/>
<path d="M106.577 119.047C106.229 118.852 105.916 118.601 105.651 118.304C105.4 118.027 105.18 117.725 104.993 117.402C104.803 117.082 104.649 116.742 104.536 116.389C104.408 116.012 104.346 115.617 104.35 115.22C104.699 115.414 105.012 115.665 105.277 115.963C105.778 116.518 106.156 117.17 106.388 117.878C106.517 118.255 106.58 118.65 106.577 119.047Z" fill="#1FB7FF"/>
<path d="M122.739 102.998C122.339 103.003 121.942 102.94 121.562 102.814C120.848 102.586 120.191 102.209 119.633 101.71C119.332 101.446 119.078 101.134 118.881 100.787C119.283 100.783 119.682 100.847 120.062 100.974C120.775 101.204 121.431 101.58 121.987 102.078C122.287 102.341 122.542 102.652 122.739 102.998Z" fill="#1FB7FF"/>
<path d="M128.654 81.0758C128.31 81.277 127.934 81.4196 127.542 81.4979C126.808 81.6542 126.049 81.6542 125.315 81.4979C124.923 81.4183 124.548 81.2745 124.204 81.0722C124.547 80.8685 124.923 80.7246 125.315 80.6466C126.049 80.4927 126.808 80.4927 127.542 80.6466C127.934 80.7289 128.309 80.8739 128.654 81.0758Z" fill="#1FB7FF"/>
<path d="M122.739 59.1538C122.541 59.4977 122.287 59.8072 121.987 60.07C121.711 60.3213 121.408 60.5415 121.083 60.7266C120.76 60.9124 120.417 61.0636 120.062 61.1775C119.682 61.3038 119.282 61.366 118.881 61.3615C119.079 61.0158 119.333 60.705 119.633 60.4416C120.185 59.9389 120.837 59.5578 121.548 59.3233C121.933 59.2002 122.335 59.1429 122.739 59.1538Z" fill="#1FB7FF"/>
<path d="M106.577 43.0902C106.58 43.4875 106.517 43.8826 106.388 44.259C106.156 44.9674 105.778 45.6198 105.277 46.1745C105.011 46.4711 104.698 46.7222 104.35 46.9176C104.346 46.5205 104.408 46.1254 104.536 45.7489C104.65 45.394 104.803 45.0529 104.993 44.7316C105.181 44.4104 105.401 44.1094 105.651 43.8333C105.915 43.5355 106.228 43.2843 106.577 43.0902Z" fill="#1FB7FF"/>
<g style="mix-blend-mode:multiply" opacity="0.23">
<path d="M84.4929 37.2246C96.6298 37.223 108.288 41.9258 116.985 50.3318C125.683 58.7377 130.732 70.1828 131.059 82.2302C131.059 81.8443 131.077 81.4619 131.077 81.0759C131.131 74.9676 129.967 68.9091 127.65 63.2503C125.334 57.5914 121.911 52.4442 117.581 48.1058C113.25 43.7674 108.097 40.3237 102.419 37.9736C96.7407 35.6235 90.65 34.4136 84.4983 34.4136C78.3467 34.4136 72.256 35.6235 66.5778 37.9736C60.8997 40.3237 55.7465 43.7674 51.4159 48.1058C47.0853 52.4442 43.663 57.5914 41.3466 63.2503C39.0301 68.9091 37.8655 74.9676 37.9198 81.0759C37.9198 81.4619 37.9198 81.8443 37.9198 82.2302C38.2473 70.1818 43.2981 58.7362 51.9968 50.3303C60.6955 41.9243 72.355 37.2221 84.4929 37.2246Z" fill="#1FB7FF"/>
</g>
<path d="M82.0481 83.179C82.1927 83.6259 82.5025 84.0017 82.9151 84.2306C83.3277 84.4596 83.8124 84.5247 84.2714 84.4127C85.4267 84.088 85.9607 82.4286 85.2523 81.4907C84.9985 81.1828 84.6505 80.9655 84.261 80.8718C83.8716 80.7781 83.462 80.813 83.0944 80.9713C82.68 81.1507 82.3454 81.4735 82.153 81.8796C81.9605 82.2858 81.9232 82.7476 82.0481 83.179Z" fill="#4C649E"/>
<path d="M94.7812 31.6583C98.2349 32.2728 101.602 33.2949 104.812 34.703C108.033 36.094 111.099 37.8169 113.959 39.8435C115.375 40.8732 116.738 41.9737 118.042 43.1406C119.336 44.3196 120.561 45.571 121.712 46.8887C123.993 49.5316 125.945 52.4385 127.524 55.5464C126.674 54.0296 125.743 52.5582 124.738 51.1382C123.742 49.7158 122.663 48.3534 121.504 47.0582C120.335 45.774 119.114 44.5331 117.824 43.3751C116.522 42.2247 115.162 41.141 113.748 40.1285C110.915 38.1072 107.885 36.3742 104.703 34.9555C103.113 34.2365 101.487 33.6008 99.8309 33.0508C98.1794 32.4798 96.4927 32.0147 94.7812 31.6583Z" fill="#1FB7FF"/>
<path d="M83.7048 129.469C80.1966 129.487 76.6987 129.089 73.2858 128.282C69.8641 127.496 66.5351 126.354 63.3536 124.877C61.7715 124.115 60.2303 123.272 58.7362 122.352C57.2478 121.428 55.8152 120.419 54.4458 119.329C51.7166 117.138 49.2658 114.625 47.1475 111.847C48.2656 113.192 49.454 114.478 50.7077 115.699C51.9483 116.918 53.2596 118.063 54.6348 119.13C56.0189 120.183 57.4466 121.179 58.9288 122.092C60.4176 122.991 61.9528 123.812 63.528 124.552C66.6833 126.031 69.9803 127.191 73.3694 128.015C75.0635 128.434 76.778 128.766 78.5062 129.011C80.2275 129.273 81.9639 129.426 83.7048 129.469Z" fill="#1FB7FF"/>
<path d="M100.07 64.5361C100.205 64.666 100.252 64.6479 100.339 64.7778C100.623 65.1926 101.542 65.5209 102.065 65.7157C102.966 66.4372 104.408 67.8801 104.731 66.4624C105.015 65.2179 105.251 64.5938 105.026 63.8615C105.026 63.7894 104.477 63.4503 104.43 63.3709C104.025 62.5686 103.571 61.7916 103.071 61.0441C102.326 60.0052 101.349 60.5896 101.505 60.8962C101.556 60.9936 103.296 61.7404 102.959 61.5348C102.773 61.1902 102.492 60.906 102.148 60.7159C101.258 60.0593 100.281 60.77 101.037 61.2462C101.297 61.3027 101.56 61.3449 101.825 61.3724C101.858 61.377 101.888 61.3937 101.909 61.4193C101.927 61.4446 101.545 61.1812 101.338 61.0586C100.401 60.4742 99.7689 61.376 100.034 61.7295C100.132 61.8594 100.833 61.6538 100.95 61.7656C101.066 61.8775 100.205 61.2498 99.936 61.4446C99.253 61.9388 99.4674 63.2194 99.6599 63.5368L100.357 62.8911C100.325 62.8406 100.626 63.324 100.743 63.5729C100.862 63.9156 100.844 63.8759 100.692 63.7533" fill="#EDBDA3"/>
<path d="M100.071 61.4049C100.226 61.3654 100.388 61.3654 100.543 61.4049C100.701 61.4495 100.845 61.5312 100.964 61.643C101.077 61.755 101.169 61.8856 101.237 62.029C101.311 62.1627 101.375 62.3013 101.429 62.4438C101.317 62.3396 101.214 62.2262 101.121 62.1047C101.035 61.9883 100.941 61.8774 100.841 61.7729C100.622 61.5843 100.356 61.4572 100.071 61.4049Z" fill="#CC8972"/>
<path d="M100.812 60.8638C100.963 60.8806 101.114 60.9083 101.262 60.9467C101.418 60.9765 101.57 61.0275 101.712 61.0982C101.838 61.1986 101.944 61.3208 102.025 61.459C102.106 61.5899 102.173 61.729 102.225 61.8738C102.112 61.7656 102.014 61.6538 101.912 61.5456C101.821 61.436 101.718 61.3357 101.607 61.2461C101.548 61.2097 101.485 61.1818 101.418 61.1632C101.353 61.1343 101.28 61.1091 101.215 61.0766C101.075 61.0171 100.94 60.9459 100.812 60.8638Z" fill="#CC8972"/>
<path d="M101.676 60.485C101.8 60.5154 101.922 60.5552 102.04 60.604C102.163 60.6509 102.279 60.7086 102.403 60.7591L102.439 60.7772H102.457L102.508 60.8024C102.539 60.8288 102.566 60.8591 102.588 60.8926C102.63 60.9452 102.664 61.0035 102.69 61.0658C102.751 61.1798 102.797 61.301 102.828 61.4265C102.741 61.3291 102.661 61.2245 102.581 61.1235L102.461 60.9828C102.445 60.9648 102.427 60.9491 102.406 60.9359H102.381L102.327 60.9143C102.199 60.8643 102.078 60.8015 101.963 60.7267C101.86 60.6551 101.764 60.5742 101.676 60.485Z" fill="#CC8972"/>
<path opacity="0.11" d="M142.549 145.872C142.549 146.377 136.25 146.784 128.476 146.784C120.701 146.784 114.402 146.377 114.402 145.872C114.402 145.367 120.701 144.963 128.476 144.963C136.25 144.963 142.549 145.37 142.549 145.872Z" fill="#344C82"/>
<path d="M136.345 105.213C136.272 105.855 136.065 106.782 135.912 107.522C135.716 108.478 135.226 108.449 135.262 108.059C135.262 107.915 135.56 105.664 135.596 105.534C135.633 105.404 135.48 105.429 135.426 105.913C135.426 105.913 135.291 106.486 135.193 106.995C134.953 108.236 134.506 107.962 134.503 107.63C134.503 107.511 134.666 105.523 134.67 105.404C134.67 105.35 134.619 104.495 134.59 104.257C134.499 103.853 134.426 103.799 134.368 104.008C134.248 105 134.034 105.628 133.744 105.451C133.507 105.299 133.682 104.257 133.711 103.535C133.795 102.892 134.023 102.276 134.379 101.732C134.743 100.769 135.342 99.2932 136.247 100.213C136.95 100.957 137.469 101.854 137.761 102.832C137.79 102.941 137.808 103.052 137.816 103.164C137.849 103.849 137.834 104.536 137.772 105.22C137.696 106.353 137.304 106.638 137.278 106.331C137.278 106.237 137.38 104.459 137.224 104.769C137.202 105.404 136.973 106.169 136.89 106.905C136.773 107.879 136.305 107.803 136.308 107.41C136.308 107.262 136.479 105.483 136.483 105.339C136.483 105.314 136.483 105.133 136.414 105.123C136.345 105.112 136.352 105.166 136.345 105.213Z" fill="#EDBDA3"/>
<path d="M104.554 63.8615L113.941 71.6498L112.793 71.0329L121.672 73.1396L120.687 80.1416L111.623 75.8849L110.893 75.7081L110.479 75.2644L102.17 66.3505L104.554 63.8615Z" fill="#EB001B"/>
<path d="M131.382 96.9484C131.382 96.9484 134.517 109.823 135.258 120.757C135.258 120.757 132.413 123.124 129.743 123.502C129.743 123.502 125.126 113.308 121.577 103.539L131.382 96.9484Z" fill="#233561"/>
<path d="M128.476 99.726C128.476 99.726 125.57 112.489 120.829 123.347C120.829 123.347 117.585 123.867 115.016 123.019C115.016 123.019 115.982 107.294 117.639 96.281L128.476 99.726Z" fill="#233561"/>
<path d="M122.638 72.18C123.364 71.7074 123.074 70.0589 123.001 69.1714L127.306 65.8923C127.306 66.0042 127.306 69.4312 127.342 69.543C127.589 71.123 130.354 72.8546 130.634 73.0097C132.316 73.9476 129.875 82.4502 121.337 77.7822L121.228 77.7209C119.521 76.7614 121.163 73.1287 122.638 72.18Z" fill="#EDBDA3"/>
<path d="M116.854 80.6069C116.894 79.8854 117.174 75.4447 119.822 73.6122C120.716 73.0555 121.654 72.5729 122.627 72.1692C122.798 72.6814 122.95 73.6121 124.516 73.6338C127.822 73.6843 128.694 71.5343 128.694 71.5343C130.873 73.2226 131.527 73.0025 132.17 73.558C134.216 75.3293 135.643 76.1626 133.006 82.8867L131.357 90.758L132.189 97.7888C124.759 101.295 120.015 101.147 117.414 97.8682C117.396 97.8682 116.437 88.4746 116.854 80.6069Z" fill="#EB001B"/>
<path d="M126.431 73.9982L123.942 76.7037L122.38 74.0379L126.431 73.9982Z" fill="white"/>
<path d="M125.181 74.1497C125.181 74.1497 124.287 75.5926 122.972 73.9729L124.193 73.6122L125.181 74.1497Z" fill="#233561"/>
<path d="M137.427 101.89L137.467 101.692L137.427 101.89Z" fill="#EB001B"/>
<path d="M137.467 101.699L137.493 101.58L137.467 101.699Z" fill="#EB001B"/>
<path d="M137.492 101.58C137.491 101.554 137.491 101.527 137.492 101.501C137.491 101.527 137.491 101.554 137.492 101.58Z" fill="#EB001B"/>
<path d="M139.302 88.1824C138.372 85.8628 136.94 80.661 135.109 76.6821C133.42 73.0061 128.541 70.5892 130.296 78.5868C130.841 81.0831 132.821 86.2741 134.543 89.4378L134.241 101.169C135.059 101.234 137.587 101.104 137.587 101.104C138.005 99.0298 139.302 88.1824 139.302 88.1824Z" fill="#EB001B"/>
<path d="M137.507 101.501C137.507 101.436 137.536 101.364 137.551 101.281C137.533 101.346 137.533 101.421 137.507 101.501Z" fill="#EB001B"/>
<path d="M134.089 101.169C134.089 101.169 136.675 100.981 137.721 100.754C137.721 100.754 137.95 101.804 137.543 102.179C137.137 102.554 134.612 102.709 134.299 102.377C133.987 102.046 134.089 101.169 134.089 101.169Z" fill="#F2F2F2"/>
<path d="M134.506 101.891C134.546 101.906 134.59 101.906 134.629 101.89C134.669 101.874 134.7 101.843 134.717 101.804C134.726 101.785 134.731 101.764 134.731 101.742C134.731 101.721 134.727 101.7 134.719 101.681C134.711 101.661 134.699 101.643 134.683 101.628C134.668 101.614 134.65 101.602 134.63 101.595C134.61 101.586 134.59 101.582 134.569 101.582C134.548 101.581 134.527 101.585 134.507 101.593C134.487 101.6 134.47 101.612 134.455 101.626C134.439 101.641 134.427 101.658 134.419 101.678C134.403 101.718 134.403 101.762 134.42 101.802C134.436 101.841 134.467 101.873 134.506 101.891Z" fill="#EB001B"/>
<path d="M105.625 64.215C105.625 64.215 103.526 66.4516 102.803 67.4833C102.803 67.4833 101.753 66.7618 101.804 66.1017C101.854 65.4415 103.922 63.2915 104.459 63.3312C104.997 63.3709 105.625 64.215 105.625 64.215Z" fill="#F2F2F2"/>
<path d="M102.61 66.1053C102.586 66.1137 102.564 66.1268 102.546 66.1438C102.527 66.1607 102.512 66.1811 102.501 66.2039C102.49 66.2267 102.484 66.2514 102.483 66.2766C102.481 66.3017 102.485 66.3269 102.494 66.3506C102.512 66.3978 102.548 66.4361 102.594 66.4571C102.641 66.478 102.693 66.4799 102.741 66.4624C102.765 66.4539 102.787 66.4408 102.806 66.4238C102.824 66.4069 102.84 66.3864 102.85 66.3637C102.861 66.3409 102.867 66.3162 102.868 66.2911C102.87 66.2659 102.866 66.2408 102.857 66.2171C102.849 66.1934 102.835 66.1716 102.818 66.153C102.801 66.1344 102.781 66.1193 102.758 66.1086C102.735 66.0979 102.71 66.0917 102.685 66.0905C102.659 66.0894 102.634 66.0931 102.61 66.1017V66.1053Z" fill="#EB001B"/>
<path d="M125.228 112.713C125.039 112.435 124.865 112.15 124.69 111.865C124.516 111.58 124.356 111.288 124.189 110.995C123.873 110.411 123.557 109.823 123.266 109.224L123.342 109.3C122.441 108.823 121.567 108.298 120.723 107.727C121.674 108.098 122.604 108.519 123.51 108.99L123.557 109.011L123.586 109.066C123.895 109.654 124.182 110.256 124.465 110.869C124.599 111.172 124.737 111.475 124.865 111.785C124.992 112.096 125.115 112.384 125.228 112.713Z" fill="#0D1017"/>
<path d="M139.686 136.933L129.674 123.365L133.591 118.347C133.591 118.347 137.089 121.215 138.346 124.087C140.871 129.859 142.367 132.965 143.25 134.656C142.226 135.551 140.943 136.493 139.686 136.933Z" fill="#233561"/>
<path d="M141.416 139.277L139.687 136.933C140.944 136.492 142.23 135.551 143.251 134.656C144.25 136.579 144.453 136.658 144.453 136.658C144.453 136.658 143.799 138.484 141.416 139.277Z" fill="#EDBDA3"/>
<path d="M113.309 140.385L115.172 122.182L120.985 121.461C120.985 121.461 121.286 128.957 120.298 131.922C118.845 136.251 118.035 139.043 117.563 140.857C116.131 140.859 114.704 140.7 113.309 140.385Z" fill="#233561"/>
<path d="M116.996 143.43C116.414 143.835 115.731 144.073 115.022 144.118C114.312 144.163 113.604 144.014 112.975 143.686L113.309 140.385C114.701 140.697 116.125 140.853 117.552 140.85C116.978 143.318 116.996 143.43 116.996 143.43Z" fill="#EDBDA3"/>
<path d="M122.889 60.0052C122.889 60.0052 121.239 60.9828 121.286 62.7901C121.286 63.2519 120.731 65.5642 120.731 65.5642C120.447 68.4321 122.22 70.344 122.91 70.3656C123.616 70.3745 124.316 70.2438 124.971 69.9812C125.625 69.7186 126.22 69.3293 126.721 68.8361C128.222 67.4184 129.122 62.5881 127.949 60.9973C126.365 58.8653 123.688 59.0493 122.889 60.0052Z" fill="#EDBDA3"/>
<path d="M120.716 66.6067C120.716 66.6067 121.163 66.87 122.093 66.5778C122.685 66.3938 123.568 65.7733 123.757 66.1666C124.614 67.9414 124.581 70.1058 123.03 70.3692C121.479 70.6325 120.502 67.2596 120.716 66.6067Z" fill="#233561"/>
<path d="M127.172 65.5786C127.125 65.2178 126.918 63.1508 127.041 62.7324C126.939 62.6806 126.825 62.6546 126.71 62.6566C126.359 62.6318 126.03 62.4788 125.786 62.2269C125.541 61.9751 125.4 61.6424 125.388 61.293C124.44 61.301 123.494 61.2189 122.562 61.0477C120.727 60.687 121.207 58.6199 121.243 58.6091C121.73 58.4865 125.661 57.8876 127.902 59.3306C130.144 60.7735 129.039 64.2366 128.843 64.8174C128.835 64.8428 128.819 64.8649 128.798 64.8806C128.776 64.8962 128.75 64.9044 128.723 64.904L127.31 65.6976C127.276 65.6987 127.243 65.6871 127.217 65.665C127.192 65.6429 127.176 65.612 127.172 65.5786Z" fill="#233561"/>
<path d="M128.767 60.218C128.767 60.218 130.507 61.1812 129.13 64.5216C129.137 64.5216 128.004 63.4214 128.767 60.218Z" fill="#233561"/>
<path d="M121.548 63.0967C121.112 63.9391 120.546 64.7084 119.87 65.3765C119.536 65.6796 120.538 66.668 120.96 66.7113C121.959 66.8051 121.548 63.0967 121.548 63.0967Z" fill="#EDBDA3"/>
<path d="M128.973 66.0692C128.523 66.852 127.705 67.1911 127.157 66.8304C126.608 66.4696 126.514 65.5425 126.964 64.7633C127.415 63.9841 128.229 63.6378 128.781 63.9986C129.333 64.3593 129.424 65.2864 128.973 66.0692Z" fill="#EDBDA3"/>
<path d="M126.779 67.9811C126.685 68.3349 126.522 68.667 126.3 68.9587C126.077 69.2552 125.803 69.5094 125.49 69.709C125.178 69.9099 124.834 70.0551 124.472 70.1383C124.294 70.1806 124.113 70.212 123.931 70.2321C123.75 70.2321 123.568 70.2321 123.386 70.2321C123.742 70.1817 124.093 70.1033 124.436 69.9976C124.773 69.8915 125.095 69.741 125.392 69.5503C125.69 69.3596 125.959 69.1276 126.191 68.8613C126.426 68.5958 126.624 68.2996 126.779 67.9811Z" fill="#CC8972"/>
<path d="M123.041 66.87C122.927 67.1459 122.713 67.3696 122.441 67.4977C122.308 67.565 122.161 67.6028 122.011 67.6084C121.861 67.614 121.712 67.5873 121.573 67.5301C121.713 67.521 121.851 67.5017 121.987 67.4724C122.113 67.4396 122.235 67.3936 122.351 67.3353C122.6 67.2112 122.833 67.0548 123.041 66.87Z" fill="#EDBDA3"/>
<path d="M122.133 64.2546C122.133 64.4097 122.202 64.5395 122.304 64.5467C122.405 64.554 122.5 64.4313 122.507 64.2762C122.514 64.1211 122.442 63.9948 122.336 63.9876C122.231 63.9804 122.144 64.0994 122.133 64.2546Z" fill="#233561"/>
<path d="M128.49 64.453C128.289 64.4351 128.087 64.4832 127.916 64.5901C127.84 64.6428 127.777 64.7119 127.731 64.7921C127.686 64.8752 127.652 64.9637 127.629 65.0555L127.578 64.9545C127.674 64.9924 127.764 65.0421 127.847 65.1024C127.899 65.1378 127.941 65.1861 127.968 65.2424C127.995 65.2987 128.008 65.361 128.003 65.4234C127.989 65.4865 127.955 65.5434 127.905 65.5858L127.796 65.6832C127.761 65.716 127.724 65.7462 127.684 65.7733C127.636 65.8106 127.582 65.8388 127.524 65.8563L127.582 65.7986C127.565 65.8956 127.569 65.995 127.594 66.0902C127.62 66.1854 127.665 66.2742 127.727 66.3505C127.636 66.2945 127.565 66.2111 127.524 66.1124C127.48 66.0098 127.458 65.8993 127.459 65.7878L127.517 65.7337C127.517 65.7337 127.571 65.6904 127.593 65.6651L127.691 65.5677C127.756 65.5028 127.836 65.4306 127.833 65.391C127.829 65.3513 127.8 65.2936 127.735 65.243C127.665 65.1933 127.591 65.151 127.513 65.1168C127.495 65.1088 127.48 65.0946 127.471 65.0768C127.463 65.0589 127.461 65.0385 127.466 65.0194C127.495 64.9107 127.542 64.8072 127.604 64.7128C127.668 64.6164 127.757 64.5391 127.862 64.4891C127.959 64.441 128.064 64.4129 128.172 64.4067C128.28 64.4005 128.389 64.4163 128.49 64.453Z" fill="#CC8972"/>
<path d="M123.176 63.5621C123.263 63.4538 123.219 63.1111 122.761 62.9019C122.6 62.8252 122.415 62.8148 122.246 62.8731C122.211 62.8978 122.185 62.9328 122.172 62.9731C122.159 63.0133 122.159 63.0566 122.173 63.0967C122.227 63.2374 122.438 63.1833 122.711 63.3673C122.903 63.4971 122.827 63.5296 123.019 63.5909C123.045 63.6022 123.074 63.6054 123.102 63.6003C123.13 63.5951 123.155 63.5818 123.176 63.5621Z" fill="#233561"/>
<path d="M127.64 70.3223C127.64 70.3223 126.115 72.9051 124.178 73.623C124.913 73.993 125.628 74.4024 126.318 74.8495C126.318 74.8495 128.966 72.3532 129.137 71.8806C129.054 71.5101 128.871 71.169 128.607 70.8943C128.344 70.6196 128.009 70.4218 127.64 70.3223Z" fill="white"/>
<path d="M123.001 71.5885L122.729 72.5336L124.182 73.6158C124.182 73.6158 123.027 74.1245 122.496 74.4455C122.085 73.925 121.864 73.2817 121.868 72.6202C121.961 72.3713 122.112 72.1479 122.309 71.9685C122.506 71.7892 122.743 71.6589 123.001 71.5885Z" fill="white"/>
<path d="M127.847 59.9149C127.847 59.9149 126.932 58.472 122.347 57.6639C122.347 57.6639 121.584 59.8212 127.847 59.9149Z" fill="#233561"/>
<path d="M128.451 59.796C128.451 59.796 127.586 58.6236 124.836 57.8444C124.843 57.8444 124.64 59.3522 128.451 59.796Z" fill="#233561"/>
<path d="M128.062 60.1026C128.062 60.1026 128.062 59.4713 128.952 58.7896C128.952 58.7896 129.428 59.5651 128.062 60.1026Z" fill="#233561"/>
<path d="M128.047 60.0124C128.047 60.0124 128.501 59.5687 129.616 59.731C129.616 59.731 129.384 60.6112 128.047 60.0124Z" fill="#233561"/>
<path d="M121.613 64.2583C121.613 64.8319 121.977 65.3008 122.405 65.3008C122.834 65.3008 123.197 64.8319 123.197 64.2583C123.197 63.6847 122.834 63.2122 122.405 63.2122C121.977 63.2122 121.613 63.6811 121.613 64.2583Z" stroke="#F2F2F2" stroke-width="0.37" stroke-miterlimit="10"/>
<path d="M121.635 63.9877C121.594 63.8925 121.521 63.8145 121.428 63.7677C121.335 63.7208 121.228 63.7081 121.126 63.7316" stroke="#F2F2F2" stroke-width="0.37" stroke-miterlimit="10"/>
<path d="M123.822 66.3613C123.822 66.3613 124.592 67.2487 124.549 68.0496C124.541 68.0496 123.728 67.1982 123.822 66.3613Z" fill="#233561"/>
<path d="M121.126 66.769C121.126 66.769 122.158 65.6507 122.943 66.1016C122.936 66.1016 121.929 67.339 121.126 66.769Z" fill="#233561"/>
<path d="M124.015 66.9205C124.015 66.9205 124.723 68.0027 124.378 68.7459C124.367 68.7459 123.575 67.6889 124.015 66.9205Z" fill="#233561"/>
<path d="M124.073 74.4526L125.166 75.3725L123.942 76.7037L123.023 75.138L124.073 74.4526Z" fill="#233561"/>
<path d="M112.124 143.758C112.833 143.429 112.571 142.358 113.432 142.964C113.988 143.35 114.279 144.046 114.856 144.126C115.622 144.107 116.365 143.865 116.992 143.429H117.134C117.134 143.429 117.755 144.512 117.577 146.636C117.572 146.694 117.546 146.748 117.504 146.789C117.462 146.829 117.407 146.853 117.348 146.856L115.11 146.986C112.989 146.265 113.479 147.6 107.481 146.871C107.429 146.864 107.381 146.842 107.342 146.806C107.304 146.77 107.277 146.724 107.267 146.672C107.184 146.056 107.26 144.072 112.124 143.758Z" fill="#233561"/>
<path d="M140.399 139.555C140.762 138.87 139.89 138.177 140.944 138.134C141.623 138.101 142.284 138.495 142.785 138.188C143.38 137.708 143.819 137.064 144.046 136.337L144.155 136.247C144.155 136.247 145.31 136.727 146.48 138.516C146.511 138.566 146.523 138.624 146.514 138.682C146.506 138.739 146.477 138.792 146.433 138.83L144.74 140.273C142.622 140.994 143.832 141.748 138.64 144.811C138.595 144.838 138.543 144.85 138.491 144.846C138.439 144.841 138.389 144.82 138.35 144.786C137.896 144.371 136.744 142.759 140.399 139.555Z" fill="#233561"/>
<path d="M123.161 64.269L127.117 64.5252" stroke="#F2F2F2" stroke-width="0.37" stroke-miterlimit="10"/>
<path d="M132.447 84.9069C132.141 84.2637 131.882 83.5994 131.673 82.9192C131.449 82.2439 131.275 81.553 131.153 80.8522C131.462 81.4934 131.722 82.1566 131.931 82.8362C132.152 83.5134 132.324 84.2054 132.447 84.9069Z" fill="#B58C40"/>
<path d="M117.846 76.1698C117.744 76.5702 117.635 76.9454 117.523 77.3278C117.416 77.7149 117.286 78.0955 117.134 78.4677C117.098 78.0581 117.141 77.6454 117.261 77.252C117.369 76.8511 117.569 76.4806 117.846 76.1698Z" fill="#B58C40"/>
<path d="M127.52 79.1639C127.244 80.1379 126.91 81.0975 126.55 82.0498C126.191 83.0022 125.787 83.9329 125.362 84.86C124.928 85.782 124.429 86.6728 123.869 87.5258C123.585 87.9531 123.263 88.3539 122.906 88.7235C122.567 89.1196 122.092 89.3767 121.573 89.445C122.069 89.3306 122.507 89.044 122.808 88.6369C123.139 88.2568 123.436 87.8488 123.695 87.4176C124.22 86.5557 124.694 85.6644 125.115 84.7482C125.562 83.8391 125.958 82.9084 126.358 81.9777C126.757 81.047 127.135 80.1127 127.52 79.1639Z" fill="#B58C40"/>
<path d="M118.881 83.8535C119.045 84.9357 119.208 86.0179 119.39 87.1002C119.572 88.1824 119.753 89.2646 119.997 90.3143C120.211 91.382 120.485 92.437 120.818 93.4744C120.981 93.993 121.181 94.4993 121.417 94.9895C121.638 95.4875 121.967 95.9309 122.38 96.2882C121.922 95.968 121.549 95.5438 121.29 95.0508C121.024 94.5665 120.797 94.0623 120.611 93.5429C120.245 92.4986 119.951 91.4308 119.731 90.3468C119.513 89.2646 119.325 88.1824 119.183 87.1002C119.041 86.0179 118.932 84.9357 118.881 83.8535Z" fill="#B58C40"/>
<path d="M130.31 90.5777C130.074 90.639 129.842 90.7076 129.605 90.7581C129.369 90.8086 129.137 90.8555 128.901 90.906L128.203 91.0358C128.095 91.0559 127.989 91.0873 127.887 91.1296C127.887 91.1296 127.869 91.1296 127.865 91.1296C127.862 91.1296 127.883 91.1585 127.905 91.1765L128.061 91.2631C127.999 91.2648 127.937 91.2575 127.876 91.2415C127.837 91.2322 127.801 91.2107 127.775 91.1801C127.761 91.1553 127.756 91.1269 127.76 91.0991C127.764 91.0712 127.777 91.0453 127.796 91.025C127.898 90.9384 128.015 90.8711 128.141 90.8266C128.377 90.7397 128.62 90.6745 128.868 90.6318C129.342 90.5343 129.83 90.516 130.31 90.5777Z" fill="#B58C40"/>
<path d="M130.02 90.924C129.821 91.1646 129.603 91.3878 129.366 91.5913C129.255 91.6831 129.153 91.7845 129.061 91.8943C129.021 91.9331 128.995 91.9839 128.988 92.0386C128.988 92.0891 129.046 92.1432 129.111 92.1901C129.065 92.1981 129.017 92.1929 128.973 92.175C128.93 92.1572 128.892 92.1274 128.864 92.0891C128.84 92.043 128.827 91.9916 128.827 91.9394C128.827 91.8873 128.84 91.8359 128.864 91.7897C128.939 91.6379 129.043 91.5019 129.17 91.3893C129.412 91.1693 129.703 91.0097 130.02 90.924Z" fill="#B58C40"/>
<g style="mix-blend-mode:multiply" opacity="0.23">
<path d="M38.6392 59.3234C38.0689 59.3558 37.5494 59.3775 37.0953 59.3919C34.2103 65.6209 32.6048 72.3585 32.3726 79.2109C32.7358 79.6365 32.9393 79.8926 32.9393 79.8926C35.4219 76.7334 37.1105 73.0322 37.8654 69.0958C38.8245 63.8578 42.3266 65.1276 45.2801 65.1962C50.2135 65.3333 51.2706 63.5873 47.754 60.1855C44.1684 56.7297 43.1839 59.0564 38.6392 59.3234Z" fill="#4C649E"/>
</g>
<path d="M32.9248 77.858C32.9248 77.858 27.4755 71.6317 28.6271 68.973C29.7787 66.3144 28.7288 63.1038 31.0139 60.0051C33.299 56.9064 34.0945 57.5665 38.6429 57.2887C43.1912 57.011 44.1575 54.6806 47.7431 58.1509C51.2597 61.5527 50.2026 63.2986 45.2692 63.1652C42.3157 63.0822 38.8136 61.8232 37.8545 67.0611C37.0986 70.9979 35.4086 74.6991 32.9248 77.858Z" fill="#25CD74"/>
<path d="M25.8843 74.1461C27.4863 73.2407 26.1277 68.8217 23.5229 66.4733C21.7065 64.8535 19.8901 66.2207 17.2671 64.114C15.4217 62.6242 15.5234 61.2822 14.0593 60.9648C12.3337 60.604 11.6653 62.35 8.91523 62.9019C6.26688 63.4322 5.6166 62.0542 3.97819 62.7252C0.973825 63.9481 -1.15502 70.3368 0.683197 72.292C1.80575 73.486 4.56308 69.8822 7.55291 71.1159C9.04238 71.7292 9.00605 72.8403 10.4919 73.2154C12.5626 73.7529 13.6525 71.805 15.8322 71.437C20.0608 70.73 24.0896 75.1562 25.8843 74.1461Z" fill="#25CD74"/>
<path d="M36.6519 103.903C36.2378 101.89 35.8127 99.8956 35.3114 97.9224C34.8101 95.9491 34.3269 93.9543 33.7747 91.9774C32.7181 88.0246 31.4063 84.1435 29.8476 80.358C29.0888 78.4657 28.1292 76.659 26.9849 74.9686L26.084 73.7313C25.7716 73.3273 25.4264 72.9485 25.0995 72.5589C24.9324 72.3677 24.7761 72.1621 24.5981 71.9817L24.0605 71.437C23.7162 71.0636 23.3524 70.7084 22.9706 70.3728C21.4573 68.9835 19.7536 67.8139 17.9101 66.8989C16.0812 65.9545 14.0965 65.3436 12.0503 65.0952C14.1145 65.2786 16.1269 65.8387 17.9864 66.7474C19.8585 67.6331 21.5953 68.7772 23.145 70.1455C23.5405 70.4864 23.9176 70.8476 24.2748 71.2278L24.8234 71.7761C25.0087 71.9565 25.1649 72.1621 25.3356 72.3569C25.6698 72.7501 26.0222 73.1325 26.3383 73.5365L27.2574 74.7846C28.4173 76.4894 29.3915 78.3118 30.1637 80.221C30.9629 82.1184 31.664 84.0484 32.2925 85.9928C32.921 87.9371 33.5131 89.9104 34.0254 91.898C35.0862 95.8553 35.9689 99.8631 36.6519 103.903Z" fill="#40635B"/>
<path d="M37.5241 103.788C36.8411 100.339 36.1908 96.8833 35.5442 93.4275L33.6333 83.0526C33.0375 79.5859 32.4236 76.1229 31.9513 72.6345C31.6987 70.8909 31.5386 69.1353 31.4718 67.375C31.4407 66.4905 31.5139 65.6055 31.6898 64.738C31.7911 64.305 31.9589 63.8901 32.1874 63.5079C32.4239 63.1332 32.7296 62.8064 33.0884 62.5447C32.7416 62.8172 32.4517 63.1541 32.2347 63.5367C32.0233 63.9195 31.8714 64.3318 31.7842 64.7596C31.6377 65.6221 31.5926 66.4985 31.6498 67.3714C31.7519 69.1224 31.9447 70.8671 32.2274 72.5985C32.7542 76.0688 33.3681 79.5318 33.9893 82.9913L35.8058 93.3806C36.4088 96.84 36.9901 100.31 37.5241 103.788Z" fill="#40635B"/>
<path d="M32.7792 91.1007C32.7792 91.1007 33.3132 84.2467 31.1735 83.0852C29.0338 81.9236 28.0384 79.301 24.9141 78.4425C21.7899 77.5839 21.6445 78.4425 18.5094 80.6069C15.3742 82.7713 13.5397 81.7468 13.0093 85.8628C12.4898 89.8995 14.0991 90.4983 17.2488 87.8649C19.1379 86.2885 20.7654 83.6623 24.133 86.5915C26.6176 88.7493 29.58 90.2942 32.7792 91.1007Z" fill="#25CD74"/>
<path d="M35.7439 104.012L35.4787 102.547L35.1917 101.082L34.8938 99.6215L34.5632 98.1785C34.1217 96.2457 33.5784 94.3372 32.9357 92.4608C32.3145 90.5803 31.5204 88.7605 30.5634 87.0245C30.3382 86.5844 30.0621 86.1731 29.7969 85.7547C29.5317 85.3362 29.2265 84.9466 28.9359 84.5462L28.7143 84.2468L28.4673 83.969L27.9732 83.4099C27.8052 83.2269 27.6269 83.0534 27.4392 82.8904L26.8906 82.3782C27.2757 82.6992 27.6826 82.995 28.0422 83.3413L28.569 83.8788L28.8342 84.1458L29.074 84.4344C29.3828 84.8276 29.7206 85.2028 29.9894 85.6248C30.2583 86.0469 30.5634 86.4473 30.8068 86.8874C31.8099 88.6212 32.6374 90.4494 33.2772 92.3454C33.9139 94.2362 34.4344 96.1637 34.8357 98.1172C35.2376 100.066 35.5407 102.033 35.7439 104.012Z" fill="#40635B"/>
<path opacity="0.11" d="M37.7746 148C55.1557 148 69.2459 145.866 69.2459 143.235C69.2459 140.603 55.1557 138.469 37.7746 138.469C20.3934 138.469 6.30322 140.603 6.30322 143.235C6.30322 145.866 20.3934 148 37.7746 148Z" fill="#344C82"/>
<path d="M10.5718 94.0588L6.30322 142.192H16.6496L10.5718 94.0588Z" fill="#ABBAC2"/>
<path d="M11.2188 103.196C11.2188 103.196 12.7482 144.036 15.2912 145.497C17.8342 146.958 62.4092 148.613 72.4177 139.779C72.4177 139.779 68.6213 134.047 67.695 129.054C66.7686 124.061 64.6543 99.5024 64.6543 99.5024L11.2188 103.196Z" fill="white"/>
<path d="M29.3024 115.451L21.114 116.554L20.5073 107.94L29.0227 107.348L29.3024 115.451Z" stroke="#CCCCCC" stroke-width="0.5" stroke-miterlimit="10"/>
<path d="M40.2555 115.22L31.7365 115.815L31.0898 106.612L39.6488 106.609L40.2555 115.22Z" stroke="#CCCCCC" stroke-width="0.5" stroke-miterlimit="10"/>
<path d="M50.5478 113.907L42.363 115.075L41.7563 106.461L50.2717 105.869L50.5478 113.907Z" stroke="#CCCCCC" stroke-width="0.5" stroke-miterlimit="10"/>
<path d="M30.4726 127.871L21.9246 128.026L21.3179 119.415L29.8333 118.82L30.4726 127.871Z" stroke="#CCCCCC" stroke-width="0.5" stroke-miterlimit="10"/>
<path d="M41.0661 126.695L32.5943 127.911L31.9404 118.676L40.4268 117.644L41.0661 126.695Z" stroke="#CCCCCC" stroke-width="0.5" stroke-miterlimit="10"/>
<path d="M51.7357 126.579L43.1731 126.547L42.5664 117.936L51.0818 117.341L51.7357 126.579Z" stroke="#CCCCCC" stroke-width="0.5" stroke-miterlimit="10"/>
<path d="M31.2535 138.906L22.7344 139.501L22.106 130.598L30.6431 130.295L31.2535 138.906Z" stroke="#CCCCCC" stroke-width="0.5" stroke-miterlimit="10"/>
<path d="M60.8277 105.431L52.2905 106.024L52.8991 114.656L61.4362 114.063L60.8277 105.431Z" stroke="#CCCCCC" stroke-width="0.501224" stroke-miterlimit="10"/>
<path d="M61.4567 116.623L52.9404 117.215L53.5484 125.827L62.0647 125.234L61.4567 116.623Z" stroke="#CCCCCC" stroke-width="0.5" stroke-miterlimit="10"/>
<path d="M62.8814 136.705L54.3623 137.297L54.0645 128.123L62.2711 128.094L62.8814 136.705Z" stroke="#CCCCCC" stroke-width="0.5" stroke-miterlimit="10"/>
<path d="M41.8762 138.166L32.8849 137.932L32.7505 130.147L41.2695 129.555L41.8762 138.166Z" stroke="#CCCCCC" stroke-width="0.5" stroke-miterlimit="10"/>
<path d="M52.5022 137.427L43.9831 138.022L43.3765 129.408L51.8737 128.527L52.5022 137.427Z" stroke="#CCCCCC" stroke-width="0.5" stroke-miterlimit="10"/>
<path d="M64.0146 90.3649L10.5718 94.0552L11.2184 103.196L64.6612 99.5024L64.0146 90.3649ZM20.5548 99.4735C20.253 99.4949 19.9515 99.4269 19.6886 99.2781C19.4256 99.1293 19.2131 98.9064 19.0778 98.6376C18.9425 98.3688 18.8905 98.0661 18.9285 97.768C18.9665 97.4699 19.0927 97.1896 19.2912 96.9627C19.4897 96.7359 19.7514 96.5725 20.0434 96.4935C20.3354 96.4144 20.6444 96.4231 20.9314 96.5185C21.2184 96.6139 21.4704 96.7917 21.6556 97.0294C21.8408 97.2671 21.9508 97.554 21.9716 97.8538C21.986 98.0526 21.9607 98.2522 21.8972 98.4413C21.8337 98.6303 21.7333 98.8051 21.6017 98.9555C21.4701 99.106 21.3099 99.2292 21.1302 99.3181C20.9506 99.407 20.7551 99.4598 20.5548 99.4735ZM29.637 98.8422C29.3351 98.8636 29.0336 98.7956 28.7707 98.6468C28.5077 98.498 28.2952 98.2751 28.1599 98.0063C28.0246 97.7375 27.9727 97.4349 28.0107 97.1367C28.0486 96.8386 28.1749 96.5583 28.3733 96.3315C28.5718 96.1046 28.8336 95.9413 29.1255 95.8622C29.4175 95.7831 29.7265 95.7918 30.0135 95.8872C30.3005 95.9826 30.5525 96.1604 30.7377 96.3981C30.9229 96.6358 31.0329 96.9227 31.0538 97.2225C31.082 97.6197 30.952 98.012 30.6917 98.315C30.4315 98.6179 30.0618 98.8073 29.6624 98.8422H29.637ZM38.7372 98.2073C38.4354 98.2287 38.1339 98.1607 37.871 98.0119C37.608 97.8631 37.3955 97.6402 37.2602 97.3714C37.1249 97.1026 37.0729 96.8 37.1109 96.5018C37.1489 96.2037 37.2751 95.9234 37.4736 95.6965C37.6721 95.4697 37.9338 95.3064 38.2258 95.2273C38.5178 95.1482 38.8268 95.1569 39.1138 95.2523C39.4008 95.3477 39.6528 95.5255 39.838 95.7632C40.0231 96.0009 40.1331 96.2878 40.154 96.5876C40.1832 96.985 40.0535 97.3779 39.7931 97.681C39.5327 97.9842 39.1625 98.1733 38.7627 98.2073H38.7372ZM47.8193 97.5724C47.5175 97.5938 47.216 97.5258 46.9531 97.377C46.6901 97.2282 46.4776 97.0053 46.3423 96.7365C46.207 96.4677 46.1551 96.165 46.1931 95.8669C46.231 95.5688 46.3573 95.2885 46.5557 95.0617C46.7542 94.8348 47.0159 94.6715 47.3079 94.5924C47.5999 94.5133 47.9089 94.522 48.1959 94.6174C48.4829 94.7128 48.7349 94.8906 48.9201 95.1283C49.1053 95.366 49.2153 95.6529 49.2362 95.9527C49.2635 96.3457 49.1353 96.7338 48.8788 97.0343C48.6223 97.3348 48.2578 97.524 47.8629 97.5616L47.8193 97.5724ZM56.9196 96.9411C56.6178 96.9625 56.3163 96.8945 56.0534 96.7457C55.7904 96.5969 55.5779 96.374 55.4426 96.1052C55.3073 95.8364 55.2553 95.5338 55.2933 95.2356C55.3313 94.9375 55.4575 94.6572 55.656 94.4304C55.8545 94.2035 56.1162 94.0402 56.4082 93.9611C56.7002 93.882 57.0092 93.8907 57.2962 93.9861C57.5832 94.0815 57.8352 94.2593 58.0204 94.497C58.2055 94.7347 58.3155 95.0216 58.3364 95.3214C58.3649 95.7158 58.2374 96.1056 57.9809 96.4081C57.7245 96.7105 57.3594 96.9018 56.9632 96.9411H56.9196Z" fill="#EB001B"/>
<path d="M37.3969 109.26C37.2251 109.668 37.0121 110.057 36.7611 110.422C36.2715 111.135 35.6997 111.789 35.0573 112.37C34.7286 112.667 34.3708 112.93 33.9893 113.156C34.1596 112.749 34.3727 112.361 34.625 111.998C34.8674 111.641 35.1319 111.299 35.417 110.974C35.7023 110.648 36.0068 110.34 36.3288 110.05C36.6575 109.752 37.0153 109.488 37.3969 109.26Z" fill="#4D4D4D"/>
<path d="M37.6544 112.9C37.2444 112.731 36.8536 112.519 36.4883 112.269C36.1272 112.028 35.7814 111.766 35.4529 111.482C35.1252 111.199 34.8146 110.897 34.5229 110.577C34.2223 110.252 33.9569 109.897 33.731 109.516C34.1402 109.687 34.531 109.899 34.8971 110.148C35.2586 110.388 35.6033 110.652 35.9288 110.938C36.2583 111.219 36.569 111.522 36.8588 111.843C37.1597 112.168 37.4263 112.522 37.6544 112.9Z" fill="#4D4D4D"/>
<path d="M49.6615 131.323C49.4912 131.731 49.2781 132.121 49.0258 132.485C48.7825 132.841 48.518 133.183 48.2338 133.509C47.9475 133.834 47.6431 134.142 47.322 134.433C46.9946 134.731 46.6366 134.995 46.2539 135.219C46.4242 134.812 46.6373 134.424 46.8897 134.061C47.3791 133.347 47.9523 132.693 48.5971 132.113C48.9238 131.814 49.2805 131.55 49.6615 131.323Z" fill="#4D4D4D"/>
<path d="M49.9192 134.963C49.5093 134.794 49.1184 134.582 48.7531 134.332C48.3931 134.091 48.0486 133.828 47.7214 133.545C47.3919 133.264 47.0812 132.961 46.7914 132.64C46.4858 132.315 46.2155 131.96 45.9849 131.579C46.3953 131.75 46.7872 131.961 47.1546 132.211C47.8739 132.697 48.5324 133.266 49.1164 133.906C49.4187 134.231 49.6877 134.585 49.9192 134.963Z" fill="#4D4D4D"/>
<path d="M27.5842 121.475C27.4113 121.882 27.197 122.27 26.9448 122.633C26.4581 123.348 25.886 124.002 25.241 124.581C24.9183 124.88 24.5652 125.144 24.1875 125.371C24.3593 124.963 24.5723 124.574 24.8232 124.209C25.0639 123.85 25.3247 123.504 25.6043 123.174C25.8896 122.849 26.1941 122.54 26.5162 122.251C26.8441 121.956 27.202 121.696 27.5842 121.475Z" fill="#1FB7FF"/>
<path d="M27.8385 125.115C27.4292 124.944 27.0385 124.733 26.6724 124.484C26.3132 124.24 25.9687 123.977 25.6406 123.693C25.3121 123.412 25.0015 123.111 24.7106 122.792C24.4106 122.465 24.1441 122.11 23.915 121.731C24.3266 121.899 24.7187 122.111 25.0848 122.362C25.4448 122.603 25.7894 122.866 26.1165 123.149C26.4434 123.433 26.7539 123.735 27.0466 124.054C27.3463 124.38 27.6117 124.735 27.8385 125.115Z" fill="#1FB7FF"/>
<path d="M63.9746 142.189C64.4796 141.803 64.9518 141.388 65.406 140.966C65.8584 140.539 66.282 140.084 66.6738 139.602C67.0613 139.123 67.402 138.609 67.691 138.065C67.9728 137.509 68.1933 136.923 68.3485 136.319C68.3304 136.959 68.195 137.59 67.9489 138.181C67.6947 138.772 67.3611 139.327 66.9572 139.829C66.1513 140.825 65.1326 141.631 63.9746 142.189Z" fill="#CCCCCC"/>
<path d="M12.7334 104.491L13.0313 109.369L13.351 114.242C13.5799 117.489 13.816 120.735 14.1248 123.982C14.4336 127.229 14.7642 130.457 15.2146 133.679C15.4471 135.288 15.716 136.893 16.072 138.48C16.1519 138.88 16.25 139.274 16.3553 139.667C16.4607 140.06 16.5733 140.446 16.6932 140.836C16.7512 141.03 16.8191 141.222 16.8966 141.409C16.9622 141.602 17.0386 141.791 17.1255 141.976L17.3907 142.524L17.754 143.029C17.2512 142.379 16.8675 141.647 16.6205 140.865C16.4861 140.479 16.3444 140.093 16.2573 139.699C16.1701 139.306 16.0284 138.913 15.9339 138.516C15.5416 136.933 15.2437 135.327 14.9749 133.718C14.459 130.497 14.1066 127.254 13.7942 124.011C13.4818 120.768 13.2711 117.518 13.1039 114.271C12.9368 111.024 12.777 107.749 12.7334 104.491Z" fill="#CCCCCC"/>
<path d="M11.2184 103.196L13.2928 103.056L12.7333 94.719L10.5718 94.0588L11.2184 103.196Z" fill="#B58C40"/>
<path d="M15.2397 93.7306C15.5307 93.1119 15.9087 92.5374 16.3623 92.0243C16.8202 91.4801 17.3982 91.0481 18.0516 90.7617C18.397 90.6168 18.7666 90.5373 19.1414 90.5272C19.5216 90.5267 19.8986 90.5964 20.2531 90.7328C20.9387 91.0191 21.5417 91.4704 22.0077 92.0459C22.5017 92.6122 22.8018 93.3196 22.8651 94.0661C22.9072 94.8045 22.7317 95.5391 22.3601 96.18C22.0079 96.7952 21.5332 97.3328 20.9651 97.76C20.4213 98.1942 19.7833 98.4968 19.1015 98.6439C20.2958 98.0725 21.26 97.1163 21.837 95.9311C22.1064 95.376 22.2218 94.7596 22.1712 94.1454C22.0973 93.5413 21.8444 92.9726 21.4446 92.5113C21.0551 92.0217 20.5581 91.6268 19.9915 91.3569C19.4348 91.1127 18.8062 91.0844 18.2296 91.2776C17.6182 91.4925 17.058 91.8302 16.5839 92.2696C16.0879 92.7109 15.6376 93.2003 15.2397 93.7306Z" fill="#4D4D4D"/>
<path d="M24.3877 92.9154C24.6789 92.2949 25.0581 91.7191 25.5139 91.2055C25.972 90.6616 26.55 90.2296 27.2032 89.9429C27.5492 89.8004 27.9186 89.7221 28.293 89.712C28.6734 89.709 29.0509 89.7788 29.4047 89.9176C30.0852 90.2039 30.6833 90.6539 31.1448 91.2271C31.6365 91.7944 31.9353 92.5014 31.9985 93.2473C32.0441 93.9855 31.8697 94.7207 31.4972 95.3612C31.1459 95.9771 30.6711 96.5149 30.1022 96.9412C29.5561 97.3723 28.9149 97.669 28.2312 97.807C29.4255 97.2356 30.3898 96.2794 30.9668 95.0942C31.2433 94.535 31.3589 93.9109 31.301 93.2905C31.226 92.6867 30.9733 92.1182 30.5744 91.6564C30.1822 91.1694 29.6859 90.7751 29.1213 90.502C28.5633 90.2579 27.9336 90.2296 27.3557 90.4227C26.7572 90.6485 26.2101 90.9907 25.7464 91.4291C25.2433 91.8769 24.788 92.3749 24.3877 92.9154Z" fill="#4D4D4D"/>
<path d="M33.604 92.5113C33.8675 91.9406 34.2112 91.4098 34.6248 90.9349C35.0472 90.4324 35.5788 90.0316 36.1797 89.7625C36.5003 89.63 36.8425 89.5566 37.1896 89.5461C37.5426 89.5442 37.8928 89.6091 38.2214 89.7372C38.8493 90.0015 39.4011 90.4168 39.8271 90.9457C40.2859 91.4697 40.5634 92.1259 40.619 92.818C40.6589 93.5001 40.4959 94.1787 40.1504 94.7696C39.8239 95.3338 39.3836 95.825 38.8571 96.2125C38.3525 96.6062 37.7611 96.8757 37.1315 96.9989C37.6856 96.7289 38.1864 96.3624 38.6101 95.9167C39.03 95.498 39.373 95.0097 39.6236 94.4738C39.8666 93.9686 39.9695 93.4082 39.9215 92.8504C39.8571 92.3022 39.6308 91.7851 39.2712 91.3642C38.9219 90.9201 38.4761 90.56 37.9671 90.3108C37.4614 90.088 36.8904 90.0597 36.365 90.2315C35.8068 90.4308 35.2943 90.7386 34.8573 91.1369C34.3931 91.5511 33.9731 92.0117 33.604 92.5113Z" fill="#4D4D4D"/>
<path d="M42.6353 91.7032C42.8975 91.1337 43.24 90.6041 43.6525 90.1304C44.0704 89.6281 44.6002 89.2292 45.2 88.9652C45.5198 88.8271 45.8639 88.7535 46.2125 88.7486C46.5611 88.7436 46.9072 88.8074 47.2308 88.9363C47.8562 89.1998 48.4056 89.6139 48.8293 90.1412C49.2853 90.6636 49.5615 91.317 49.6176 92.0062C49.6571 92.686 49.4941 93.3622 49.1489 93.9506C48.8247 94.5142 48.3869 95.0054 47.8629 95.3935C47.3605 95.7849 46.7715 96.052 46.1446 96.1727C47.2289 95.6416 48.1016 94.7636 48.6222 93.68C48.8651 93.1787 48.968 92.6218 48.9201 92.0675C48.8567 91.5225 48.6331 91.0081 48.2771 90.5885C47.9261 90.1492 47.4821 89.7921 46.9765 89.5424C46.4747 89.3196 45.9071 89.2913 45.3853 89.463C44.8291 89.6585 44.3187 89.9641 43.885 90.3612C43.4235 90.7652 43.0047 91.2148 42.6353 91.7032Z" fill="#4D4D4D"/>
<path d="M52.2007 90.9746C52.4565 90.4161 52.7903 89.8963 53.1924 89.4306C53.6033 88.9385 54.123 88.5472 54.711 88.2871C55.0229 88.1558 55.3568 88.0836 55.6955 88.0742C56.0406 88.0735 56.383 88.1358 56.7054 88.2582C57.3182 88.5174 57.8572 88.9226 58.2748 89.4378C58.721 89.9523 58.9918 90.5938 59.0486 91.2704C59.0883 91.9373 58.929 92.6011 58.5909 93.1787C58.2705 93.7304 57.8404 94.2115 57.3266 94.5928C56.8334 94.9756 56.2557 95.2365 55.641 95.3539C56.1845 95.096 56.6768 94.7428 57.0941 94.3114C57.5007 93.9051 57.8326 93.4315 58.075 92.9117C58.3138 92.4208 58.4142 91.8748 58.3656 91.3317C58.3015 90.8004 58.0831 90.299 57.7371 89.8887C57.3952 89.4577 56.9608 89.1077 56.4656 88.8642C55.9749 88.6486 55.4212 88.6204 54.9108 88.7849C54.3667 88.9774 53.8666 89.2754 53.4395 89.6615C52.9833 90.0568 52.5682 90.4967 52.2007 90.9746Z" fill="#4D4D4D"/>
<path d="M34.2431 122.297C34.1963 123.207 34.4516 124.107 34.9697 124.859C35.213 125.228 35.5376 125.537 35.919 125.763C36.3004 125.99 36.7285 126.127 37.1712 126.165C37.6111 126.164 38.0463 126.075 38.4508 125.903C38.8553 125.732 39.2207 125.481 39.5252 125.165C40.1682 124.562 40.5509 123.734 40.5933 122.857C40.59 122.423 40.4937 121.995 40.3108 121.601C40.1279 121.208 39.8625 120.857 39.5325 120.573C39.2228 120.266 38.8452 120.034 38.4296 119.897C38.014 119.76 37.5719 119.721 37.1385 119.783C36.7084 119.889 36.3115 120.099 35.9831 120.394C35.6547 120.689 35.4051 121.061 35.2566 121.475C34.9196 122.325 34.9196 123.27 35.2566 124.119C34.8536 123.271 34.7989 122.301 35.1041 121.414C35.251 120.958 35.51 120.545 35.8575 120.213C36.205 119.881 36.6303 119.641 37.0949 119.513C37.5773 119.399 38.0827 119.429 38.548 119.599C39.0041 119.755 39.4241 120.001 39.7832 120.321C40.1529 120.632 40.4514 121.019 40.6587 121.454C40.8661 121.89 40.9775 122.364 40.9856 122.846C40.9286 123.81 40.4976 124.715 39.7832 125.371C39.4467 125.715 39.0414 125.985 38.5934 126.164C38.1454 126.343 37.6646 126.427 37.1821 126.41C36.705 126.356 36.2467 126.195 35.8423 125.938C35.438 125.681 35.0984 125.335 34.8498 124.927C34.355 124.144 34.1412 123.217 34.2431 122.297Z" fill="#EB001B"/>
<path d="M58.4634 106.515C57.5527 106.391 56.6261 106.567 55.826 107.017C55.4329 107.221 55.0924 107.513 54.8304 107.869C54.5685 108.224 54.392 108.635 54.3147 109.069C54.2742 109.504 54.3226 109.943 54.4568 110.358C54.591 110.774 54.8083 111.159 55.0958 111.49C55.6428 112.182 56.438 112.638 57.3154 112.763C57.7506 112.799 58.1884 112.743 58.5999 112.598C59.0115 112.453 59.3872 112.223 59.7022 111.923C60.0395 111.645 60.3067 111.293 60.4827 110.895C60.6587 110.496 60.7385 110.063 60.7158 109.628C60.6492 109.194 60.4754 108.782 60.2098 108.43C59.9442 108.078 59.5951 107.797 59.1936 107.612C58.3741 107.197 57.427 107.104 56.5416 107.352C57.4308 107.031 58.4109 107.067 59.2735 107.453C59.7163 107.641 60.1051 107.935 60.405 108.309C60.705 108.683 60.9066 109.125 60.9919 109.596C61.0587 110.079 60.983 110.572 60.7739 111.013C60.5716 111.449 60.2839 111.84 59.9275 112.164C59.5795 112.502 59.1629 112.762 58.7055 112.927C58.2482 113.092 57.7606 113.158 57.2755 113.12C56.3095 112.977 55.4371 112.468 54.8415 111.699C54.5275 111.334 54.2938 110.908 54.1555 110.449C54.0172 109.989 53.9774 109.505 54.0386 109.029C54.137 108.563 54.3417 108.126 54.6371 107.75C54.9325 107.375 55.3106 107.072 55.7424 106.865C56.5829 106.444 57.5427 106.321 58.4634 106.515Z" fill="#EB001B"/>
<path d="M36.2017 122.95C36.6291 123.232 37.0369 123.542 37.4223 123.877L37.1825 123.899C37.3278 123.672 37.4841 123.452 37.6403 123.232C37.7965 123.012 37.9636 122.795 38.1416 122.59C38.3138 122.38 38.4969 122.178 38.6902 121.987C38.8784 121.786 39.095 121.614 39.3332 121.475C39.1552 121.681 39.0171 121.908 38.8609 122.128L38.4032 122.788C38.0956 123.228 37.7759 123.66 37.4441 124.083L37.3242 124.235L37.2043 124.108C36.8452 123.744 36.5103 123.358 36.2017 122.95Z" fill="#EB001B"/>
<g style="mix-blend-mode:multiply" opacity="0.23">
<path d="M106.471 40.2836C107.423 40.7911 108.355 41.3298 109.265 41.8997C111.248 41.1068 113.157 40.1411 114.969 39.0138C110.726 35.9738 106.045 33.5876 101.084 31.9362C103.02 35.0782 105.08 38.3104 106.471 40.2836Z" fill="#4C649E"/>
</g>
<path d="M99.166 23.7979C99.166 23.7979 110.461 42.7366 111.594 43.0072C112.727 43.2778 126.22 36.7809 126.805 30.9982C126.805 30.9982 124.171 28.924 122.576 26.7271C120.981 24.5302 113.835 13.3401 113.835 13.3401L99.166 23.7979Z" fill="white"/>
<path d="M124.974 33.5089C125.004 32.9271 124.998 32.344 124.955 31.7629C124.937 31.4779 124.901 31.1929 124.854 30.908C124.806 30.623 124.745 30.3416 124.694 30.0386C124.883 30.2794 125.031 30.5501 125.13 30.8394C125.233 31.1279 125.296 31.4288 125.319 31.734C125.343 32.039 125.327 32.3458 125.271 32.6467C125.223 32.9491 125.123 33.2409 124.974 33.5089Z" fill="#ABBAC2"/>
<path d="M102.868 25.2084L104.201 24.2885L105.541 23.3867L108.226 21.583C109.123 20.9878 110.01 20.3745 110.893 19.7793C111.775 19.1841 112.651 18.5384 113.479 17.8494C113.294 18.0442 113.116 18.239 112.916 18.4302L112.317 18.9785C111.903 19.3392 111.488 19.6711 111.06 20.003C110.21 20.6703 109.323 21.2944 108.43 21.8968C107.536 22.4993 106.613 23.0801 105.694 23.632C104.775 24.1839 103.83 24.7142 102.868 25.2084Z" fill="#ABBAC2"/>
<path d="M104.394 27.2177L105.727 26.2978L107.067 25.396L109.752 23.5923C110.649 22.9971 111.532 22.3838 112.419 21.7886C113.305 21.1934 114.177 20.5477 115.005 19.8586C114.82 20.0534 114.642 20.2482 114.438 20.4358L113.843 20.9878C113.428 21.3485 113.014 21.6804 112.586 22.0122C111.736 22.6796 110.849 23.3001 109.955 23.9061C109.062 24.5122 108.139 25.0893 107.216 25.6413C106.294 26.1932 105.356 26.7127 104.394 27.2177Z" fill="#ABBAC2"/>
<path d="M105.927 29.2054L107.26 28.2855L108.601 27.3836L111.282 25.58C112.183 24.9847 113.065 24.3715 113.952 23.7763C114.838 23.181 115.71 22.5353 116.538 21.8463C116.353 22.0411 116.175 22.2359 115.972 22.4235L115.372 22.9646C114.958 23.3253 114.54 23.6572 114.115 23.9891C113.261 24.6565 112.379 25.2769 111.481 25.883C110.584 26.489 109.665 27.0662 108.746 27.6145C107.827 28.1628 106.882 28.7112 105.927 29.2054Z" fill="#ABBAC2"/>
<path d="M107.441 31.2039L108.775 30.284L110.119 29.3821L112.8 27.5784C113.697 26.9832 114.584 26.37 115.47 25.7747C116.356 25.1795 117.225 24.5338 118.053 23.8412C117.868 24.036 117.69 24.2344 117.49 24.422L116.894 24.9739C116.48 25.3346 116.062 25.6665 115.637 25.9984C114.783 26.6622 113.901 27.2862 113.003 27.8887C112.106 28.4911 111.187 29.0755 110.268 29.6238C109.349 30.1721 108.404 30.7096 107.441 31.2039Z" fill="#ABBAC2"/>
<path d="M108.967 33.2023L110.286 32.268L111.627 31.3661L114.311 29.5624C115.209 28.9672 116.095 28.354 116.978 27.7588C117.86 27.1635 118.736 26.5178 119.564 25.8252C119.379 26.02 119.201 26.2184 119.001 26.406L118.402 26.9579C117.991 27.3187 117.573 27.6505 117.145 27.9824C116.295 28.6462 115.412 29.2702 114.515 29.8727C113.617 30.4751 112.698 31.0595 111.779 31.6078C110.86 32.1561 109.923 32.7081 108.967 33.2023Z" fill="#ABBAC2"/>
<path d="M110.493 35.2009L111.826 34.281L113.167 33.3792L115.852 31.5755C116.749 30.9839 117.632 30.3706 118.518 29.7718C119.405 29.173 120.276 28.5309 121.105 27.8383C120.919 28.0331 120.741 28.2315 120.538 28.419L119.942 28.971C119.528 29.3317 119.114 29.6636 118.685 29.9919C117.835 30.6592 116.949 31.2833 116.055 31.8857C115.161 32.4882 114.239 33.0726 113.32 33.6209C112.4 34.1692 111.456 34.7067 110.493 35.2009Z" fill="#ABBAC2"/>
<path d="M112.019 37.1993L113.352 36.2794L114.693 35.3776L117.377 33.5739C118.275 32.9787 119.158 32.369 120.044 31.7702C120.93 31.1714 121.802 30.5293 122.631 29.8367C122.445 30.0315 122.267 30.2299 122.064 30.4175L121.468 30.9658C121.054 31.3265 120.636 31.662 120.211 31.9903C119.357 32.6576 118.475 33.2817 117.581 33.8841C116.687 34.4866 115.765 35.0674 114.842 35.6193C113.919 36.1712 112.982 36.7051 112.019 37.1993Z" fill="#ABBAC2"/>
</g>
<defs>
<clipPath id="clip0_123_602">
<rect width="169" height="148" fill="white"/>
</clipPath>
</defs>
</svg>
