<svg width="202" height="69" viewBox="0 0 202 69" fill="none" xmlns="http://www.w3.org/2000/svg">
<g clip-path="url(#clip0_89_404)">
<path d="M147.159 0V0.0110448H147.497L147.159 0Z" fill="#C2AAC4"/>
<path d="M142.879 12.2155C143.127 12.1459 143.37 12.0001 143.6 11.8863C144.079 11.6522 144.548 11.4026 145.007 11.1331C146.749 10.1092 148.327 8.72311 149.302 6.95815C149.697 6.24245 150.012 5.42845 150.113 4.61666C150.245 3.53869 150.199 2.44857 149.696 1.45785C149.469 1.01054 149.14 0.572061 148.691 0.32024C148.263 0.077255 147.779 0.0109863 147.295 0.0109863C145.874 0.0109863 144.524 0.847076 143.61 1.86651C141.7 3.99484 141.381 6.93938 141.971 9.61994C142.118 10.287 142.333 10.9475 142.58 11.5859C142.664 11.8046 142.802 11.9957 142.879 12.2155Z" fill="#A15CEF"/>
<path d="M146.809 0.0332031V0.0442479H146.854L146.809 0.0332031Z" fill="#C4AFC8"/>
<path d="M147.992 0.0661621V0.0772069H148.026L147.992 0.0661621ZM146.37 0.121386V0.132431H146.404L146.37 0.121386Z" fill="#CEBDD1"/>
<path d="M125.129 2.75015V2.7612H125.602C125.478 2.71039 125.264 2.75015 125.129 2.75015Z" fill="#CDD2C9"/>
<path d="M124.78 2.76123V2.77228H124.87L124.78 2.76123Z" fill="#D5D9D0"/>
<path d="M124.87 2.76123V2.77228H125.062L124.87 2.76123Z" fill="#7D95AA"/>
<path d="M140.153 13.331C140.012 12.9521 139.815 12.5843 139.627 12.2265C139.207 11.4324 138.745 10.6648 138.227 9.92917C135.388 5.8901 130.802 2.89475 125.703 2.77216C125.317 2.76222 124.93 2.7578 124.543 2.7843C122.166 2.94335 119.408 3.87332 118.341 6.15186C117.55 7.84171 118.248 9.88168 119.276 11.3208C119.477 11.6036 119.688 11.8841 119.926 12.1381C120.215 12.4496 120.511 12.7533 120.838 13.0283C121.247 13.3729 121.677 13.691 122.133 13.9727C126.444 16.6245 131.917 16.1408 136.56 14.6862C137.788 14.3007 138.963 13.8103 140.153 13.331Z" fill="#1FB7FF"/>
<path d="M125.636 2.76123V2.77228H125.782L125.636 2.76123Z" fill="#869AAA"/>
<path d="M125.782 2.76123V2.77228H125.872L125.782 2.76123Z" fill="#AAB5B3"/>
<path d="M125.873 2.76123V2.77228H125.929L125.873 2.76123Z" fill="#DEE0D7"/>
<path d="M124.588 2.77222V2.78326H124.645L124.588 2.77222Z" fill="#CACFC6"/>
<path d="M124.645 2.77222V2.78326H124.701L124.645 2.77222Z" fill="#9FADAF"/>
<path d="M125.974 2.77222V2.78326H126.052L125.974 2.77222Z" fill="#869AAA"/>
<path d="M126.053 2.77222V2.78326H126.109L126.053 2.77222Z" fill="#BFC6BE"/>
<path d="M124.431 2.7832V2.79425H124.51L124.431 2.7832Z" fill="#C7CDC5"/>
<path d="M126.176 2.7832V2.79425H126.255L126.176 2.7832Z" fill="#8A9DAB"/>
<path d="M126.255 2.7832V2.79425H126.323L126.255 2.7832Z" fill="#DEE0D7"/>
<path d="M124.296 2.79443V2.80548H124.341L124.296 2.79443Z" fill="#BFC6BE"/>
<path d="M124.341 2.79443V2.80548H124.397L124.341 2.79443Z" fill="#8A9DAB"/>
<path d="M126.368 2.79443V2.80548H126.447L126.368 2.79443Z" fill="#C3CAC2"/>
<path d="M124.183 2.80542V2.81646H124.239L124.183 2.80542Z" fill="#ACB6B3"/>
<path d="M126.469 2.80542V2.81646H126.559L126.469 2.80542Z" fill="#93A4AD"/>
<path d="M124.07 2.81641V2.82745H124.138L124.07 2.81641Z" fill="#B8C0BB"/>
<path d="M126.638 2.81641V2.82766H126.673L126.638 2.81641Z" fill="#B2BBB7"/>
<path d="M123.98 2.82739V2.83844H124.037L123.98 2.82739Z" fill="#9EACAF"/>
<path d="M126.74 2.82739V2.83864H126.774L126.74 2.82739Z" fill="#ACB6B4"/>
<path d="M123.901 2.83862V2.84967H123.958L123.901 2.83862Z" fill="#8A9DAB"/>
<path d="M126.853 2.83862V2.84988H126.887L126.853 2.83862Z" fill="#C3C9C1"/>
<path d="M123.8 2.84937V2.86041H123.857L123.8 2.84937Z" fill="#98A7AC"/>
<path d="M126.942 2.84937V2.86062H126.977L126.942 2.84937Z" fill="#BBC2BC"/>
<path d="M123.721 2.8606V2.87164H123.778L123.721 2.8606Z" fill="#99A9AD"/>
<path d="M127.044 2.8606V2.87185H127.078L127.044 2.8606Z" fill="#CDD2C9"/>
<path d="M123.643 2.87158V2.88263H123.699L123.643 2.87158Z" fill="#8DA0AC"/>
<path d="M127.123 2.87158V2.88284H127.157L127.123 2.87158Z" fill="#CBD0C7"/>
<path d="M123.563 2.88281V2.89386H123.62L123.563 2.88281Z" fill="#99A9AD"/>
<path d="M127.179 2.88281V2.89407H127.213L127.179 2.88281Z" fill="#9AAAAD"/>
<path d="M123.496 2.8938V2.90484H123.541L123.496 2.8938Z" fill="#8DA0AC"/>
<path d="M127.288 2.89697L127.297 2.90097L127.288 2.89697Z" fill="#CED3CA"/>
<path d="M123.429 2.90479V2.91583H123.474L123.429 2.90479Z" fill="#8B9DAB"/>
<path d="M127.404 2.91577V2.92702H127.439L127.404 2.91577Z" fill="#99A9AD"/>
<path d="M127.472 2.92676V2.93801H127.506L127.472 2.92676Z" fill="#99A9AD"/>
<path d="M123.249 2.93799V2.94924H123.283L123.249 2.93799Z" fill="#A8B4B2"/>
<path d="M127.539 2.93799V2.94924H127.573L127.539 2.93799Z" fill="#96A7AC"/>
<path d="M123.181 2.94897V2.96023H123.215L123.181 2.94897Z" fill="#C3C9C1"/>
<path d="M123.132 2.96338L123.141 2.96738L123.132 2.96338Z" fill="#B7BFB9"/>
<path d="M127.674 2.95996V2.97121H127.709L127.674 2.95996Z" fill="#A4B0B0"/>
<path d="M150.143 2.95996V3.00414H150.154L150.143 2.95996Z" fill="#C7B2CA"/>
<path d="M123.079 2.97095V2.9822H123.113L123.079 2.97095Z" fill="#9EACAF"/>
<path d="M123.023 2.98218V2.99343H123.057L123.023 2.98218Z" fill="#A9B4B2"/>
<path d="M127.798 2.98218V2.99343H127.833L127.798 2.98218Z" fill="#9EACAF"/>
<path d="M122.975 2.99634L122.984 3.00034L122.975 2.99634Z" fill="#AAB5B3"/>
<path d="M127.854 2.99316V3.00442H127.889L127.854 2.99316Z" fill="#9FADAF"/>
<path d="M122.93 3.00757L122.939 3.01157L122.93 3.00757Z" fill="#9EACAF"/>
<path d="M127.922 3.00415V3.0154H127.957L127.922 3.00415Z" fill="#B2BBB7"/>
<path d="M122.865 3.01514V3.02639H122.9L122.865 3.01514Z" fill="#ADB8B5"/>
<path d="M127.979 3.01514V3.02639H128.013L127.979 3.01514Z" fill="#B3BCB7"/>
<path d="M122.828 3.02954L122.837 3.03354L122.828 3.02954Z" fill="#A4B0B1"/>
<path d="M128.035 3.02637V3.03762H128.069L128.035 3.02637Z" fill="#B2BBB7"/>
<path d="M128.08 3.03735V3.04861H128.114L128.08 3.03735Z" fill="#A0AEAF"/>
<path d="M128.136 3.04834V3.05959H128.171L128.136 3.04834Z" fill="#9EACAF"/>
<path d="M128.192 3.05933V3.07037H128.226L128.192 3.05933ZM122.637 3.07368L122.645 3.077L122.637 3.07368Z" fill="#B0BAB6"/>
<path d="M128.238 3.07056V3.08181H128.272L128.238 3.07056Z" fill="#A0AEAF"/>
<path d="M128.294 3.08154V3.0928H128.328L128.294 3.08154Z" fill="#ADB8B5"/>
<path d="M122.558 3.09595L122.567 3.09995L122.558 3.09595Z" fill="#99A9AD"/>
<path d="M128.358 3.09595L128.367 3.09995L128.358 3.09595Z" fill="#C3C9C1"/>
<path d="M122.513 3.10693L122.522 3.11093L122.513 3.10693Z" fill="#9FADAF"/>
<path d="M128.403 3.10693L128.412 3.11093L128.403 3.10693Z" fill="#B8C0BA"/>
<path d="M122.468 3.11792L122.477 3.12192L122.468 3.11792Z" fill="#A8B4B2"/>
<path d="M128.44 3.11475V3.126H128.475L128.44 3.11475Z" fill="#B2BBB7"/>
<path d="M128.485 3.12549V3.13674H128.52L128.485 3.12549Z" fill="#A4B0B1"/>
<path d="M128.55 3.14014L128.559 3.14414L128.55 3.14014Z" fill="#C3C9C1"/>
<path d="M128.595 3.15112L128.604 3.15512L128.595 3.15112Z" fill="#BCC4BE"/>
<path d="M122.31 3.16211L122.319 3.16611L122.31 3.16211Z" fill="#A3B0B1"/>
<path d="M128.64 3.16211L128.649 3.16611L128.64 3.16211Z" fill="#C4CAC2"/>
<path d="M128.685 3.1731L128.694 3.1771L128.685 3.1731Z" fill="#C3C9C1"/>
<path d="M128.73 3.18408L128.739 3.18808L128.73 3.18408Z" fill="#C7CDC5"/>
<path d="M128.775 3.19531L128.784 3.19931L128.775 3.19531Z" fill="#CDD2C9"/>
<path d="M122.164 3.2063L122.173 3.2103L122.164 3.2063Z" fill="#98A8AD"/>
<path d="M128.809 3.2063L128.818 3.2103L128.809 3.2063Z" fill="#ACB7B4"/>
<path d="M128.854 3.21729L128.863 3.22128L128.854 3.21729Z" fill="#B8C0BB"/>
<path d="M128.899 3.22827L128.908 3.23227L128.899 3.22827Z" fill="#C3C9C1"/>
<path d="M128.944 3.2395L128.953 3.2435L128.944 3.2395Z" fill="#CDD2C9"/>
<path d="M128.978 3.25049L128.987 3.25449L128.978 3.25049Z" fill="#ADB8B5"/>
<path d="M129.022 3.26147L129.032 3.26547L129.022 3.26147Z" fill="#C4CAC2"/>
<path d="M129.102 3.28369L129.111 3.28769L129.102 3.28369Z" fill="#C3C9C1"/>
<path d="M150.177 3.29126V3.46798H150.188L150.177 3.29126Z" fill="#CFBDD2"/>
<path d="M129.18 3.30566L129.189 3.30966L129.18 3.30566Z" fill="#C3C9C1"/>
<path d="M129.259 3.32788L129.268 3.33188L129.259 3.32788Z" fill="#D1D5CC"/>
<path d="M129.293 3.33887L129.302 3.34287L129.293 3.33887Z" fill="#BCC4BE"/>
<path d="M129.405 3.37207L129.414 3.37607L129.405 3.37207Z" fill="#C9CEC5"/>
<path d="M129.439 3.38306L129.449 3.38706L129.439 3.38306Z" fill="#BBC2BC"/>
<path d="M129.586 3.42725L129.594 3.43071L129.586 3.42725ZM129.621 3.4388L129.629 3.44227L129.621 3.4388Z" fill="#CDD2C9"/>
<path d="M129.653 3.44922L129.662 3.45322L129.653 3.44922Z" fill="#C7CDC5"/>
<path d="M129.721 3.47144L129.729 3.4749L129.721 3.47144ZM129.756 3.48299L129.764 3.48646L129.756 3.48299Z" fill="#C7CDC5"/>
<path d="M129.789 3.49341L129.798 3.49741L129.789 3.49341Z" fill="#CDD2C9"/>
<path d="M129.822 3.50439L129.83 3.50771L129.822 3.50439ZM129.856 3.51544L129.864 3.51875L129.856 3.51544ZM130.048 3.58171L130.055 3.58502L130.048 3.58171Z" fill="#C7CDC5"/>
<path d="M150.177 3.9541V4.05351H150.188L150.177 3.9541Z" fill="#D9CBDC"/>
<path d="M150.166 4.11963V4.17485H150.177L150.166 4.11963Z" fill="#D3C2D6"/>
<path d="M150.132 4.42896V4.48418H150.143L150.132 4.42896Z" fill="#CDBCD1"/>
<path d="M150.121 4.51733V4.56151H150.132L150.121 4.51733Z" fill="#D6C7D9"/>
<path d="M150.109 4.59473V4.64995H150.121L150.109 4.59473Z" fill="#D9CCDC"/>
<path d="M150.064 4.85962V4.89429H150.076L150.064 4.85962Z" fill="#CEBDD1"/>
<path d="M141.786 5.78735V5.83153H141.797L141.786 5.78735Z" fill="#C4ADC7"/>
<path d="M141.764 5.94214V5.98632H141.775L141.764 5.94214Z" fill="#C6B1C9"/>
<path d="M141.741 6.1189V6.17412H141.752L141.741 6.1189Z" fill="#CDBAD0"/>
<path d="M118.15 6.64551L118.154 6.65439L118.15 6.64551Z" fill="#9DACAE"/>
<path d="M141.696 6.64893V6.77042H141.708L141.696 6.64893Z" fill="#C0A8C2"/>
<path d="M118.127 6.7229L118.131 6.73179L118.127 6.7229Z" fill="#9FADAF"/>
<path d="M118.116 6.76709L118.12 6.77598L118.116 6.76709Z" fill="#9CABAE"/>
<path d="M118.104 6.81128L118.108 6.82017L118.104 6.81128Z" fill="#99A9AD"/>
<path d="M118.093 6.85547L118.097 6.86436L118.093 6.85547Z" fill="#A9B4B2"/>
<path d="M141.685 6.93604V7.45514H141.696C141.696 7.30824 141.741 7.07078 141.685 6.93604Z" fill="#CBB7CE"/>
<path d="M118.071 6.95483L118.075 6.96372L118.071 6.95483Z" fill="#B8C0BB"/>
<path d="M118.045 7.0686V7.11278H118.056L118.045 7.0686Z" fill="#91A3AD"/>
<path d="M118.034 7.13501V7.17919H118.045L118.034 7.13501Z" fill="#A5B1B0"/>
<path d="M118.022 7.22314V7.30046H118.034L118.022 7.22314Z" fill="#A5B1B1"/>
<path d="M118.011 7.32275V7.36693H118.022L118.011 7.32275Z" fill="#B5BEB9"/>
<path d="M118.011 7.36694V7.42217H118.022L118.011 7.36694Z" fill="#8A9DAA"/>
<path d="M118 7.46631V7.54362H118.011L118 7.46631Z" fill="#CCD1C8"/>
<path d="M118 7.5437V7.87504H118.011L118 7.5437Z" fill="#8599AA"/>
<path d="M141.696 7.59888V7.73141H141.708L141.696 7.59888Z" fill="#D0C0D3"/>
<path d="M141.708 7.8418V7.90807H141.719L141.708 7.8418Z" fill="#D5C6D8"/>
<path d="M118 7.875V7.95231H118.011L118 7.875Z" fill="#BCC4BE"/>
<path d="M141.719 7.97437V8.04063H141.73L141.719 7.97437Z" fill="#C6B1C9"/>
<path d="M118.011 8.04053V8.1068H118.022L118.011 8.04053Z" fill="#B8C0BA"/>
<path d="M118.022 8.15088V8.23924H118.034L118.022 8.15088Z" fill="#9BAAAD"/>
<path d="M118.034 8.29468V8.32935H118.045L118.034 8.29468Z" fill="#C0C6BF"/>
<path d="M118.048 8.39087L118.052 8.39976L118.048 8.39087Z" fill="#CDD2C9"/>
<path d="M118.067 8.50439V8.53907H118.079L118.067 8.50439Z" fill="#9DACAE"/>
<path d="M118.079 8.5708V8.60547H118.09L118.079 8.5708Z" fill="#9EACAF"/>
<path d="M118.09 8.62598V8.66065H118.102L118.09 8.62598Z" fill="#96A7AC"/>
<path d="M141.797 8.68115V8.72533H141.809L141.797 8.68115Z" fill="#D5C6D8"/>
<path d="M118.102 8.69214V8.72681H118.113L118.102 8.69214Z" fill="#ABB6B3"/>
<path d="M118.113 8.74756V8.78223H118.125L118.113 8.74756Z" fill="#B4BDB8"/>
<path d="M141.809 8.75854V8.81377H141.82L141.809 8.75854Z" fill="#D6C7D9"/>
<path d="M118.124 8.7915V8.82618H118.136L118.124 8.7915Z" fill="#9DACAE"/>
<path d="M118.135 8.84692V8.88159H118.147L118.135 8.84692Z" fill="#B0BAB6"/>
<path d="M118.146 8.89111V8.92579H118.158L118.146 8.89111Z" fill="#A8B4B2"/>
<path d="M118.161 8.9541L118.165 8.96299L118.161 8.9541Z" fill="#C5CBC3"/>
<path d="M141.843 8.97925V9.01392H141.854L141.843 8.97925Z" fill="#CEBDD1"/>
<path d="M118.172 8.99805L118.176 9.00694L118.172 8.99805Z" fill="#CBD0C7"/>
<path d="M118.18 9.02344V9.05811H118.192L118.18 9.02344Z" fill="#A9B4B2"/>
<path d="M118.195 9.07544L118.199 9.08432L118.195 9.07544Z" fill="#AEB8B5"/>
<path d="M118.206 9.11963L118.21 9.12852L118.206 9.11963Z" fill="#C2C8C0"/>
<path d="M118.229 9.19702L118.232 9.20591L118.229 9.19702Z" fill="#BFC6BE"/>
<path d="M118.262 9.30737L118.266 9.31626L118.262 9.30737Z" fill="#C4CAC2"/>
<path d="M141.944 9.49854V9.53321H141.956L141.944 9.49854Z" fill="#CDBCD1"/>
<path d="M118.353 9.57251L118.357 9.5814L118.353 9.57251Z" fill="#CFD3CA"/>
<path d="M151.776 13.4084V13.4195H151.821L151.776 13.4084Z" fill="#FFDFA9"/>
<path d="M151.821 13.4084V13.4195H151.866L151.821 13.4084Z" fill="#FFCB74"/>
<path d="M151.866 13.4128C151.472 13.4636 151.1 13.5266 150.74 13.6978C149.938 14.0788 149.274 14.7382 148.98 15.5721C148.82 16.026 148.823 16.512 148.803 16.9858C148.776 17.5889 148.779 18.2085 148.848 18.8082C148.939 19.6089 149.063 20.3986 149.252 21.1828C149.928 23.9794 151.37 26.6588 153.328 28.7927C153.77 29.2731 154.238 29.7315 154.738 30.1523C155.024 30.3942 155.309 30.6482 155.65 30.8095C156.232 31.0878 156.925 31.1817 157.565 31.0977C158.291 31.0016 159.013 30.6924 159.511 30.1512C159.874 29.758 160.073 29.2709 160.261 28.7816C160.662 27.739 160.89 26.6434 160.966 25.5345C161.255 21.438 159.218 17.3812 155.808 15.0154C155.019 14.4676 154.156 14.0148 153.252 13.679C152.818 13.5189 152.339 13.3532 151.866 13.4128Z" fill="#FFCF0F"/>
<path d="M152.17 13.4084V13.4195H152.238L152.17 13.4084Z" fill="#FFD082"/>
<path d="M152.415 13.4336L152.424 13.4376L152.415 13.4336Z" fill="#FFCE7D"/>
<path d="M151.536 13.4448L151.545 13.4488L151.536 13.4448Z" fill="#FFE1B0"/>
<path d="M152.482 13.4448L152.492 13.4488L152.482 13.4448Z" fill="#FFCF7F"/>
<path d="M151.491 13.4558L151.5 13.4598L151.491 13.4558Z" fill="#FFD081"/>
<path d="M152.542 13.4524V13.4636H152.576L152.542 13.4524Z" fill="#FFDA9C"/>
<path d="M155.369 34.7912C155.281 34.7382 155.152 34.7272 155.053 34.6951C154.833 34.6256 154.614 34.5505 154.4 34.461C153.776 34.2003 153.205 33.8524 152.677 33.4338C150.051 31.3629 148.084 28.6658 146.748 25.645C146.084 24.143 145.559 22.5569 145.284 20.94C145.064 19.6588 144.937 18.3632 144.996 17.0632C145.019 16.5408 145.03 16.014 145.114 15.4949C145.192 15.0045 145.342 14.5285 145.533 14.0701C145.617 13.868 145.757 13.6725 145.819 13.4626C145.564 13.4847 145.29 13.6029 145.042 13.6692C144.036 13.9376 143.079 14.4125 142.193 14.9404C141.82 15.1635 141.437 15.3745 141.089 15.6352C139.647 16.7142 138.429 18.245 137.883 19.957C137.362 21.5894 137.421 23.3952 137.673 25.0707C138.163 28.33 139.64 31.4159 141.933 33.8292C142.651 34.5858 143.458 35.3611 144.378 35.8791C145.044 36.2536 145.774 36.5065 146.518 36.6898C147.711 36.9814 148.967 37.0797 150.189 36.9074C151.412 36.7351 152.599 36.3364 153.703 35.7974C154.084 35.6119 154.489 35.4241 154.837 35.1822C155.015 35.0585 155.186 34.9138 155.369 34.7912Z" fill="#25CD74"/>
<path d="M151.435 13.4668L151.444 13.4708L151.435 13.4668Z" fill="#FFCC77"/>
<path d="M152.587 13.4636V13.4749H152.621L152.587 13.4636Z" fill="#FFD184"/>
<path d="M151.378 13.478L151.388 13.482L151.378 13.478Z" fill="#FFD389"/>
<path d="M152.651 13.478L152.66 13.482L152.651 13.478Z" fill="#FFDFAA"/>
<path d="M145.702 13.489L145.711 13.493L145.702 13.489Z" fill="#7DBBB6"/>
<path d="M151.333 13.489L151.343 13.493L151.333 13.489Z" fill="#FFD388"/>
<path d="M152.696 13.489L152.705 13.493L152.696 13.489Z" fill="#FFE1B1"/>
<path d="M151.289 13.5L151.298 13.504L151.289 13.5Z" fill="#FFD183"/>
<path d="M151.209 13.5222L151.219 13.5262L151.209 13.5222Z" fill="#FFCE7B"/>
<path d="M152.809 13.5222L152.818 13.5262L152.809 13.5222Z" fill="#FFE1B1"/>
<path d="M152.843 13.5332L152.852 13.5372L152.843 13.5332Z" fill="#FFE0AF"/>
<path d="M145.466 13.5552L145.475 13.5592L145.466 13.5552Z" fill="#86BFBA"/>
<path d="M145.401 13.563V13.5742H145.436L145.401 13.563Z" fill="#9ECBC6"/>
<path d="M145.353 13.5774L145.362 13.5814L145.353 13.5774Z" fill="#A5CECB"/>
<path d="M145.308 13.5884L145.317 13.5924L145.308 13.5884Z" fill="#8AC0BC"/>
<path d="M145.263 13.5994L145.272 13.6034L145.263 13.5994Z" fill="#83BEB9"/>
<path d="M145.049 13.6658L145.058 13.6698L145.049 13.6658Z" fill="#88C0BC"/>
<path d="M137.3 14.439L137.309 14.443L137.3 14.439Z" fill="#C7CDC5"/>
<path d="M136.49 14.7039L136.499 14.7079L136.49 14.7039Z" fill="#CBCFC7"/>
<path d="M136.456 14.7151L136.465 14.7191L136.456 14.7151Z" fill="#CDD2C9"/>
<path d="M136.309 14.7593L136.318 14.7633L136.309 14.7593Z" fill="#C7CDC5"/>
<path d="M145.27 14.7966L145.274 14.8055L145.27 14.7966Z" fill="#ABD1CD"/>
<path d="M136.163 14.8035L136.172 14.8075L136.163 14.8035Z" fill="#BCC4BE"/>
<path d="M136.129 14.8145L136.138 14.8185L136.129 14.8145Z" fill="#CFD4CB"/>
<path d="M136.05 14.8364L136.059 14.8404L136.05 14.8364Z" fill="#B8C0BB"/>
<path d="M136.017 14.8474L136.026 14.8514L136.017 14.8474Z" fill="#CDD2C9"/>
<path d="M135.938 14.8696L135.947 14.8736L135.938 14.8696Z" fill="#BCC4BE"/>
<path d="M135.904 14.8806L135.913 14.8846L135.904 14.8806Z" fill="#CDD2C9"/>
<path d="M135.825 14.9028L135.834 14.9068L135.825 14.9028Z" fill="#C3C9C1"/>
<path d="M145.236 14.9182L145.24 14.9271L145.236 14.9182Z" fill="#A2CDC9"/>
<path d="M135.746 14.9248L135.754 14.9281L135.746 14.9248ZM135.667 14.9469L135.675 14.9502L135.667 14.9469Z" fill="#B8C0BB"/>
<path d="M145.225 14.9624L145.229 14.9713L145.225 14.9624Z" fill="#A9D0CD"/>
<path d="M135.589 14.969L135.596 14.9723L135.589 14.969ZM135.51 14.9911L135.518 14.9944L135.51 14.9911Z" fill="#BCC4BE"/>
<path d="M145.213 15.0066L145.217 15.0155L145.213 15.0066Z" fill="#ABD1CD"/>
<path d="M135.431 15.0132L135.44 15.0172L135.431 15.0132Z" fill="#C6CCC3"/>
<path d="M135.352 15.0352L135.361 15.0392L135.352 15.0352Z" fill="#CDD2C9"/>
<path d="M135.307 15.0464L135.316 15.0504L135.307 15.0464Z" fill="#C3C9C1"/>
<path d="M145.202 15.0508L145.206 15.0597L145.202 15.0508Z" fill="#9CCAC6"/>
<path d="M135.262 15.0574L135.271 15.0614L135.262 15.0574Z" fill="#B8C0BB"/>
<path d="M135.217 15.0684L135.226 15.0724L135.217 15.0684Z" fill="#ADB8B5"/>
<path d="M135.183 15.0793L135.192 15.0833L135.183 15.0793Z" fill="#CDD2C9"/>
<path d="M135.138 15.0906L135.147 15.0946L135.138 15.0906Z" fill="#B8C0BB"/>
<path d="M135.093 15.1016L135.102 15.1056L135.093 15.1016Z" fill="#B2BCB7"/>
<path d="M135.04 15.1091V15.1204H135.074L135.04 15.1091Z" fill="#A9B4B2"/>
<path d="M135.014 15.1235L135.023 15.1275L135.014 15.1235Z" fill="#CDD2C9"/>
<path d="M134.969 15.1348L134.978 15.1388L134.969 15.1348Z" fill="#C7CDC5"/>
<path d="M134.924 15.1458L134.933 15.1498L134.924 15.1458Z" fill="#C3C9C1"/>
<path d="M145.18 15.1501L145.184 15.159L145.18 15.1501Z" fill="#ABD1CD"/>
<path d="M134.879 15.1567L134.888 15.1607L134.879 15.1567Z" fill="#C3C9C1"/>
<path d="M134.834 15.1677L134.842 15.171L134.834 15.1677ZM134.789 15.1788L134.797 15.1821L134.789 15.1788Z" fill="#B8C0BB"/>
<path d="M134.744 15.1899L134.753 15.1939L134.744 15.1899Z" fill="#B8C1BB"/>
<path d="M145.168 15.1943L145.172 15.2032L145.168 15.1943Z" fill="#8AC1BC"/>
<path d="M134.699 15.2009L134.707 15.2042L134.699 15.2009ZM134.654 15.212L134.662 15.2153L134.654 15.212Z" fill="#B8C0BB"/>
<path d="M134.609 15.2229L134.618 15.2269L134.609 15.2229Z" fill="#C4CAC2"/>
<path d="M124.957 15.2341L124.966 15.2381L124.957 15.2341Z" fill="#9EACAF"/>
<path d="M134.563 15.2341L134.573 15.2381L134.563 15.2341Z" fill="#C3C9C1"/>
<path d="M134.519 15.2451L134.528 15.2491L134.519 15.2451Z" fill="#C7CDC5"/>
<path d="M145.154 15.2419V15.2766H145.166L145.154 15.2419Z" fill="#8BC1BD"/>
<path d="M134.455 15.2529V15.2642H134.489L134.455 15.2529Z" fill="#A4B0B1"/>
<path d="M134.409 15.2639V15.2752H134.444L134.409 15.2639Z" fill="#AFB9B6"/>
<path d="M125.103 15.2783L125.112 15.2823L125.103 15.2783Z" fill="#9CABAE"/>
<path d="M134.372 15.2783L134.381 15.2823L134.372 15.2783Z" fill="#BCC3BC"/>
<path d="M134.327 15.2893L134.336 15.2933L134.327 15.2893Z" fill="#C3C9C1"/>
<path d="M125.182 15.3003L125.191 15.3043L125.182 15.3003Z" fill="#99A9AD"/>
<path d="M134.263 15.2971V15.3084H134.298L134.263 15.2971Z" fill="#ADB8B5"/>
<path d="M145.146 15.3047L145.15 15.3136L145.146 15.3047Z" fill="#8BC1BD"/>
<path d="M134.226 15.3113L134.235 15.3153L134.226 15.3113Z" fill="#B8C0BB"/>
<path d="M125.261 15.3223L125.27 15.3263L125.261 15.3223Z" fill="#99A9AD"/>
<path d="M134.162 15.3191V15.3303H134.196L134.162 15.3191Z" fill="#A4B0B1"/>
<path d="M134.117 15.3301V15.3413H134.151L134.117 15.3301Z" fill="#ADB8B5"/>
<path d="M134.06 15.3411V15.3523H134.094L134.06 15.3411Z" fill="#A0AEAF"/>
<path d="M134.015 15.3523V15.3635H134.049L134.015 15.3523Z" fill="#B2BBB7"/>
<path d="M133.959 15.3633V15.3745H133.993L133.959 15.3633Z" fill="#A4B0B1"/>
<path d="M145.131 15.3633V15.398H145.143L145.131 15.3633Z" fill="#98C8C4"/>
<path d="M125.464 15.3777L125.473 15.3817L125.464 15.3777Z" fill="#A4B0B1"/>
<path d="M133.922 15.3777L133.931 15.3817L133.922 15.3777Z" fill="#B8C0BB"/>
<path d="M133.857 15.3853V15.3965H133.892L133.857 15.3853Z" fill="#ADB8B5"/>
<path d="M125.542 15.3997L125.552 15.4037L125.542 15.3997Z" fill="#ACB6B3"/>
<path d="M133.801 15.3965V15.4077H133.836L133.801 15.3965Z" fill="#A5B2B1"/>
<path d="M125.587 15.4106L125.596 15.4146L125.587 15.4106Z" fill="#A8B4B2"/>
<path d="M133.745 15.4075V15.4187H133.779L133.745 15.4075Z" fill="#9CABAE"/>
<path d="M125.632 15.4219L125.641 15.4259L125.632 15.4219Z" fill="#ADB8B5"/>
<path d="M133.7 15.4185V15.4297H133.734L133.7 15.4185Z" fill="#B2BBB7"/>
<path d="M145.12 15.4185V15.4531H145.132L145.12 15.4185Z" fill="#7DBBB6"/>
<path d="M125.678 15.4329L125.687 15.4369L125.678 15.4329Z" fill="#ADB8B5"/>
<path d="M133.644 15.4294V15.4407H133.678L133.644 15.4294Z" fill="#B2BBB7"/>
<path d="M125.723 15.4438L125.732 15.4478L125.723 15.4438Z" fill="#ADB8B5"/>
<path d="M133.587 15.4407V15.4519H133.622L133.587 15.4407Z" fill="#B2BBB7"/>
<path d="M125.768 15.4548L125.777 15.4588L125.768 15.4548Z" fill="#A5B1B0"/>
<path d="M133.531 15.4517V15.4629H133.565L133.531 15.4517Z" fill="#B4BDB8"/>
<path d="M125.805 15.4626V15.4739H125.839L125.805 15.4626Z" fill="#B2BBB7"/>
<path d="M133.475 15.4626V15.4739H133.509L133.475 15.4626Z" fill="#ADB8B5"/>
<path d="M133.407 15.4736V15.4849H133.442L133.407 15.4736Z" fill="#98A8AD"/>
<path d="M125.914 15.488L125.923 15.492L125.914 15.488Z" fill="#A4B0B1"/>
<path d="M133.351 15.4849V15.4961H133.385L133.351 15.4849Z" fill="#9EACAF"/>
<path d="M145.109 15.4849V15.5195H145.121L145.109 15.4849Z" fill="#81BDB8"/>
<path d="M125.951 15.4958V15.5071H125.986L125.951 15.4958Z" fill="#ADB8B5"/>
<path d="M133.294 15.4958V15.5071H133.329L133.294 15.4958Z" fill="#A9B4B2"/>
<path d="M126.004 15.5103L126.013 15.5142L126.004 15.5103Z" fill="#B2BCB7"/>
<path d="M133.227 15.5068V15.5181H133.261L133.227 15.5068Z" fill="#96A7AC"/>
<path d="M126.053 15.5178V15.5291H126.087L126.053 15.5178Z" fill="#A9B4B2"/>
<path d="M133.17 15.5178V15.5291H133.205L133.17 15.5178Z" fill="#99A9AD"/>
<path d="M126.117 15.5322L126.126 15.5362L126.117 15.5322Z" fill="#99A9AD"/>
<path d="M133.114 15.5291V15.5403H133.149L133.114 15.5291Z" fill="#A9B4B2"/>
<path d="M126.154 15.54V15.5513H126.188L126.154 15.54Z" fill="#B2BBB7"/>
<path d="M133.047 15.54V15.5513H133.081L133.047 15.54Z" fill="#9EACAF"/>
<path d="M126.21 15.551V15.5623H126.245L126.21 15.551Z" fill="#A9B4B2"/>
<path d="M126.255 15.562V15.5731H126.3L126.255 15.562Z" fill="#8A9DAB"/>
<path d="M145.098 15.562V15.6172H145.109L145.098 15.562Z" fill="#AFD3D0"/>
<path d="M126.323 15.573V15.5843H126.357L126.323 15.573Z" fill="#A9B4B2"/>
<path d="M132.855 15.573V15.5843H132.889L132.855 15.573Z" fill="#A4B0B1"/>
<path d="M126.379 15.5842V15.5955H126.414L126.379 15.5842Z" fill="#A1AEB0"/>
<path d="M132.788 15.5842V15.5955H132.822L132.788 15.5842Z" fill="#A4B0B0"/>
<path d="M126.436 15.5952V15.6065H126.47L126.436 15.5952Z" fill="#A9B4B2"/>
<path d="M126.492 15.6062V15.6175H126.526L126.492 15.6062Z" fill="#A9B5B2"/>
<path d="M132.641 15.6062V15.6175H132.675L132.641 15.6062Z" fill="#98A7AC"/>
<path d="M126.548 15.6172V15.6282H126.593L126.548 15.6172Z" fill="#8A9DAB"/>
<path d="M132.574 15.6172V15.6284H132.608L132.574 15.6172Z" fill="#99A9AD"/>
<path d="M126.672 15.6394V15.6504H126.717L126.672 15.6394Z" fill="#869AAA"/>
<path d="M132.458 15.6426L132.467 15.6466L132.458 15.6426Z" fill="#CBD0C7"/>
<path d="M145.086 15.6394V15.6946H145.097L145.086 15.6394Z" fill="#A8D0CC"/>
<path d="M126.74 15.6506V15.6619H126.774L126.74 15.6506Z" fill="#B8C0BB"/>
<path d="M132.348 15.6506V15.6617H132.404L132.348 15.6506Z" fill="#C3C9C1"/>
<path d="M148.953 15.6582L148.957 15.6671L148.953 15.6582Z" fill="#FEC96D"/>
<path d="M126.807 15.6614V15.6724H126.852L126.807 15.6614Z" fill="#8A9DAB"/>
<path d="M126.875 15.6726V15.6837H126.92L126.875 15.6726Z" fill="#8A9DAB"/>
<path d="M126.942 15.6836V15.6946H126.999L126.942 15.6836Z" fill="#8FA3AE"/>
<path d="M132.134 15.6836V15.6948H132.169L132.134 15.6836Z" fill="#C7CDC5"/>
<path d="M127.021 15.6946V15.7056H127.077L127.021 15.6946Z" fill="#8FA2AD"/>
<path d="M132.056 15.6946V15.7058H132.09L132.056 15.6946Z" fill="#CDD2C9"/>
<path d="M127.1 15.7056V15.7166H127.145L127.1 15.7056Z" fill="#8FA2AD"/>
<path d="M131.965 15.7056V15.7168H132L131.965 15.7056Z" fill="#C3C9C1"/>
<path d="M127.167 15.7168V15.7278H127.213L127.167 15.7168Z" fill="#9AAAAD"/>
<path d="M131.875 15.7168V15.728H131.91L131.875 15.7168Z" fill="#C3C9C1"/>
<path d="M127.258 15.7278V15.7388H127.314L127.258 15.7278Z" fill="#99A9AD"/>
<path d="M131.774 15.7278V15.739H131.808L131.774 15.7278Z" fill="#B8C0BB"/>
<path d="M127.336 15.7388V15.7498H127.381L127.336 15.7388Z" fill="#A4B0B1"/>
<path d="M131.684 15.7388V15.75H131.718L131.684 15.7388Z" fill="#C3C9C1"/>
<path d="M127.427 15.7498V15.7608H127.472L127.427 15.7498Z" fill="#9CABAE"/>
<path d="M131.549 15.7498V15.7608H131.605L131.549 15.7498Z" fill="#A9B5B2"/>
<path d="M131.47 15.761V15.7722H131.504L131.47 15.761Z" fill="#B2BBB7"/>
<path d="M127.618 15.772V15.783H127.697L127.618 15.772Z" fill="#ADB8B5"/>
<path d="M131.334 15.772V15.783H131.402L131.334 15.772Z" fill="#BCC4BE"/>
<path d="M127.72 15.783V15.794H127.765L127.72 15.783Z" fill="#AFB9B6"/>
<path d="M131.233 15.783V15.794H131.301L131.233 15.783Z" fill="#C1C8C0"/>
<path d="M127.832 15.7942V15.8052H127.877L127.832 15.7942Z" fill="#B8C0BB"/>
<path d="M131.109 15.7942V15.8052H131.177L131.109 15.7942Z" fill="#D2D6CD"/>
<path d="M127.945 15.8052V15.8162H128.001L127.945 15.8052Z" fill="#BCC3BC"/>
<path d="M130.963 15.8052V15.8162H131.03L130.963 15.8052Z" fill="#BFC6BE"/>
<path d="M128.091 15.8162V15.8272H128.181L128.091 15.8162Z" fill="#A9B4B2"/>
<path d="M130.816 15.8162V15.8272H130.918L130.816 15.8162Z" fill="#BCC4BE"/>
<path d="M128.249 15.8271V15.8382H128.339L128.249 15.8271Z" fill="#A4B0B1"/>
<path d="M130.603 15.8271V15.8382H130.681L130.603 15.8271Z" fill="#879BAB"/>
<path d="M130.682 15.8271V15.8382H130.749L130.682 15.8271Z" fill="#D4D8CF"/>
<path d="M128.395 15.8381V15.8492H128.44L128.395 15.8381Z" fill="#C6CCC3"/>
<path d="M128.44 15.8381V15.8492H128.519L128.44 15.8381Z" fill="#9DACAE"/>
<path d="M130.456 15.8381V15.8492H130.512L130.456 15.8381Z" fill="#ACB6B3"/>
<path d="M130.513 15.8381V15.8492H130.569L130.513 15.8381Z" fill="#D9DCD3"/>
<path d="M145.063 15.8381V15.8934H145.075L145.063 15.8381Z" fill="#8DC2BE"/>
<path d="M128.587 15.8494V15.8604H128.756L128.587 15.8494Z" fill="#B6BFB9"/>
<path d="M130.175 15.8494V15.8604H130.276L130.175 15.8494Z" fill="#94A5AC"/>
<path d="M130.276 15.8494V15.8604H130.377L130.276 15.8494Z" fill="#D1D5CC"/>
<path d="M128.846 15.8604V15.8714H128.936L128.846 15.8604Z" fill="#CACFC6"/>
<path d="M128.936 15.8604V15.8714H129.104L128.936 15.8604Z" fill="#A0AEAF"/>
<path d="M129.105 15.8604V15.8714H129.24L129.105 15.8604Z" fill="#7D95AA"/>
<path d="M129.634 15.8604V15.8714H129.938L129.634 15.8604Z" fill="#869AAA"/>
<path d="M129.938 15.8604V15.8714H130.096L129.938 15.8604Z" fill="#D8DCD2"/>
<path d="M148.896 15.8682L148.9 15.8771L148.896 15.8682Z" fill="#FEC970"/>
<path d="M148.882 15.9045V15.9392H148.894L148.882 15.9045Z" fill="#FFD590"/>
<path d="M148.87 15.9597V15.9944H148.882L148.87 15.9597Z" fill="#FFD897"/>
<path d="M145.052 16.0039V16.0591H145.064L145.052 16.0039Z" fill="#A7D0CC"/>
<path d="M148.859 16.0261V16.0608H148.871L148.859 16.0261Z" fill="#FFD793"/>
<path d="M148.848 16.0923V16.127H148.859L148.848 16.0923Z" fill="#FFE1B1"/>
<path d="M145.041 16.1475V16.2027H145.052L145.041 16.1475Z" fill="#B0D4D1"/>
<path d="M148.836 16.1807V16.258H148.848L148.836 16.1807Z" fill="#FFDDA4"/>
<path d="M145.03 16.28V16.3463H145.041L145.03 16.28Z" fill="#B8D8D5"/>
<path d="M148.825 16.3132V16.3905H148.836L148.825 16.3132Z" fill="#FFDFAA"/>
<path d="M145.019 16.4014V16.4566H145.03L145.019 16.4014Z" fill="#77B8B3"/>
<path d="M145.019 16.4568V16.512H145.03L145.019 16.4568Z" fill="#BCDAD7"/>
<path d="M148.814 16.4568V16.501H148.825L148.814 16.4568Z" fill="#FFDEA6"/>
<path d="M148.814 16.501V16.5452H148.825L148.814 16.501Z" fill="#FFCB73"/>
<path d="M145.007 16.6003V16.6666H145.019L145.007 16.6003Z" fill="#8FC3BF"/>
<path d="M148.803 16.6555V16.7218H148.814L148.803 16.6555Z" fill="#FFD185"/>
<path d="M144.996 16.8101V16.8874H145.007L144.996 16.8101Z" fill="#85BFBA"/>
<path d="M148.792 16.8433V16.9537H148.803L148.792 16.8433Z" fill="#FFD388"/>
<path d="M144.996 16.8875V16.9758H145.007L144.996 16.8875Z" fill="#C1DCDA"/>
<path d="M148.792 16.9536V17.042H148.803L148.792 16.9536Z" fill="#FEBF50"/>
<path d="M144.985 17.1084V17.4839H144.996L144.985 17.1084Z" fill="#ABD1CD"/>
<path d="M148.78 17.1746V17.771H148.792V17.3734L148.78 17.1746Z" fill="#FFD999"/>
<path d="M148.78 17.771V17.8704H148.792L148.78 17.771Z" fill="#FFEAC9"/>
<path d="M144.985 17.8816V18.2019H144.996L144.985 17.8816Z" fill="#9CC9C6"/>
<path d="M148.792 17.9587V18.0581H148.803L148.792 17.9587Z" fill="#FEC053"/>
<path d="M148.792 18.0581V18.1465H148.803L148.792 18.0581Z" fill="#FFDDA5"/>
<path d="M148.803 18.2571V18.3565H148.814L148.803 18.2571Z" fill="#FFD287"/>
<path d="M144.996 18.3232V18.4116H145.007L144.996 18.3232Z" fill="#B1D4D1"/>
<path d="M148.814 18.4226V18.522H148.825L148.814 18.4226Z" fill="#FFCA72"/>
<path d="M145.007 18.5774V18.6768H145.019L145.007 18.5774Z" fill="#80BCB7"/>
<path d="M148.825 18.5884V18.6657H148.836L148.825 18.5884Z" fill="#FFCC77"/>
<path d="M145.019 18.7871V18.8534H145.03L145.019 18.7871Z" fill="#95C6C2"/>
<path d="M148.848 18.8535V18.9087H148.859L148.848 18.8535Z" fill="#FFD081"/>
<path d="M145.03 18.9197V18.986H145.041L145.03 18.9197Z" fill="#C1DCDA"/>
<path d="M145.03 18.9861V19.0413H145.041L145.03 18.9861Z" fill="#76B7B2"/>
<path d="M148.859 19.0081V19.0427H148.871L148.859 19.0081Z" fill="#FFDBA0"/>
<path d="M148.87 19.0742V19.1294H148.881L148.87 19.0742Z" fill="#FFD389"/>
<path d="M145.041 19.1184V19.1736H145.052L145.041 19.1184Z" fill="#71B6B0"/>
<path d="M148.882 19.1738V19.2291H148.893L148.882 19.1738Z" fill="#FFD388"/>
<path d="M145.052 19.251V19.3172H145.064L145.052 19.251Z" fill="#6DB3AE"/>
<path d="M148.893 19.3062V19.3408H148.905L148.893 19.3062Z" fill="#FFE1B1"/>
<path d="M145.063 19.3726V19.4388H145.075L145.063 19.3726Z" fill="#6EB4AF"/>
<path d="M148.916 19.45V19.5052H148.927L148.916 19.45Z" fill="#FFDA9D"/>
<path d="M145.075 19.4609V19.5162H145.086L145.075 19.4609Z" fill="#A2CCC9"/>
<path d="M148.927 19.5383V19.573H148.938L148.927 19.5383Z" fill="#FFCE7C"/>
<path d="M145.086 19.5713V19.6265H145.097L145.086 19.5713Z" fill="#9DCAC6"/>
<path d="M148.938 19.6155V19.6502H148.95L148.938 19.6155Z" fill="#FFCE7E"/>
<path d="M148.949 19.6929V19.737H148.96L148.949 19.6929Z" fill="#FFE5BA"/>
<path d="M145.109 19.7703V19.8476H145.12L145.109 19.7703Z" fill="#9DCAC6"/>
<path d="M148.96 19.7703V19.8049H148.972L148.96 19.7703Z" fill="#FFD389"/>
<path d="M148.972 19.8364V19.8711H148.983L148.972 19.8364Z" fill="#FFD081"/>
<path d="M148.983 19.9026V19.9373H148.995L148.983 19.9026Z" fill="#FFCE7B"/>
<path d="M148.994 19.969V20.0037H149.006L148.994 19.969Z" fill="#FFCA72"/>
<path d="M137.859 20.032L137.863 20.0409L137.859 20.032Z" fill="#82BDB9"/>
<path d="M149.009 20.043L149.013 20.0519L149.009 20.043Z" fill="#FFCD7A"/>
<path d="M145.143 20.0464V20.0906H145.154L145.143 20.0464Z" fill="#8FC3BF"/>
<path d="M149.017 20.1016V20.1362H149.028L149.017 20.1016Z" fill="#FFD287"/>
<path d="M145.154 20.1345V20.1787H145.165L145.154 20.1345Z" fill="#80BCB8"/>
<path d="M137.814 20.1755L137.818 20.1844L137.814 20.1755Z" fill="#8AC0BC"/>
<path d="M149.028 20.1677V20.2024H149.04L149.028 20.1677Z" fill="#FFD793"/>
<path d="M145.165 20.2119V20.2671H145.176L145.165 20.2119Z" fill="#8AC0BC"/>
<path d="M149.039 20.2229V20.2576H149.051L149.039 20.2229Z" fill="#FFCE7D"/>
<path d="M137.792 20.2529L137.795 20.2618L137.792 20.2529Z" fill="#84BEBA"/>
<path d="M149.051 20.2893V20.324H149.062L149.051 20.2893Z" fill="#FFD998"/>
<path d="M137.769 20.3301L137.773 20.339L137.769 20.3301Z" fill="#8FC3BF"/>
<path d="M149.062 20.3445V20.3792H149.074L149.062 20.3445Z" fill="#FFD691"/>
<path d="M137.758 20.3742L137.761 20.3819L137.758 20.3742ZM145.188 20.3665V20.4217H145.199L145.188 20.3665Z" fill="#84BEBA"/>
<path d="M149.077 20.4075L149.081 20.4164L149.077 20.4075Z" fill="#FFD48B"/>
<path d="M137.747 20.4185L137.751 20.4273L137.747 20.4185Z" fill="#7DBBB6"/>
<path d="M145.199 20.4438V20.4785H145.21L145.199 20.4438Z" fill="#B0D4D0"/>
<path d="M149.084 20.4548V20.4895H149.096L149.084 20.4548Z" fill="#FFD184"/>
<path d="M137.724 20.5068L137.728 20.5157L137.724 20.5068Z" fill="#7DBBB6"/>
<path d="M149.096 20.5103V20.5449H149.107L149.096 20.5103Z" fill="#FFD185"/>
<path d="M145.21 20.5212V20.5654H145.221L145.21 20.5212Z" fill="#6EB4AF"/>
<path d="M137.713 20.551L137.717 20.5599L137.713 20.551Z" fill="#82BDB9"/>
<path d="M149.107 20.5654V20.6001H149.119L149.107 20.5654Z" fill="#FFD48E"/>
<path d="M137.702 20.5952L137.706 20.6041L137.702 20.5952Z" fill="#90C4C0"/>
<path d="M145.221 20.5874V20.6221H145.233L145.221 20.5874Z" fill="#B5D7D3"/>
<path d="M149.122 20.6284L149.126 20.6373L149.122 20.6284Z" fill="#FFD897"/>
<path d="M137.687 20.6316V20.6663H137.698L137.687 20.6316Z" fill="#A0CCC8"/>
<path d="M145.232 20.6648V20.6995H145.244L145.232 20.6648Z" fill="#9AC9C4"/>
<path d="M149.133 20.6836L149.137 20.6925L149.133 20.6836Z" fill="#FFDCA2"/>
<path d="M137.679 20.6946L137.683 20.7035L137.679 20.6946Z" fill="#8DC2BE"/>
<path d="M145.244 20.72V20.7546H145.255L145.244 20.72Z" fill="#B6D7D4"/>
<path d="M149.141 20.72V20.7546H149.152L149.141 20.72Z" fill="#FFD082"/>
<path d="M137.667 20.7498L137.671 20.7586L137.667 20.7498Z" fill="#85BFBA"/>
<path d="M149.155 20.783L149.159 20.7918L149.155 20.783Z" fill="#FFD897"/>
<path d="M137.656 20.7939L137.66 20.8028L137.656 20.7939Z" fill="#A4CECA"/>
<path d="M145.255 20.7864V20.821H145.267L145.255 20.7864Z" fill="#B4D6D2"/>
<path d="M149.167 20.8381L149.17 20.847L149.167 20.8381Z" fill="#FFE1B2"/>
<path d="M137.642 20.8416V20.8762H137.653L137.642 20.8416Z" fill="#AAD1CD"/>
<path d="M145.266 20.8525V20.8872H145.278L145.266 20.8525Z" fill="#B2D5D2"/>
<path d="M149.178 20.8823L149.182 20.8912L149.178 20.8823Z" fill="#FFDA9D"/>
<path d="M137.634 20.9155L137.638 20.9244L137.634 20.9155Z" fill="#93C5C1"/>
<path d="M145.281 20.9265L145.285 20.9354L145.281 20.9265Z" fill="#AED3CF"/>
<path d="M149.186 20.9187V20.9534H149.197L149.186 20.9187Z" fill="#FFD48B"/>
<path d="M137.619 20.9629V20.9976H137.631L137.619 20.9629Z" fill="#AAD1CD"/>
<path d="M149.2 20.9817L149.204 20.9906L149.2 20.9817Z" fill="#FFDDA5"/>
<path d="M145.289 20.9851V21.0198H145.301L145.289 20.9851Z" fill="#9BC9C5"/>
<path d="M149.211 21.0259L149.215 21.0348L149.211 21.0259Z" fill="#FFDA9B"/>
<path d="M137.608 21.0293V21.064H137.62L137.608 21.0293Z" fill="#A7D0CC"/>
<path d="M145.3 21.0403V21.075H145.312L145.3 21.0403Z" fill="#A9D0CD"/>
<path d="M149.223 21.0701L149.227 21.079L149.223 21.0701Z" fill="#FFD794"/>
<path d="M137.597 21.0955V21.1301H137.608L137.597 21.0955Z" fill="#B1D4D1"/>
<path d="M145.315 21.1143L145.319 21.1231L145.315 21.1143Z" fill="#95C6C2"/>
<path d="M149.234 21.1143L149.238 21.1231L149.234 21.1143Z" fill="#FFD58F"/>
<path d="M145.326 21.1694L145.33 21.1783L145.326 21.1694Z" fill="#A4CECA"/>
<path d="M137.585 21.1729V21.2075H137.597L137.585 21.1729Z" fill="#AED3CF"/>
<path d="M145.334 21.217V21.2517H145.346L145.334 21.217Z" fill="#B2D5D2"/>
<path d="M137.574 21.2502V21.2944H137.585L137.574 21.2502Z" fill="#8AC0BC"/>
<path d="M145.349 21.291L145.353 21.2999L145.349 21.291Z" fill="#8DC2BE"/>
<path d="M160.463 21.3242L160.467 21.3331L160.463 21.3242Z" fill="#FFCA72"/>
<path d="M137.563 21.3386V21.3828H137.574L137.563 21.3386Z" fill="#90C4C0"/>
<path d="M145.36 21.3462L145.364 21.3551L145.36 21.3462Z" fill="#8CC2BE"/>
<path d="M149.302 21.3794L149.306 21.3883L149.302 21.3794Z" fill="#FFD693"/>
<path d="M145.371 21.4016L145.375 21.4105L145.371 21.4016Z" fill="#8BC1BD"/>
<path d="M149.313 21.4236L149.317 21.4325L149.313 21.4236Z" fill="#FFD99A"/>
<path d="M160.497 21.4346L160.501 21.4435L160.497 21.4346Z" fill="#FFC96E"/>
<path d="M145.382 21.4565L145.386 21.4654L145.382 21.4565Z" fill="#8AC0BC"/>
<path d="M149.324 21.4678L149.328 21.4767L149.324 21.4678Z" fill="#FFDCA1"/>
<path d="M137.552 21.4709V21.5151H137.563L137.552 21.4709Z" fill="#6EB4AF"/>
<path d="M145.394 21.512L145.398 21.5209L145.394 21.512Z" fill="#89C0BC"/>
<path d="M149.335 21.512L149.339 21.5209L149.335 21.512Z" fill="#FFE0AF"/>
<path d="M137.541 21.5593V21.6145H137.552L137.541 21.5593Z" fill="#AED3CF"/>
<path d="M145.405 21.5671L145.409 21.576L145.405 21.5671Z" fill="#7FBCB7"/>
<path d="M149.358 21.5894L149.362 21.5982L149.358 21.5894Z" fill="#FFDA9F"/>
<path d="M145.416 21.6113L145.42 21.6202L145.416 21.6113Z" fill="#96C7C3"/>
<path d="M145.427 21.6665L145.431 21.6754L145.427 21.6665Z" fill="#86BFBB"/>
<path d="M160.564 21.6665L160.568 21.6754L160.564 21.6665Z" fill="#FFCB74"/>
<path d="M137.529 21.6919V21.7692H137.541L137.529 21.6919Z" fill="#B3D5D2"/>
<path d="M145.435 21.7029V21.7376H145.447L145.435 21.7029Z" fill="#9DCAC6"/>
<path d="M149.392 21.7107L149.396 21.7196L149.392 21.7107Z" fill="#FFDDA4"/>
<path d="M160.587 21.7439L160.591 21.7528L160.587 21.7439Z" fill="#FFD185"/>
<path d="M145.45 21.7659L145.454 21.7748L145.45 21.7659Z" fill="#8DC3BE"/>
<path d="M149.414 21.7881L149.418 21.797L149.414 21.7881Z" fill="#FFDDA4"/>
<path d="M160.598 21.7881L160.602 21.797L160.598 21.7881Z" fill="#FFCE7B"/>
<path d="M145.458 21.8025V21.8372H145.47L145.458 21.8025Z" fill="#A5CECB"/>
<path d="M160.609 21.8323L160.613 21.8412L160.609 21.8323Z" fill="#FFCB73"/>
<path d="M145.473 21.8652L145.477 21.8741L145.473 21.8652Z" fill="#90C4C0"/>
<path d="M149.437 21.8652L149.441 21.8741L149.437 21.8652Z" fill="#FFE0AC"/>
<path d="M160.621 21.8765L160.625 21.8853L160.621 21.8765Z" fill="#FEC96C"/>
<path d="M137.518 21.8796V21.9349H137.529L137.518 21.8796Z" fill="#A1CCC8"/>
<path d="M145.484 21.9097L145.488 21.9186L145.484 21.9097Z" fill="#9AC9C5"/>
<path d="M160.643 21.9646L160.647 21.9735L160.643 21.9646Z" fill="#FEC96C"/>
<path d="M145.506 22.009L145.51 22.0179L145.506 22.009Z" fill="#86BFBB"/>
<path d="M160.654 22.009L160.658 22.0179L160.654 22.009Z" fill="#FEC970"/>
<path d="M137.506 22.0344V22.178H137.518L137.506 22.0344Z" fill="#ABD2CE"/>
<path d="M145.518 22.053L145.522 22.0619L145.518 22.053Z" fill="#91C5C0"/>
<path d="M160.666 22.053L160.67 22.0619L160.666 22.053Z" fill="#FFCB73"/>
<path d="M149.504 22.0862L149.508 22.0951L149.504 22.0862Z" fill="#FFDDA5"/>
<path d="M145.529 22.0972L145.533 22.1061L145.529 22.0972Z" fill="#9CCAC6"/>
<path d="M160.677 22.0972L160.681 22.1061L160.677 22.0972Z" fill="#FFD081"/>
<path d="M160.688 22.1414L160.692 22.1502L160.688 22.1414Z" fill="#FFD590"/>
<path d="M145.54 22.1526L145.543 22.1603L145.54 22.1526ZM145.551 22.1968L145.555 22.2045L145.551 22.1968Z" fill="#7DBBB6"/>
<path d="M160.699 22.1965L160.703 22.2054L160.699 22.1965Z" fill="#FEC970"/>
<path d="M160.71 22.2407L160.714 22.2496L160.71 22.2407Z" fill="#FFD389"/>
<path d="M160.722 22.2961L160.726 22.305L160.722 22.2961Z" fill="#FFCC76"/>
<path d="M160.733 22.3403L160.737 22.3492L160.733 22.3403Z" fill="#FFD58F"/>
<path d="M137.495 22.3767V22.5645H137.506L137.495 22.3767Z" fill="#90C4C0"/>
<path d="M160.741 22.3877V22.4224H160.753L160.741 22.3877Z" fill="#FFD388"/>
<path d="M160.756 22.4507L160.76 22.4596L160.756 22.4507Z" fill="#FFD183"/>
<path d="M160.767 22.5059L160.771 22.5147L160.767 22.5059Z" fill="#FFCF7F"/>
<path d="M145.642 22.5391L145.646 22.548L145.642 22.5391Z" fill="#8FC3BF"/>
<path d="M160.778 22.561L160.782 22.5699L160.778 22.561Z" fill="#FFD389"/>
<path d="M137.495 22.5645V23.0725H137.506C137.506 22.9289 137.551 22.697 137.495 22.5645Z" fill="#57ABA4"/>
<path d="M145.653 22.5833L145.657 22.5921L145.653 22.5833Z" fill="#82BDB9"/>
<path d="M160.79 22.6165L160.794 22.6253L160.79 22.6165Z" fill="#FFD692"/>
<path d="M160.797 22.6638V22.6985H160.809L160.797 22.6638Z" fill="#FFDA9F"/>
<path d="M145.687 22.7046L145.69 22.7135L145.687 22.7046Z" fill="#8CC2BE"/>
<path d="M160.812 22.7378L160.816 22.7467L160.812 22.7378Z" fill="#FFD691"/>
<path d="M145.698 22.7488L145.702 22.7577L145.698 22.7488Z" fill="#80BCB7"/>
<path d="M160.823 22.793L160.827 22.8019L160.823 22.793Z" fill="#FFDFA9"/>
<path d="M145.72 22.8262L145.724 22.8351L145.72 22.8262Z" fill="#86BFBA"/>
<path d="M160.831 22.8516V22.8862H160.843L160.831 22.8516Z" fill="#FFDEA8"/>
<path d="M145.743 22.9036L145.747 22.9124L145.743 22.9036Z" fill="#88C0BC"/>
<path d="M160.842 22.918V22.9526H160.854L160.842 22.918Z" fill="#FFDFAB"/>
<path d="M145.765 22.9807L145.769 22.9896L145.765 22.9807Z" fill="#8AC1BC"/>
<path d="M160.854 23.0063V23.041H160.865L160.854 23.0063Z" fill="#FFCD7A"/>
<path d="M145.788 23.0581L145.792 23.067L145.788 23.0581Z" fill="#8BC1BD"/>
<path d="M160.865 23.0615V23.0962H160.876L160.865 23.0615Z" fill="#FFE0AC"/>
<path d="M137.495 23.0725V23.2382H137.506L137.495 23.0725Z" fill="#A3CDC9"/>
<path d="M160.876 23.1389V23.1736H160.888L160.876 23.1389Z" fill="#FFDFAA"/>
<path d="M134.004 23.1719C132.978 24.8098 132.006 26.4665 131.151 28.1972C130.76 28.9892 130.358 29.7789 130.023 30.594C129.812 31.1042 129.584 31.6068 129.375 32.1181C129.208 32.5268 129.06 32.931 129.229 33.3662C129.416 33.8444 129.859 34.009 130.31 34.1736C130.806 34.3547 131.301 34.5381 131.797 34.7214C133.324 35.288 134.916 35.7121 136.504 36.0832C137.682 36.356 138.883 36.6631 140.086 36.8122C139.91 36.5692 139.64 36.3715 139.435 36.1495C138.98 35.6558 138.537 35.1555 138.125 34.6253C136.814 32.9399 135.797 31.0479 135.09 29.0477C134.647 27.7974 134.326 26.4853 134.163 25.171C134.112 24.7469 134.058 24.3161 134.039 23.8898C134.032 23.7396 134.016 23.5872 134.016 23.4369C134.014 23.3563 134.036 23.2459 134.004 23.1719Z" fill="#FF1F39"/>
<path d="M160.887 23.2161V23.2507H160.899L160.887 23.2161Z" fill="#FFE1B1"/>
<path d="M134.015 23.2935V23.4149H134.026L134.015 23.2935Z" fill="#EEC5B8"/>
<path d="M160.91 23.3928V23.4481H160.921L160.91 23.3928Z" fill="#FFCD79"/>
<path d="M137.506 23.4038V23.459H137.518L137.506 23.4038Z" fill="#79B9B4"/>
<path d="M134.015 23.415V23.5144H134.026L134.015 23.415Z" fill="#E3A08F"/>
<path d="M137.506 23.4592V23.5365H137.518L137.506 23.4592Z" fill="#A4CECA"/>
<path d="M134.026 23.5806V23.6689H134.038L134.026 23.5806Z" fill="#F4DBD2"/>
<path d="M160.933 23.5806V23.6468H160.944L160.933 23.5806Z" fill="#FFDA9B"/>
<path d="M137.518 23.6357V23.691H137.529L137.518 23.6357Z" fill="#81BDB8"/>
<path d="M134.026 23.6689V23.7352H134.038L134.026 23.6689Z" fill="#E19C8A"/>
<path d="M137.518 23.6912V23.7464H137.529L137.518 23.6912Z" fill="#B7D7D4"/>
<path d="M160.944 23.6912V23.7685H160.955L160.944 23.6912Z" fill="#FFDBA0"/>
<path d="M134.038 23.8347V23.8899H134.049L134.038 23.8347Z" fill="#E9B5A6"/>
<path d="M137.529 23.8347V23.912H137.541L137.529 23.8347Z" fill="#9FCBC8"/>
<path d="M160.955 23.8457V23.912H160.966L160.955 23.8457Z" fill="#FEC96D"/>
<path d="M134.038 23.8899V23.9451H134.049L134.038 23.8899Z" fill="#DE917F"/>
<path d="M137.541 23.978V24.0664H137.552L137.541 23.978Z" fill="#A9D0CD"/>
<path d="M160.966 23.9893V24.0776H160.978L160.966 23.9893Z" fill="#FFCF7F"/>
<path d="M134.049 24.0222V24.0885H134.06L134.049 24.0222Z" fill="#E4A392"/>
<path d="M137.552 24.0996V24.1659H137.563L137.552 24.0996Z" fill="#8AC1BC"/>
<path d="M134.06 24.1438V24.2211H134.071L134.06 24.1438Z" fill="#EFC8BB"/>
<path d="M160.978 24.166V24.2433H160.989L160.978 24.166Z" fill="#FFDA9C"/>
<path d="M137.563 24.2212V24.2764H137.574L137.563 24.2212Z" fill="#8BC1BD"/>
<path d="M160.978 24.2434V24.3207H160.989L160.978 24.2434Z" fill="#FEC35B"/>
<path d="M134.071 24.3206V24.3758H134.083L134.071 24.3206Z" fill="#E09886"/>
<path d="M137.574 24.3318V24.387H137.585L137.574 24.3318Z" fill="#8AC1BC"/>
<path d="M160.989 24.4312V24.5968H161L160.989 24.4312Z" fill="#FFD793"/>
<path d="M137.585 24.4641V24.4988H137.597L137.585 24.4641Z" fill="#93C5C1"/>
<path d="M137.597 24.5747V24.6094H137.608L137.597 24.5747Z" fill="#AED3CF"/>
<path d="M160.989 24.5967V24.9722H161L160.989 24.5967Z" fill="#FEC35A"/>
<path d="M137.608 24.6409V24.6961H137.619L137.608 24.6409Z" fill="#9FCBC8"/>
<path d="M134.105 24.6519V24.7071H134.117L134.105 24.6519Z" fill="#EAB7A8"/>
<path d="M137.619 24.7292V24.7734H137.63L137.619 24.7292Z" fill="#A6CFCB"/>
<path d="M137.63 24.8176V24.8523H137.642L137.63 24.8176Z" fill="#80BCB7"/>
<path d="M134.128 24.8618V24.917H134.139L134.128 24.8618Z" fill="#E7B0A1"/>
<path d="M137.642 24.917V24.9517H137.653L137.642 24.917Z" fill="#A0CCC8"/>
<path d="M134.139 24.9612V25.0164H134.15L134.139 24.9612Z" fill="#E5A999"/>
<path d="M160.989 24.9722V25.0716H161L160.989 24.9722Z" fill="#FFD48C"/>
<path d="M137.653 24.9834V25.0181H137.665L137.653 24.9834Z" fill="#8BC1BD"/>
<path d="M137.664 25.0496V25.1048H137.675L137.664 25.0496Z" fill="#AAD1CD"/>
<path d="M160.989 25.0718V25.1601H161L160.989 25.0718Z" fill="#FFE2B3"/>
<path d="M134.15 25.0828V25.1174H134.162L134.15 25.0828Z" fill="#E39F8E"/>
<path d="M137.675 25.127V25.1822H137.687L137.675 25.127Z" fill="#AFD3D0"/>
<path d="M134.162 25.1709V25.2056H134.173L134.162 25.1709Z" fill="#E19A88"/>
<path d="M137.687 25.2041V25.2483H137.698L137.687 25.2041Z" fill="#C6DFDC"/>
<path d="M134.173 25.2263V25.2705H134.184L134.173 25.2263Z" fill="#E5A695"/>
<path d="M137.698 25.2705V25.3147H137.71L137.698 25.2705Z" fill="#C1DDDA"/>
<path d="M160.978 25.2705V25.3368H160.989L160.978 25.2705Z" fill="#FEC96F"/>
<path d="M134.184 25.3147V25.3494H134.196L134.184 25.3147Z" fill="#EDC3B6"/>
<path d="M137.709 25.3367V25.3713H137.721L137.709 25.3367Z" fill="#82BDB9"/>
<path d="M160.978 25.3367V25.425H160.989L160.978 25.3367Z" fill="#FFDEA6"/>
<path d="M134.195 25.3921V25.4473H134.207L134.195 25.3921Z" fill="#E29D8B"/>
<path d="M137.721 25.4031V25.4377H137.732L137.721 25.4031Z" fill="#7FBCB7"/>
<path d="M134.207 25.4692V25.5245H134.218L134.207 25.4692Z" fill="#E29D8C"/>
<path d="M137.732 25.4692V25.5039H137.744L137.732 25.4692Z" fill="#8AC1BC"/>
<path d="M160.966 25.4915V25.5577H160.978L160.966 25.4915Z" fill="#FFD48D"/>
<path d="M137.743 25.5356V25.5703H137.755L137.743 25.5356Z" fill="#98C7C4"/>
<path d="M134.218 25.5466V25.5813H134.229L134.218 25.5466Z" fill="#EDC4B7"/>
<path d="M137.754 25.5908V25.6255H137.766L137.754 25.5908Z" fill="#84BEB9"/>
<path d="M134.229 25.624V25.6587H134.241L134.229 25.624Z" fill="#EAB9AA"/>
<path d="M160.955 25.635V25.7234H160.966L160.955 25.635Z" fill="#FFCA71"/>
<path d="M137.766 25.657V25.6917H137.777L137.766 25.657Z" fill="#90C4C0"/>
<path d="M134.24 25.6902V25.7249H134.252L134.24 25.6902Z" fill="#EDC2B5"/>
<path d="M137.777 25.7122V25.7468H137.789L137.777 25.7122Z" fill="#8DC2BE"/>
<path d="M134.251 25.7676V25.8023H134.263L134.251 25.7676Z" fill="#E9B6A7"/>
<path d="M137.788 25.7676V25.8023H137.8L137.788 25.7676Z" fill="#88C0BC"/>
<path d="M160.944 25.7676V25.8449H160.955L160.944 25.7676Z" fill="#FFCA72"/>
<path d="M137.803 25.8416L137.807 25.8504L137.803 25.8416Z" fill="#A7CFCB"/>
<path d="M137.814 25.8967L137.818 25.9056L137.814 25.8967Z" fill="#A2CCC9"/>
<path d="M134.274 25.9001V25.9348H134.286L134.274 25.9001Z" fill="#E9B7A8"/>
<path d="M137.825 25.9519L137.829 25.9608L137.825 25.9519Z" fill="#A8D0CC"/>
<path d="M134.286 25.9663V26.001H134.297L134.286 25.9663Z" fill="#E9B6A7"/>
<path d="M137.836 26.0071L137.84 26.016L137.836 26.0071Z" fill="#B2D5D2"/>
<path d="M160.921 26.0215V26.0562H160.933L160.921 26.0215Z" fill="#FFD183"/>
<path d="M134.297 26.0325V26.0671H134.309L134.297 26.0325Z" fill="#E8B2A2"/>
<path d="M137.844 26.0437V26.0784H137.856L137.844 26.0437Z" fill="#95C6C2"/>
<path d="M134.308 26.0879V26.1226H134.32L134.308 26.0879Z" fill="#ECC0B2"/>
<path d="M137.859 26.1064L137.863 26.1153L137.859 26.1064Z" fill="#9FCBC7"/>
<path d="M160.91 26.1099V26.154H160.921L160.91 26.1099Z" fill="#FFDA9E"/>
<path d="M134.319 26.1541V26.1887H134.331L134.319 26.1541Z" fill="#E9B4A5"/>
<path d="M137.87 26.1616L137.874 26.1705L137.87 26.1616Z" fill="#AAD1CD"/>
<path d="M137.878 26.1982V26.2329H137.89L137.878 26.1982Z" fill="#9AC9C4"/>
<path d="M160.898 26.1982V26.2424H160.91L160.898 26.1982Z" fill="#FFDA9C"/>
<path d="M134.331 26.2092V26.2439H134.342L134.331 26.2092Z" fill="#EDC3B5"/>
<path d="M137.893 26.2612L137.897 26.2701L137.893 26.2612Z" fill="#B1D4D1"/>
<path d="M134.345 26.2832L134.349 26.2921L134.345 26.2832Z" fill="#E9B4A5"/>
<path d="M160.887 26.2866V26.3213H160.899L160.887 26.2866Z" fill="#FEC96F"/>
<path d="M137.904 26.3054L137.908 26.3143L137.904 26.3054Z" fill="#A1CCC8"/>
<path d="M134.353 26.3308V26.3655H134.365L134.353 26.3308Z" fill="#EAB9AA"/>
<path d="M160.876 26.3638V26.419H160.887L160.876 26.3638Z" fill="#FFDBA0"/>
<path d="M134.364 26.386V26.4207H134.376L134.364 26.386Z" fill="#EBBEB0"/>
<path d="M137.927 26.4048L137.931 26.4137L137.927 26.4048Z" fill="#AAD1CD"/>
<path d="M137.938 26.449L137.942 26.4579L137.938 26.449Z" fill="#A4CECA"/>
<path d="M134.375 26.4521V26.4868H134.387L134.375 26.4521Z" fill="#E5A998"/>
<path d="M137.949 26.4932L137.953 26.5021L137.949 26.4932Z" fill="#9ECBC6"/>
<path d="M134.39 26.5151L134.394 26.524L134.39 26.5151Z" fill="#E6AB9A"/>
<path d="M160.854 26.5186V26.5532H160.865L160.854 26.5186Z" fill="#FFCA72"/>
<path d="M137.96 26.5374L137.964 26.5462L137.96 26.5374Z" fill="#99C8C4"/>
<path d="M134.401 26.5703L134.405 26.5792L134.401 26.5703Z" fill="#E5A796"/>
<path d="M160.842 26.5957V26.6304H160.854L160.842 26.5957Z" fill="#FFD388"/>
<path d="M134.413 26.6257L134.417 26.6346L134.413 26.6257Z" fill="#E4A392"/>
<path d="M134.424 26.6697L134.428 26.6786L134.424 26.6697Z" fill="#EBBBAD"/>
<path d="M160.831 26.6621V26.6968H160.843L160.831 26.6621Z" fill="#FFD185"/>
<path d="M134.432 26.7173V26.752H134.444L134.432 26.7173Z" fill="#E9B7A8"/>
<path d="M160.82 26.7285V26.7632H160.832L160.82 26.7285Z" fill="#FFD389"/>
<path d="M138.017 26.7581L138.021 26.7669L138.017 26.7581Z" fill="#9BC9C5"/>
<path d="M134.447 26.7803L134.451 26.7892L134.447 26.7803Z" fill="#E6AC9C"/>
<path d="M138.028 26.8022L138.032 26.8111L138.028 26.8022Z" fill="#A2CCC9"/>
<path d="M160.809 26.7947V26.8294H160.82L160.809 26.7947Z" fill="#FFD794"/>
<path d="M134.458 26.8354L134.461 26.8443L134.458 26.8354Z" fill="#E3A08F"/>
<path d="M138.039 26.8464L138.043 26.8553L138.039 26.8464Z" fill="#A8D0CC"/>
<path d="M160.801 26.8577L160.805 26.8666L160.801 26.8577Z" fill="#FFCE7E"/>
<path d="M134.466 26.8721V26.9067H134.478L134.466 26.8721Z" fill="#E8B0A0"/>
<path d="M138.05 26.8909L138.054 26.8998L138.05 26.8909Z" fill="#AFD3D0"/>
<path d="M160.79 26.9238L160.794 26.9327L160.79 26.9238Z" fill="#FFDA9C"/>
<path d="M134.48 26.9348L134.484 26.9437L134.48 26.9348Z" fill="#E4A594"/>
<path d="M134.492 26.9792L134.496 26.9881L134.492 26.9792Z" fill="#E9B4A5"/>
<path d="M160.778 26.9792L160.782 26.9881L160.778 26.9792Z" fill="#FFD693"/>
<path d="M138.084 27.0122L138.088 27.0211L138.084 27.0122Z" fill="#B2D5D2"/>
<path d="M134.503 27.0342L134.507 27.0431L134.503 27.0342Z" fill="#E39F8E"/>
<path d="M160.767 27.0342L160.771 27.0431L160.767 27.0342Z" fill="#FFD692"/>
<path d="M134.514 27.0784L134.518 27.0873L134.514 27.0784Z" fill="#E6A999"/>
<path d="M138.107 27.0896L138.111 27.0985L138.107 27.0896Z" fill="#A4CECA"/>
<path d="M160.756 27.0896L160.76 27.0985L160.756 27.0896Z" fill="#FFD795"/>
<path d="M134.525 27.1226L134.529 27.1314L134.525 27.1226Z" fill="#E8B4A4"/>
<path d="M138.118 27.1338L138.122 27.1427L138.118 27.1338Z" fill="#B6D7D4"/>
<path d="M160.744 27.1448L160.748 27.1537L160.744 27.1448Z" fill="#FFD999"/>
<path d="M134.537 27.178L134.541 27.1869L134.537 27.178Z" fill="#E39F8E"/>
<path d="M160.733 27.2L160.737 27.2088L160.733 27.2Z" fill="#FFE0AD"/>
<path d="M134.548 27.2219L134.552 27.2308L134.548 27.2219Z" fill="#E5A796"/>
<path d="M160.722 27.2441L160.726 27.253L160.722 27.2441Z" fill="#FFD692"/>
<path d="M134.559 27.2664L134.563 27.2752L134.559 27.2664Z" fill="#E6AA9A"/>
<path d="M160.71 27.2993L160.714 27.3082L160.71 27.2993Z" fill="#FFDFA9"/>
<path d="M134.57 27.3103L134.574 27.3192L134.57 27.3103Z" fill="#E7AE9E"/>
<path d="M138.174 27.3215L138.178 27.3304L138.174 27.3215Z" fill="#ABD1CD"/>
<path d="M160.699 27.3435L160.703 27.3524L160.699 27.3435Z" fill="#FFD999"/>
<path d="M134.582 27.3545L134.586 27.3634L134.582 27.3545Z" fill="#E8B0A0"/>
<path d="M160.688 27.3877L160.692 27.3966L160.688 27.3877Z" fill="#FFD48A"/>
<path d="M138.197 27.3987L138.201 27.4076L138.197 27.3987Z" fill="#B7D7D4"/>
<path d="M160.677 27.4429L160.681 27.4518L160.677 27.4429Z" fill="#FFE0AE"/>
<path d="M160.666 27.4871L160.67 27.496L160.666 27.4871Z" fill="#FFDFAA"/>
<path d="M160.654 27.5312L160.658 27.5401L160.654 27.5312Z" fill="#FFDEA6"/>
<path d="M138.242 27.5422L138.246 27.5511L138.242 27.5422Z" fill="#B5D6D3"/>
<path d="M134.638 27.5754L134.642 27.5843L134.638 27.5754Z" fill="#E6AC9C"/>
<path d="M160.643 27.5754L160.647 27.5843L160.643 27.5754Z" fill="#FFDCA3"/>
<path d="M134.649 27.6196L134.653 27.6285L134.649 27.6196Z" fill="#E5A998"/>
<path d="M160.632 27.6196L160.636 27.6285L160.632 27.6196Z" fill="#FFDFAA"/>
<path d="M134.661 27.6638L134.665 27.6727L134.661 27.6638Z" fill="#E4A594"/>
<path d="M160.621 27.6638L160.625 27.6727L160.621 27.6638Z" fill="#FFE1B2"/>
<path d="M134.672 27.708L134.676 27.7169L134.672 27.708Z" fill="#E19B8A"/>
<path d="M138.31 27.7522L138.314 27.7611L138.31 27.7522Z" fill="#B7D7D4"/>
<path d="M134.694 27.7854L134.698 27.7943L134.694 27.7854Z" fill="#E6AB9A"/>
<path d="M160.587 27.7854L160.591 27.7943L160.587 27.7854Z" fill="#FFDDA5"/>
<path d="M134.706 27.8296L134.71 27.8385L134.706 27.8296Z" fill="#E39F8E"/>
<path d="M134.739 27.9509L134.743 27.9598L134.739 27.9509Z" fill="#E29D8C"/>
<path d="M134.762 28.0283L134.766 28.0372L134.762 28.0283Z" fill="#E3A190"/>
<path d="M134.784 28.1057L134.788 28.1146L134.784 28.1057Z" fill="#E4A392"/>
<path d="M134.807 28.1829L134.811 28.1918L134.807 28.1829Z" fill="#E39F8E"/>
<path d="M160.429 28.3044L160.433 28.3122L160.429 28.3044ZM160.418 28.3376L160.421 28.3453L160.418 28.3376Z" fill="#FFE1B2"/>
<path d="M134.863 28.3706L134.867 28.3795L134.863 28.3706Z" fill="#E19B89"/>
<path d="M160.406 28.3706L160.41 28.3795L160.406 28.3706Z" fill="#FFE1B0"/>
<path d="M134.987 28.7573L134.991 28.7662L134.987 28.7573Z" fill="#E19A88"/>
<path d="M156.041 30.9617L156.05 30.9657L156.041 30.9617Z" fill="#FFCB73"/>
<path d="M156.154 30.9949L156.163 30.9989L156.154 30.9949Z" fill="#FEC96D"/>
<path d="M158.068 30.9949L158.077 30.9989L158.068 30.9949Z" fill="#FFE1B1"/>
<path d="M156.232 31.0171L156.242 31.0211L156.232 31.0171Z" fill="#FFCA72"/>
<path d="M157.978 31.0171L157.987 31.0211L157.978 31.0171Z" fill="#FFD590"/>
<path d="M156.278 31.0281L156.287 31.0321L156.278 31.0281Z" fill="#FFD081"/>
<path d="M156.323 31.0391L156.332 31.0431L156.323 31.0391Z" fill="#FFD287"/>
<path d="M157.888 31.0391L157.897 31.0431L157.888 31.0391Z" fill="#FFD99A"/>
<path d="M156.36 31.0469V31.0581H156.394L156.36 31.0469Z" fill="#FFD998"/>
<path d="M157.824 31.0469V31.0581H157.858L157.824 31.0469Z" fill="#FFD48B"/>
<path d="M156.416 31.0579V31.0691H156.45L156.416 31.0579Z" fill="#FFDA9D"/>
<path d="M157.768 31.0579V31.0691H157.802L157.768 31.0579Z" fill="#FFD286"/>
<path d="M156.48 31.0723L156.49 31.0763L156.48 31.0723Z" fill="#FFDCA2"/>
<path d="M157.7 31.0688V31.0801H157.735L157.7 31.0688Z" fill="#FFCB73"/>
<path d="M156.54 31.0801V31.0911H156.585L156.54 31.0801Z" fill="#FEC869"/>
<path d="M157.632 31.0801V31.0913H157.667L157.632 31.0801Z" fill="#FFCD79"/>
<path d="M156.608 31.0911V31.1021H156.653L156.608 31.0911Z" fill="#FFD287"/>
<path d="M156.698 31.1021V31.1131H156.777L156.698 31.1021Z" fill="#FFD48E"/>
<path d="M156.844 31.1133V31.1243H156.912L156.844 31.1133Z" fill="#FEC970"/>
<path d="M157.34 31.1133V31.1243H157.407L157.34 31.1133Z" fill="#FFE7C0"/>
<path d="M157.002 31.1243V31.1353H157.227L157.002 31.1243Z" fill="#FFECCE"/>
<path d="M129.176 32.6672L129.18 32.6761L129.176 32.6672Z" fill="#E5A695"/>
<path d="M129.165 32.7114L129.169 32.7203L129.165 32.7114Z" fill="#EAB9AA"/>
<path d="M129.15 32.7698V32.814H129.161L129.15 32.7698Z" fill="#DF9684"/>
<path d="M129.139 32.8472V33.0128H129.15L129.139 32.8472Z" fill="#EEC6B9"/>
<path d="M129.165 33.1421L129.169 33.151L129.165 33.1421Z" fill="#E7B0A1"/>
<path d="M129.176 33.1973L129.18 33.2061L129.176 33.1973Z" fill="#EBBBAD"/>
<path d="M129.187 33.2415L129.191 33.2503L129.187 33.2415Z" fill="#ECC0B2"/>
<path d="M155.095 34.7061L155.104 34.7101L155.095 34.7061Z" fill="#B2D5D2"/>
<path d="M155.208 34.739L155.217 34.743L155.208 34.739Z" fill="#ABD2CE"/>
<path d="M154.865 35.1411L154.869 35.15L154.865 35.1411Z" fill="#AFD3D0"/>
<path d="M133.145 35.1699L133.154 35.1739L133.145 35.1699Z" fill="#E19A88"/>
<path d="M133.178 35.1809L133.186 35.1842L133.178 35.1809ZM133.505 35.2803L133.513 35.2836L133.505 35.2803Z" fill="#E4A391"/>
<path d="M133.618 35.3135L133.627 35.3175L133.618 35.3135Z" fill="#E29E8D"/>
<path d="M133.73 35.3467L133.738 35.35L133.73 35.3467ZM133.843 35.3798L133.85 35.3831L133.843 35.3798Z" fill="#E19A88"/>
<path d="M133.876 35.3906L133.886 35.3946L133.876 35.3906Z" fill="#E6AC9C"/>
<path d="M133.956 35.4128L133.965 35.4168L133.956 35.4128Z" fill="#E4A391"/>
<path d="M134.034 35.4348L134.043 35.4388L134.034 35.4348Z" fill="#E19A88"/>
<path d="M134.147 35.4683L134.156 35.4723L134.147 35.4683Z" fill="#E4A391"/>
<path d="M134.226 35.4902L134.235 35.4942L134.226 35.4902Z" fill="#E29E8D"/>
<path d="M134.305 35.5122L134.314 35.5162L134.305 35.5122Z" fill="#E19A88"/>
<path d="M134.383 35.5344L134.392 35.5384L134.383 35.5344Z" fill="#E29E8D"/>
<path d="M134.462 35.5564L134.47 35.5597L134.462 35.5564ZM134.541 35.5785L134.549 35.5818L134.541 35.5785ZM134.62 35.6006L134.628 35.6039L134.62 35.6006Z" fill="#E4A391"/>
<path d="M134.699 35.6228L134.708 35.6268L134.699 35.6228Z" fill="#E4A392"/>
<path d="M134.823 35.656L134.832 35.66L134.823 35.656Z" fill="#E4A391"/>
<path d="M134.868 35.6667L134.877 35.6707L134.868 35.6667Z" fill="#E19A88"/>
<path d="M134.947 35.689L134.956 35.693L134.947 35.689Z" fill="#E4A391"/>
<path d="M134.992 35.7002L135.001 35.7042L134.992 35.7002Z" fill="#E19A88"/>
<path d="M135.07 35.7222L135.079 35.7262L135.07 35.7222Z" fill="#E4A391"/>
<path d="M135.116 35.7332L135.125 35.7372L135.116 35.7332Z" fill="#E19A88"/>
<path d="M135.149 35.7441L135.159 35.7481L135.149 35.7441Z" fill="#E6AC9C"/>
<path d="M135.194 35.7551L135.203 35.7591L135.194 35.7551Z" fill="#E4A391"/>
<path d="M135.318 35.7883L135.327 35.7923L135.318 35.7883Z" fill="#E6AC9C"/>
<path d="M135.363 35.7996L135.372 35.8036L135.363 35.7996Z" fill="#E3A291"/>
<path d="M135.408 35.8105L135.417 35.8145L135.408 35.8105Z" fill="#E4A391"/>
<path d="M135.454 35.8215L135.463 35.8255L135.454 35.8215Z" fill="#E19A88"/>
<path d="M135.532 35.8438L135.54 35.8471L135.532 35.8438ZM135.577 35.8548L135.585 35.8581L135.577 35.8548Z" fill="#E6AC9C"/>
<path d="M135.623 35.8657L135.632 35.8697L135.623 35.8657Z" fill="#E4A391"/>
<path d="M135.667 35.8767L135.677 35.8807L135.667 35.8767Z" fill="#E19A88"/>
<path d="M135.746 35.8989L135.755 35.9029L135.746 35.8989Z" fill="#E7AE9E"/>
<path d="M135.783 35.9065V35.9175H135.817L135.783 35.9065ZM135.828 35.9175V35.9286H135.862L135.828 35.9175Z" fill="#E7B0A1"/>
<path d="M135.881 35.9321L135.889 35.9354L135.881 35.9321ZM135.926 35.9432L135.934 35.9465L135.926 35.9432ZM135.971 35.9542L135.979 35.9575L135.971 35.9542ZM136.016 35.9653L136.024 35.9686L136.016 35.9653Z" fill="#E6AC9C"/>
<path d="M136.062 35.9763L136.071 35.9803L136.062 35.9763Z" fill="#E4A493"/>
<path d="M136.106 35.9873L136.114 35.9906L136.106 35.9873ZM136.151 35.9983L136.159 36.0017L136.151 35.9983Z" fill="#E5A796"/>
<path d="M136.197 36.0093L136.206 36.0133L136.197 36.0093Z" fill="#E4A391"/>
<path d="M136.242 36.0203L136.251 36.0243L136.242 36.0203Z" fill="#E39F8E"/>
<path d="M136.287 36.0312L136.296 36.0352L136.287 36.0312Z" fill="#E5A796"/>
<path d="M136.332 36.0425L136.341 36.0465L136.332 36.0425Z" fill="#E6AC9C"/>
<path d="M136.369 36.05V36.0613H136.403L136.369 36.05Z" fill="#E7B0A1"/>
<path d="M136.422 36.0645L136.431 36.0685L136.422 36.0645Z" fill="#E9B4A5"/>
<path d="M136.478 36.0757L136.486 36.079L136.478 36.0757ZM136.523 36.0867L136.531 36.09L136.523 36.0867Z" fill="#E19A88"/>
<path d="M136.568 36.0977L136.577 36.1017L136.568 36.0977Z" fill="#E29E8D"/>
<path d="M136.613 36.1086L136.622 36.1126L136.613 36.1086Z" fill="#E4A391"/>
<path d="M136.659 36.1199L136.668 36.1239L136.659 36.1199Z" fill="#E5A796"/>
<path d="M136.704 36.1309L136.713 36.1349L136.704 36.1309Z" fill="#E6AC9C"/>
<path d="M136.749 36.1418L136.758 36.1458L136.749 36.1418Z" fill="#E6AB9B"/>
<path d="M136.805 36.1528L136.814 36.1568L136.805 36.1528Z" fill="#E19A88"/>
<path d="M136.85 36.1641L136.859 36.1681L136.85 36.1641Z" fill="#E4A391"/>
<path d="M136.895 36.175L136.904 36.1791L136.895 36.175Z" fill="#E6AC9C"/>
<path d="M136.94 36.186L136.949 36.19L136.94 36.186Z" fill="#E9B4A5"/>
<path d="M136.997 36.197L137.006 36.201L136.997 36.197Z" fill="#E29E8D"/>
<path d="M137.042 36.208L137.051 36.212L137.042 36.208Z" fill="#E5A796"/>
<path d="M137.079 36.2158V36.2271H137.113L137.079 36.2158Z" fill="#E9B4A5"/>
<path d="M137.143 36.2302L137.152 36.2342L137.143 36.2302Z" fill="#E29E8D"/>
<path d="M137.188 36.2412L137.197 36.2452L137.188 36.2412Z" fill="#E5A796"/>
<path d="M137.225 36.249V36.2603H137.259L137.225 36.249Z" fill="#E7B0A1"/>
<path d="M137.278 36.2632L137.287 36.2672L137.278 36.2632Z" fill="#E9B5A6"/>
<path d="M137.326 36.271V36.2822H137.361L137.326 36.271Z" fill="#E5A796"/>
<path d="M137.372 36.282V36.2932H137.406L137.372 36.282Z" fill="#EAB9AA"/>
<path d="M137.428 36.2932V36.3045H137.462L137.428 36.2932Z" fill="#E5A796"/>
<path d="M137.473 36.3042V36.3155H137.507L137.473 36.3042Z" fill="#EAB9AA"/>
<path d="M137.537 36.3186L137.546 36.3226L137.537 36.3186Z" fill="#E4A594"/>
<path d="M137.574 36.3262V36.3374H137.609L137.574 36.3262Z" fill="#EAB9AA"/>
<path d="M137.63 36.3374V36.3487H137.665L137.63 36.3374Z" fill="#E5A796"/>
<path d="M137.675 36.3484V36.3596H137.71L137.675 36.3484Z" fill="#EAB9AA"/>
<path d="M137.732 36.3594V36.3706H137.766L137.732 36.3594Z" fill="#E5A796"/>
<path d="M137.777 36.3704V36.3816H137.811L137.777 36.3704Z" fill="#EAB9AA"/>
<path d="M137.841 36.3848L137.85 36.3888L137.841 36.3848Z" fill="#E4A595"/>
<path d="M137.897 36.3958L137.907 36.3998L137.897 36.3958Z" fill="#E4A391"/>
<path d="M137.935 36.4036V36.4148H137.969L137.935 36.4036Z" fill="#EAB9AA"/>
<path d="M137.991 36.4146V36.4258H138.025L137.991 36.4146Z" fill="#E7B0A1"/>
<path d="M138.047 36.4258V36.437H138.082L138.047 36.4258Z" fill="#E5A796"/>
<path d="M138.111 36.4399L138.12 36.4439L138.111 36.4399Z" fill="#E29E8D"/>
<path d="M138.156 36.4512L138.165 36.4552L138.156 36.4512Z" fill="#E9B4A5"/>
<path d="M138.213 36.4622L138.222 36.4662L138.213 36.4622Z" fill="#E7B0A1"/>
<path d="M138.269 36.4731L138.278 36.4771L138.269 36.4731Z" fill="#E5A796"/>
<path d="M138.314 36.4841L138.323 36.4881L138.314 36.4841Z" fill="#E9B5A6"/>
<path d="M138.37 36.4951L138.379 36.4991L138.37 36.4951Z" fill="#E7AE9E"/>
<path d="M138.419 36.5029V36.514H138.453L138.419 36.5029ZM138.475 36.514V36.525H138.509L138.475 36.514ZM138.532 36.525V36.5361H138.565L138.532 36.525ZM138.588 36.5361V36.5471H138.622L138.588 36.5361Z" fill="#E7B0A1"/>
<path d="M151.818 36.5393L151.827 36.5433L151.818 36.5393Z" fill="#B3D5D2"/>
<path d="M138.652 36.5505L138.661 36.5545L138.652 36.5505Z" fill="#E7B0A1"/>
<path d="M146.006 36.5505L146.015 36.5545L146.006 36.5505Z" fill="#82BDB9"/>
<path d="M138.708 36.5615L138.716 36.5648L138.708 36.5615ZM138.765 36.5726L138.773 36.5759L138.765 36.5726ZM138.821 36.5836L138.829 36.5869L138.821 36.5836ZM138.877 36.5947L138.885 36.598L138.877 36.5947Z" fill="#E5A796"/>
<path d="M138.934 36.6057L138.943 36.6097L138.934 36.6057Z" fill="#E4A393"/>
<path d="M146.198 36.6057L146.207 36.6097L146.198 36.6057Z" fill="#82BDB9"/>
<path d="M151.592 36.6057L151.601 36.6097L151.592 36.6057Z" fill="#ACD2CE"/>
<path d="M138.971 36.6135V36.6248H139.005L138.971 36.6135Z" fill="#EFC7BA"/>
<path d="M139.038 36.6245V36.6358H139.072L139.038 36.6245Z" fill="#E7B0A1"/>
<path d="M146.277 36.6277L146.286 36.6317L146.277 36.6277Z" fill="#7DBBB6"/>
<path d="M139.095 36.6355V36.6468H139.129L139.095 36.6355Z" fill="#EAB9AA"/>
<path d="M139.151 36.6465V36.6577H139.185L139.151 36.6465Z" fill="#EBBCAE"/>
<path d="M139.218 36.6577V36.669H139.253L139.218 36.6577Z" fill="#E7B0A1"/>
<path d="M151.39 36.6609L151.399 36.6649L151.39 36.6609Z" fill="#ACD2CE"/>
<path d="M139.275 36.6687V36.68H139.309L139.275 36.6687Z" fill="#E9B4A5"/>
<path d="M146.445 36.6719L146.454 36.6759L146.445 36.6719Z" fill="#81BDB8"/>
<path d="M151.345 36.6719L151.354 36.6759L151.345 36.6719Z" fill="#AAD1CD"/>
<path d="M139.339 36.6831L139.348 36.6871L139.339 36.6831Z" fill="#EAB9AA"/>
<path d="M146.491 36.6831L146.5 36.6871L146.491 36.6831Z" fill="#88C0BC"/>
<path d="M139.406 36.6941L139.415 36.6981L139.406 36.6941Z" fill="#E5A796"/>
<path d="M146.536 36.6941L146.545 36.6981L146.536 36.6941Z" fill="#88C0BC"/>
<path d="M139.455 36.7019V36.7132H139.489L139.455 36.7019Z" fill="#E7B0A1"/>
<path d="M146.581 36.7051L146.59 36.7091L146.581 36.7051Z" fill="#8DC3BE"/>
<path d="M139.511 36.7129V36.7241H139.546L139.511 36.7129Z" fill="#E8B1A1"/>
<path d="M146.626 36.7161L146.635 36.7201L146.626 36.7161Z" fill="#8AC0BC"/>
<path d="M151.165 36.7161L151.174 36.7201L151.165 36.7161Z" fill="#9AC9C5"/>
<path d="M139.579 36.7239V36.7351H139.613L139.579 36.7239Z" fill="#E6AC9C"/>
<path d="M146.671 36.7271L146.68 36.731L146.671 36.7271Z" fill="#A0CCC8"/>
<path d="M151.112 36.7239V36.7351H151.146L151.112 36.7239Z" fill="#9AC9C4"/>
<path d="M139.643 36.7383L139.652 36.7423L139.643 36.7383Z" fill="#EAB9AA"/>
<path d="M146.727 36.7383L146.736 36.7423L146.727 36.7383Z" fill="#82BDB9"/>
<path d="M139.691 36.7461V36.7573H139.726L139.691 36.7461Z" fill="#EFC7BA"/>
<path d="M146.772 36.7493L146.781 36.7533L146.772 36.7493Z" fill="#8DC3BE"/>
<path d="M151.029 36.7493L151.038 36.7533L151.029 36.7493Z" fill="#AED3CF"/>
<path d="M139.759 36.7571V36.7683H139.793L139.759 36.7571Z" fill="#EBBEB0"/>
<path d="M146.817 36.7603L146.826 36.7643L146.817 36.7603Z" fill="#A0CCC8"/>
<path d="M150.973 36.7603L150.982 36.7643L150.973 36.7603Z" fill="#98C7C4"/>
<path d="M139.827 36.7681V36.7793H139.861L139.827 36.7681Z" fill="#E7B0A1"/>
<path d="M146.866 36.7681V36.7793H146.9L146.866 36.7681Z" fill="#9AC9C4"/>
<path d="M150.92 36.7681V36.7793H150.954L150.92 36.7681Z" fill="#A6CFCB"/>
<path d="M139.891 36.7825L139.9 36.7865L139.891 36.7825Z" fill="#EDC2B5"/>
<path d="M146.93 36.7825L146.939 36.7865L146.93 36.7825Z" fill="#8EC3BF"/>
<path d="M150.872 36.7825L150.881 36.7865L150.872 36.7825Z" fill="#94C6C2"/>
<path d="M139.958 36.7935L139.968 36.7975L139.958 36.7935Z" fill="#EAB9AA"/>
<path d="M146.986 36.7935L146.995 36.7975L146.986 36.7935Z" fill="#86BFBA"/>
<path d="M150.808 36.79V36.8013H150.842L150.808 36.79Z" fill="#8AC1BC"/>
<path d="M140.018 36.8013V36.8125H140.052L140.018 36.8013Z" fill="#E6AC9C"/>
<path d="M140.086 36.8013L140.074 36.8243H140.098L140.086 36.8013Z" fill="#EAB9AA"/>
<path d="M147.035 36.8013V36.8125H147.069L147.035 36.8013Z" fill="#8DC3BE"/>
<path d="M150.762 36.8013V36.8125H150.797L150.762 36.8013Z" fill="#A6CFCB"/>
<path d="M147.091 36.8123V36.8235H147.125L147.091 36.8123Z" fill="#9AC9C4"/>
<path d="M150.714 36.8154L150.723 36.8194L150.714 36.8154Z" fill="#A0CCC8"/>
<path d="M147.155 36.8267L147.164 36.8307L147.155 36.8267Z" fill="#9AC9C4"/>
<path d="M150.658 36.8267L150.667 36.8307L150.658 36.8267Z" fill="#A3CDC9"/>
<path d="M147.215 36.8342V36.8455H147.249L147.215 36.8342Z" fill="#94C6C2"/>
<path d="M150.582 36.8342V36.8455H150.616L150.582 36.8342Z" fill="#88C0BC"/>
<path d="M147.271 36.8455V36.8567H147.305L147.271 36.8455Z" fill="#ACD2CE"/>
<path d="M150.458 36.8564V36.8677H150.493L150.458 36.8564Z" fill="#8AC0BC"/>
<path d="M147.406 36.8674V36.8785H147.451L147.406 36.8674Z" fill="#70B5B0"/>
<path d="M150.391 36.8674V36.8787H150.425L150.391 36.8674Z" fill="#88C0BC"/>
<path d="M147.474 36.8784V36.8895H147.53L147.474 36.8784Z" fill="#7CBBB5"/>
<path d="M150.323 36.8784V36.8897H150.358L150.323 36.8784Z" fill="#88C0BC"/>
<path d="M150.245 36.8896V36.9009H150.279L150.245 36.8896Z" fill="#7DBBB6"/>
<path d="M147.631 36.9006V36.9117H147.688L147.631 36.9006Z" fill="#7CBBB5"/>
<path d="M147.71 36.9116V36.9229H147.745L147.71 36.9116Z" fill="#B3D5D2"/>
<path d="M150.087 36.9116V36.9227H150.143L150.087 36.9116Z" fill="#ACD2CE"/>
<path d="M148.104 36.9558V36.9669H148.195L148.104 36.9558Z" fill="#B2D5D2"/>
<path d="M149.704 36.9558V36.9669H149.76L149.704 36.9558Z" fill="#B7D7D4"/>
<path d="M148.24 36.9668V36.9778H148.319L148.24 36.9668Z" fill="#A7CFCB"/>
<path d="M149.558 36.9668V36.9778H149.648L149.558 36.9668Z" fill="#B5D7D3"/>
<path d="M148.397 36.978V36.9891H148.533L148.397 36.978Z" fill="#92C5C1"/>
<path d="M149.343 36.978V36.9891H149.422L149.343 36.978Z" fill="#87BFBB"/>
<path d="M149.422 36.978V36.9891H149.479L149.422 36.978Z" fill="#C6DFDC"/>
<path d="M148.6 36.989V37H148.701L148.6 36.989Z" fill="#C5DFDC"/>
<path d="M148.701 36.9889V36.9999H149.231C149.093 36.9447 148.851 36.9889 148.701 36.9889Z" fill="#7CBBB5"/>
</g>
<path d="M5.076 53.836C4.548 53.836 4.104 53.668 3.744 53.332C3.408 52.972 3.24 52.528 3.24 52V34.72C3.24 34.168 3.408 33.724 3.744 33.388C4.104 33.052 4.548 32.884 5.076 32.884C5.628 32.884 6.072 33.052 6.408 33.388C6.744 33.724 6.912 34.168 6.912 34.72V52C6.912 52.528 6.744 52.972 6.408 53.332C6.072 53.668 5.628 53.836 5.076 53.836ZM19.872 61.036C19.344 61.036 18.9 60.868 18.54 60.532C18.204 60.172 18.036 59.728 18.036 59.2V50.344C18.036 48.976 17.784 47.86 17.28 46.996C16.776 46.132 16.092 45.496 15.228 45.088C14.388 44.656 13.416 44.44 12.312 44.44C11.304 44.44 10.392 44.644 9.576 45.052C8.76 45.46 8.112 46.012 7.632 46.708C7.152 47.38 6.912 48.16 6.912 49.048H4.644C4.644 47.536 5.004 46.192 5.724 45.016C6.468 43.816 7.476 42.868 8.748 42.172C10.02 41.476 11.448 41.128 13.032 41.128C14.688 41.128 16.164 41.488 17.46 42.208C18.78 42.904 19.812 43.936 20.556 45.304C21.324 46.672 21.708 48.352 21.708 50.344V59.2C21.708 59.728 21.528 60.172 21.168 60.532C20.832 60.868 20.4 61.036 19.872 61.036ZM5.076 61.036C4.548 61.036 4.104 60.868 3.744 60.532C3.408 60.172 3.24 59.728 3.24 59.2V43.144C3.24 42.592 3.408 42.148 3.744 41.812C4.104 41.476 4.548 41.308 5.076 41.308C5.628 41.308 6.072 41.476 6.408 41.812C6.744 42.148 6.912 42.592 6.912 43.144V59.2C6.912 59.728 6.744 60.172 6.408 60.532C6.072 60.868 5.628 61.036 5.076 61.036ZM36.0942 61.18C34.4382 61.18 32.9502 60.832 31.6302 60.136C30.3342 59.416 29.3022 58.372 28.5342 57.004C27.7902 55.636 27.4182 53.956 27.4182 51.964V43.108C27.4182 42.58 27.5862 42.148 27.9222 41.812C28.2822 41.452 28.7262 41.272 29.2542 41.272C29.7822 41.272 30.2142 41.452 30.5502 41.812C30.9102 42.148 31.0902 42.58 31.0902 43.108V51.964C31.0902 53.308 31.3422 54.424 31.8462 55.312C32.3502 56.176 33.0342 56.824 33.8982 57.256C34.7622 57.664 35.7342 57.868 36.8142 57.868C37.8462 57.868 38.7582 57.664 39.5502 57.256C40.3662 56.848 41.0142 56.296 41.4942 55.6C41.9742 54.904 42.2142 54.124 42.2142 53.26H44.4822C44.4822 54.748 44.1102 56.092 43.3662 57.292C42.6462 58.492 41.6502 59.44 40.3782 60.136C39.1302 60.832 37.7022 61.18 36.0942 61.18ZM44.0502 61C43.5222 61 43.0782 60.832 42.7182 60.496C42.3822 60.136 42.2142 59.692 42.2142 59.164V43.108C42.2142 42.556 42.3822 42.112 42.7182 41.776C43.0782 41.44 43.5222 41.272 44.0502 41.272C44.6022 41.272 45.0462 41.44 45.3822 41.776C45.7182 42.112 45.8862 42.556 45.8862 43.108V59.164C45.8862 59.692 45.7182 60.136 45.3822 60.496C45.0462 60.832 44.6022 61 44.0502 61ZM78.2013 61.036C77.6733 61.036 77.2293 60.868 76.8693 60.532C76.5333 60.172 76.3653 59.728 76.3653 59.2V48.904C76.3653 47.392 75.9933 46.276 75.2493 45.556C74.5053 44.812 73.5333 44.44 72.3333 44.44C71.0853 44.44 70.0533 44.872 69.2373 45.736C68.4453 46.6 68.0493 47.704 68.0493 49.048H65.0613C65.0613 47.488 65.3973 46.12 66.0693 44.944C66.7413 43.744 67.6773 42.808 68.8773 42.136C70.1013 41.464 71.4933 41.128 73.0533 41.128C74.4213 41.128 75.6333 41.428 76.6893 42.028C77.7453 42.628 78.5613 43.516 79.1373 44.692C79.7373 45.844 80.0373 47.248 80.0373 48.904V59.2C80.0373 59.728 79.8693 60.172 79.5333 60.532C79.1973 60.868 78.7533 61.036 78.2013 61.036ZM54.1893 61.036C53.6613 61.036 53.2173 60.868 52.8573 60.532C52.5213 60.172 52.3533 59.728 52.3533 59.2V43.18C52.3533 42.628 52.5213 42.184 52.8573 41.848C53.2173 41.512 53.6613 41.344 54.1893 41.344C54.7413 41.344 55.1853 41.512 55.5213 41.848C55.8573 42.184 56.0253 42.628 56.0253 43.18V59.2C56.0253 59.728 55.8573 60.172 55.5213 60.532C55.1853 60.868 54.7413 61.036 54.1893 61.036ZM66.2133 61.036C65.6853 61.036 65.2413 60.868 64.8813 60.532C64.5453 60.172 64.3773 59.728 64.3773 59.2V48.904C64.3773 47.392 64.0053 46.276 63.2613 45.556C62.5173 44.812 61.5453 44.44 60.3453 44.44C59.0973 44.44 58.0653 44.872 57.2493 45.736C56.4333 46.6 56.0253 47.704 56.0253 49.048H53.7573C53.7573 47.488 54.0693 46.12 54.6933 44.944C55.3173 43.744 56.1813 42.808 57.2853 42.136C58.3893 41.464 59.6493 41.128 61.0653 41.128C62.4333 41.128 63.6453 41.428 64.7013 42.028C65.7573 42.628 66.5733 43.516 67.1493 44.692C67.7493 45.844 68.0493 47.248 68.0493 48.904V59.2C68.0493 59.728 67.8813 60.172 67.5453 60.532C67.2093 60.868 66.7653 61.036 66.2133 61.036ZM96.0384 61.144C94.1664 61.144 92.4864 60.712 90.9984 59.848C89.5104 58.96 88.3344 57.76 87.4704 56.248C86.6064 54.736 86.1624 53.032 86.1384 51.136V34.72C86.1384 34.168 86.3064 33.724 86.6424 33.388C87.0024 33.052 87.4464 32.884 87.9744 32.884C88.5264 32.884 88.9704 33.052 89.3064 33.388C89.6424 33.724 89.8104 34.168 89.8104 34.72V44.44C90.6504 43.432 91.6584 42.64 92.8344 42.064C94.0344 41.464 95.3424 41.164 96.7584 41.164C98.5104 41.164 100.082 41.608 101.474 42.496C102.866 43.36 103.958 44.548 104.75 46.06C105.566 47.548 105.974 49.24 105.974 51.136C105.974 53.032 105.53 54.736 104.642 56.248C103.778 57.76 102.602 58.96 101.114 59.848C99.6264 60.712 97.9344 61.144 96.0384 61.144ZM96.0384 57.904C97.2624 57.904 98.3544 57.616 99.3144 57.04C100.274 56.44 101.03 55.624 101.582 54.592C102.158 53.56 102.446 52.408 102.446 51.136C102.446 49.84 102.158 48.688 101.582 47.68C101.03 46.672 100.274 45.88 99.3144 45.304C98.3544 44.704 97.2624 44.404 96.0384 44.404C94.8384 44.404 93.7464 44.704 92.7624 45.304C91.8024 45.88 91.0464 46.672 90.4944 47.68C89.9424 48.688 89.6664 49.84 89.6664 51.136C89.6664 52.408 89.9424 53.56 90.4944 54.592C91.0464 55.624 91.8024 56.44 92.7624 57.04C93.7464 57.616 94.8384 57.904 96.0384 57.904ZM116.131 61C115.075 61 114.139 60.712 113.323 60.136C112.507 59.56 111.871 58.78 111.415 57.796C110.959 56.788 110.731 55.636 110.731 54.34V34.684C110.731 34.156 110.899 33.724 111.235 33.388C111.571 33.052 112.003 32.884 112.531 32.884C113.059 32.884 113.491 33.052 113.827 33.388C114.163 33.724 114.331 34.156 114.331 34.684V54.34C114.331 55.228 114.499 55.96 114.835 56.536C115.171 57.112 115.603 57.4 116.131 57.4H117.031C117.511 57.4 117.895 57.568 118.183 57.904C118.495 58.24 118.651 58.672 118.651 59.2C118.651 59.728 118.423 60.16 117.967 60.496C117.511 60.832 116.923 61 116.203 61H116.131ZM130.406 61.144C128.414 61.144 126.638 60.724 125.078 59.884C123.542 59.02 122.33 57.844 121.442 56.356C120.578 54.844 120.146 53.116 120.146 51.172C120.146 49.204 120.554 47.476 121.37 45.988C122.21 44.476 123.362 43.3 124.826 42.46C126.29 41.596 127.97 41.164 129.866 41.164C131.738 41.164 133.346 41.584 134.69 42.424C136.034 43.24 137.054 44.38 137.75 45.844C138.47 47.284 138.83 48.952 138.83 50.848C138.83 51.304 138.674 51.688 138.362 52C138.05 52.288 137.654 52.432 137.174 52.432H122.666V49.552H137.066L135.59 50.56C135.566 49.36 135.326 48.292 134.87 47.356C134.414 46.396 133.766 45.64 132.926 45.088C132.086 44.536 131.066 44.26 129.866 44.26C128.498 44.26 127.322 44.56 126.338 45.16C125.378 45.76 124.646 46.588 124.142 47.644C123.638 48.676 123.386 49.852 123.386 51.172C123.386 52.492 123.686 53.668 124.286 54.7C124.886 55.732 125.714 56.548 126.77 57.148C127.826 57.748 129.038 58.048 130.406 58.048C131.15 58.048 131.906 57.916 132.674 57.652C133.466 57.364 134.102 57.04 134.582 56.68C134.942 56.416 135.326 56.284 135.734 56.284C136.166 56.26 136.538 56.38 136.85 56.644C137.258 57.004 137.474 57.4 137.498 57.832C137.522 58.264 137.33 58.636 136.922 58.948C136.106 59.596 135.086 60.124 133.862 60.532C132.662 60.94 131.51 61.144 130.406 61.144Z" fill="#273445"/>
<defs>
<clipPath id="clip0_89_404">
<rect width="43" height="37" fill="white" transform="translate(118)"/>
</clipPath>
</defs>
</svg>
