<svg width="18" height="18" viewBox="0 0 18 18" fill="none" xmlns="http://www.w3.org/2000/svg">
<path d="M3.62 7.79C5.06687 10.6266 7.37344 12.9331 10.21 14.38L12.41 12.18C12.5383 12.0515 12.6991 11.9603 12.8753 11.9162C13.0515 11.8722 13.2363 11.8769 13.41 11.93C14.5683 12.3115 15.7805 12.5039 17 12.5C17.2652 12.5 17.5196 12.6054 17.7071 12.7929C17.8946 12.9804 18 13.2348 18 13.5V17C18 17.2652 17.8946 17.5196 17.7071 17.7071C17.5196 17.8946 17.2652 18 17 18C12.4913 18 8.1673 16.2089 4.97918 13.0208C1.79107 9.8327 0 5.50868 0 1C0 0.734784 0.105357 0.48043 0.292893 0.292893C0.48043 0.105357 0.734784 0 1 0H4.5C4.76522 0 5.01957 0.105357 5.20711 0.292893C5.39464 0.48043 5.5 0.734784 5.5 1C5.49821 2.2128 5.69065 3.41806 6.07 4.57C6.12305 4.74367 6.12782 4.92852 6.08377 5.10469C6.03973 5.28087 5.94854 5.44172 5.82 5.57L3.62 7.79Z" fill="white"/>
</svg>
